<?xml version="1.0" encoding="UTF-8"?>
<svg width="24px" height="24px" viewBox="0 0 24 24" version="1.1" xmlns="http://www.w3.org/2000/svg" xmlns:xlink="http://www.w3.org/1999/xlink">
    <title>Settings</title>
    <g id="Settings" stroke="none" stroke-width="1" fill="none" fill-rule="evenodd">
        <path d="M12,15 C13.6569,15 15,13.6569 15,12 C15,10.3431 13.6569,9 12,9 C10.3431,9 9,10.3431 9,12 C9,13.6569 10.3431,15 12,15 Z" stroke="#000000" stroke-width="1.5" stroke-linecap="round" stroke-linejoin="round"></path>
        <path d="M14.1213,3.87868 L15.2929,2.70711 C15.6834,2.31658 16.3166,2.31658 16.7071,2.70711 L21.2929,7.29289 C21.6834,7.68342 21.6834,8.31658 21.2929,8.70711 L20.1213,9.87868 C20.6839,11.1654 21,12.5783 21,14.0625 C21,15.5467 20.6839,16.9596 20.1213,18.2463 L21.2929,19.4179 C21.6834,19.8084 21.6834,20.4416 21.2929,20.8321 L16.7071,25.4179 C16.3166,25.8084 15.6834,25.8084 15.2929,25.4179 L14.1213,24.2463 C12.8346,24.8089 11.4217,25.125 9.9375,25.125 C8.4533,25.125 7.0404,24.8089 5.75368,24.2463 L4.58211,25.4179 C4.19158,25.8084 3.55842,25.8084 3.16789,25.4179 L-1.41789,20.8321 C-1.80842,20.4416 -1.80842,19.8084 -1.41789,19.4179 L-0.246322,18.2463 C-0.808945,16.9596 -1.125,15.5467 -1.125,14.0625 C-1.125,12.5783 -0.808945,11.1654 -0.246322,9.87868 L-1.41789,8.70711 C-1.80842,8.31658 -1.80842,7.68342 -1.41789,7.29289 L3.16789,2.70711 C3.55842,2.31658 4.19158,2.31658 4.58211,2.70711 L5.75368,3.87868 C7.0404,3.31606 8.4533,3 9.9375,3 C11.4217,3 12.8346,3.31606 14.1213,3.87868 Z" stroke="#000000" stroke-width="1.5" stroke-linecap="round" stroke-linejoin="round" transform="translate(9.937, 14.062) scale(1, -1) translate(-9.937, -14.062)"></path>
    </g>
</svg>
