<?xml version="1.0" encoding="utf-8"?>
<!-- Generator: Adobe Illustrator 27.2.0, SVG Export Plug-In . SVG Version: 6.00 Build 0)  -->
<svg version="1.1" id="Warstwa_1" xmlns="http://www.w3.org/2000/svg" xmlns:xlink="http://www.w3.org/1999/xlink" x="0px" y="0px"
	 width="160px" height="136px" viewBox="0 0 160 136" style="enable-background:new 0 0 160 136;" xml:space="preserve">
<path style="fill-rule:evenodd;clip-rule:evenodd;fill:#F5F5F5;" d="M41.6548996,112.1429977
	C39.0840988,112.1429977,37,110.0589981,37,107.487999s2.0840988-4.6549988,4.6548996-4.6549988h3.0760002
	c2.1460991-0.7060013,3.675602-2.5390015,3.675602-4.6902008c0-2.694397-2.4006004-4.891098-5.4065018-4.9961014v-0.0038986h2
	c-3.3137016,0-6-2.6863022-6-6s2.6862984-6,6-6h14v-0.004303c3.3358994-0.1154938,6-2.5317993,6-5.495697
	s-2.6641006-5.3801956-6-5.495697v-0.004303H33c-3.3136997,0-6-2.6863022-6-6s2.6863003-6,6-6h-1v-0.0046997
	c2.8021011-0.1259995,5.0400009-2.761898,5.0400009-5.9953003c0-3.2332993-2.2378998-5.8693008-5.0400009-5.9953003v-0.0046997
	c-3.3136997,0-6-2.6862984-6-6c0-3.3136978,2.6863003-6,6-6h10.2855988v-0.0032997
	c2.0016022-0.0900002,3.6000023-1.9729004,3.6000023-4.2824001s-1.5984001-4.1924-3.6000023-4.282299v-0.0034008
	C39.9187012,25.5713997,38,23.6525993,38,21.2856998S39.9188004,17,42.2857018,17h46.4286003
	C91.0811996,17,93,18.9188004,93,21.2856998s-1.9188004,4.2856998-4.2856979,4.2856998h-5.5715027v0.0034008
	c-2.001503,0.0898991-3.5999985,1.9727993-3.5999985,4.282299s1.5984955,4.1924,3.5999985,4.2824001v0.0032997H97
	c3.314003,0,6,2.6863022,6,6c0,3.3137016-2.685997,6-6,6h-7.8000031v0.0046997
	c-2.8020935,0.1259995-5.0399933,2.762001-5.0399933,5.9953003c0,3.2334023,2.2378998,5.8693008,5.0399933,5.9953003v0.0046997H137
	c3.3139954,0,6,2.6863022,6,6s-2.6860046,6-6,6h-7v0.004303c-3.3359985,0.1155014-6,2.5317993-6,5.495697
	s2.6640015,5.3802032,6,5.495697v0.004303h-1c3.3139954,0,6,2.6863022,6,6s-2.6860046,6-6,6H81v0.0038986
	c-3.0058975,0.1050034-5.4065018,2.3017044-5.4065018,4.9961014c0,2.1511993,1.5295029,3.9841995,3.6755981,4.6902008h7.383606
	c2.5708008,0,4.6548996,2.0839996,4.6548996,4.6549988s-2.0840988,4.6549988-4.6548996,4.6549988H41.6548996z"/>
<path style="fill:#F5F5F5;" d="M97,100c0,1.6569977,1.3431015,3,3,3h15c1.6569977,0,3-1.3430023,3-3c0-1.6568985-1.3430023-3-3-3
	h-15C98.3431015,97,97,98.3431015,97,100z"/>
<path style="fill:#F5F5F5;" d="M112,41.1427994c0,2.7614021,2.2389984,5,5,5h17c2.7610016,0,5-2.2385979,5-5
	c0-2.7613983-2.2389984-5-5-5h-17C114.2389984,36.1427994,112,38.3814011,112,41.1427994z"/>
<path style="fill:#F5F5F5;" d="M19,92.6427994c0,2.4852982,2.0146999,4.5,4.5,4.5h8.3076992
	c2.4853001,0,4.5000019-2.0147018,4.5000019-4.5s-2.0147018-4.5-4.5000019-4.5H23.5
	C21.0146999,88.1427994,19,90.1575012,19,92.6427994z"/>
<path style="fill:#E5E5E5;" d="M80.0002975,107c21.5397034,0,39.0007019-17.4608994,39.0007019-39s-17.4609985-39-39.0007019-39
	C58.4609985,29,41,46.4608994,41,68S58.4609985,107,80.0002975,107z"/>
<path style="fill:#FFFFFF;" d="M80.0002975,106c20.986702,0,38.0007019-17.0131989,38.0007019-38s-17.0139999-38-38.0007019-38
	C59.0133018,30,42,47.0131989,42,68S59.0133018,106,80.0002975,106z"/>
<path style="fill:#EDEDED;" d="M103.9990005,98.4583969V88.3102036c-1.6169968-0.907402-3.3150024-1.5924072-4.9997025-2.1436005
	v7.1210938c0.2569046,0.2273026,0.5007019,0.4465027,0.7266998,0.6520996
	c0.4920044,0.4476013,0.9080048,0.8382034,1.2020035,1.1176071c0.1469955,0.1397934,0.2630005,0.2521973,0.3440018,0.3302002
	l0.0939941,0.0906982l0.0250015,0.024498l0.0090027,0.0087967l0.0319977,0.0314026l0.0289993,0.031601L100,96.9402008
	c0.0350037,0.0389023-1.245903-2.7424011,0.9280014,0v-0.1616974C98.7437973,94.0775986,100.0360031,96.9789963,100,96.9402008
	c1.4609985-1.3656006,1.461998-1.3647995,1.461998-1.3647995l0.0009995,0.0014954l0.0050049,0.0048065l0.0159988,0.0168991
	l0.0579987,0.0625992c0.0500031,0.0543976,0.1230011,0.1335983,0.2160034,0.2360992
	c0.1869965,0.2050018,0.4559937,0.5031967,0.7899933,0.8812027
	C102.9469986,97.2309036,103.4410019,97.7985001,103.9990005,98.4583969z"/>
<path style="fill:#999999;" d="M111.9840012,83.566803c0.6469955,0.4846954,1.3139954,1.0307999,1.9430008,1.5685959
	c-2.1269989,4.2021027-5.0110016,7.9556046-8.4729996,11.0808029c-0.0860062-0.1054993-0.1700058-0.2096024-0.2540054-0.3122025
	c-1.0539932-1.2923965-1.9839935-2.3696976-2.6520004-3.1254959c-0.3339996-0.378006-0.6029968-0.6762009-0.7899933-0.8812027
	c-0.0930023-0.1025009-0.1660004-0.1817017-0.2160034-0.2360992l-0.0579987-0.0625992l-0.0159988-0.0168991l-0.0050049-0.0048065
	l-0.0009995-0.0014954c0,0-0.0009995-0.0008011-1.461998,1.3647995l1.4609985-1.3656006l-0.0289993-0.031601l-0.0319977-0.0314026
	L101.3909988,91.5028l-0.0250015-0.024498l-0.0939941-0.0906982c-0.0810013-0.0780029-0.1970062-0.1904068-0.3440018-0.3302002
	c-0.2939987-0.2794037-0.7099991-0.6700058-1.2020035-1.1176071c-0.9757004-0.8875961-2.2835007-2.0297928-3.5419006-2.9731979
	c-3.037796-2.2776947-6.5079956-3.469902-9.5542984-4.2857971c-1.0554962-0.2826996-2.105896-0.5312042-3.0656967-0.7582016
	c-0.4122009-0.097496-0.8077011-0.1911011-1.1797028-0.2817001c-1.1987-0.2919998-2.1667023-0.5562973-2.9253006-0.8513031
	c-0.0307007-0.0833969-0.0661011-0.2150955-0.0918961-0.4000931c-0.0173035-0.1240997-0.0272064-0.2499008-0.0321045-0.3694
	c0.0769043-0.0854034,0.1610031-0.1794052,0.2514038-0.2809067c0.455101-0.5112,1.0732956-1.2180939,1.7220001-1.9974976
	c0.6460953-0.7761993,1.3367996-1.6415024,1.9308014-2.4666977c0.5674973-0.7884979,1.1432953-1.6710052,1.4606934-2.4516983
	c1.4979019-3.6833038,3.0681-7.8840027,3.3711014-12.1994019c0.1334-1.9003029,0.1932983-3.5056-0.0794983-5.0965004
	c-0.280098-1.6337013-0.8865967-3.1290016-1.9017029-4.9043999c-2.3386993-4.0900993-6.822998-7.1072998-11.495697-8.1879997
	c2.8395996-2.514801,5.6953964-2.4580002,6.7095032-2.4379005C81.3797989,39.9986992,81.4455032,40,81.5,40
	c0.2200012,0,0.5708008-0.1193008,1.0510025-0.2823982C84.4796982,39.0621986,88.4951019,37.6977005,94.5,40.5
	c5.2444,2.4473,5.6399994,9.5723,6.026001,16.5480995C100.7020035,60.2130013,100.8759995,63.3471985,101.5,66
	c1.3190002,5.6067963,2.9929962,7.697403,3.7450027,8.6379013C105.6340027,75.1231003,105.7770004,75.3021011,105.5,75.5
	c-3.5,2.4999008-11,0.5-11,0.5s-0.4583969,0.9574966,1.0259018,1.5701981
	c1.225502,0.5059052,2.8244019,0.8841019,4.6120987,1.3069992C103.8209991,79.7481995,108.3059998,80.8089981,111.9840012,83.566803
	z"/>
<path style="fill:#999999;" d="M103.8740005,97.5659027c-2.1730042-2.7424011-3.8389969-4.5867996-3.8740005-4.6257019
	c0.0360031,0.0387955,1.75,1.876297,3.9339981,4.577301C103.9140015,97.533699,103.8939972,97.5497971,103.8740005,97.5659027z"/>
<g style="opacity:0.48;">
	<path style="fill:#FFFFFF;" d="M111.9840012,83.566803c0.6469955,0.4846954,1.3139954,1.0307999,1.9430008,1.5685959
		c-2.1269989,4.2021027-5.0110016,7.9556046-8.4729996,11.0808029c-0.0860062-0.1054993-0.1700058-0.2096024-0.2540054-0.3122025
		c-1.0539932-1.2923965-1.9839935-2.3696976-2.6520004-3.1254959c-0.3339996-0.378006-0.6029968-0.6762009-0.7899933-0.8812027
		c-0.0930023-0.1025009-0.1660004-0.1817017-0.2160034-0.2360992l-0.0579987-0.0625992l-0.0159988-0.0168991l-0.0050049-0.0048065
		l-0.0009995-0.0014954c0,0-0.0009995-0.0008011-1.461998,1.3647995l1.4609985-1.3656006l-0.0289993-0.031601l-0.0319977-0.0314026
		L101.3909988,91.5028l-0.0250015-0.024498l-0.0939941-0.0906982c-0.0810013-0.0780029-0.1970062-0.1904068-0.3440018-0.3302002
		c-0.2939987-0.2794037-0.7099991-0.6700058-1.2020035-1.1176071c-0.9757004-0.8875961-2.2835007-2.0297928-3.5419006-2.9731979
		c-3.037796-2.2776947-6.5079956-3.469902-9.5542984-4.2857971c-1.0554962-0.2826996-2.105896-0.5312042-3.0656967-0.7582016
		c-0.4122009-0.097496-0.8077011-0.1911011-1.1797028-0.2817001c-1.1987-0.2919998-2.1667023-0.5562973-2.9253006-0.8513031
		c-0.0307007-0.0833969-0.0661011-0.2150955-0.0918961-0.4000931c-0.0173035-0.1240997-0.0272064-0.2499008-0.0321045-0.3694
		c0.0769043-0.0854034,0.1610031-0.1794052,0.2514038-0.2809067c0.455101-0.5112,1.0732956-1.2180939,1.7220001-1.9974976
		c0.6460953-0.7761993,1.3367996-1.6415024,1.9308014-2.4666977c0.5674973-0.7884979,1.1432953-1.6710052,1.4606934-2.4516983
		c1.4979019-3.6833038,3.0681-7.8840027,3.3711014-12.1994019c0.1334-1.9003029,0.1932983-3.5056-0.0794983-5.0965004
		c-0.280098-1.6337013-0.8865967-3.1290016-1.9017029-4.9043999c-2.3386993-4.0900993-6.822998-7.1072998-11.495697-8.1879997
		c2.8395996-2.514801,5.6953964-2.4580002,6.7095032-2.4379005C81.3797989,39.9986992,81.4455032,40,81.5,40
		c0.2200012,0,0.5708008-0.1193008,1.0510025-0.2823982C84.4796982,39.0621986,88.4951019,37.6977005,94.5,40.5
		c5.2444,2.4473,5.6399994,9.5723,6.026001,16.5480995C100.7020035,60.2130013,100.8759995,63.3471985,101.5,66
		c1.3190002,5.6067963,2.9929962,7.697403,3.7450027,8.6379013C105.6340027,75.1231003,105.7770004,75.3021011,105.5,75.5
		c-3.5,2.4999008-11,0.5-11,0.5s-0.4583969,0.9574966,1.0259018,1.5701981
		c1.225502,0.5059052,2.8244019,0.8841019,4.6120987,1.3069992
		C103.8209991,79.7481995,108.3059998,80.8089981,111.9840012,83.566803z"/>
	<path style="fill:#FFFFFF;" d="M103.8740005,97.5659027c-2.1730042-2.7424011-3.8389969-4.5867996-3.8740005-4.6257019
		c0.0360031,0.0387955,1.75,1.876297,3.9339981,4.577301C103.9140015,97.533699,103.8939972,97.5497971,103.8740005,97.5659027z"/>
</g>
<linearGradient id="SVGID_1_" gradientUnits="userSpaceOnUse" x1="80.0402451" y1="63.645092" x2="110.5402451" y2="74.1450882" gradientTransform="matrix(1 0 0 -1 0 136)">
	<stop  offset="0" style="stop-color:#000000"/>
	<stop  offset="1" style="stop-color:#000000;stop-opacity:0"/>
</linearGradient>
<path style="fill:url(#SVGID_1_);fill-opacity:0.1;" d="M111.9840012,83.566803
	c0.6469955,0.4846954,1.3139954,1.0307999,1.9430008,1.5685959c-2.1269989,4.2021027-5.0110016,7.9556046-8.4729996,11.0808029
	c-0.0860062-0.1054993-0.1700058-0.2096024-0.2540054-0.3122025c-1.0539932-1.2923965-1.9839935-2.3696976-2.6520004-3.1254959
	c-0.3339996-0.378006-0.6029968-0.6762009-0.7899933-0.8812027c-0.0930023-0.1025009-0.1660004-0.1817017-0.2160034-0.2360992
	l-0.0579987-0.0625992l-0.0159988-0.0168991l-0.0050049-0.0048065l-0.0009995-0.0014954c0,0-0.0009995-0.0008011-1.461998,1.3647995
	l1.4609985-1.3656006l-0.0289993-0.031601l-0.0319977-0.0314026L101.3909988,91.5028l-0.0250015-0.024498l-0.0939941-0.0906982
	c-0.0810013-0.0780029-0.1970062-0.1904068-0.3440018-0.3302002c-0.2939987-0.2794037-0.7099991-0.6700058-1.2020035-1.1176071
	c-0.9757004-0.8875961-2.2835007-2.0297928-3.5419006-2.9731979c-3.037796-2.2776947-6.5079956-3.469902-9.5542984-4.2857971
	c-1.0554962-0.2826996-2.105896-0.5312042-3.0656967-0.7582016c-0.4122009-0.097496-0.8077011-0.1911011-1.1797028-0.2817001
	c-1.1987-0.2919998-2.1667023-0.5562973-2.9253006-0.8513031c-0.0307007-0.0833969-0.0661011-0.2150955-0.0918961-0.4000931
	c-0.0173035-0.1240997-0.0272064-0.2499008-0.0321045-0.3694c0.0769043-0.0854034,0.1610031-0.1794052,0.2514038-0.2809067
	c0.455101-0.5112,1.0732956-1.2180939,1.7220001-1.9974976c0.6460953-0.7761993,1.3367996-1.6415024,1.9308014-2.4666977
	c0.5674973-0.7884979,1.1432953-1.6710052,1.4606934-2.4516983c1.4979019-3.6833038,3.0681-7.8840027,3.3711014-12.1994019
	c0.1334-1.9003029,0.1932983-3.5056-0.0794983-5.0965004c-0.280098-1.6337013-0.8865967-3.1290016-1.9017029-4.9043999
	c-2.3386993-4.0900993-6.822998-7.1072998-11.495697-8.1879997c2.8395996-2.514801,5.6953964-2.4580002,6.7095032-2.4379005
	C81.3797989,39.9986992,81.4455032,40,81.5,40c0.2200012,0,0.5708008-0.1193008,1.0510025-0.2823982
	C84.4796982,39.0621986,88.4951019,37.6977005,94.5,40.5c5.2444,2.4473,5.6399994,9.5723,6.026001,16.5480995
	C100.7020035,60.2130013,100.8759995,63.3471985,101.5,66c1.3190002,5.6067963,2.9929962,7.697403,3.7450027,8.6379013
	C105.6340027,75.1231003,105.7770004,75.3021011,105.5,75.5c-3.5,2.4999008-11,0.5-11,0.5s-0.4583969,0.9574966,1.0259018,1.5701981
	c1.225502,0.5059052,2.8244019,0.8841019,4.6120987,1.3069992C103.8209991,79.7481995,108.3059998,80.8089981,111.9840012,83.566803
	z"/>
<linearGradient id="SVGID_00000018236873780780895820000000918910831622471580_" gradientUnits="userSpaceOnUse" x1="89.4080963" y1="36.4337196" x2="119.9080963" y2="46.9337196" gradientTransform="matrix(1 0 0 -1 0 136)">
	<stop  offset="0" style="stop-color:#000000"/>
	<stop  offset="1" style="stop-color:#000000;stop-opacity:0"/>
</linearGradient>
<path style="fill:url(#SVGID_00000018236873780780895820000000918910831622471580_);fill-opacity:0.1;" d="M103.8740005,97.5659027
	c-2.1730042-2.7424011-3.8389969-4.5867996-3.8740005-4.6257019c0.0360031,0.0387955,1.75,1.876297,3.9339981,4.577301
	C103.9140015,97.533699,103.8939972,97.5497971,103.8740005,97.5659027z"/>
<path style="fill:#999999;" d="M103.8740005,97.5660019C97.3497009,102.8410034,89.0439987,106,80.0003967,106
	c-13.3244934,0-25.0472984-6.8578033-31.8311958-17.2365036c3.8805008-2.7988968,8.6261978-4.4101944,11.8635979-5.5093994
	c0.7428017-0.2521973,1.4062004-0.4773941,1.9615021-0.6838989c1.862999-0.6924973,1.3661003-3.3501968,1.3661003-3.3501968
	s-4.4196014-4.4487-5.4048996-7.1500015c-0.0932007-0.2556-0.1875-0.5127029-0.2821999-0.7712021
	c-1.2693024-3.4622955-2.6306-7.1756973-2.8137016-10.8149986c-0.1902008-3.7810974,0.0821991-5.5543976,1.9118004-8.868
	C59.5143013,46.6481018,64.1624985,44,70.8965988,44c5.1875,0,10.8812027,3.1106987,13.4570999,7.615799
	c1.8824997,3.292202,1.9880981,5.0842018,1.7224045,8.868c-0.2784042,3.9659004-1.7312012,7.9038048-3.2287064,11.5862007
	c-0.8862991,2.1794968-5.4873962,7.1500015-5.4873962,7.1500015s-0.3182983,2.7374954,1.1659012,3.3501968
	c1.2256012,0.5059052,2.8244019,0.8841019,4.6123962,1.3069992c3.6828003,0.8710022,8.1679993,1.9318008,11.846199,4.6896057
	C97.3522034,90.3421021,100,92.9403,100,92.9403S101.6780014,94.7944031,103.8740005,97.5660019z"/>
<path style="opacity:0.48;fill:#FFFFFF;enable-background:new    ;" d="M103.8690033,97.5701981
	C97.3451996,102.8430023,89.0414963,106,80.0003967,106c-13.3244934,0-25.0472984-6.8578033-31.8311958-17.2365036
	c3.8805008-2.7988968,8.6261978-4.4101944,11.8635979-5.5093994c0.7428017-0.2521973,1.4062004-0.4773941,1.9615021-0.6838989
	c1.862999-0.6924973,1.3661003-3.3501968,1.3661003-3.3501968s-4.4196014-4.4487-5.4048996-7.1500015
	c-0.0932007-0.2556-0.1875-0.5127029-0.2821999-0.7712021c-1.2693024-3.4622955-2.6306-7.1756973-2.8137016-10.8149986
	c-0.1902008-3.7810974,0.0821991-5.5543976,1.9118004-8.868C59.5143013,46.6481018,64.1624985,44,70.8965988,44
	c5.1875,0,10.8812027,3.1106987,13.4570999,7.615799c1.8824997,3.292202,1.9880981,5.0842018,1.7224045,8.868
	c-0.2784042,3.9659004-1.7312012,7.9038048-3.2287064,11.5862007c-0.8862991,2.1794968-5.4873962,7.1500015-5.4873962,7.1500015
	s-0.3182983,2.7374954,1.1659012,3.3501968c1.2256012,0.5059052,2.8244019,0.8841019,4.6123962,1.3069992
	c3.6828003,0.8710022,8.1679993,1.9318008,11.846199,4.6896057C97.3522034,90.3421021,100,92.9403,100,92.9403
	S101.8740005,94.888298,103.8690033,97.5701981z"/>
<linearGradient id="SVGID_00000146457953618058267450000000363980350329993642_" gradientUnits="userSpaceOnUse" x1="61.4597549" y1="87.1350479" x2="76.0090561" y2="42.8609505" gradientTransform="matrix(1 0 0 -1 0 136)">
	<stop  offset="0" style="stop-color:#000000"/>
	<stop  offset="1" style="stop-color:#000000;stop-opacity:0"/>
</linearGradient>
<path style="fill:url(#SVGID_00000146457953618058267450000000363980350329993642_);fill-opacity:0.1;" d="M103.8679962,97.5707016
	C97.3445969,102.8430023,89.0411987,106,80.0002975,106c-13.3252945,0-25.0485992-6.8585968-31.8322983-17.2381973
	c4.7631989-3.465004,10.7709007-5.3292999,13.8262024-6.1916046c1.7505989-0.4939957,1.3660965-3.3501968,1.3660965-3.3501968
	s-4.4196968-4.4487-5.4048996-7.1500015c-0.0931969-0.2556-0.1875-0.5127029-0.2821999-0.7712021
	c-1.2692986-3.4622955-2.6306-7.1756973-2.8136978-10.8149986c-0.1902008-3.7810974,0.0821991-5.5543976,1.9118004-8.868
	C59.5141983,46.6481018,64.1623993,44,70.8964996,44c5.1875,0,10.8812027,3.1106987,13.4570999,7.615799
	c1.8824997,3.292202,1.9880981,5.0842018,1.7223969,8.868c-0.2783966,3.9659004-1.7311935,7.9038048-3.2286987,11.5862007
	c-0.8862991,2.1794968-5.464798,7.1500015-5.464798,7.1500015s-0.2782974,2.7633972,1.1433029,3.3501968
	c1.2256012,0.5059052,2.8243942,0.8841019,4.6123962,1.3069992c3.6828003,0.8710022,8.1679993,1.9318008,11.846199,4.6896057
	C97.3520966,90.3421021,100,92.9403,100,92.9403S101.810997,94.8618011,103.8679962,97.5707016z"/>
<path style="fill:#B8B8B8;" d="M103.9990005,94.4583969V84.3102036c-1.6169968-0.907402-3.3150024-1.5924072-4.9997025-2.1436005
	v7.1210938c0.2569046,0.2273026,0.5007019,0.4465027,0.7266998,0.6520996
	c0.4920044,0.4476013,0.9080048,0.8382034,1.2020035,1.1176071c0.1469955,0.1397934,0.2630005,0.2521973,0.3440018,0.3302002
	l0.0939941,0.0906982l0.0250015,0.024498l0.0090027,0.0087967l0.0319977,0.0314026l0.0289993,0.031601L100,92.9402008
	c0.0350037,0.0389023,1.7009964,1.8833008,3.8740005,4.6257019l0.0599976-0.0484009
	C101.75,94.8164978,100.0360031,92.9789963,100,92.9402008c1.4609985-1.3656006,1.461998-1.3647995,1.461998-1.3647995
	l0.0009995,0.0014954l0.0050049,0.0048065l0.0159988,0.0168991l0.0579987,0.0625992
	c0.0500031,0.0543976,0.1230011,0.1335983,0.2160034,0.2360992c0.1869965,0.2050018,0.4559937,0.5031967,0.7899933,0.8812027
	C102.9469986,93.2309036,103.4410019,93.7985001,103.9990005,94.4583969z"/>
<path style="fill:#B8B8B8;" d="M98.9992981,100.9169998c1.7117004-0.9901962,3.3396988-2.1100998,4.8686981-3.3462982
	C101.810997,94.8618011,100,92.9403,100,92.9403s-0.3883972-0.3811035-1.0007019-0.9512024V100.9169998z"/>
<path style="fill:#B8B8B8;" d="M83.9992981,88.5c0-1.3806992,1.1193008-2.5,2.5-2.5h25.4997025v5H86.4992981
	C85.1185989,91,83.9992981,89.8806992,83.9992981,88.5z"/>
<path style="fill-rule:evenodd;clip-rule:evenodd;fill:#EDEDED;" d="M98.9992981,82.1666031
	c1.6847,0.5511932,3.3827057,1.2361984,4.9997025,2.1436005V73.5c0-1.3806992-1.1190033-2.5-2.5-2.5
	c-1.3799973,0-2.4997025,1.1193008-2.4997025,2.5V82.1666031z"/>
<path style="fill:#B8B8B8;" d="M103.9990005,76.2471008c-1.5189972,0.5134964-3.3509979,0.5744019-4.9997025,0.463501V73.5
	c0-1.3806992,1.1197052-2.5,2.4997025-2.5c1.3809967,0,2.5,1.1193008,2.5,2.5V76.2471008z"/>
<path style="fill:#B8B8B8;" d="M98.9992981,78.6054993c0.3694,0.0896988,0.7497025,0.1796036,1.1387024,0.271698
	c1.2190018,0.2882004,2.5250015,0.5972061,3.8610001,0.9816055v4.4514008
	c-1.6169968-0.907402-3.3150024-1.5924072-4.9997025-2.1436005V78.6054993z"/>
<path style="fill:#DC1E28;" d="M90.5,86h29c1.3809967,0,2.5,1.1193008,2.5,2.5s-1.1190033,2.5-2.5,2.5h-29
	c-1.3806992,0-2.5-1.1193008-2.5-2.5S89.1193008,86,90.5,86z"/>
<path style="fill:#DC1E28;" d="M103,102.5v-29c0-1.3806992,1.1190033-2.5,2.5-2.5s2.5,1.1193008,2.5,2.5v29
	c0,1.3809967-1.1190033,2.5-2.5,2.5S103,103.8809967,103,102.5z"/>
</svg>
