<?xml version="1.0" encoding="utf-8"?>
<!-- Generator: Adobe Illustrator 27.2.0, SVG Export Plug-In . SVG Version: 6.00 Build 0)  -->
<svg version="1.1" id="Warstwa_1" xmlns="http://www.w3.org/2000/svg" xmlns:xlink="http://www.w3.org/1999/xlink" x="0px" y="0px"
	 width="160px" height="136px" viewBox="0 0 160 136" style="enable-background:new 0 0 160 136;" xml:space="preserve">
<path style="fill-rule:evenodd;clip-rule:evenodd;fill:#F5F5F5;" d="M120.3450012,17C122.9160004,17,125,19.0841007,125,21.6548996
	c0,2.5709-2.0839996,4.6550007-4.6549988,4.6550007h-3.076004c-2.1459961,0.7057991-3.6759949,2.5394001-3.6759949,4.6900997
	c0,2.6944008,2.401001,4.8911018,5.4069977,4.9961014V36h-2c3.314003,0,6,2.6862984,6,6s-2.685997,6-6,6h-14v0.0042992
	C99.6641006,48.1198006,97,50.5360985,97,53.5s2.6641006,5.3801994,6,5.4957008V59h26c3.3139954,0,6,2.6862984,6,6
	c0,3.3136978-2.6860046,6-6,6h1v0.0046997c-2.802002,0.1259995-5.0400009,2.762001-5.0400009,5.9953003
	S127.197998,82.8693008,130,82.9953003V83c3.3139954,0,6,2.6863022,6,6s-2.6860046,6-6,6h-10.2860031v0.0034027
	c-2.0009995,0.0898972-3.5999985,1.9727936-3.5999985,4.2822952c0,2.3093033,1.598999,4.1922989,3.5999985,4.2823029v0.0029984
	c2.3670044,0,4.2860031,1.9189987,4.2860031,4.2860031c0,2.3669968-1.9189987,4.2859955-4.2860031,4.2859955h-46.428299
	C70.9188004,112.1429977,69,110.223999,69,107.8570023c0-2.3670044,1.9188004-4.2860031,4.2856979-4.2860031h5.5715027v-0.0029984
	c2.001503-0.090004,3.5999985-1.9729996,3.5999985-4.2823029c0-2.3095016-1.5984955-4.1923981-3.5999985-4.2822952V95H65
	c-3.3137016,0-6-2.6863022-6-6s2.6862984-6,6-6h7.8000031v-0.0046997C75.6020966,82.8693008,77.8399963,80.2332993,77.8399963,77
	s-2.2378998-5.8693008-5.0399933-5.9953003V71H25c-3.3136997,0-6-2.6863022-6-6c0-3.3137016,2.6863003-6,6-6h7v-0.0042992
	c3.3358994-0.1155014,6-2.5317993,6-5.4957008s-2.6641006-5.3801994-6-5.4957008V48h1c-3.3136997,0-6-2.6862984-6-6s2.6863003-6,6-6
	h48v-0.0038986C84.0058975,35.8911018,86.4065018,33.6944008,86.4065018,31c0-2.1506996-1.5295029-3.9843006-3.6755981-4.6900997
	h-7.383606c-2.5708008,0-4.6548996-2.0841007-4.6548996-4.6550007C70.6923981,19.0841007,72.7764969,17,75.3472977,17H120.3450012z"
	/>
<path style="fill:#F5F5F5;" d="M56,102c0-1.6569977-1.3431015-3-3-3H38c-1.6568985,0-3,1.3430023-3,3s1.3431015,3,3,3h15
	C54.6568985,105,56,103.6569977,56,102z"/>
<path style="fill:#F5F5F5;" d="M50,88c0-2.7613983-2.2386017-5-5-5H28c-2.7614002,0-5,2.2386017-5,5s2.2385998,5,5,5h17
	C47.7613983,93,50,90.7613983,50,88z"/>
<path style="fill:#F5F5F5;" d="M143,36.5c0-2.4852982-2.0149994-4.5-4.5-4.5h-8.3079987c-2.4850006,0-4.5,2.0147018-4.5,4.5
	s2.0149994,4.5,4.5,4.5H138.5C140.9850006,41,143,38.9852982,143,36.5z"/>
<path style="fill:#E5E5E5;" d="M80.0002975,107c21.5397034,0,39.0007019-17.4608994,39.0007019-39s-17.4609985-39-39.0007019-39
	C58.4609985,29,41,46.4608994,41,68S58.4609985,107,80.0002975,107z"/>
<path style="fill:#FFFFFF;" d="M80.0002975,106c20.986702,0,38.0007019-17.0131989,38.0007019-38s-17.0139999-38-38.0007019-38
	C59.0133018,30,42,47.0131989,42,68S59.0133018,106,80.0002975,106z"/>
<path style="fill:#999999;" d="M64.4350967,45.3731995c3.0003052-5.4295998,8.0848007-8.3238983,15.4509048-8.3238983
	c5.6743011,0,11.9023972,3.3998985,14.7201004,8.3238983c2.0591965,3.5984001,2.1746979,5.5569,1.8840942,9.6926003
	c-0.3045959,4.3347015-1.8936996,8.6386986-3.5316925,12.6635017c-0.9695053,2.3822021-6.0024033,7.8146973-6.0024033,7.8146973
	s-0.3482971,2.9921036,1.2752991,3.6618042c4.1016998,1.6918945,12.0266037,2.0765991,18.0036011,6.5541992
	c2.5899963,1.9403,5.4860001,4.780098,5.4860001,4.780098S100.987999,107,79.8860016,107
	c-21.1022034,0-31.6086998-15.9926987-31.6086998-15.9926987s3.4246979-2.4382019,5.8905983-4.3856049
	c5.3252983-4.2056961,12.5440979-6.1394958,15.9803009-7.4158936c2.037796-0.7570038,1.4943008-3.6618042,1.4943008-3.6618042
	s-4.8345032-4.8621979-5.9122009-7.8146973c-1.467598-4.0206032-3.1713028-8.3888016-3.3865013-12.6635017
	C62.1357994,50.9331017,62.4337006,48.9949989,64.4350967,45.3731995z"/>
<path style="opacity:0.48;fill:#FFFFFF;enable-background:new    ;" d="M64.4350967,45.3731995
	c3.0003052-5.4295998,8.0848007-8.3238983,15.4509048-8.3238983c5.6743011,0,11.9023972,3.3998985,14.7201004,8.3238983
	c2.0591965,3.5984001,2.1746979,5.5569,1.8840942,9.6926003c-0.3045959,4.3347015-1.8936996,8.6386986-3.5316925,12.6635017
	c-0.9695053,2.3822021-6.0024033,7.8146973-6.0024033,7.8146973s-0.3482971,2.9921036,1.2752991,3.6618042
	c4.1016998,1.6918945,12.0266037,2.0765991,18.0036011,6.5541992c2.5899963,1.9403,5.4860001,4.780098,5.4860001,4.780098
	S100.987999,107,79.8860016,107c-21.1022034,0-31.6086998-15.9926987-31.6086998-15.9926987
	s3.4246979-2.4382019,5.8905983-4.3856049c5.3252983-4.2056961,12.5440979-6.1394958,15.9803009-7.4158936
	c2.037796-0.7570038,1.4943008-3.6618042,1.4943008-3.6618042s-4.8345032-4.8621979-5.9122009-7.8146973
	c-1.467598-4.0206032-3.1713028-8.3888016-3.3865013-12.6635017C62.1357994,50.9331017,62.4337006,48.9949989,64.4350967,45.3731995
	z"/>
<linearGradient id="SVGID_1_" gradientUnits="userSpaceOnUse" x1="64.6357574" y1="92.0152512" x2="80.5275574" y2="43.6170502" gradientTransform="matrix(1 0 0 -1 0 136)">
	<stop  offset="0" style="stop-color:#000000"/>
	<stop  offset="1" style="stop-color:#000000;stop-opacity:0"/>
</linearGradient>
<path style="opacity:0.1;fill:url(#SVGID_1_);" d="M64.4350967,45.3731995
	c3.0003052-5.4295998,8.0848007-8.3238983,15.4509048-8.3238983c5.6743011,0,11.9023972,3.3998985,14.7201004,8.3238983
	c2.0591965,3.5984001,2.1746979,5.5569,1.8840942,9.6926003c-0.3045959,4.3347015-1.8936996,8.6386986-3.5316925,12.6635017
	c-0.9695053,2.3822021-5.9777069,7.8146973-5.9777069,7.8146973s-0.3044968,3.020401,1.2506027,3.6618042
	c4.1016998,1.6918945,12.0266037,2.0765991,18.0036011,6.5541992c2.5899963,1.9403,5.4860001,4.780098,5.4860001,4.780098
	S100.987999,107,79.8860016,107c-21.1022034,0-31.6086998-15.9926987-31.6086998-15.9926987
	s3.4246979-2.4382019,5.8905983-4.3856049c5.3252983-4.2056961,12.452301-6.4209976,15.9803009-7.4158936
	c1.9148026-0.5400009,1.4943008-3.6618042,1.4943008-3.6618042s-4.8345032-4.8621979-5.9122009-7.8146973
	c-1.467598-4.0206032-3.1713028-8.3888016-3.3865013-12.6635017C62.1357994,50.9331017,62.4337006,48.9949989,64.4350967,45.3731995
	z"/>
<path style="fill:#B8B8B8;" d="M103.9990005,98.5497971c-1.4609985,1.149704-3.1279984,2.3052063-4.9997025,3.3762054V82.1666031
	c1.6847,0.5511932,3.3827057,1.2361984,4.9997025,2.1436005V98.5497971z"/>
<path style="fill:#B8B8B8;" d="M83.9992981,88.5c0-1.3806992,1.1193008-2.5,2.5-2.5h25.4997025v5H86.4992981
	C85.1185989,91,83.9992981,89.8806992,83.9992981,88.5z"/>
<path style="fill-rule:evenodd;clip-rule:evenodd;fill:#EDEDED;" d="M98.9992981,82.1666031
	c1.6847,0.5511932,3.3827057,1.2361984,4.9997025,2.1436005V73.5c0-1.3806992-1.1190033-2.5-2.5-2.5
	c-1.3799973,0-2.4997025,1.1193008-2.4997025,2.5V82.1666031z"/>
<path style="fill:#DC1E28;" d="M90.5,86h29c1.3809967,0,2.5,1.1193008,2.5,2.5s-1.1190033,2.5-2.5,2.5h-29
	c-1.3806992,0-2.5-1.1193008-2.5-2.5S89.1193008,86,90.5,86z"/>
<path style="fill:#DC1E28;" d="M103,102.5v-29c0-1.3806992,1.1190033-2.5,2.5-2.5s2.5,1.1193008,2.5,2.5v29
	c0,1.3809967-1.1190033,2.5-2.5,2.5S103,103.8809967,103,102.5z"/>
</svg>
