<svg width="32" height="32" viewBox="0 0 32 32" fill="none" xmlns="http://www.w3.org/2000/svg">
<path d="M10 0H0V10H10V0Z" fill="#EA494C"/>
<path d="M21 0H11V10H21V0Z" fill="#E8373A"/>
<path d="M10 11H0V21H10V11Z" fill="#E8373A"/>
<path d="M10 32H7.5C3.36 32 0 28.64 0 24.5V22H10V32Z" fill="#E42B2E"/>
<path d="M32 10H10V32H32V10Z" fill="#DC1E28"/>
<path d="M32 10H22V0H24.5C28.64 0 32 3.36 32 7.5V10Z" fill="#E42B2E"/>
<path d="M11 0H10V10H11V0Z" fill="#E53335"/>
<path d="M0 10L0 11L10 11L10 10L0 10Z" fill="#E53335"/>
<path d="M0 21L0 22L10 22L10 21L0 21Z" fill="#E53335"/>
<path d="M22 0H21V10H22V0Z" fill="#E53335"/>
</svg>
