<?xml version="1.0" encoding="utf-8"?>
<!-- Generator: Adobe Illustrator 27.2.0, SVG Export Plug-In . SVG Version: 6.00 Build 0)  -->
<svg version="1.1" id="Warstwa_1" xmlns="http://www.w3.org/2000/svg" xmlns:xlink="http://www.w3.org/1999/xlink" x="0px" y="0px"
	 width="160px" height="136px" viewBox="0 0 160 136" style="enable-background:new 0 0 160 136;" xml:space="preserve">
<path style="fill:#F4F5F6;" d="M49.5,99.0009995h42c3.5898514,0,6.5,2.9101486,6.5,6.5l0,0c0,3.5898514-2.9101486,6.5-6.5,6.5h-42
	c-3.5898514,0-6.5-2.9101486-6.5-6.5l0,0C43,101.9111481,45.9101486,99.0009995,49.5,99.0009995z"/>
<path style="fill:#F4F5F6;" d="M111,96.0009995h12c2.209137,0,4,1.790863,4,4l0,0c0,2.209137-1.790863,4-4,4h-12
	c-2.209137,0-4-1.790863-4-4l0,0C107,97.7918625,108.790863,96.0009995,111,96.0009995z"/>
<path style="fill:#F4F5F6;" d="M29.5,31.0009995h9c2.4852829,0,4.5,2.0147171,4.5,4.5l0,0c0,2.4852829-2.0147171,4.5-4.5,4.5h-9
	c-2.485281,0-4.5-2.0147171-4.5-4.5l0,0C25,33.0157166,27.014719,31.0009995,29.5,31.0009995z"/>
<path style="fill:#F4F5F6;" d="M50,98.9953003C53.3358994,98.8693008,56,96.2332993,56,93s-2.6641006-5.8693008-6-5.9953003V87h43
	v0.0046997C89.6641006,87.1306992,87,89.7667007,87,93s2.6641006,5.8693008,6,5.9953003V99H50V98.9953003z"/>
<path style="fill:#F4F5F6;" d="M28.5,74h96c3.5898438,0,6.5,2.9101486,6.5,6.5l0,0c0,3.5898514-2.9101562,6.5-6.5,6.5h-96
	c-3.5898514,0-6.5-2.9101486-6.5-6.5l0,0C22,76.9101486,24.9101486,74,28.5,74z"/>
<path style="fill:#F4F5F6;" d="M41,73.9953003C44.3358994,73.8693008,47,71.2332993,47,68s-2.6641006-5.8693008-6-5.9953003V62h78
	v0.0046997c-3.3359985,0.1259995-6,2.762001-6,5.9953003s2.6640015,5.8693008,6,5.9953003V74H41V73.9953003z"/>
<path style="fill:#F4F5F6;" d="M40.5,49h96c3.5898438,0,6.5,2.9101486,6.5,6.5l0,0c0,3.5898514-2.9101562,6.5-6.5,6.5h-96
	c-3.5898514,0-6.5-2.9101486-6.5-6.5l0,0C34,51.9101486,36.9101486,49,40.5,49z"/>
<path style="fill:#F4F5F6;" d="M60,48.9953003C63.3358994,48.8693008,66,46.2332993,66,43s-2.6641006-5.8693008-6-5.9953003V37h62
	v0.0046997c-3.3359985,0.1259995-6,2.762001-6,5.9953003s2.6640015,5.8693008,6,5.9953003V49H60V48.9953003z"/>
<path style="fill:#F4F5F6;" d="M56.5,24h68c3.5898438,0,6.5,2.9101486,6.5,6.5l0,0c0,3.5898514-2.9101562,6.5-6.5,6.5h-68
	c-3.5898514,0-6.5-2.9101486-6.5-6.5l0,0C50,26.9101486,52.9101486,24,56.5,24z"/>
<path style="opacity:0.6;fill-rule:evenodd;clip-rule:evenodd;fill:#FFFFFF;enable-background:new    ;" d="M99.8160019,90.9487991
	c-6.7273026,10.2761993-14.2835999,14.712204-18.1052017,16.4021988c-1.1174011,0.4940033-2.3736038,0.4920044-3.4886017,0.012001
	c-3.8201981-1.6439972-11.3847961-5.901001-18.1175995-16.1055984
	c-6.7304001-10.2014008-12.5837975-26.277298-13.1035004-51.4859009c-0.0534973-2.5955009,1.9136009-4.7371979,4.4046021-5.1260986
	c10.4977989-1.6389999,22.7055969-5.8535004,26.8033981-7.3349018c1.1380005-0.4113998,2.3694-0.4127998,3.5083008-0.0035992
	c4.1072006,1.4757996,16.3500977,5.6809998,26.8145981,7.3326988c2.4860001,0.3925018,4.4480057,2.531002,4.3930054,5.1231003
	C112.3990021,64.620903,106.5429993,80.6733017,99.8160019,90.9487991z M51.5600014,35.6334
	c-2.0339012,0.3175011-3.6016006,2.0593987-3.5591011,4.1175003c1.0332985,50.1221008,23.2634964,63.5290985,30.6166992,66.6940994
	c0.862999,0.3710022,1.8293991,0.3710022,2.6886978-0.0090027c7.347702-3.2490005,29.5737-17.2789001,30.6187057-66.6944962
	c0.0439987-2.0547028-1.5190048-3.7937012-3.5490036-4.1141014c-10.5654984-1.6676979-22.8852005-5.9019985-26.9966965-7.3794003
	c-0.9197006-0.3303986-1.9112015-0.3292999-2.8302002,0.0029011C74.4465027,29.7341003,62.1605988,33.9784012,51.5600014,35.6334z"
	/>
<linearGradient id="SVGID_1_" gradientUnits="userSpaceOnUse" x1="56.0841484" y1="60.4618645" x2="114.0843506" y2="84.4618607" gradientTransform="matrix(1 0 0 -1 0 136)">
	<stop  offset="0" style="stop-color:#C5C9CD"/>
	<stop  offset="1" style="stop-color:#FFFFFF"/>
</linearGradient>
<path style="fill:url(#SVGID_1_);" d="M48.0369987,40.0214005c-0.0424995-2.0581017,1.5251999-3.7999992,3.5591011-4.1175003
	c10.6006012-1.6549988,22.8864975-5.8992996,26.9890976-7.3824997c0.9190063-0.332201,1.9105988-0.3332996,2.8302002-0.0029011
	c4.1115036,1.4773998,16.4313049,5.7117023,26.9966049,7.3794003c2.0299988,0.3204002,3.5929947,2.0593987,3.5499954,4.1141014
	c-1.0459976,49.415596-23.2717972,63.4449997-30.6195984,66.6949997c-0.8592987,0.3799973-1.8255997,0.3799973-2.6886978,0.0079956
	C71.300499,103.5500031,49.0703011,90.1435013,48.0369987,40.0214005z"/>
<radialGradient id="SVGID_00000105422521943261120890000000817382561674022571_" cx="64.2251816" cy="82.4293137" r="1" gradientTransform="matrix(-46.9996719 41.0004349 34.0084572 38.9846191 295.2684021 -5799.7353516)" gradientUnits="userSpaceOnUse">
	<stop  offset="0" style="stop-color:#F7F8F8"/>
	<stop  offset="1" style="stop-color:#DADCDE"/>
</radialGradient>
<path style="fill-rule:evenodd;clip-rule:evenodd;fill:url(#SVGID_00000105422521943261120890000000817382561674022571_);" d="
	M79.9997025,28.2710991c-0.4776001,0.0005016-0.955101,0.0838013-1.414505,0.2499008
	c-4.1026001,1.4831009-16.3884964,5.7274017-26.9890976,7.3824997c-2.0339012,0.3175011-3.6016006,2.0593987-3.5591011,4.1175003
	c1.0333023,50.122097,23.2635002,63.5290031,30.616703,66.6940002c0.4315948,0.1860046,0.8889999,0.2779999,1.3460007,0.2770004
	V28.2710991z"/>
<g>
	<path style="fill-rule:evenodd;clip-rule:evenodd;fill:#E3E6E8;" d="M98.1788025,90.1239014
		c6.4841995-9.9055023,12.2631989-25.5756989,12.7831955-50.1330032c0.0320053-1.5173988-1.1319962-2.8567963-2.7060013-3.1051979
		c-10.6662979-1.6837006-23.0629959-5.9472008-27.1787949-7.4260998c-0.7002029-0.2516003-1.4519043-0.2508011-2.1520004,0.0023003
		c-4.107399,1.4847984-16.4715004,5.7588978-27.1748009,7.4299984c-1.5769005,0.2462006-2.7449989,1.5881996-2.7136002,3.108902
		c0.5135994,24.9135971,6.2919998,40.6018982,12.7733002,50.4256973
		c6.4789009,9.8205032,13.7059975,13.8495026,17.2390022,15.3704987c0.6110992,0.2630005,1.2874985,0.2610016,1.8887939-0.0049973
		C84.4641037,104.2330017,91.6947021,100.0289993,98.1788025,90.1239014z M51.5960999,35.9039001
		c-2.0339012,0.3175011-3.6016006,2.0593987-3.5591011,4.1175003c1.0333023,50.1221008,23.2635002,63.5286026,30.616703,66.6935959
		c0.8630981,0.3720016,1.8293991,0.3720016,2.6886978-0.0079956c7.3478012-3.25,29.5736008-17.2794037,30.6195984-66.6949997
		c0.0429993-2.0547028-1.5199966-3.7937012-3.5499954-4.1141014c-10.5653-1.6676979-22.8851013-5.9020004-26.9966049-7.3794003
		c-0.9196014-0.3303986-1.9111938-0.3292999-2.8302002,0.0029011C74.4825974,30.0046005,62.196701,34.2489014,51.5960999,35.9039001
		z"/>
</g>
<path style="fill:#BC1A22;" d="M98,64c0,9.9411011-8.0588989,18-18,18s-18-8.0588989-18-18s8.0588989-18,18-18S98,54.0588989,98,64z
	"/>
<path style="opacity:0.1;fill:#D9D9D9;enable-background:new    ;" d="M98,64c0,9.9411011-8.0588989,18-18,18s-18-8.0588989-18-18
	s8.0588989-18,18-18S98,54.0588989,98,64z"/>
<path style="fill:#DC1E28;" d="M97.9699707,65C97.4500122,74.4799805,89.6099854,82,80,82s-17.4500122-7.5200195-17.9699707-17
	C62.539978,55.5300293,70.3900146,48,80,48S97.460022,55.5300293,97.9699707,65z"/>
<path style="fill:#BC1A22;" d="M80,55.0009995c1.9216003,0,3.5686035,0.6822014,4.9412003,2.0467987
	C86.3136978,58.4123001,87,60.0769997,87,62.0419006c0,1.9103012-0.6863022,3.5477982-2.0587997,4.9123001
	C83.5686035,68.3187027,81.9216003,69.0009995,80,69.0009995s-3.5686035-0.6822968-4.9412003-2.0467987
	C73.6863022,65.5896988,73,63.9522018,73,62.0419006c0-1.964901,0.6863022-3.6296005,2.0587997-4.9941025
	C76.4313965,55.6832008,78.0783997,55.0009995,80,55.0009995z"/>
<path style="opacity:0.1;fill:#D9D9D9;enable-background:new    ;" d="M80,55.0009995
	c1.9216003,0,3.5686035,0.6822014,4.9412003,2.0467987C86.3136978,58.4123001,87,60.0769997,87,62.0419006
	c0,1.9103012-0.6863022,3.5477982-2.0587997,4.9123001C83.5686035,68.3187027,81.9216003,69.0009995,80,69.0009995
	s-3.5686035-0.6822968-4.9412003-2.0467987C73.6863022,65.5896988,73,63.9522018,73,62.0419006
	c0-1.964901,0.6863022-3.6296005,2.0587997-4.9941025C76.4313965,55.6832008,78.0783997,55.0009995,80,55.0009995z"/>
<linearGradient id="SVGID_00000089544965955714262350000000314368965080374703_" gradientUnits="userSpaceOnUse" x1="76.0023804" y1="80.0164642" x2="84.4448853" y2="69.4180603" gradientTransform="matrix(1 0 0 -1 0 136)">
	<stop  offset="0" style="stop-color:#D6D9DB"/>
	<stop  offset="1" style="stop-color:#EFF0F1"/>
</linearGradient>
<path style="fill:url(#SVGID_00000089544965955714262350000000314368965080374703_);" d="M80,54.0009995
	c1.9216003,0,3.5686035,0.6822014,4.9412003,2.0467987C86.3136978,57.4123001,87,59.0769997,87,61.0419006
	c0,1.9103012-0.6863022,3.5477982-2.0587997,4.9123001C83.5686035,67.3187027,81.9216003,68.0009995,80,68.0009995
	s-3.5686035-0.6822968-4.9412003-2.0467987C73.6863022,64.5896988,73,62.9522018,73,61.0419006
	c0-1.964901,0.6863022-3.6296005,2.0587997-4.9941025C76.4313965,54.6832008,78.0783997,54.0009995,80,54.0009995z"/>
<linearGradient id="SVGID_00000156577377345363447090000000372442274470037154_" gradientUnits="userSpaceOnUse" x1="76.0023804" y1="80.0164642" x2="84.4448853" y2="69.4180603" gradientTransform="matrix(1 0 0 -1 0 136)">
	<stop  offset="0" style="stop-color:#EFF0F1"/>
	<stop  offset="1" style="stop-color:#D6D9DB"/>
</linearGradient>
<path style="fill:url(#SVGID_00000156577377345363447090000000372442274470037154_);" d="M80,54.0009995
	c1.9216003,0,3.5686035,0.6822014,4.9412003,2.0467987C86.3136978,57.4123001,87,59.0769997,87,61.0419006
	c0,1.9103012-0.6863022,3.5477982-2.0587997,4.9123001C83.5686035,67.3187027,81.9216003,68.0009995,80,68.0009995
	s-3.5686035-0.6822968-4.9412003-2.0467987C73.6863022,64.5896988,73,62.9522018,73,61.0419006
	c0-1.964901,0.6863022-3.6296005,2.0587997-4.9941025C76.4313965,54.6832008,78.0783997,54.0009995,80,54.0009995z"/>
<path style="fill:#E3E6E8;" d="M86.6099854,80.75c-0.3599854,0.1400146-0.7199707,0.2700195-1.0899658,0.3800049
	c-0.3400269,0.1199951-0.6900024,0.210022-1.0400391,0.2999878C84.2399902,81.5,84,81.5499878,83.7600098,81.5999756
	c-0.2399902,0.0599976-0.4899902,0.1000366-0.7299805,0.1400146c-0.1900024,0.0400391-0.3800049,0.0700073-0.5800171,0.0900269
	C82.2299805,81.8599854,82,81.8900146,81.7800293,81.9099731c-0.2200317,0.0200195-0.4300537,0.0400391-0.6500244,0.0500488
	c-0.1199951,0.0099487-0.2399902,0.0199585-0.3599854,0.0199585C80.5200195,81.9899902,80.2600098,82,80,82
	s-0.5200195-0.0100098-0.7700195-0.0200195c-0.1199951,0-0.2399902-0.0100098-0.3599854-0.0199585
	c-0.2199707-0.0100098-0.4299927-0.0300293-0.6500244-0.0500488C78,81.8900146,77.7700195,81.8599854,77.5499878,81.8300171
	c-0.2000122-0.0200195-0.3900146-0.0499878-0.5800171-0.0900269c-0.2399902-0.039978-0.4899902-0.0800171-0.7299805-0.1400146
	C76,81.5499878,75.7600098,81.5,75.5200195,81.4299927c-0.3500366-0.0899658-0.7000122-0.1799927-1.0400391-0.2999878
	C74.1099854,81.0200195,73.75,80.8900146,73.3900146,80.75c-0.1700439-0.0700073-0.3400269-0.1400146-0.5100098-0.210022
	c-0.2700195-0.1199951-0.539978-0.2399902-0.7999878-0.3800049c-0.0300293-0.0199585-0.0700073-0.0299683-0.1000366-0.0499878
	c-0.1799927-0.0799561-0.3599854-0.1799927-0.5299683-0.2699585c-0.210022-0.1100464-0.4199829-0.2300415-0.6300049-0.3600464
	c-0.3099976-0.1799927-0.6199951-0.3699951-0.9100342-0.5799561c-0.2999878-0.2000122-0.5899658-0.4100342-0.8799438-0.6300049
	c0.0299683-0.4200439,0.0899658-0.8200073,0.1799927-1.2000122c0.0299683-0.1300049,0.0599976-0.25,0.0899658-0.3699951
	c0.0200195-0.0800171,0.0400391-0.1699829,0.0700073-0.25c0.0300293-0.1199951,0.0700073-0.2399902,0.1199951-0.3599854
	C69.5100098,76,69.539978,75.9099731,69.5900269,75.8200073c0.0199585-0.0700073,0.0499878-0.1400146,0.0799561-0.210022
	c0.0300293-0.0999756,0.0800171-0.2000122,0.1300049-0.289978c0.0499878-0.1199951,0.1000366-0.2299805,0.1600342-0.3400269
	c0.0799561-0.1599731,0.1599731-0.3099976,0.25-0.4499512c0.0700073-0.1100464,0.1300049-0.210022,0.1900024-0.3100586
	c0.0699463-0.0999756,0.1300049-0.1999512,0.1999512-0.2799683c0.0700073-0.0900269,0.1300049-0.1799927,0.2000122-0.2600098
	c0.1000366-0.1199951,0.1900024-0.2299805,0.2800293-0.3399658c0.0999756-0.1000366,0.1799927-0.2000122,0.2699585-0.2800293
	c0.1100464-0.1199951,0.2300415-0.2299805,0.3500366-0.3499756c0.8599854-0.7900391,1.9400024-1.4100342,3.2699585-1.8600464
	C76.5300293,70.289978,78.210022,70,80,70s3.4500122,0.289978,4.9699707,0.8499756
	c1.5600586,0.5200195,2.7900391,1.2600098,3.6800537,2.210022c0.1599731,0.1500244,0.3299561,0.3400269,0.5,0.5599976
	c0.0599976,0.0700073,0.1199951,0.1500244,0.1799927,0.2299805c0.1199951,0.1600342,0.2399902,0.3300171,0.3599854,0.5200195
	c0.0299683,0.0499878,0.0599976,0.0900269,0.0900269,0.1400146c0.0499878,0.0899658,0.0999756,0.1699829,0.1499634,0.2700195
	c0.1500244,0.25,0.2800293,0.5299683,0.4000244,0.8299561c0.0299683,0.0700073,0.0599976,0.1400146,0.0799561,0.210022
	C90.4500122,75.9099731,90.4899902,76,90.5100098,76.0900269c0.0499878,0.1199951,0.0899658,0.2399902,0.1199951,0.3599854
	c0.0299683,0.0800171,0.0499878,0.1699829,0.0700073,0.25c0.0299683,0.1199951,0.0599976,0.2399902,0.0899658,0.3699951
	c0.0900269,0.3800049,0.1500244,0.7799683,0.1799927,1.2000122c-0.289978,0.2199707-0.5799561,0.4299927-0.8799438,0.6300049
	c-0.2900391,0.2099609-0.6000366,0.3999634-0.9100342,0.5799561c-0.210022,0.1300049-0.4199829,0.25-0.6300049,0.3600464
	c-0.1699829,0.0899658-0.3499756,0.1900024-0.5299683,0.2699585c-0.0300293,0.0200195-0.0700073,0.0300293-0.1000366,0.0499878
	c-0.2600098,0.1400146-0.5299683,0.2600098-0.7999878,0.3800049C86.9500122,80.6099854,86.7800293,80.6799927,86.6099854,80.75z"/>
<linearGradient id="SVGID_00000049913097005435371960000003005934316849931692_" gradientUnits="userSpaceOnUse" x1="77.9403381" y1="82.3932266" x2="83.3734207" y2="69.9226151">
	<stop  offset="0" style="stop-color:#EFF0F1"/>
	<stop  offset="1" style="stop-color:#D6D9DB"/>
</linearGradient>
<path style="fill-rule:evenodd;clip-rule:evenodd;fill:url(#SVGID_00000049913097005435371960000003005934316849931692_);" d="
	M90.9699707,78.2700195c-0.289978,0.2199707-0.5799561,0.4299927-0.8799438,0.6300049
	c-0.2900391,0.2099609-0.6000366,0.3999634-0.9100342,0.5799561c-0.210022,0.1300049-0.4199829,0.25-0.6300049,0.3600464
	c-0.1699829,0.0899658-0.3499756,0.1900024-0.5299683,0.2699585c-0.0300293,0.0200195-0.0700073,0.0300293-0.1000366,0.0499878
	c-0.2600098,0.1400146-0.5299683,0.2600098-0.7999878,0.3800049c-0.1699829,0.0700073-0.3399658,0.1400146-0.5100098,0.210022
	c-0.3599854,0.1400146-0.7199707,0.2700195-1.0899658,0.3800049c-0.3400269,0.1199951-0.6900024,0.210022-1.0400391,0.2999878
	C84.2399902,81.5,84,81.5499878,83.7600098,81.5999756c-0.2399902,0.0599976-0.4899902,0.1000366-0.7299805,0.1400146
	c-0.1900024,0.0400391-0.3800049,0.0700073-0.5800171,0.0900269C82.2299805,81.8599854,82,81.8900146,81.7800293,81.9099731
	c-0.2200317,0.0200195-0.4300537,0.0400391-0.6500244,0.0500488c-0.1199951,0.0099487-0.2399902,0.0199585-0.3599854,0.0199585
	C80.5200195,81.9899902,80.2600098,82,80,82s-0.5200195-0.0100098-0.7700195-0.0200195
	c-0.1199951,0-0.2399902-0.0100098-0.3599854-0.0199585c-0.2199707-0.0100098-0.4299927-0.0300293-0.6500244-0.0500488
	C78,81.8900146,77.7700195,81.8599854,77.5499878,81.8300171c-0.2000122-0.0200195-0.3900146-0.0499878-0.5800171-0.0900269
	c-0.2399902-0.039978-0.4899902-0.0800171-0.7299805-0.1400146C76,81.5499878,75.7600098,81.5,75.5200195,81.4299927
	c-0.3500366-0.0899658-0.7000122-0.1799927-1.0400391-0.2999878C74.1099854,81.0200195,73.75,80.8900146,73.3900146,80.75
	c-0.1700439-0.0700073-0.3400269-0.1400146-0.5100098-0.210022c-0.2700195-0.1199951-0.539978-0.2399902-0.7999878-0.3800049
	c-0.0300293-0.0199585-0.0700073-0.0299683-0.1000366-0.0499878c-0.1799927-0.0799561-0.3599854-0.1799927-0.5299683-0.2699585
	c-0.210022-0.1100464-0.4199829-0.2300415-0.6300049-0.3600464c-0.3099976-0.1799927-0.6199951-0.3699951-0.9100342-0.5799561
	c-0.2999878-0.2000122-0.5899658-0.4100342-0.8799438-0.6300049c0.0299683-0.4200439,0.0899658-0.8200073,0.1799927-1.2000122
	c0.0299683-0.1300049,0.0599976-0.25,0.0899658-0.3699951c0.0200195-0.0800171,0.0400391-0.1699829,0.0700073-0.25
	c0.0300293-0.1199951,0.0700073-0.2399902,0.1199951-0.3599854C69.5100098,76,69.539978,75.9099731,69.5900269,75.8200073
	c0.0199585-0.0700073,0.0499878-0.1400146,0.0799561-0.210022c0.0300293-0.0999756,0.0800171-0.2000122,0.1300049-0.289978
	c0.0499878-0.1199951,0.1000366-0.2299805,0.1600342-0.3400269c0.0799561-0.1599731,0.1599731-0.3099976,0.25-0.4499512
	c0.0700073-0.1100464,0.1300049-0.210022,0.1900024-0.3100586c0.0699463-0.0999756,0.1300049-0.1999512,0.1999512-0.2799683
	c0.0700073-0.0900269,0.1300049-0.1799927,0.2000122-0.2600098c0.1000366-0.1199951,0.1900024-0.2299805,0.2800293-0.3399658
	c0.0899658-0.1000366,0.1799927-0.2000122,0.2600098-0.2800293h0.0099487
	c0.1100464-0.1199951,0.2300415-0.2299805,0.3500366-0.3499756c0.8599854-0.7900391,1.9400024-1.4100342,3.2699585-1.8600464
	C76.5300293,70.289978,78.210022,70,80,70s3.4500122,0.289978,4.9699707,0.8499756
	c1.5600586,0.5200195,2.7900391,1.2600098,3.6800537,2.210022c0.1599731,0.1500244,0.3299561,0.3400269,0.5,0.5599976
	c0.0599976,0.0700073,0.1199951,0.1500244,0.1799927,0.2299805c0.1199951,0.1600342,0.2399902,0.3300171,0.3599854,0.5200195
	c0.0299683,0.0499878,0.0599976,0.0900269,0.0900269,0.1400146c0.0499878,0.0899658,0.0999756,0.1699829,0.1499634,0.2700195
	c0.1500244,0.25,0.2800293,0.5299683,0.4000244,0.8299561c0.0299683,0.0700073,0.0599976,0.1400146,0.0799561,0.210022
	C90.4500122,75.9099731,90.4899902,76,90.5100098,76.0900269c0.0499878,0.1199951,0.0899658,0.2399902,0.1199951,0.3599854
	c0.0299683,0.0800171,0.0499878,0.1699829,0.0700073,0.25c0.0299683,0.1199951,0.0599976,0.2399902,0.0899658,0.3699951
	C90.8800049,77.4500122,90.9400024,77.8499756,90.9699707,78.2700195z"/>
<path style="fill-rule:evenodd;clip-rule:evenodd;fill:#EDEDED;" d="M97.972702,65C97.4537964,74.4759979,89.6055984,82,80,82
	s-17.4538002-7.5240021-17.9726982-17C62.009201,65.3310013,62,65.6643982,62,66c0,9.9411011,8.0588989,18,18,18s18-8.0588989,18-18
	C98,65.6643982,97.990799,65.3310013,97.972702,65z"/>
</svg>
