<?xml version="1.0" encoding="utf-8"?>
<!-- Generator: Adobe Illustrator 27.2.0, SVG Export Plug-In . SVG Version: 6.00 Build 0)  -->
<svg version="1.1" id="Warstwa_1" xmlns="http://www.w3.org/2000/svg" xmlns:xlink="http://www.w3.org/1999/xlink" x="0px" y="0px"
	 width="32px" height="32px" viewBox="0 0 32 32" style="enable-background:new 0 0 32 32;" xml:space="preserve">
<path style="fill:#DDDDDD;" d="M32,16c0,4.0700073-1.5200195,7.7800293-4.0200195,10.6099854
	C25.0499878,29.9099731,20.7700195,32,16,32s-9.0499878-2.0900269-11.9799805-5.3900146C1.5200195,23.7800293,0,20.0700073,0,16
	C0,7.1599731,7.1599731,0,16,0S32,7.1599731,32,16z"/>
<defs>
	<filter id="Adobe_OpacityMaskFilter" filterUnits="userSpaceOnUse" x="4.0200195" y="20" width="23.9599609" height="12">
		<feColorMatrix  type="matrix" values="1 0 0 0 0  0 1 0 0 0  0 0 1 0 0  0 0 0 1 0"/>
	</filter>
</defs>
<mask maskUnits="userSpaceOnUse" x="4.0200195" y="20" width="23.9599609" height="12" id="mask0_2123_23856_00000070799273647586549490000006158984310562722461_">
	<circle style="fill:#FAFAFA;filter:url(#Adobe_OpacityMaskFilter);" cx="16" cy="16" r="16"/>
</mask>
<g style="mask:url(#mask0_2123_23856_00000070799273647586549490000006158984310562722461_);">
	<path style="fill:#B3B3B3;" d="M27.9799805,26.6099854C25.0499878,29.9099731,20.7700195,32,16,32
		s-9.0499878-2.0900269-11.9799805-5.3900146C4.3699951,22.9199829,9.5900269,20,16,20S27.6300049,22.9199829,27.9799805,26.6099854
		z"/>
</g>
<circle style="fill:#B3B3B3;" cx="16" cy="12" r="6"/>
</svg>
