<svg width="309" height="265" viewBox="0 0 309 265" fill="none" xmlns="http://www.w3.org/2000/svg">
<path opacity="0.1" d="M160.731 94.7481C169.098 88.6206 202.777 126.081 201.315 128.799C200.92 129.535 199.879 131.214 199.084 131.471C197.639 131.937 167.066 108.42 167.066 108.42C167.066 108.42 211.891 146.853 211.168 148.483C210.445 150.112 207.524 154.328 204.743 156.176C201.702 158.198 175.292 143.003 175.292 143.003C175.292 143.003 193.875 164.71 191.941 168.044C188.591 173.82 177.615 182.452 176.501 182.718C174.176 183.271 154.61 161.213 153.677 162.33C152.745 163.446 163.334 176.831 163.334 176.831C163.334 176.831 161.355 180.678 160.232 181.914C157.893 184.489 108.076 145.373 109.988 140.996C111.158 138.32 113.302 135.752 115.928 132.607C118.554 129.463 119.049 129.19 120.173 128.799C121.298 128.408 164.472 155.96 164.472 155.96C164.472 155.96 115.991 110.598 118.209 106.192C121.211 100.228 122.423 98.7533 127.765 94.7481C131.376 92.0409 186.58 135.287 186.58 135.287C186.58 135.287 153.712 105.439 155.252 101.31C156.418 98.1818 158.038 96.7206 160.731 94.7481Z" fill="#B2B2B2"/>
<path d="M5.53005 148.402C5.23701 148.109 4.76214 148.11 4.46939 148.403C4.17665 148.696 4.1769 149.171 4.46995 149.463L5.53005 148.402ZM165.194 132.885L164.714 132.309L165.194 132.885ZM304.524 116.982C304.844 117.245 305.317 117.198 305.58 116.878C305.842 116.558 305.796 116.086 305.476 115.823L304.524 116.982ZM6.61245 151.508C6.91846 151.787 7.39284 151.765 7.67199 151.459C7.95115 151.153 7.92938 150.679 7.62337 150.4L6.61245 151.508ZM16.8241 157.475C16.4767 157.25 16.0122 157.349 15.7866 157.696C15.561 158.043 15.6598 158.508 16.0071 158.733L16.8241 157.475ZM21.0907 161.773C21.4537 161.972 21.9097 161.84 22.1092 161.477C22.3086 161.114 22.1761 160.658 21.8131 160.458L21.0907 161.773ZM32.3755 165.348C31.9889 165.199 31.555 165.392 31.4064 165.779C31.2579 166.166 31.4509 166.6 31.8375 166.748L32.3755 165.348ZM37.4165 168.69C37.8118 168.814 38.2326 168.594 38.3564 168.199C38.4803 167.804 38.2602 167.383 37.8649 167.259L37.4165 168.69ZM49.17 170.06C48.7628 169.984 48.3713 170.253 48.2957 170.66C48.2201 171.068 48.489 171.459 48.8962 171.535L49.17 170.06ZM54.7451 172.448C55.156 172.5 55.5314 172.209 55.5836 171.798C55.6359 171.387 55.3451 171.012 54.9342 170.959L54.7451 172.448ZM66.5463 171.79C66.1322 171.782 65.7906 172.112 65.7834 172.526C65.7761 172.941 66.106 173.282 66.5202 173.289L66.5463 171.79ZM72.4269 173.238C72.8409 173.223 73.1649 172.876 73.1505 172.462C73.1362 172.048 72.789 171.724 72.375 171.739L72.4269 173.238ZM83.9942 170.751C83.5837 170.806 83.2958 171.184 83.3511 171.594C83.4064 172.005 83.7841 172.292 84.1946 172.237L83.9942 170.751ZM90.0266 171.309C90.434 171.234 90.7037 170.844 90.629 170.436C90.5543 170.029 90.1635 169.759 89.7561 169.834L90.0266 171.309ZM101.125 167.211C100.726 167.322 100.493 167.735 100.604 168.134C100.715 168.533 101.128 168.767 101.527 168.656L101.125 167.211ZM107.177 166.955C107.571 166.827 107.787 166.404 107.659 166.01C107.531 165.616 107.108 165.4 106.714 165.528L107.177 166.955ZM117.665 161.478C117.282 161.637 117.101 162.076 117.26 162.458C117.419 162.841 117.858 163.022 118.24 162.863L117.665 161.478ZM123.645 160.496C124.021 160.322 124.186 159.877 124.012 159.501C123.839 159.125 123.394 158.96 123.017 159.133L123.645 160.496ZM133.465 153.857C133.102 154.056 132.97 154.512 133.17 154.875C133.369 155.238 133.825 155.371 134.188 155.171L133.465 153.857ZM139.294 152.251C139.65 152.04 139.767 151.579 139.556 151.223C139.344 150.867 138.884 150.75 138.528 150.961L139.294 152.251ZM148.375 144.683C148.033 144.916 147.944 145.383 148.178 145.725C148.411 146.067 148.877 146.156 149.22 145.922L148.375 144.683ZM154.048 142.525C154.383 142.282 154.458 141.813 154.215 141.478C153.971 141.143 153.502 141.068 153.167 141.311L154.048 142.525ZM162.431 134.189C162.11 134.45 162.061 134.922 162.322 135.244C162.584 135.565 163.056 135.614 163.377 135.353L162.431 134.189ZM167.918 131.61C168.239 131.348 168.288 130.875 168.026 130.554C167.764 130.233 167.292 130.185 166.971 130.447L167.918 131.61ZM176.048 123.407C175.714 123.653 175.643 124.122 175.888 124.456C176.134 124.79 176.603 124.861 176.937 124.616L176.048 123.407ZM181.553 121.315C181.893 121.079 181.977 120.612 181.741 120.272C181.505 119.931 181.038 119.847 180.697 120.083L181.553 121.315ZM190.343 113.806C189.989 114.021 189.877 114.482 190.091 114.836C190.306 115.19 190.768 115.303 191.122 115.088L190.343 113.806ZM196.03 112.221C196.391 112.018 196.519 111.561 196.316 111.2C196.114 110.839 195.657 110.71 195.295 110.913L196.03 112.221ZM205.512 105.667C205.137 105.841 204.974 106.287 205.149 106.663C205.323 107.039 205.769 107.201 206.145 107.027L205.512 105.667ZM211.366 104.731C211.748 104.572 211.93 104.133 211.771 103.751C211.613 103.368 211.174 103.186 210.791 103.345L211.366 104.731ZM221.616 99.4367C221.22 99.5583 220.998 99.9779 221.119 100.374C221.241 100.77 221.661 100.992 222.056 100.871L221.616 99.4367ZM227.526 99.345C227.927 99.2443 228.171 98.837 228.071 98.4352C227.97 98.0334 227.563 97.7893 227.161 97.89L227.526 99.345ZM238.477 95.7261C238.067 95.7798 237.777 96.1563 237.831 96.5671C237.885 96.9778 238.261 97.2671 238.672 97.2134L238.477 95.7261ZM244.318 96.6519C244.732 96.6239 245.044 96.2662 245.016 95.8529C244.988 95.4397 244.63 95.1273 244.217 95.1553L244.318 96.6519ZM255.743 95.1341C255.33 95.1071 254.973 95.4202 254.946 95.8335C254.919 96.2468 255.232 96.6038 255.645 96.6309L255.743 95.1341ZM261.271 97.1954C261.682 97.251 262.06 96.9634 262.115 96.5529C262.171 96.1425 261.883 95.7646 261.473 95.709L261.271 97.1954ZM272.787 98.0666C272.388 97.9536 271.974 98.185 271.861 98.5835C271.748 98.982 271.979 99.3967 272.378 99.5097L272.787 98.0666ZM277.768 101.246C278.158 101.387 278.588 101.186 278.729 100.796C278.87 100.407 278.668 99.9766 278.278 99.8358L277.768 101.246ZM288.841 104.507C288.475 104.314 288.021 104.454 287.828 104.821C287.635 105.187 287.775 105.641 288.142 105.834L288.841 104.507ZM293.066 108.644C293.419 108.861 293.881 108.751 294.098 108.398C294.315 108.046 294.205 107.584 293.852 107.367L293.066 108.644ZM303.261 114.019C302.938 113.76 302.466 113.812 302.207 114.136C301.948 114.459 302.001 114.931 302.324 115.19L303.261 114.019ZM4.46995 149.463C5.1617 150.154 5.87604 150.836 6.61245 151.508L7.62337 150.4C6.90347 149.743 6.20554 149.077 5.53005 148.402L4.46995 149.463ZM16.0071 158.733C17.6364 159.792 19.3319 160.806 21.0907 161.773L21.8131 160.458C20.0861 159.509 18.4221 158.513 16.8241 157.475L16.0071 158.733ZM31.8375 166.748C33.6502 167.445 35.5107 168.093 37.4165 168.69L37.8649 167.259C35.9891 166.671 34.1586 166.033 32.3755 165.348L31.8375 166.748ZM48.8962 171.535C50.8114 171.89 52.7617 172.195 54.7451 172.448L54.9342 170.959C52.979 170.711 51.057 170.41 49.17 170.06L48.8962 171.535ZM66.5202 173.289C68.4642 173.323 70.4336 173.307 72.4269 173.238L72.375 171.739C70.4077 171.807 68.4643 171.823 66.5463 171.79L66.5202 173.289ZM84.1946 172.237C86.1208 171.977 88.0652 171.669 90.0266 171.309L89.7561 169.834C87.8179 170.189 85.8969 170.494 83.9942 170.751L84.1946 172.237ZM101.527 168.656C103.398 168.136 105.282 167.569 107.177 166.955L106.714 165.528C104.839 166.136 102.976 166.696 101.125 167.211L101.527 168.656ZM118.24 162.863C120.034 162.118 121.835 161.329 123.645 160.496L123.017 159.133C121.225 159.959 119.44 160.74 117.665 161.478L118.24 162.863ZM134.188 155.171C135.885 154.238 137.587 153.265 139.294 152.251L138.528 150.961C136.835 151.967 135.147 152.932 133.465 153.857L134.188 155.171ZM149.22 145.922C150.826 144.827 152.436 143.695 154.048 142.525L153.167 141.311C151.566 142.473 149.969 143.596 148.375 144.683L149.22 145.922ZM163.377 135.353C164.143 134.731 164.909 134.1 165.675 133.46L164.714 132.309C163.952 132.944 163.192 133.571 162.431 134.189L163.377 135.353ZM165.675 133.46C166.425 132.834 167.173 132.217 167.918 131.61L166.971 130.447C166.221 131.058 165.469 131.679 164.714 132.309L165.675 133.46ZM176.937 124.616C178.488 123.474 180.027 122.375 181.553 121.315L180.697 120.083C179.16 121.151 177.61 122.258 176.048 123.407L176.937 124.616ZM191.122 115.088C192.774 114.085 194.41 113.13 196.03 112.221L195.295 110.913C193.661 111.83 192.01 112.794 190.343 113.806L191.122 115.088ZM206.145 107.027C207.907 106.207 209.647 105.443 211.366 104.731L210.791 103.345C209.053 104.065 207.293 104.838 205.512 105.667L206.145 107.027ZM222.056 100.871C223.908 100.302 225.731 99.7946 227.526 99.345L227.161 97.89C225.341 98.346 223.493 98.8603 221.616 99.4367L222.056 100.871ZM238.672 97.2134C240.593 96.962 242.475 96.7766 244.318 96.6519L244.217 95.1553C242.343 95.2822 240.429 95.4706 238.477 95.7261L238.672 97.2134ZM255.645 96.6309C257.573 96.7573 259.448 96.9482 261.271 97.1954L261.473 95.709C259.616 95.4572 257.706 95.2628 255.743 95.1341L255.645 96.6309ZM272.378 99.5097C274.249 100.04 276.046 100.624 277.768 101.246L278.278 99.8358C276.524 99.2015 274.693 98.6072 272.787 98.0666L272.378 99.5097ZM288.142 105.834C289.907 106.765 291.549 107.71 293.066 108.644L293.852 107.367C292.309 106.417 290.638 105.454 288.841 104.507L288.142 105.834ZM302.324 115.19C303.19 115.883 303.922 116.488 304.524 116.982L305.476 115.823C304.878 115.332 304.137 114.719 303.261 114.019L302.324 115.19Z" fill="#CCCCCC"/>
<g clip-path="url(#clip0_1_2659)">
<path d="M173.085 104.498L179.498 103.038C181.165 102.659 182.824 103.703 183.203 105.369L195.57 159.694C195.95 161.36 194.906 163.019 193.239 163.399L138.915 175.766C137.248 176.145 135.589 175.101 135.21 173.435L122.843 119.11C122.464 117.444 123.507 115.785 125.174 115.405L131.587 113.945" fill="white"/>
<path d="M173.085 104.498L179.498 103.038C181.165 102.659 182.824 103.703 183.203 105.369L195.57 159.694C195.95 161.36 194.906 163.019 193.239 163.399L138.915 175.766C137.248 176.145 135.589 175.101 135.21 173.435L122.843 119.11C122.464 117.444 123.507 115.785 125.174 115.405L131.587 113.945" stroke="#B2B2B2" stroke-width="1.5" stroke-miterlimit="10" stroke-linecap="round" stroke-linejoin="round"/>
<path d="M163.644 102.679L159.717 103.573C158.753 103.793 157.733 103.598 156.939 103.009C155.19 101.712 152.909 101.155 150.619 101.677C148.328 102.198 146.513 103.687 145.498 105.614C145.037 106.489 144.202 107.105 143.238 107.325L139.311 108.219C137.703 108.585 136.687 110.2 137.053 111.808L138.298 117.278C138.664 118.886 140.28 119.902 141.888 119.536L166.22 113.997C167.828 113.631 168.845 112.016 168.478 110.408L167.233 104.938C166.867 103.329 165.252 102.313 163.644 102.679Z" fill="#E5E5E5" stroke="#B2B2B2" stroke-width="1.5" stroke-miterlimit="10" stroke-linecap="round" stroke-linejoin="round"/>
<path d="M151.205 109.479L153.468 108.964" stroke="#B2B2B2" stroke-width="1.5" stroke-miterlimit="10" stroke-linecap="round" stroke-linejoin="round"/>
<rect x="135.083" y="135.925" width="46.3125" height="6.5" transform="rotate(-12.8248 135.083 135.925)" fill="#F0F0F0"/>
<rect x="137.608" y="147.017" width="46.3125" height="7.3125" transform="rotate(-12.8248 137.608 147.017)" fill="#F0F0F0"/>
<rect x="140.314" y="158.9" width="46.3125" height="7.3125" transform="rotate(-12.8248 140.314 158.9)" fill="#F0F0F0"/>
</g>
<defs>
<clipPath id="clip0_1_2659">
<rect width="81.25" height="81.25" fill="white" transform="translate(109.719 105.035) rotate(-12.8248)"/>
</clipPath>
</defs>
</svg>
