<svg width="309" height="265" viewBox="0 0 309 265" fill="none" xmlns="http://www.w3.org/2000/svg">
<path opacity="0.1" d="M183.991 20.4005C190.819 18.6677 202.51 50.8247 200.898 52.1655C200.463 52.5281 199.38 53.3216 198.814 53.2811C197.786 53.2075 184.506 30.6226 184.506 30.6226C184.506 30.6226 202.971 66.226 202.101 67.0686C201.232 67.9111 198.32 69.8244 196.099 70.2817C193.669 70.7819 180.896 54.4974 180.896 54.4974C180.896 54.4974 187.084 72.8946 185.018 74.503C181.44 77.2892 172.332 79.9368 171.562 79.8205C169.958 79.5779 163.24 60.7105 162.369 61.1768C161.498 61.6431 164.765 72.7658 164.765 72.7658C164.765 72.7658 162.54 74.6859 161.519 75.179C159.391 76.2067 137.955 38.9038 140.272 36.6334C141.689 35.2447 143.693 34.1723 146.146 32.8591C148.599 31.5459 148.98 31.5 149.788 31.5396C150.596 31.5792 170.787 59.9087 170.787 59.9087C170.787 59.9087 151.78 19.0115 154.297 16.7998C157.705 13.8064 158.842 13.1855 163.225 12.0206C166.188 11.2333 189.968 52.5062 189.968 52.5062C189.968 52.5062 176.852 25.3505 178.871 23.1409C180.401 21.467 181.793 20.9584 183.991 20.4005Z" fill="#B2B2B2"/>
<path d="M5.53848 146.978C5.25015 146.68 4.77534 146.673 4.47794 146.961C4.18055 147.25 4.1732 147.725 4.46152 148.022L5.53848 146.978ZM101.5 108.342L100.757 108.237L101.5 108.342ZM304.399 117.97C304.648 118.301 305.118 118.369 305.449 118.121C305.781 117.872 305.849 117.402 305.6 117.071L304.399 117.97ZM6.64144 150.195C6.93977 150.482 7.41456 150.473 7.70191 150.175C7.98926 149.877 7.98036 149.402 7.68202 149.115L6.64144 150.195ZM16.7945 156.751C16.4591 156.508 15.9902 156.582 15.747 156.918C15.5038 157.253 15.5785 157.722 15.9139 157.965L16.7945 156.751ZM20.9219 161.335C21.2734 161.554 21.736 161.446 21.955 161.095C22.174 160.743 22.0666 160.281 21.715 160.061L20.9219 161.335ZM32.2225 165.637C31.8443 165.469 31.4008 165.638 31.2319 166.017C31.063 166.395 31.2327 166.838 31.6109 167.007L32.2225 165.637ZM37.2159 169.294C37.6043 169.438 38.0359 169.24 38.18 168.851C38.324 168.463 38.126 168.031 37.7377 167.887L37.2159 169.294ZM49.1352 171.348C48.7326 171.251 48.3273 171.498 48.2301 171.901C48.1328 172.303 48.3804 172.709 48.783 172.806L49.1352 171.348ZM54.6879 174.066C55.0951 174.142 55.4867 173.873 55.5626 173.466C55.6384 173.059 55.3698 172.667 54.9626 172.591L54.6879 174.066ZM66.7852 174.211C66.3727 174.174 66.0078 174.477 65.9701 174.89C65.9325 175.302 66.2363 175.667 66.6488 175.705L66.7852 174.211ZM72.6932 176.131C73.1068 176.152 73.4591 175.834 73.48 175.42C73.5008 175.006 73.1824 174.654 72.7687 174.633L72.6932 176.131ZM84.7173 174.803C84.3032 174.811 83.9741 175.153 83.9822 175.567C83.9903 175.982 84.3326 176.311 84.7468 176.303L84.7173 174.803ZM90.7577 176.093C91.1714 176.072 91.4901 175.72 91.4696 175.307C91.449 174.893 91.097 174.574 90.6833 174.595L90.7577 176.093ZM102.625 173.682C102.213 173.724 101.912 174.092 101.954 174.504C101.996 174.916 102.364 175.216 102.776 175.175L102.625 173.682ZM108.767 174.499C109.178 174.448 109.47 174.074 109.419 173.663C109.368 173.252 108.994 172.96 108.583 173.011L108.767 174.499ZM120.448 171.313C120.039 171.378 119.761 171.763 119.827 172.172C119.893 172.581 120.278 172.859 120.687 172.793L120.448 171.313ZM126.62 171.789C127.027 171.717 127.3 171.328 127.227 170.92C127.155 170.512 126.766 170.24 126.358 170.312L126.62 171.789ZM138.143 168.067C137.737 168.149 137.474 168.545 137.557 168.951C137.639 169.357 138.035 169.619 138.441 169.537L138.143 168.067ZM144.334 168.311C144.739 168.225 144.998 167.826 144.911 167.421C144.825 167.016 144.427 166.758 144.022 166.844L144.334 168.311ZM155.747 164.252C155.343 164.344 155.09 164.746 155.182 165.15C155.274 165.553 155.676 165.806 156.08 165.714L155.747 164.252ZM161.924 164.368C162.327 164.274 162.578 163.871 162.484 163.467C162.39 163.064 161.987 162.813 161.584 162.907L161.924 164.368ZM173.267 160.16C172.864 160.255 172.615 160.659 172.71 161.062C172.805 161.466 173.209 161.715 173.612 161.62L173.267 160.16ZM179.492 160.235C179.896 160.14 180.146 159.737 180.051 159.333C179.956 158.93 179.553 158.68 179.15 158.774L179.492 160.235ZM190.866 156.077C190.461 156.168 190.207 156.569 190.298 156.973C190.388 157.377 190.789 157.631 191.193 157.541L190.866 156.077ZM197.047 156.257C197.452 156.17 197.71 155.771 197.624 155.366C197.537 154.961 197.138 154.703 196.733 154.79L197.047 156.257ZM208.557 152.427C208.149 152.502 207.879 152.892 207.954 153.3C208.028 153.707 208.419 153.977 208.826 153.903L208.557 152.427ZM214.684 152.899C215.093 152.834 215.372 152.45 215.306 152.041C215.241 151.631 214.857 151.353 214.448 151.418L214.684 152.899ZM226.469 149.892C226.057 149.928 225.752 150.292 225.788 150.705C225.825 151.118 226.189 151.423 226.602 151.386L226.469 149.892ZM232.526 151.009C232.94 150.994 233.263 150.646 233.248 150.232C233.233 149.818 232.885 149.495 232.471 149.51L232.526 151.009ZM244.587 149.98C244.177 149.925 243.8 150.214 243.746 150.625C243.691 151.036 243.98 151.413 244.391 151.467L244.587 149.98ZM250.188 152.614C250.588 152.723 251 152.488 251.109 152.088C251.219 151.689 250.983 151.276 250.584 151.167L250.188 152.614ZM261.511 156.613C261.191 156.349 260.719 156.394 260.455 156.713C260.191 157.032 260.236 157.505 260.555 157.769L261.511 156.613ZM264.499 161.991C264.741 162.328 265.21 162.404 265.546 162.162C265.882 161.92 265.959 161.452 265.717 161.115L264.499 161.991ZM270.524 172.278C270.433 171.874 270.031 171.621 269.627 171.713C269.223 171.804 268.97 172.206 269.061 172.61L270.524 172.278ZM269.974 178.419C270.013 178.831 270.379 179.134 270.792 179.094C271.204 179.055 271.506 178.689 271.467 178.277L269.974 178.419ZM271.522 190.392C271.551 189.979 271.24 189.621 270.827 189.591C270.413 189.562 270.055 189.873 270.025 190.287L271.522 190.392ZM269.384 196.579C269.329 196.989 269.617 197.367 270.028 197.421C270.439 197.476 270.816 197.188 270.871 196.777L269.384 196.579ZM268.376 208.962C268.49 208.564 268.26 208.148 267.862 208.034C267.463 207.92 267.048 208.15 266.934 208.549L268.376 208.962ZM265.002 214.301C264.851 214.687 265.042 215.122 265.428 215.272C265.814 215.423 266.249 215.232 266.399 214.846L265.002 214.301ZM260.618 225.872C260.853 225.532 260.768 225.064 260.428 224.829C260.087 224.593 259.62 224.678 259.384 225.019L260.618 225.872ZM255.594 229.757C255.313 230.061 255.331 230.535 255.635 230.816C255.939 231.098 256.414 231.079 256.695 230.775L255.594 229.757ZM246.918 238.558C247.278 238.353 247.403 237.895 247.198 237.535C246.992 237.175 246.534 237.05 246.174 237.255L246.918 238.558ZM240.718 239.848C240.331 239.998 240.14 240.433 240.29 240.819C240.44 241.205 240.874 241.396 241.26 241.247L240.718 239.848ZM229.113 244.174C229.525 244.127 229.821 243.756 229.774 243.344C229.728 242.932 229.356 242.636 228.945 242.683L229.113 244.174ZM222.854 243.04C222.439 243.043 222.106 243.381 222.109 243.795C222.112 244.209 222.45 244.543 222.864 244.54L222.854 243.04ZM210.475 243.509C210.884 243.577 211.27 243.301 211.338 242.893C211.406 242.484 211.13 242.098 210.722 242.03L210.475 243.509ZM204.735 240.809C204.333 240.713 203.928 240.961 203.831 241.364C203.734 241.766 203.982 242.171 204.385 242.268L204.735 240.809ZM192.476 238.615C192.865 238.759 193.296 238.561 193.44 238.173C193.585 237.784 193.387 237.353 192.998 237.208L192.476 238.615ZM187.333 234.935C186.953 234.771 186.512 234.946 186.348 235.326C186.184 235.707 186.359 236.148 186.739 236.312L187.333 234.935ZM175.574 230.857C175.937 231.055 176.393 230.921 176.591 230.558C176.79 230.194 176.656 229.739 176.292 229.54L175.574 230.857ZM170.982 226.492C170.627 226.279 170.166 226.393 169.953 226.748C169.739 227.103 169.854 227.564 170.208 227.777L170.982 226.492ZM159.843 220.952C160.18 221.193 160.648 221.116 160.889 220.779C161.131 220.443 161.053 219.974 160.716 219.733L159.843 220.952ZM155.802 216.068C155.475 215.814 155.004 215.874 154.75 216.201C154.496 216.528 154.556 217 154.883 217.253L155.802 216.068ZM145.375 209.289C145.682 209.566 146.156 209.542 146.434 209.235C146.711 208.927 146.687 208.453 146.38 208.175L145.375 209.289ZM141.905 203.979C141.608 203.69 141.133 203.696 140.844 203.993C140.555 204.29 140.562 204.765 140.858 205.053L141.905 203.979ZM132.309 196.076C132.583 196.387 133.057 196.417 133.368 196.143C133.678 195.869 133.708 195.395 133.434 195.084L132.309 196.076ZM129.462 190.399C129.2 190.078 128.728 190.03 128.407 190.291C128.086 190.553 128.037 191.025 128.299 191.346L129.462 190.399ZM120.867 181.423C121.101 181.765 121.568 181.852 121.91 181.618C122.251 181.383 122.338 180.917 122.104 180.575L120.867 181.423ZM118.741 175.437C118.522 175.086 118.059 174.978 117.708 175.197C117.356 175.417 117.249 175.879 117.468 176.231L118.741 175.437ZM111.397 165.414C111.583 165.784 112.033 165.934 112.404 165.749C112.774 165.564 112.924 165.113 112.739 164.743L111.397 165.414ZM110.134 159.191C109.968 158.811 109.526 158.639 109.146 158.805C108.767 158.971 108.594 159.413 108.76 159.793L110.134 159.191ZM104.399 148.17C104.522 148.566 104.943 148.786 105.338 148.662C105.734 148.539 105.954 148.118 105.831 147.723L104.399 148.17ZM104.179 141.828C104.079 141.426 103.672 141.18 103.27 141.28C102.868 141.38 102.623 141.786 102.723 142.188L104.179 141.828ZM100.509 129.963C100.556 130.374 100.928 130.67 101.339 130.623C101.751 130.577 102.046 130.205 102 129.794L100.509 129.963ZM101.519 123.701C101.501 123.287 101.151 122.966 100.737 122.984C100.324 123.002 100.003 123.352 100.021 123.766L101.519 123.701ZM100.379 111.34C100.336 111.752 100.636 112.121 101.048 112.163C101.46 112.205 101.828 111.906 101.871 111.494L100.379 111.34ZM102.698 105.491C102.766 105.083 102.49 104.696 102.082 104.628C101.673 104.56 101.287 104.835 101.218 105.244L102.698 105.491ZM103.805 93.6692C103.692 94.0675 103.923 94.4825 104.321 94.5959C104.719 94.7094 105.134 94.4785 105.248 94.0801L103.805 93.6692ZM107.024 88.5166C107.163 88.1263 106.959 87.6974 106.569 87.5587C106.179 87.4199 105.75 87.6238 105.611 88.0141L107.024 88.5166ZM110.365 77.1497C110.171 77.5157 110.31 77.9696 110.676 78.1636C111.042 78.3575 111.496 78.218 111.69 77.852L110.365 77.1497ZM114.633 72.8031C114.856 72.4542 114.754 71.9904 114.406 71.7672C114.057 71.544 113.593 71.6459 113.37 71.9948L114.633 72.8031ZM120.629 62.5748C120.348 62.8788 120.366 63.3533 120.67 63.6346C120.974 63.916 121.448 63.8976 121.73 63.5936L120.629 62.5748ZM125.872 59.5156C126.181 59.2392 126.207 58.765 125.93 58.4565C125.654 58.148 125.18 58.1221 124.871 58.3985L125.872 59.5156ZM134.449 51.3214C134.095 51.5353 133.981 51.9963 134.194 52.351C134.408 52.7057 134.869 52.8199 135.224 52.606L134.449 51.3214ZM140.342 49.8316C140.714 49.6508 140.87 49.2022 140.689 48.8295C140.508 48.4568 140.06 48.3012 139.687 48.4819L140.342 49.8316ZM150.795 44.2365C150.397 44.3517 150.168 44.7676 150.283 45.1655C150.399 45.5633 150.814 45.7926 151.212 45.6774L150.795 44.2365ZM156.875 44.277C157.281 44.193 157.541 43.7961 157.457 43.3905C157.373 42.9849 156.976 42.7242 156.571 42.8081L156.875 44.277ZM168.366 41.2349C167.953 41.2615 167.639 41.6182 167.666 42.0316C167.693 42.445 168.049 42.7584 168.463 42.7318L168.366 41.2349ZM174.291 42.5398C174.705 42.5389 175.041 42.2024 175.04 41.7881C175.039 41.3739 174.702 41.0389 174.288 41.0398L174.291 42.5398ZM186.128 41.6931C185.716 41.6477 185.345 41.9447 185.3 42.3564C185.255 42.7681 185.552 43.1387 185.963 43.1841L186.128 41.6931ZM191.778 43.9763C192.187 44.0424 192.572 43.7646 192.639 43.3557C192.705 42.9468 192.427 42.5617 192.018 42.4955L191.778 43.9763ZM203.601 44.931C203.2 44.8276 202.791 45.069 202.687 45.4701C202.584 45.8712 202.825 46.2802 203.226 46.3835L203.601 44.931ZM208.875 47.9682C209.271 48.0884 209.69 47.8645 209.81 47.4681C209.93 47.0717 209.706 46.653 209.31 46.5328L208.875 47.9682ZM220.496 50.4162C220.11 50.2654 219.675 50.4559 219.524 50.8417C219.374 51.2275 219.564 51.6625 219.95 51.8133L220.496 50.4162ZM225.373 54.049C225.753 54.2137 226.195 54.0393 226.359 53.6593C226.524 53.2792 226.35 52.8376 225.97 52.6728L225.373 54.049ZM236.659 57.7587C236.291 57.5681 235.838 57.7117 235.648 58.0794C235.457 58.4472 235.601 58.8998 235.969 59.0904L236.659 57.7587ZM241.134 61.8771C241.496 62.0797 241.953 61.951 242.155 61.5897C242.358 61.2285 242.229 60.7713 241.868 60.5688L241.134 61.8771ZM251.998 66.6797C251.65 66.4548 251.186 66.5544 250.961 66.9022C250.736 67.25 250.836 67.7143 251.184 67.9393L251.998 66.6797ZM256.069 71.2054C256.41 71.4408 256.877 71.3554 257.113 71.0146C257.348 70.6737 257.263 70.2066 256.922 69.9712L256.069 71.2054ZM266.447 76.9767C266.12 76.7216 265.649 76.7793 265.394 77.1057C265.139 77.432 265.196 77.9033 265.523 78.1584L266.447 76.9767ZM270.108 81.851C270.426 82.1155 270.899 82.0714 271.164 81.7526C271.428 81.4338 271.384 80.961 271.065 80.6965L270.108 81.851ZM279.943 88.4968C279.639 88.2147 279.165 88.2319 278.883 88.5353C278.601 88.8386 278.618 89.3131 278.921 89.5952L279.943 88.4968ZM283.168 93.6567C283.463 93.9472 283.938 93.9432 284.229 93.6479C284.519 93.3526 284.515 92.8777 284.22 92.5873L283.168 93.6567ZM292.425 101.118C292.146 100.811 291.672 100.789 291.365 101.068C291.059 101.346 291.036 101.821 291.315 102.127L292.425 101.118ZM295.197 106.512C295.467 106.826 295.941 106.861 296.255 106.591C296.568 106.321 296.604 105.847 296.333 105.533L295.197 106.512ZM303.804 114.705C303.551 114.376 303.08 114.315 302.752 114.568C302.424 114.821 302.363 115.292 302.616 115.62L303.804 114.705ZM4.46152 148.022C5.18041 148.763 5.90711 149.488 6.64144 150.195L7.68202 149.115C6.96007 148.419 6.24549 147.707 5.53848 146.978L4.46152 148.022ZM15.9139 157.965C17.5546 159.155 19.2245 160.277 20.9219 161.335L21.715 160.061C20.0472 159.023 18.4065 157.92 16.7945 156.751L15.9139 157.965ZM31.6109 167.007C33.455 167.831 35.324 168.592 37.2159 169.294L37.7377 167.887C35.8753 167.196 34.0363 166.447 32.2225 165.637L31.6109 167.007ZM48.783 172.806C50.7332 173.277 52.702 173.696 54.6879 174.066L54.9626 172.591C53.0017 172.226 51.0587 171.812 49.1352 171.348L48.783 172.806ZM66.6488 175.705C68.6511 175.888 70.6664 176.029 72.6932 176.131L72.7687 174.633C70.7614 174.532 68.7664 174.392 66.7852 174.211L66.6488 175.705ZM84.7468 176.303C86.7431 176.263 88.7473 176.193 90.7577 176.093L90.6833 174.595C88.6871 174.694 86.698 174.764 84.7173 174.803L84.7468 176.303ZM102.776 175.175C104.77 174.972 106.767 174.746 108.767 174.499L108.583 173.011C106.594 173.256 104.607 173.481 102.625 173.682L102.776 175.175ZM120.687 172.793C122.665 172.474 124.643 172.139 126.62 171.789L126.358 170.312C124.389 170.661 122.419 170.995 120.448 171.313L120.687 172.793ZM138.441 169.537C140.41 169.138 142.375 168.728 144.334 168.311L144.022 166.844C142.067 167.26 140.107 167.669 138.143 168.067L138.441 169.537ZM156.08 165.714C158.037 165.268 159.986 164.818 161.924 164.368L161.584 162.907C159.648 163.357 157.701 163.806 155.747 164.252L156.08 165.714ZM173.612 161.62C175.587 161.154 177.548 160.691 179.492 160.235L179.15 158.774C177.204 159.231 175.243 159.694 173.267 160.16L173.612 161.62ZM191.193 157.541C193.167 157.099 195.119 156.67 197.047 156.257L196.733 154.79C194.799 155.204 192.843 155.634 190.866 156.077L191.193 157.541ZM208.826 153.903C210.812 153.54 212.765 153.205 214.684 152.899L214.448 151.418C212.517 151.725 210.553 152.063 208.557 152.427L208.826 153.903ZM226.602 151.386C228.632 151.206 230.608 151.079 232.526 151.009L232.471 149.51C230.525 149.581 228.523 149.71 226.469 149.892L226.602 151.386ZM244.391 151.467C246.431 151.736 248.365 152.115 250.188 152.614L250.584 151.167C248.688 150.648 246.686 150.257 244.587 149.98L244.391 151.467ZM260.555 157.769C262.027 158.985 263.345 160.387 264.499 161.991L265.717 161.115C264.487 159.406 263.081 157.91 261.511 156.613L260.555 157.769ZM269.061 172.61C269.47 174.408 269.775 176.342 269.974 178.419L271.467 178.277C271.263 176.142 270.948 174.144 270.524 172.278L269.061 172.61ZM270.025 190.287C269.953 191.308 269.863 192.354 269.754 193.424L271.246 193.576C271.357 192.491 271.448 191.43 271.522 190.392L270.025 190.287ZM269.754 193.424C269.645 194.495 269.521 195.547 269.384 196.579L270.871 196.777C271.01 195.729 271.136 194.662 271.246 193.576L269.754 193.424ZM266.934 208.549C266.357 210.564 265.711 212.48 265.002 214.301L266.399 214.846C267.126 212.98 267.786 211.019 268.376 208.962L266.934 208.549ZM259.384 225.019C258.201 226.729 256.935 228.307 255.594 229.757L256.695 230.775C258.085 229.272 259.395 227.639 260.618 225.872L259.384 225.019ZM246.174 237.255C244.426 238.253 242.605 239.116 240.718 239.848L241.26 241.247C243.214 240.488 245.103 239.594 246.918 238.558L246.174 237.255ZM228.945 242.683C226.957 242.908 224.925 243.026 222.854 243.04L222.864 244.54C224.985 244.525 227.07 244.405 229.113 244.174L228.945 242.683ZM210.722 242.03C208.745 241.7 206.748 241.293 204.735 240.809L204.385 242.268C206.431 242.759 208.462 243.174 210.475 243.509L210.722 242.03ZM192.998 237.208C191.114 236.509 189.224 235.75 187.333 234.935L186.739 236.312C188.653 237.137 190.567 237.905 192.476 238.615L192.998 237.208ZM176.292 229.54C174.516 228.57 172.745 227.553 170.982 226.492L170.208 227.777C171.988 228.849 173.778 229.876 175.574 230.857L176.292 229.54ZM160.716 219.733C159.063 218.548 157.424 217.326 155.802 216.068L154.883 217.253C156.52 218.523 158.174 219.757 159.843 220.952L160.716 219.733ZM146.38 208.175C144.865 206.807 143.373 205.408 141.905 203.979L140.858 205.053C142.34 206.496 143.846 207.908 145.375 209.289L146.38 208.175ZM133.434 195.084C132.079 193.548 130.754 191.986 129.462 190.399L128.299 191.346C129.604 192.949 130.941 194.526 132.309 196.076L133.434 195.084ZM122.104 180.575C120.943 178.883 119.822 177.17 118.741 175.437L117.468 176.231C118.561 177.982 119.694 179.714 120.867 181.423L122.104 180.575ZM112.739 164.743C111.821 162.908 110.952 161.057 110.134 159.191L108.76 159.793C109.589 161.683 110.469 163.557 111.397 165.414L112.739 164.743ZM105.831 147.723C105.22 145.769 104.668 143.803 104.179 141.828L102.723 142.188C103.22 144.194 103.78 146.188 104.399 148.17L105.831 147.723ZM102 129.794C101.769 127.768 101.608 125.737 101.519 123.701L100.021 123.766C100.111 125.838 100.275 127.904 100.509 129.963L102 129.794ZM101.871 111.494C101.975 110.478 102.099 109.462 102.243 108.447L100.757 108.237C100.611 109.271 100.485 110.306 100.379 111.34L101.871 111.494ZM102.243 108.447C102.383 107.449 102.535 106.464 102.698 105.491L101.218 105.244C101.054 106.23 100.9 107.227 100.757 108.237L102.243 108.447ZM105.248 94.0801C105.792 92.169 106.385 90.3147 107.024 88.5166L105.611 88.0141C104.961 89.8431 104.358 91.728 103.805 93.6692L105.248 94.0801ZM111.69 77.852C112.618 76.1004 113.6 74.4177 114.633 72.8031L113.37 71.9948C112.314 73.6444 111.312 75.3625 110.365 77.1497L111.69 77.852ZM121.73 63.5936C123.058 62.158 124.44 60.799 125.872 59.5156L124.871 58.3985C123.404 59.7131 121.989 61.105 120.629 62.5748L121.73 63.5936ZM135.224 52.606C136.884 51.6048 138.591 50.6803 140.342 49.8316L139.687 48.4819C137.897 49.3501 136.15 50.2963 134.449 51.3214L135.224 52.606ZM151.212 45.6774C153.066 45.1411 154.954 44.6746 156.875 44.277L156.571 42.8081C154.613 43.2133 152.687 43.6892 150.795 44.2365L151.212 45.6774ZM168.463 42.7318C170.383 42.6078 172.327 42.5441 174.291 42.5398L174.288 41.0398C172.293 41.0441 170.318 41.1089 168.366 41.2349L168.463 42.7318ZM185.963 43.1841C187.888 43.3963 189.827 43.6606 191.778 43.9763L192.018 42.4955C190.043 42.1759 188.078 41.9082 186.128 41.6931L185.963 43.1841ZM203.226 46.3835C205.103 46.8672 206.986 47.3955 208.875 47.9682L209.31 46.5328C207.402 45.9541 205.498 45.42 203.601 44.931L203.226 46.3835ZM219.95 51.8133C221.757 52.5195 223.565 53.2649 225.373 54.049L225.97 52.6728C224.145 51.8816 222.32 51.1292 220.496 50.4162L219.95 51.8133ZM235.969 59.0904C237.694 59.9848 239.416 60.9138 241.134 61.8771L241.868 60.5688C240.136 59.5975 238.399 58.6607 236.659 57.7587L235.969 59.0904ZM251.184 67.9393C252.819 68.9969 254.448 70.0858 256.069 71.2054L256.922 69.9712C255.288 68.8429 253.647 67.7456 251.998 66.6797L251.184 67.9393ZM265.523 78.1584C267.061 79.361 268.59 80.592 270.108 81.851L271.065 80.6965C269.536 79.4283 267.996 78.1882 266.447 76.9767L265.523 78.1584ZM278.921 89.5952C280.349 90.9233 281.765 92.2772 283.168 93.6567L284.22 92.5873C282.807 91.198 281.381 89.8344 279.943 88.4968L278.921 89.5952ZM291.315 102.127C292.624 103.565 293.918 105.027 295.197 106.512L296.333 105.533C295.046 104.038 293.742 102.566 292.425 101.118L291.315 102.127ZM302.616 115.62C303.214 116.398 303.809 117.181 304.399 117.97L305.6 117.071C305.006 116.277 304.407 115.488 303.804 114.705L302.616 115.62Z" fill="#CCCCCC"/>
<g clip-path="url(#clip0_1_2657)">
<path d="M189.294 29.6821L193.705 30.3927C194.851 30.5773 195.631 31.6565 195.446 32.8028L189.427 70.165C189.243 71.3113 188.163 72.0909 187.017 71.9063L149.655 65.887C148.509 65.7024 147.729 64.6233 147.914 63.477L153.933 26.1147C154.117 24.9684 155.197 24.1888 156.343 24.3735L160.754 25.0841" fill="white"/>
<path d="M189.294 29.6821L193.705 30.3927C194.851 30.5773 195.631 31.6565 195.446 32.8028L189.427 70.165C189.243 71.3113 188.163 72.0909 187.017 71.9063L149.655 65.887C148.509 65.7024 147.729 64.6233 147.914 63.477L153.933 26.1147C154.117 24.9684 155.197 24.1888 156.343 24.3735L160.754 25.0841" stroke="#B2B2B2" stroke-width="1.5" stroke-miterlimit="10" stroke-linecap="round" stroke-linejoin="round"/>
<path d="M183.81 26.1366L181.109 25.7016C180.446 25.5947 179.853 25.213 179.502 24.6401C178.731 23.3783 177.435 22.4477 175.86 22.194C174.285 21.9402 172.763 22.4169 171.634 23.3724C171.121 23.8062 170.438 23.9824 169.775 23.8756L167.075 23.4405C165.969 23.2624 164.918 24.0213 164.74 25.1274L164.134 28.8896C163.955 29.9956 164.715 31.0462 165.821 31.2243L182.556 33.9204C183.661 34.0986 184.712 33.3396 184.89 32.2336L185.497 28.4714C185.675 27.3653 184.915 26.3148 183.81 26.1366Z" fill="#E5E5E5" stroke="#B2B2B2" stroke-width="1.5" stroke-miterlimit="10" stroke-linecap="round" stroke-linejoin="round"/>
<path d="M174.246 27.2578L175.802 27.5086" stroke="#B2B2B2" stroke-width="1.5" stroke-miterlimit="10" stroke-linecap="round" stroke-linejoin="round"/>
<rect x="157.369" y="39.8184" width="31.4578" height="4.41513" transform="rotate(9.15195 157.369 39.8184)" fill="#F0F0F0"/>
<rect x="156.14" y="47.4463" width="31.4578" height="4.96703" transform="rotate(9.15195 156.14 47.4463)" fill="#F0F0F0"/>
<rect x="154.823" y="55.6196" width="31.4578" height="4.96703" transform="rotate(9.15195 154.823 55.6196)" fill="#F0F0F0"/>
</g>
<defs>
<clipPath id="clip0_1_2657">
<rect width="55.1892" height="55.1892" fill="white" transform="translate(149.244 13.9131) rotate(9.15195)"/>
</clipPath>
</defs>
</svg>
