<svg width="160" height="136" viewBox="0 0 160 136" fill="none" xmlns="http://www.w3.org/2000/svg">
<path d="M140 80.5C140 82.3 139.27 83.92 138.1 85.1C136.92 86.27 135.3 87 133.5 87H93.4997C91.8297 87.06 90.3297 87.76 89.2497 88.84C88.1597 89.92 87.4997 91.38 87.4997 93C87.4997 96.23 90.1597 98.87 93.4997 99C97.0897 99 100 101.91 100 105.5C100 107.3 99.27 108.92 98.1 110.1C96.92 111.27 95.3 112 93.5 112H23.5C19.91 112 17 109.09 17 105.5C17 103.7 17.73 102.08 18.9 100.9C20.08 99.73 21.7 99 23.5 99H28C31.34 98.87 34 96.23 34 93C34 89.77 31.34 87.13 28 87H26.5C22.91 87 20 84.09 20 80.5C20 78.7 20.73 77.08 21.9 75.9C23.08 74.73 24.7 74 26.5 74H39C42.34 73.87 45 71.23 45 68C45 64.77 42.34 62.13 39 62H17.5C13.91 62 11 59.09 11 55.5C11 53.7 11.73 52.08 12.9 50.9C14.08 49.73 15.7 49 17.5 49H58C61.34 48.87 64 46.23 64 43C64 39.77 61.34 37.13 58 37H54.5C50.91 37 48 34.09 48 30.5C48 28.7 48.73 27.08 49.9 25.9C51.08 24.73 52.7 24 54.5 24H122.5C126.09 24 129 26.91 129 30.5C129 32.3 128.27 33.92 127.1 35.1C125.92 36.27 124.3 37 122.5 37H120C118.33 37.06 116.83 37.76 115.75 38.84C114.66 39.92 114 41.38 114 43C114 46.23 116.66 48.87 120 49H134.5C138.09 49 141 51.91 141 55.5C141 57.3 140.27 58.92 139.1 60.1C137.92 61.27 136.3 62 134.5 62H101C99.33 62.06 97.83 62.76 96.75 63.84C95.66 64.92 95 66.38 95 68C95 71.23 97.66 73.87 101 74H133.5C137.09 74 140 76.91 140 80.5Z" fill="#F5F5F5"/>
<path d="M37.5375 46.6259C37.2512 44.1624 39.1768 42 41.6569 42H62.4456C64.381 42 66.0591 43.3387 66.4892 45.2257L66.6053 45.7355C67.0354 47.6225 68.7135 48.9612 70.6489 48.9612H100.678C103.69 48.9612 106.235 51.1943 106.627 54.1808L112.416 98.3134C112.742 100.797 110.809 103 108.304 103H45.4735C44.684 103 44.0198 102.409 43.9287 101.624L37.5375 46.6259Z" fill="url(#paint0_radial_1385_1119)"/>
<path d="M58.8122 63.2445C59.968 60.0942 62.967 58 66.3227 58H121C125.179 58 128.079 62.1666 126.626 66.0856L113.944 100.294C113.341 101.921 111.79 103 110.055 103H45.7113C44.9906 103 44.4897 102.283 44.738 101.606L58.8122 63.2445Z" fill="url(#paint1_linear_1385_1119)"/>
<path d="M97 66H118C118.552 66 119 66.4477 119 67C119 67.5523 118.552 68 118 68H97C96.4477 68 96 67.5523 96 67C96 66.4477 96.4477 66 97 66Z" fill="#FFF9C4"/>
<path d="M106 72H115C115.552 72 116 72.4477 116 73C116 73.5523 115.552 74 115 74H106C105.448 74 105 73.5523 105 73C105 72.4477 105.448 72 106 72Z" fill="#FFF9C4"/>
<path d="M100 78H112C112.552 78 113 78.4477 113 79C113 79.5523 112.552 80 112 80H100C99.4477 80 99 79.5523 99 79C99 78.4477 99.4477 78 100 78Z" fill="#FFF9C4"/>
<path fill-rule="evenodd" clip-rule="evenodd" d="M100.115 38.7453C99.5674 38.6748 99.1805 38.1736 99.251 37.6259L99.9196 32.4313C99.9902 31.8836 100.491 31.4967 101.039 31.5672C101.587 31.6377 101.974 32.1389 101.903 32.6867L101.235 37.8812C101.164 38.429 100.663 38.8158 100.115 38.7453Z" fill="#B3B3B3"/>
<path fill-rule="evenodd" clip-rule="evenodd" d="M106.561 42.3362C106.135 41.9849 106.074 41.3546 106.425 40.9285L112.54 33.5105C112.892 33.0843 113.522 33.0236 113.948 33.3749C114.374 33.7263 114.435 34.3565 114.084 34.7827L107.968 42.2006C107.617 42.6268 106.987 42.6875 106.561 42.3362Z" fill="#B3B3B3"/>
<path fill-rule="evenodd" clip-rule="evenodd" d="M112.451 47.8264C112.207 47.3311 112.41 46.7315 112.906 46.4872L117.985 43.9813C118.48 43.7369 119.08 43.9404 119.324 44.4356C119.568 44.9309 119.365 45.5305 118.87 45.7749L113.791 48.2808C113.295 48.5251 112.696 48.3217 112.451 47.8264Z" fill="#B3B3B3"/>
<defs>
<radialGradient id="paint0_radial_1385_1119" cx="0" cy="0" r="1" gradientUnits="userSpaceOnUse" gradientTransform="translate(69.6152 99.1025) rotate(-58.8202) scale(86.1959 105.897)">
<stop stop-color="#F9B93E"/>
<stop offset="1" stop-color="#FBD283"/>
</radialGradient>
<linearGradient id="paint1_linear_1385_1119" x1="84.4454" y1="95.5551" x2="96.6524" y2="-13.3691" gradientUnits="userSpaceOnUse">
<stop stop-color="#FBD283"/>
<stop offset="1" stop-color="#FDEAC4"/>
</linearGradient>
</defs>
</svg>
