<svg width="324" height="30" viewBox="0 0 324 30" fill="none" xmlns="http://www.w3.org/2000/svg">
<path d="M16.8022 24L13.0583 12.032L9.28225 24H5.44225L0.13025 7.296H3.90625L7.55425 20.096C7.57558 20.032 8.85558 15.7653 11.3943 7.296H14.7223L18.5303 20.096L22.2103 7.296H25.9863L20.6743 24H16.8022ZM27.1468 18.848C27.1468 17.2267 27.7441 15.904 28.9388 14.88C30.1334 13.856 31.6908 13.344 33.6108 13.344C35.3814 13.344 36.7148 13.7493 37.6108 14.56V12.992C37.6108 12.032 37.2908 11.2853 36.6508 10.752C36.0321 10.1973 35.1681 9.92 34.0588 9.92C32.5228 9.92 30.9654 10.3573 29.3868 11.232L28.0428 8.8C30.0268 7.52 32.1494 6.88 34.4108 6.88C38.8481 6.88 41.0668 8.992 41.0668 13.216V24H38.0268L37.7388 22.752C36.7361 23.8613 35.3068 24.416 33.4508 24.416C31.6588 24.416 30.1548 23.904 28.9388 22.88C27.7441 21.8347 27.1468 20.4907 27.1468 18.848ZM31.5948 16.704C30.9548 17.2373 30.6348 17.92 30.6348 18.752C30.6348 19.584 30.9654 20.2773 31.6268 20.832C32.2881 21.3653 33.1414 21.632 34.1868 21.632C35.2108 21.632 36.0534 21.3653 36.7148 20.832C37.3761 20.2987 37.7068 19.6053 37.7068 18.752C37.7068 17.8773 37.3761 17.184 36.7148 16.672C36.0748 16.1387 35.2214 15.872 34.1548 15.872C33.1094 15.872 32.2561 16.1493 31.5948 16.704ZM44.7333 29.984V7.296H48.0293V9.504C48.2853 9.16267 48.5733 8.832 48.8933 8.512C49.2346 8.192 49.8213 7.84 50.6533 7.456C51.5066 7.072 52.4239 6.88 53.4053 6.88C55.7946 6.88 57.7466 7.70133 59.2613 9.344C60.7973 10.9867 61.5653 13.0773 61.5653 15.616C61.5653 18.2187 60.8293 20.3413 59.3573 21.984C57.9066 23.6053 55.9973 24.416 53.6293 24.416C52.2639 24.416 51.1119 24.128 50.1733 23.552C49.2346 22.9547 48.5839 22.368 48.2213 21.792V29.984H44.7333ZM48.0933 15.616C48.0933 17.3653 48.5626 18.752 49.5013 19.776C50.4613 20.8 51.6559 21.312 53.0853 21.312C54.5359 21.312 55.7199 20.7893 56.6373 19.744C57.5759 18.6773 58.0453 17.3013 58.0453 15.616C58.0453 13.9307 57.5759 12.576 56.6373 11.552C55.6986 10.5067 54.5039 9.984 53.0533 9.984C51.5599 9.984 50.3546 10.528 49.4373 11.616C48.5413 12.704 48.0933 14.0373 48.0933 15.616ZM72.6753 6.88V10.4C69.5393 10.4 67.9713 12.5333 67.9713 16.8V24H64.4833V7.296H67.9073V9.92C68.2486 9.04533 68.8459 8.32 69.6993 7.744C70.5526 7.168 71.5446 6.88 72.6753 6.88ZM78.92 11.616C77.9387 12.6827 77.448 14.0373 77.448 15.68C77.448 17.3227 77.9387 18.6773 78.92 19.744C79.9227 20.7893 81.2027 21.312 82.76 21.312C84.3173 21.312 85.5973 20.7787 86.6 19.712C87.624 18.6453 88.136 17.2907 88.136 15.648C88.136 14.0053 87.624 12.6507 86.6 11.584C85.5973 10.5173 84.3173 9.984 82.76 9.984C81.2027 9.984 79.9227 10.528 78.92 11.616ZM73.928 15.68C73.928 13.1627 74.7707 11.072 76.456 9.408C78.1413 7.72267 80.2427 6.88 82.76 6.88C85.32 6.88 87.432 7.712 89.096 9.376C90.7813 11.04 91.624 13.1307 91.624 15.648C91.624 18.1653 90.7813 20.256 89.096 21.92C87.4107 23.584 85.2987 24.416 82.76 24.416C80.2 24.416 78.088 23.5947 76.424 21.952C74.76 20.3093 73.928 18.2187 73.928 15.68ZM102.546 29.984V7.296H105.842V9.504C106.098 9.16267 106.386 8.832 106.706 8.512C107.047 8.192 107.634 7.84 108.466 7.456C109.319 7.072 110.236 6.88 111.218 6.88C113.607 6.88 115.559 7.70133 117.074 9.344C118.61 10.9867 119.378 13.0773 119.378 15.616C119.378 18.2187 118.642 20.3413 117.17 21.984C115.719 23.6053 113.81 24.416 111.442 24.416C110.076 24.416 108.924 24.128 107.986 23.552C107.047 22.9547 106.396 22.368 106.034 21.792V29.984H102.546ZM105.906 15.616C105.906 17.3653 106.375 18.752 107.314 19.776C108.274 20.8 109.468 21.312 110.898 21.312C112.348 21.312 113.532 20.7893 114.45 19.744C115.388 18.6773 115.858 17.3013 115.858 15.616C115.858 13.9307 115.388 12.576 114.45 11.552C113.511 10.5067 112.316 9.984 110.866 9.984C109.372 9.984 108.167 10.528 107.25 11.616C106.354 12.704 105.906 14.0373 105.906 15.616ZM126.264 11.616C125.282 12.6827 124.792 14.0373 124.792 15.68C124.792 17.3227 125.282 18.6773 126.264 19.744C127.266 20.7893 128.546 21.312 130.104 21.312C131.661 21.312 132.941 20.7787 133.944 19.712C134.968 18.6453 135.48 17.2907 135.48 15.648C135.48 14.0053 134.968 12.6507 133.944 11.584C132.941 10.5173 131.661 9.984 130.104 9.984C128.546 9.984 127.266 10.528 126.264 11.616ZM121.272 15.68C121.272 13.1627 122.114 11.072 123.8 9.408C125.485 7.72267 127.586 6.88 130.104 6.88C132.664 6.88 134.776 7.712 136.44 9.376C138.125 11.04 138.968 13.1307 138.968 15.648C138.968 18.1653 138.125 20.256 136.44 21.92C134.754 23.584 132.642 24.416 130.104 24.416C127.544 24.416 125.432 23.5947 123.768 21.952C122.104 20.3093 121.272 18.2187 121.272 15.68ZM150.05 6.88V10.4C146.914 10.4 145.346 12.5333 145.346 16.8V24H141.858V7.296H145.282V9.92C145.624 9.04533 146.221 8.32 147.074 7.744C147.928 7.168 148.92 6.88 150.05 6.88ZM153.896 7.296V3.808H157.352V7.296H160.744V10.176H157.352V17.952C157.352 19.1893 157.576 20.032 158.024 20.48C158.472 20.9067 159.198 21.12 160.2 21.12L160.872 21.088V24.096C160.467 24.1813 159.902 24.224 159.176 24.224C157.256 24.224 155.891 23.6373 155.08 22.464C154.291 21.2907 153.896 19.6053 153.896 17.408V10.176H152.04V7.296H153.896ZM162.647 18.848C162.647 17.2267 163.244 15.904 164.439 14.88C165.633 13.856 167.191 13.344 169.111 13.344C170.881 13.344 172.215 13.7493 173.111 14.56V12.992C173.111 12.032 172.791 11.2853 172.151 10.752C171.532 10.1973 170.668 9.92 169.559 9.92C168.023 9.92 166.465 10.3573 164.887 11.232L163.543 8.8C165.527 7.52 167.649 6.88 169.911 6.88C174.348 6.88 176.567 8.992 176.567 13.216V24H173.527L173.239 22.752C172.236 23.8613 170.807 24.416 168.951 24.416C167.159 24.416 165.655 23.904 164.439 22.88C163.244 21.8347 162.647 20.4907 162.647 18.848ZM167.095 16.704C166.455 17.2373 166.135 17.92 166.135 18.752C166.135 19.584 166.465 20.2773 167.127 20.832C167.788 21.3653 168.641 21.632 169.687 21.632C170.711 21.632 171.553 21.3653 172.215 20.832C172.876 20.2987 173.207 19.6053 173.207 18.752C173.207 17.8773 172.876 17.184 172.215 16.672C171.575 16.1387 170.721 15.872 169.655 15.872C168.609 15.872 167.756 16.1493 167.095 16.704ZM180.233 24V0.863998H183.721V24H180.233Z" fill="#30393F"/>
<path d="M194.647 18.848C194.647 17.2267 195.244 15.904 196.439 14.88C197.633 13.856 199.191 13.344 201.111 13.344C202.881 13.344 204.215 13.7493 205.111 14.56V12.992C205.111 12.032 204.791 11.2853 204.151 10.752C203.532 10.1973 202.668 9.92 201.559 9.92C200.023 9.92 198.465 10.3573 196.887 11.232L195.543 8.8C197.527 7.52 199.649 6.88 201.911 6.88C206.348 6.88 208.567 8.992 208.567 13.216V24H205.527L205.239 22.752C204.236 23.8613 202.807 24.416 200.951 24.416C199.159 24.416 197.655 23.904 196.439 22.88C195.244 21.8347 194.647 20.4907 194.647 18.848ZM199.095 16.704C198.455 17.2373 198.135 17.92 198.135 18.752C198.135 19.584 198.465 20.2773 199.127 20.832C199.788 21.3653 200.641 21.632 201.687 21.632C202.711 21.632 203.553 21.3653 204.215 20.832C204.876 20.2987 205.207 19.6053 205.207 18.752C205.207 17.8773 204.876 17.184 204.215 16.672C203.575 16.1387 202.721 15.872 201.655 15.872C200.609 15.872 199.756 16.1493 199.095 16.704ZM220.361 6.88C222.367 6.88 223.839 7.552 224.777 8.896C225.716 10.24 226.185 11.9253 226.185 13.952V24H222.729V13.664C222.729 12.5333 222.409 11.648 221.769 11.008C221.151 10.3467 220.351 10.016 219.369 10.016C218.281 10.016 217.396 10.3787 216.713 11.104C216.052 11.8293 215.721 12.768 215.721 13.92V24H212.233V7.296H215.657V9.472C216.063 8.74667 216.681 8.13867 217.513 7.648C218.367 7.136 219.316 6.88 220.361 6.88ZM235.808 29.728H232.448L234.816 23.712L228.192 7.296H231.936L236.448 19.456L240.896 7.296H244.544L235.808 29.728ZM259.981 8.928L258.925 11.872C257.667 10.656 256.195 10.048 254.509 10.048C252.952 10.048 251.683 10.5813 250.701 11.648C249.72 12.7147 249.229 14.048 249.229 15.648C249.229 17.248 249.741 18.592 250.765 19.68C251.811 20.768 253.101 21.312 254.637 21.312C256.173 21.312 257.624 20.6933 258.989 19.456L259.981 22.336C258.424 23.7227 256.579 24.416 254.445 24.416C251.907 24.416 249.816 23.584 248.173 21.92C246.531 20.256 245.709 18.1653 245.709 15.648C245.709 13.152 246.541 11.072 248.205 9.408C249.869 7.72267 251.939 6.88 254.413 6.88C256.547 6.88 258.403 7.56267 259.981 8.928ZM262.765 24V0.863998H266.253V24H262.765ZM274.139 11.616C273.157 12.6827 272.667 14.0373 272.667 15.68C272.667 17.3227 273.157 18.6773 274.139 19.744C275.141 20.7893 276.421 21.312 277.979 21.312C279.536 21.312 280.816 20.7787 281.819 19.712C282.843 18.6453 283.355 17.2907 283.355 15.648C283.355 14.0053 282.843 12.6507 281.819 11.584C280.816 10.5173 279.536 9.984 277.979 9.984C276.421 9.984 275.141 10.528 274.139 11.616ZM269.147 15.68C269.147 13.1627 269.989 11.072 271.675 9.408C273.36 7.72267 275.461 6.88 277.979 6.88C280.539 6.88 282.651 7.712 284.315 9.376C286 11.04 286.843 13.1307 286.843 15.648C286.843 18.1653 286 20.256 284.315 21.92C282.629 23.584 280.517 24.416 277.979 24.416C275.419 24.416 273.307 23.5947 271.643 21.952C269.979 20.3093 269.147 18.2187 269.147 15.68ZM295.429 24.416C293.424 24.416 291.952 23.744 291.013 22.4C290.075 21.056 289.605 19.3707 289.605 17.344V7.296H293.061V17.632C293.061 18.7627 293.371 19.6587 293.989 20.32C294.629 20.96 295.44 21.28 296.421 21.28C297.509 21.28 298.384 20.9173 299.045 20.192C299.728 19.4667 300.069 18.528 300.069 17.376V7.296H303.557V24H300.133V21.824C299.728 22.5493 299.109 23.168 298.277 23.68C297.445 24.1707 296.496 24.416 295.429 24.416ZM323.135 0.863998V24H319.839V21.824C318.495 23.552 316.703 24.416 314.463 24.416C312.074 24.416 310.111 23.6053 308.575 21.984C307.06 20.3413 306.303 18.24 306.303 15.68C306.303 13.0773 307.028 10.9653 308.479 9.344C309.951 7.70133 311.871 6.88 314.239 6.88C315.626 6.88 316.778 7.17867 317.695 7.776C318.634 8.37333 319.284 8.96 319.647 9.536V0.863998H323.135ZM319.775 15.712C319.775 13.9413 319.306 12.544 318.367 11.52C317.428 10.496 316.234 9.984 314.783 9.984C313.332 9.984 312.138 10.5173 311.199 11.584C310.282 12.6507 309.823 14.0267 309.823 15.712C309.823 17.3973 310.292 18.7627 311.231 19.808C312.17 20.832 313.364 21.344 314.815 21.344C316.308 21.344 317.503 20.8 318.399 19.712C319.316 18.624 319.775 17.2907 319.775 15.712Z" fill="#DC1E28"/>
</svg>
