<svg width="175" height="28" viewBox="0 0 175 28" fill="none" xmlns="http://www.w3.org/2000/svg">
<path d="M23.7572 18L22.1192 12.764L20.4672 18H18.7872L16.4632 10.692H18.1152L19.7112 16.292C19.7206 16.264 20.2806 14.3973 21.3912 10.692H22.8472L24.5132 16.292L26.1232 10.692H27.7752L25.4512 18H23.7572ZM28.283 15.746C28.283 15.0367 28.5443 14.458 29.067 14.01C29.5896 13.562 30.271 13.338 31.111 13.338C31.8856 13.338 32.469 13.5153 32.861 13.87V13.184C32.861 12.764 32.721 12.4373 32.441 12.204C32.1703 11.9613 31.7923 11.84 31.307 11.84C30.635 11.84 29.9536 12.0313 29.263 12.414L28.675 11.35C29.543 10.79 30.4716 10.51 31.461 10.51C33.4023 10.51 34.373 11.434 34.373 13.282V18H33.043L32.917 17.454C32.4783 17.9393 31.853 18.182 31.041 18.182C30.257 18.182 29.599 17.958 29.067 17.51C28.5443 17.0527 28.283 16.4647 28.283 15.746ZM30.229 14.808C29.949 15.0413 29.809 15.34 29.809 15.704C29.809 16.068 29.9536 16.3713 30.243 16.614C30.5323 16.8473 30.9056 16.964 31.363 16.964C31.811 16.964 32.1796 16.8473 32.469 16.614C32.7583 16.3807 32.903 16.0773 32.903 15.704C32.903 15.3213 32.7583 15.018 32.469 14.794C32.189 14.5607 31.8156 14.444 31.349 14.444C30.8916 14.444 30.5183 14.5653 30.229 14.808ZM35.977 20.618V10.692H37.419V11.658C37.531 11.5087 37.657 11.364 37.797 11.224C37.9464 11.084 38.203 10.93 38.567 10.762C38.9404 10.594 39.3417 10.51 39.771 10.51C40.8164 10.51 41.6704 10.8693 42.333 11.588C43.005 12.3067 43.341 13.2213 43.341 14.332C43.341 15.4707 43.019 16.3993 42.375 17.118C41.7404 17.8273 40.905 18.182 39.869 18.182C39.2717 18.182 38.7677 18.056 38.357 17.804C37.9464 17.5427 37.6617 17.286 37.503 17.034V20.618H35.977ZM37.447 14.332C37.447 15.0973 37.6524 15.704 38.063 16.152C38.483 16.6 39.0057 16.824 39.631 16.824C40.2657 16.824 40.7837 16.5953 41.185 16.138C41.5957 15.6713 41.801 15.0693 41.801 14.332C41.801 13.5947 41.5957 13.002 41.185 12.554C40.7744 12.0967 40.2517 11.868 39.617 11.868C38.9637 11.868 38.4364 12.106 38.035 12.582C37.643 13.058 37.447 13.6413 37.447 14.332ZM48.2017 10.51V12.05C46.8297 12.05 46.1437 12.9833 46.1437 14.85V18H44.6177V10.692H46.1157V11.84C46.265 11.4573 46.5263 11.14 46.8997 10.888C47.273 10.636 47.707 10.51 48.2017 10.51ZM50.9338 12.582C50.5044 13.0487 50.2898 13.6413 50.2898 14.36C50.2898 15.0787 50.5044 15.6713 50.9338 16.138C51.3724 16.5953 51.9324 16.824 52.6138 16.824C53.2951 16.824 53.8551 16.5907 54.2938 16.124C54.7418 15.6573 54.9658 15.0647 54.9658 14.346C54.9658 13.6273 54.7418 13.0347 54.2938 12.568C53.8551 12.1013 53.2951 11.868 52.6138 11.868C51.9324 11.868 51.3724 12.106 50.9338 12.582ZM48.7498 14.36C48.7498 13.2587 49.1184 12.344 49.8558 11.616C50.5931 10.8787 51.5124 10.51 52.6138 10.51C53.7338 10.51 54.6578 10.874 55.3858 11.602C56.1231 12.33 56.4918 13.2447 56.4918 14.346C56.4918 15.4473 56.1231 16.362 55.3858 17.09C54.6484 17.818 53.7244 18.182 52.6138 18.182C51.4938 18.182 50.5698 17.8227 49.8418 17.104C49.1138 16.3853 48.7498 15.4707 48.7498 14.36ZM61.27 20.618V10.692H62.712V11.658C62.824 11.5087 62.95 11.364 63.09 11.224C63.2393 11.084 63.496 10.93 63.86 10.762C64.2333 10.594 64.6347 10.51 65.064 10.51C66.1093 10.51 66.9633 10.8693 67.626 11.588C68.298 12.3067 68.634 13.2213 68.634 14.332C68.634 15.4707 68.312 16.3993 67.668 17.118C67.0333 17.8273 66.198 18.182 65.162 18.182C64.5647 18.182 64.0607 18.056 63.65 17.804C63.2393 17.5427 62.9547 17.286 62.796 17.034V20.618H61.27ZM62.74 14.332C62.74 15.0973 62.9453 15.704 63.356 16.152C63.776 16.6 64.2987 16.824 64.924 16.824C65.5587 16.824 66.0767 16.5953 66.478 16.138C66.8887 15.6713 67.094 15.0693 67.094 14.332C67.094 13.5947 66.8887 13.002 66.478 12.554C66.0673 12.0967 65.5447 11.868 64.91 11.868C64.2567 11.868 63.7293 12.106 63.328 12.582C62.936 13.058 62.74 13.6413 62.74 14.332ZM71.6466 12.582C71.2173 13.0487 71.0026 13.6413 71.0026 14.36C71.0026 15.0787 71.2173 15.6713 71.6466 16.138C72.0853 16.5953 72.6453 16.824 73.3266 16.824C74.008 16.824 74.568 16.5907 75.0066 16.124C75.4546 15.6573 75.6786 15.0647 75.6786 14.346C75.6786 13.6273 75.4546 13.0347 75.0066 12.568C74.568 12.1013 74.008 11.868 73.3266 11.868C72.6453 11.868 72.0853 12.106 71.6466 12.582ZM69.4626 14.36C69.4626 13.2587 69.8313 12.344 70.5686 11.616C71.306 10.8787 72.2253 10.51 73.3266 10.51C74.4466 10.51 75.3706 10.874 76.0986 11.602C76.836 12.33 77.2046 13.2447 77.2046 14.346C77.2046 15.4473 76.836 16.362 76.0986 17.09C75.3613 17.818 74.4373 18.182 73.3266 18.182C72.2066 18.182 71.2826 17.8227 70.5546 17.104C69.8266 16.3853 69.4626 15.4707 69.4626 14.36ZM82.0532 10.51V12.05C80.6812 12.05 79.9952 12.9833 79.9952 14.85V18H78.4692V10.692H79.9672V11.84C80.1166 11.4573 80.3779 11.14 80.7512 10.888C81.1246 10.636 81.5586 10.51 82.0532 10.51ZM83.7359 10.692V9.166H85.2479V10.692H86.7319V11.952H85.2479V15.354C85.2479 15.8953 85.3459 16.264 85.5419 16.46C85.7379 16.6467 86.0552 16.74 86.4939 16.74L86.7879 16.726V18.042C86.6105 18.0793 86.3632 18.098 86.0459 18.098C85.2059 18.098 84.6085 17.8413 84.2539 17.328C83.9085 16.8147 83.7359 16.0773 83.7359 15.116V11.952H82.9239V10.692H83.7359ZM87.5642 15.746C87.5642 15.0367 87.8255 14.458 88.3482 14.01C88.8709 13.562 89.5522 13.338 90.3922 13.338C91.1669 13.338 91.7502 13.5153 92.1422 13.87V13.184C92.1422 12.764 92.0022 12.4373 91.7222 12.204C91.4515 11.9613 91.0735 11.84 90.5882 11.84C89.9162 11.84 89.2349 12.0313 88.5442 12.414L87.9562 11.35C88.8242 10.79 89.7529 10.51 90.7422 10.51C92.6835 10.51 93.6542 11.434 93.6542 13.282V18H92.3242L92.1982 17.454C91.7595 17.9393 91.1342 18.182 90.3222 18.182C89.5382 18.182 88.8802 17.958 88.3482 17.51C87.8255 17.0527 87.5642 16.4647 87.5642 15.746ZM89.5102 14.808C89.2302 15.0413 89.0902 15.34 89.0902 15.704C89.0902 16.068 89.2349 16.3713 89.5242 16.614C89.8135 16.8473 90.1869 16.964 90.6442 16.964C91.0922 16.964 91.4609 16.8473 91.7502 16.614C92.0395 16.3807 92.1842 16.0773 92.1842 15.704C92.1842 15.3213 92.0395 15.018 91.7502 14.794C91.4702 14.5607 91.0969 14.444 90.6302 14.444C90.1729 14.444 89.7995 14.5653 89.5102 14.808ZM95.2583 18V7.878H96.7843V18H95.2583ZM101.564 15.746C101.564 15.0367 101.826 14.458 102.348 14.01C102.871 13.562 103.552 13.338 104.392 13.338C105.167 13.338 105.75 13.5153 106.142 13.87V13.184C106.142 12.764 106.002 12.4373 105.722 12.204C105.452 11.9613 105.074 11.84 104.588 11.84C103.916 11.84 103.235 12.0313 102.544 12.414L101.956 11.35C102.824 10.79 103.753 10.51 104.742 10.51C106.684 10.51 107.654 11.434 107.654 13.282V18H106.324L106.198 17.454C105.76 17.9393 105.134 18.182 104.322 18.182C103.538 18.182 102.88 17.958 102.348 17.51C101.826 17.0527 101.564 16.4647 101.564 15.746ZM103.51 14.808C103.23 15.0413 103.09 15.34 103.09 15.704C103.09 16.068 103.235 16.3713 103.524 16.614C103.814 16.8473 104.187 16.964 104.644 16.964C105.092 16.964 105.461 16.8473 105.75 16.614C106.04 16.3807 106.184 16.0773 106.184 15.704C106.184 15.3213 106.04 15.018 105.75 14.794C105.47 14.5607 105.097 14.444 104.63 14.444C104.173 14.444 103.8 14.5653 103.51 14.808ZM112.814 10.51C113.692 10.51 114.336 10.804 114.746 11.392C115.157 11.98 115.362 12.7173 115.362 13.604V18H113.85V13.478C113.85 12.9833 113.71 12.596 113.43 12.316C113.16 12.0267 112.81 11.882 112.38 11.882C111.904 11.882 111.517 12.0407 111.218 12.358C110.929 12.6753 110.784 13.086 110.784 13.59V18H109.258V10.692H110.756V11.644C110.934 11.3267 111.204 11.0607 111.568 10.846C111.942 10.622 112.357 10.51 112.814 10.51ZM119.572 20.506H118.102L119.138 17.874L116.24 10.692H117.878L119.852 16.012L121.798 10.692H123.394L119.572 20.506ZM130.148 11.406L129.686 12.694C129.135 12.162 128.491 11.896 127.754 11.896C127.073 11.896 126.517 12.1293 126.088 12.596C125.659 13.0627 125.444 13.646 125.444 14.346C125.444 15.046 125.668 15.634 126.116 16.11C126.573 16.586 127.138 16.824 127.81 16.824C128.482 16.824 129.117 16.5533 129.714 16.012L130.148 17.272C129.467 17.8787 128.659 18.182 127.726 18.182C126.615 18.182 125.701 17.818 124.982 17.09C124.263 16.362 123.904 15.4473 123.904 14.346C123.904 13.254 124.268 12.344 124.996 11.616C125.724 10.8787 126.629 10.51 127.712 10.51C128.645 10.51 129.457 10.8087 130.148 11.406ZM131.366 18V7.878H132.892V18H131.366ZM136.342 12.582C135.913 13.0487 135.698 13.6413 135.698 14.36C135.698 15.0787 135.913 15.6713 136.342 16.138C136.781 16.5953 137.341 16.824 138.022 16.824C138.703 16.824 139.263 16.5907 139.702 16.124C140.15 15.6573 140.374 15.0647 140.374 14.346C140.374 13.6273 140.15 13.0347 139.702 12.568C139.263 12.1013 138.703 11.868 138.022 11.868C137.341 11.868 136.781 12.106 136.342 12.582ZM134.158 14.36C134.158 13.2587 134.527 12.344 135.264 11.616C136.001 10.8787 136.921 10.51 138.022 10.51C139.142 10.51 140.066 10.874 140.794 11.602C141.531 12.33 141.9 13.2447 141.9 14.346C141.9 15.4473 141.531 16.362 140.794 17.09C140.057 17.818 139.133 18.182 138.022 18.182C136.902 18.182 135.978 17.8227 135.25 17.104C134.522 16.3853 134.158 15.4707 134.158 14.36ZM145.657 18.182C144.779 18.182 144.135 17.888 143.725 17.3C143.314 16.712 143.109 15.9747 143.109 15.088V10.692H144.621V15.214C144.621 15.7087 144.756 16.1007 145.027 16.39C145.307 16.67 145.661 16.81 146.091 16.81C146.567 16.81 146.949 16.6513 147.239 16.334C147.537 16.0167 147.687 15.606 147.687 15.102V10.692H149.213V18H147.715V17.048C147.537 17.3653 147.267 17.636 146.903 17.86C146.539 18.0747 146.123 18.182 145.657 18.182ZM157.778 7.878V18H156.336V17.048C155.748 17.804 154.964 18.182 153.984 18.182C152.938 18.182 152.08 17.8273 151.408 17.118C150.745 16.3993 150.414 15.48 150.414 14.36C150.414 13.2213 150.731 12.2973 151.366 11.588C152.01 10.8693 152.85 10.51 153.886 10.51C154.492 10.51 154.996 10.6407 155.398 10.902C155.808 11.1633 156.093 11.42 156.252 11.672V7.878H157.778ZM156.308 14.374C156.308 13.5993 156.102 12.988 155.692 12.54C155.281 12.092 154.758 11.868 154.124 11.868C153.489 11.868 152.966 12.1013 152.556 12.568C152.154 13.0347 151.954 13.6367 151.954 14.374C151.954 15.1113 152.159 15.7087 152.57 16.166C152.98 16.614 153.503 16.838 154.138 16.838C154.791 16.838 155.314 16.6 155.706 16.124C156.107 15.648 156.308 15.0647 156.308 14.374Z" fill="white"/>
</svg>
