<?xml version="1.0" encoding="utf-8"?>
<!-- Generator: Adobe Illustrator 25.1.0, SVG Export Plug-In . SVG Version: 6.00 Build 0)  -->
<svg version="1.1" id="Warstwa_1" xmlns="http://www.w3.org/2000/svg" xmlns:xlink="http://www.w3.org/1999/xlink" x="0px" y="0px"
	 width="48px" height="48px" viewBox="0 0 48 48" style="enable-background:new 0 0 48 48;" xml:space="preserve">
<style type="text/css">
	.st0{fill:#E53335;}
	.st1{fill:#EA494C;}
	.st2{fill:#E8373A;}
	.st3{fill:#E42B2E;}
	.st4{fill:#DC1E28;}
</style>
<path class="st0" d="M0,29.4148941v6.7021255h15v-6.7021255H0z"/>
<path class="st0" d="M0,12.8510637v5.5053186h15v-5.5053186H0z"/>
<path class="st0" d="M34.1063843,0h-3.8776608v15h3.8776608V0z"/>
<path class="st0" d="M17.7340431,0h-3.4468088v15h3.4468088V0z"/>
<path class="st1" d="M15,0H0v15h15V0z"/>
<path class="st2" d="M31.5,0h-15v15h15V0z"/>
<path class="st2" d="M15,16.5H0v15h15V16.5z"/>
<path class="st3" d="M15,48h-3.75C5.04,48,0,42.9599991,0,36.75V33h15V48z"/>
<path class="st4" d="M48,15H15v33h33V15z"/>
<path class="st3" d="M48,15H33V0h3.75C42.9599991,0,48,5.04,48,11.25V15z"/>
</svg>
