<?xml version="1.0" encoding="utf-8"?>
<!-- Generator: Adobe Illustrator 28.0.0, SVG Export Plug-In . SVG Version: 6.00 Build 0)  -->
<svg version="1.1" id="Warstwa_1" xmlns="http://www.w3.org/2000/svg" xmlns:xlink="http://www.w3.org/1999/xlink" x="0px" y="0px"
	 width="239px" height="32px" viewBox="0 0 239 32" style="enable-background:new 0 0 239 32;" xml:space="preserve">
<path style="fill:#30393F;" d="M12.8250999,12.4984999L9.0787001,24.7747002H5.2699099L0,7.6406202h3.7453899l3.6196098,13.1300802
	c0,0,0.0311904-0.0666008,3.8088007-13.1300802H14.4754c3.7463999,13.0634794,3.7776003,13.1300802,3.7776003,13.1300802
	l3.6507988-13.1300802h3.7464008l-5.2698994,17.134079h-3.8409996L12.8250999,12.4984999L12.8250999,12.4984999z"/>
<path style="fill:#30393F;" d="M32.7897987,13.8438997c1.9048996,0,3.3338013,0.6563005,3.9687996,1.2470007v-1.6079006
	c0-1.9696999-1.3333969-3.1511993-3.5240974-3.1511993c-1.8415012,0-3.4284,0.6562996-4.634901,1.3457994l-1.3332996-2.4949503
	c1.3332996-0.8860893,3.5552006-1.9697595,6.3173981-1.9697595c4.9207001,0,6.603302,2.7580695,6.603302,6.50001v11.0615005
	h-3.0158997l-0.2858009-1.280201c-0.8572998,0.9848003-2.1906013,1.7075996-4.2534981,1.7075996
	c-3.4928017,0-6.2541008-2.2650986-6.2541008-5.7116985c0-3.3155003,2.6033001-5.646101,6.4120979-5.646101V13.8438997z
	 M33.3613014,22.3460007c2.0317001,0,3.4917984-1.1825008,3.4917984-2.9547005c0-1.8054008-1.4278984-2.9545994-3.5229988-2.9545994
	c-2.0950012,0-3.4928017,1.2479992-3.4928017,2.9545994C29.8372993,21.0979996,31.2663002,22.3460007,33.3613014,22.3460007
	L33.3613014,22.3460007z"/>
<path style="fill:#30393F;" d="M43.7159996,7.6403098h3.270401v2.2641101
	c0.4437981-0.6229897,2.1263008-2.6915298,5.3332977-2.6915298c4.7296028,0,8.0946007,3.7419095,8.0946007,8.96171
	c0,5.3174992-3.1425972,9.0271988-7.8731995,9.0271988c-3.142601,0-4.9197006-1.969799-5.3644981-2.6924992v8.4032001h-3.4606018
	V7.6403098L43.7159996,7.6403098z M52.0017014,22.0172997c2.8890991,0,4.9207993-2.3962002,4.9207993-5.8426991
	c0-3.5121002-2.1273003-5.7772007-4.9519005-5.7772007c-3.0480995,0-4.9207993,2.6260004-4.9207993,5.7772007
	C47.0498009,19.8831997,49.2405014,22.0172997,52.0017014,22.0172997z"/>
<path style="fill:#30393F;" d="M71.2690964,10.8238001c-3.6185989,0-4.6661987,2.8557997-4.6661987,6.5654993v7.3851013h-3.460598
	V7.6403098h3.3971977v2.6914907c0.6350021-1.7076302,2.3809052-3.1189103,4.729599-3.1189103V10.8238001L71.2690964,10.8238001z"/>
<path style="fill:#30393F;" d="M80.879097,7.2128901c5.1109009,0,8.7929001,3.8407102,8.7929001,8.9939098
	c0,5.1542988-3.7453995,8.9949989-8.7929001,8.9949989c-5.0797958,0-8.761795-3.7751999-8.761795-8.9616985
	S75.8948975,7.2128901,80.879097,7.2128901z M80.879097,22.0172997c3.0792007,0,5.3333054-2.4617004,5.3333054-5.8104992
	c0-3.3477001-2.2541046-5.8094006-5.3333054-5.8094006c-3.111496,0-5.2699966,2.4948997-5.2699966,5.842701
	C75.6091003,19.6212006,77.7997971,22.0172997,80.879097,22.0172997z"/>
<path style="fill:#30393F;" d="M105.887001,13.8430004c1.9049988,0,3.3339996,0.6561995,3.9690018,1.2468996v-1.6078005
	c0-1.9698-1.3330002-3.1511993-3.5240021-3.1511993c-1.8410034,0-3.4280014,0.6561995-4.6350021,1.3457003l-1.3330002-2.4949303
	c1.3330002-0.8860903,3.5550003-1.9697604,6.3170013-1.9697604c4.9209976,0,6.6029968,2.7580705,6.6029968,6.49999v11.0614996
	h-3.0149994l-0.2859955-1.2801991c-0.8580017,0.9848995-2.1910019,1.7075996-4.2540054,1.7075996
	c-3.4929962,0-6.2537994-2.2651005-6.2537994-5.7117004C99.4751968,16.1735992,102.0780029,13.8430004,105.887001,13.8430004
	L105.887001,13.8430004z M106.4589996,22.3449993c2.0319977,0,3.4919968-1.1824989,3.4919968-2.9546986
	c0-1.8054008-1.4279938-2.9546013-3.522995-2.9546013s-3.4930038,1.2480011-3.4930038,2.9546013
	C102.9349976,21.0970001,104.3639984,22.3449993,106.4589996,22.3449993L106.4589996,22.3449993z"/>
<path style="fill:#30393F;" d="M130.6549988,14.4668999v10.3064995h-3.4280014v-10.601799
	c0-2.3639002-1.4290009-3.743-3.3339996-3.743c-2.1899948,0-3.6189957,1.6743994-3.6189957,4.0050993v10.3396997h-3.4609985
	V7.6393299h3.397995v2.2318602c0.7290039-1.3457699,2.4440002-2.6592803,4.6660004-2.6592803
	c4.2859955,0,5.7779999,3.5120902,5.7779999,7.2550902V14.4668999z"/>
<path style="fill:#30393F;" d="M135.9550018,30.6497002l2.348999-6.1713009l-6.5709991-16.8387489h3.7140045l4.4759979,12.4727497
	l4.4120026-12.4727497h3.6199951l-8.6670074,23.0100498H135.9550018z"/>
<path style="fill:#30393F;" d="M192.5039368,14.4649286V24.771328h-3.4290009V14.169529
	c0-2.3639002-1.4279938-3.7428999-3.3329926-3.7428999c-2.1909943,0-3.6519928,1.6744003-3.6519928,4.0050001V24.771328h-3.4610138
	V1.0395186h3.4610138v8.8296404c0.7309875-1.3457699,2.4139862-2.6592703,4.6359863-2.6592703
	C191.0119476,7.2098885,192.5039368,10.7219286,192.5039368,14.4649286L192.5039368,14.4649286z"/>
<path style="fill:#30393F;" d="M203.1649323,7.2094383c5.0180054,0,7.9710083,3.5785904,7.9710083,8.961689
	c0,0.2954006,0,0.5907001-0.0329895,0.8861008h-12.4779968c0.0639954,3.0524006,2.190979,5.0221996,5.1439819,5.0221996
	c2.5079956,0,3.9380188-1.4445992,4.5720215-2.3962002l2.2859802,1.7721996
	c-0.7940063,1.4123001-2.9849854,3.7429008-6.92099,3.7429008c-5.1759949,0-8.605011-3.7429008-8.605011-8.9284
	c0-5.3184986,3.5240173-9.0604801,8.0639954-9.0604801V7.2094383z M207.6109467,14.5955286
	c-0.1270142-2.8235998-2.0320129-4.3991995-4.4129944-4.3991995c-2.382019,0-4.2230225,1.7076998-4.4460144,4.3991995H207.6109467z"
	/>
<path style="fill:#30393F;" d="M221.9329376,10.8203287c-3.618988,0-4.6669922,2.8558006-4.6669922,6.5654993v7.3850994h-3.4609985
	V7.6368585h3.3970032v2.6915708c0.6359863-1.7076998,2.3819885-3.1189909,4.7309875-3.1189909V10.8203287L221.9329376,10.8203287z"
	/>
<path style="fill:#30393F;" d="M230.9089508,7.2094383c5.0180054,0,7.9700012,3.5785904,7.9700012,8.961689
	c0,0.2954006,0,0.5907001-0.0320129,0.8861008h-12.4779968c0.0639954,3.0524006,2.1910095,5.0221996,5.1440125,5.0221996
	c2.5079956,0,3.9369812-1.4445992,4.571991-2.3962002l2.2860107,1.7721996
	c-0.7940063,1.4123001-2.9850159,3.7429008-6.9210205,3.7429008c-5.1759949,0-8.6049805-3.7429008-8.6049805-8.9284
	c0-5.3184986,3.5239868-9.0604801,8.0639954-9.0604801V7.2094383z M235.3549347,14.5955286
	c-0.1269836-2.8235998-2.0319824-4.3991995-4.4129944-4.3991995c-2.3819885,0-4.223999,1.7076998-4.4459839,4.3991995H235.3549347z"
	/>
<g>
	<g>
		<path style="fill-rule:evenodd;clip-rule:evenodd;fill:#DC1E28;" d="M163.3703461,3.9461884
			c3.4195404,0,6.2044678,2.8573833,6.2044678,6.3069425l-0.0039673-0.0037041
			c-0.0105438,0.5222244-0.0401001,1.0150051-0.1129913,1.3974419l-0.0046844,0.014699
			c-0.0018921,0.005743-0.0037689,0.0114641-0.0049286,0.0172071c-0.000946,0.0040789-0.0016479,0.0081348-0.0016479,0.0122137
			c-0.0215607,0.1066618-0.0543823,0.2427444-0.0834503,0.3420696c-0.1062012,0.3640356-0.2663116,0.7281189-0.4747009,1.0627804
			c-0.2817841,0.4706278-0.6278076,0.9083652-0.9752045,1.3474874l-0.000946,0.0012884
			c-0.6777191,0.8574972-1.3598938,1.7203369-1.5748444,2.8435993c-1.7848969-2.680932-1.8357697-3.6223764-0.6458282-5.7259007
			c0.0909424-0.2317028,0.2554932-0.7979994,0.1788483-1.8093243c-0.2084045-1.2062712-1.2522736-2.1293116-2.5076141-2.1293116
			c-0.7407837,0-1.2773743,0.3088994-1.5947876,0.5663424c-1.6756592,1.3643665-3.5475311,2.4896669-5.5659027,3.3391924
			l-0.0234528,0.010128l-0.0117188,0.0052509l-0.0161591,0.0066566c0.2597198-0.7244129,0.3907623-1.4783411,0.3907623-2.2506018
			c0-0.6619635-0.1207275-1.2834425-0.2993469-1.8498087c1.145874-0.5957861,2.2298279-1.3018217,3.2371521-2.1219039
			C160.5457916,4.4647093,161.8958282,3.9461884,163.3703461,3.9461884z M170.0427246,14.3098927
			c0.5544281-1.1437502,0.901123-2.3793707,0.9815369-3.5782576h0.0035248
			c2.9855957,1.1914787,5.0330505,4.2548962,4.6901093,7.7632246c-0.3392334,3.4568958-3.0660248,6.277523-6.485321,6.707922
			c-0.3251495,0.0403233-0.6427917,0.0586071-0.9566956,0.0586071c-1.9016266,0-3.6351929-0.7243671-4.9563904-1.9048519
			c-1.5104065,1.1804848-3.4082947,1.8865681-5.4705048,1.8865681c-0.5766754,0-1.1643829-0.0550919-1.7626343-0.1692562
			c-4.2118835-0.8125095-7.1794434-4.6445751-7.1794434-8.9619923c0-4.6006012,3.0585327-6.7813444,5.8870697-7.9728708
			c0.0302429-0.0111113,0.058609-0.0243092,0.08815-0.038023l0.0002441-0.000164l0.028595-0.0132923
			c0.1057129,0.3824854,0.1715851,0.7906389,0.1715851,1.2172651c0,1.368-0.5220642,2.4602242-1.1097412,3.2729683
			c-0.0661316,0.0912838-0.1348114,0.1827097-0.2051239,0.2759628l-0.0077515,0.0102682
			c-0.250351,0.3319893-0.5180817,0.6870937-0.7358398,1.1369982c-0.3757935,0.6950417-0.4634552,1.4084845-0.4634552,2.1108875
			c0,2.6293812,1.7736359,4.8800564,4.2153931,5.3507519c0.3610077,0.0699291,0.7224884,0.1066628,1.0764771,0.1066628
			c1.1824341,0,2.2992096-0.3861408,3.2333832-1.1142597c0.6570892-0.5185432,1.445694-0.7722836,2.2335968-0.7722836
			c0.868988,0,1.734024,0.3088779,2.4236908,0.9266987c0.4962769,0.4486618,1.3392639,0.9782238,2.5326996,0.9782238
			c0.1643524,0,0.3361664-0.0109959,0.5037842-0.0330772c1.7408295-0.2206631,3.131424-1.6585903,3.303009-3.4201145
			C172.2470093,16.4979744,171.4073029,15.0159273,170.0427246,14.3098927z"/>
	</g>
</g>
</svg>
