<svg width="189" height="32" viewBox="0 0 189 32" fill="none" xmlns="http://www.w3.org/2000/svg">
<path d="M12.8845 12.4985L9.12078 24.7747H5.29434L0 7.64062H3.76275L7.39913 20.7707C7.39913 20.7707 7.43047 20.7041 11.2256 7.64062H14.5425C18.3062 20.7041 18.3376 20.7707 18.3376 20.7707L22.0053 7.64062H25.7691L20.4747 24.7747H16.6159L12.8845 12.4985Z" fill="#30393F"/>
<path d="M32.9417 13.8439C34.3763 13.7804 35.7877 14.2218 36.9289 15.0909V13.4831C36.9289 11.5133 35.5894 10.3318 33.3886 10.3318C31.7453 10.368 30.1401 10.8319 28.7322 11.6776L27.3927 9.18265C29.2707 7.92366 31.4766 7.23905 33.7394 7.21289C38.6829 7.21289 40.3732 9.97096 40.3732 13.7129V24.7744H37.3434L37.0563 23.4941C36.5163 24.0779 35.8525 24.5341 35.1132 24.8295C34.3739 25.125 33.5779 25.2521 32.783 25.2018C29.274 25.2018 26.5 22.9367 26.5 19.4901C26.5 16.1746 29.1153 13.8439 32.9417 13.8439ZM33.516 22.346C35.5571 22.346 37.0239 21.1635 37.0239 19.3913C37.0239 17.5859 35.5894 16.4367 33.4846 16.4367C31.3797 16.4367 29.9756 17.6847 29.9756 19.3913C29.9756 21.098 31.4112 22.346 33.516 22.346H33.516Z" fill="#30393F"/>
<path d="M43.9187 7.64069H47.2043V9.9048C47.8166 9.06177 48.6227 8.3774 49.5549 7.90909C50.4872 7.44078 51.5185 7.20216 52.5623 7.21326C57.3138 7.21326 60.6944 10.9552 60.6944 16.175C60.6944 21.4925 57.5372 25.2022 52.7847 25.2022C51.7345 25.2242 50.6948 24.9906 49.7557 24.5214C48.8165 24.0522 48.0063 23.3616 47.3954 22.5096V30.9129H43.9187V7.64069ZM52.2428 22.0177C55.1453 22.0177 57.1864 19.6215 57.1864 16.175C57.1864 12.6629 55.0492 10.3977 52.2115 10.3977C49.1493 10.3977 47.268 13.0237 47.268 16.175C47.268 19.8836 49.4688 22.0177 52.2429 22.0177H52.2428Z" fill="#30393F"/>
<path d="M71.5995 10.8237C67.9641 10.8237 66.9117 13.6795 66.9117 17.3892V24.7743H63.4351V7.64023H66.848V10.3318C67.2244 9.38928 67.8819 8.58475 68.7317 8.02695C69.5815 7.46914 70.5825 7.18495 71.5995 7.21281V10.8237Z" fill="#30393F"/>
<path d="M81.254 7.21284C82.4367 7.18805 83.612 7.40517 84.7073 7.8508C85.8026 8.29644 86.7947 8.96113 87.6225 9.80388C88.4502 10.6466 89.096 11.6496 89.52 12.7508C89.944 13.852 90.1372 15.0282 90.0877 16.2068C90.1318 17.3841 89.935 18.558 89.5091 19.6569C89.0832 20.7559 88.4373 21.7567 87.6106 22.5985C86.784 23.4402 85.794 24.1051 84.7011 24.5527C83.6082 25.0003 82.4353 25.2211 81.254 25.2018C80.0746 25.2297 78.9021 25.0156 77.8092 24.5727C76.7163 24.1298 75.7264 23.4676 74.9009 22.6272C74.0754 21.7868 73.4321 20.7861 73.0107 19.6874C72.5894 18.5886 72.3991 17.4152 72.4517 16.2401C72.4061 15.0635 72.6007 13.89 73.0237 12.7907C73.4467 11.6915 74.0893 10.6893 74.9124 9.84517C75.7356 9.001 76.7221 8.33238 77.8122 7.87989C78.9023 7.4274 80.0733 7.20046 81.254 7.21284ZM81.254 22.0173C84.3475 22.0173 86.612 19.5556 86.612 16.2068C86.612 12.859 84.3475 10.3973 81.254 10.3973C78.1281 10.3973 75.9597 12.8923 75.9597 16.2401C75.9597 19.6211 78.1605 22.0173 81.254 22.0173Z" fill="#30393F"/>
<path d="M169.864 10.8237C166.229 10.8237 165.177 13.6795 165.177 17.3892V24.7743H161.7V7.64023H165.113V10.3318C165.489 9.38928 166.147 8.58475 166.997 8.02695C167.846 7.46914 168.847 7.18495 169.864 7.21281V10.8237Z" fill="#30393F"/>
<path d="M179.519 7.21284C180.702 7.18805 181.877 7.40517 182.972 7.8508C184.068 8.29644 185.06 8.96113 185.887 9.80388C186.715 10.6466 187.361 11.6496 187.785 12.7508C188.209 13.852 188.402 15.0282 188.353 16.2068C188.397 17.3841 188.2 18.558 187.774 19.6569C187.348 20.7559 186.702 21.7567 185.876 22.5985C185.049 23.4402 184.059 24.1051 182.966 24.5527C181.873 25.0003 180.7 25.2211 179.519 25.2018C178.34 25.2297 177.167 25.0156 176.074 24.5727C174.981 24.1298 173.991 23.4676 173.166 22.6272C172.34 21.7868 171.697 20.7861 171.276 19.6874C170.854 18.5886 170.664 17.4152 170.717 16.2401C170.671 15.0635 170.866 13.89 171.289 12.7907C171.712 11.6915 172.354 10.6893 173.177 9.84517C174 9.001 174.987 8.33238 176.077 7.87989C177.167 7.4274 178.338 7.20046 179.519 7.21284ZM179.519 22.0173C182.612 22.0173 184.877 19.5556 184.877 16.2068C184.877 12.859 182.612 10.3973 179.519 10.3973C176.393 10.3973 174.225 12.8923 174.225 16.2401C174.225 19.6211 176.425 22.0173 179.519 22.0173Z" fill="#30393F"/>
<path d="M108.068 7.21289C113.108 7.21289 116.074 10.7915 116.074 16.1746C116.079 16.4703 116.069 16.7661 116.042 17.0607H103.508C103.489 17.7365 103.61 18.4089 103.865 19.0355C104.12 19.6622 104.502 20.2293 104.987 20.7012C105.473 21.1732 106.051 21.5396 106.686 21.7774C107.321 22.0152 107.998 22.1192 108.675 22.0829C109.58 22.1005 110.476 21.8902 111.279 21.4714C112.081 21.0526 112.765 20.4388 113.267 19.6867L115.563 21.4589C114.841 22.6413 113.817 23.6111 112.595 24.2688C111.374 24.9265 109.999 25.2485 108.611 25.2018C103.412 25.2018 99.9675 21.4589 99.9675 16.2734C99.9675 10.9548 103.508 7.21289 108.068 7.21289ZM112.534 14.599C112.551 14.0148 112.448 13.4333 112.231 12.8903C112.014 12.3474 111.688 11.8545 111.272 11.4423C110.857 11.03 110.361 10.707 109.816 10.4933C109.27 10.2796 108.686 10.1797 108.101 10.1998C106.925 10.1969 105.795 10.6577 104.959 11.4818C104.122 12.3059 103.647 13.4265 103.635 14.599H112.534Z" fill="#DC1E28"/>
<path d="M118.8 1H122.265V9.89517C122.866 9.03236 123.671 8.33189 124.608 7.8564C125.545 7.38091 126.586 7.14521 127.636 7.17036C132.373 7.17036 135.52 10.9123 135.52 16.1976C135.52 21.4496 132.15 25.1593 127.415 25.1593C126.378 25.167 125.355 24.9303 124.427 24.4683C123.499 24.0062 122.693 23.3319 122.075 22.5V24.7319H118.8V1ZM127.065 22.0081C129.893 22.0081 132.023 19.7429 132.023 16.2308C132.023 12.7833 129.989 10.3548 127.096 10.3548C124.332 10.3548 122.138 12.4879 122.138 16.2308C122.138 19.3821 124.013 22.0081 127.065 22.0081Z" fill="#30393F"/>
<path d="M144.7 17.9041V7.59766H148.133V18.1995C148.133 20.5633 149.563 21.9414 151.471 21.9414C153.663 21.9414 155.094 20.3003 155.094 17.9374V7.59766H158.559V24.7318H155.157V22.4999C154.686 23.3194 154.005 23.998 153.183 24.4655C152.362 24.9331 151.43 25.1725 150.485 25.1592C146.194 25.1591 144.7 21.646 144.7 17.9041Z" fill="#30393F"/>
<path d="M139.862 1.13086C140.151 1.13308 140.437 1.19285 140.703 1.30666C140.969 1.42048 141.209 1.58607 141.41 1.7938C141.611 2.00152 141.769 2.24722 141.874 2.51658C141.98 2.78594 142.03 3.07357 142.023 3.36271C142.033 3.65245 141.984 3.94107 141.879 4.21145C141.775 4.48182 141.617 4.72843 141.415 4.93663C141.214 5.14483 140.972 5.31038 140.706 5.42343C140.439 5.53648 140.152 5.59474 139.862 5.59474C139.573 5.59474 139.286 5.53648 139.019 5.42343C138.752 5.31038 138.511 5.14483 138.309 4.93663C138.108 4.72843 137.95 4.48182 137.845 4.21145C137.741 3.94107 137.692 3.65245 137.701 3.36271C137.694 3.07357 137.745 2.78594 137.85 2.51658C137.955 2.24723 138.113 2.00153 138.314 1.7938C138.515 1.58608 138.756 1.42048 139.022 1.30667C139.287 1.19285 139.573 1.13309 139.862 1.13086ZM138.145 7.59759H141.61V24.7317H138.145V7.59759Z" fill="#30393F"/>
</svg>
