<svg width="319" height="32" viewBox="0 0 319 32" fill="none" xmlns="http://www.w3.org/2000/svg">
<path d="M13.8253 12.4985L10.0783 24.7747H6.2699L1 7.64062H4.7454L8.3653 20.7707C8.3653 20.7707 8.3963 20.7041 12.1733 7.64062H15.4753C19.2213 20.7041 19.2533 20.7707 19.2533 20.7707L22.9033 7.64062H26.6503L21.3803 24.7747H17.5393L13.8253 12.4985Z" fill="#30393F"/>
<path d="M33.7893 13.8439C35.6943 13.8439 37.1233 14.5002 37.7583 15.0909V13.483C37.7583 11.5133 36.4253 10.3318 34.2343 10.3318C32.3933 10.3318 30.8063 10.9881 29.5993 11.6776L28.2663 9.18265C29.5993 8.29656 31.8213 7.21289 34.5833 7.21289C39.5043 7.21289 41.1873 9.97096 41.1873 13.7129V24.7744H38.1713L37.8853 23.4942C37.0283 24.479 35.6943 25.2018 33.6313 25.2018C30.1393 25.2018 27.3773 22.9367 27.3773 19.4901C27.3773 16.1746 29.9813 13.8439 33.7893 13.8439ZM34.3613 22.346C36.3933 22.346 37.8533 21.1635 37.8533 19.3913C37.8533 17.5859 36.4253 16.4367 34.3303 16.4367C32.2353 16.4367 30.8373 17.6847 30.8373 19.3913C30.8373 21.098 32.2663 22.346 34.3613 22.346Z" fill="#30393F"/>
<path d="M44.7163 7.64031H47.9863V9.90442C48.4303 9.28143 50.1123 7.21289 53.3193 7.21289C58.0493 7.21289 61.4143 10.9548 61.4143 16.1746C61.4143 21.4921 58.2713 25.2018 53.5413 25.2018C50.3983 25.2018 48.6213 23.232 48.1763 22.5093V30.9125H44.7163V7.64031ZM53.0013 22.0173C55.8903 22.0173 57.9223 19.6211 57.9223 16.1746C57.9223 12.6625 55.7953 10.3974 52.9703 10.3974C49.9223 10.3974 48.0503 13.0234 48.0503 16.1746C48.0503 19.8832 50.2403 22.0173 53.0013 22.0173Z" fill="#30393F"/>
<path d="M72.2693 10.8238C68.6503 10.8238 67.6033 13.6796 67.6033 17.3893V24.7744H64.1423V7.64031H67.5393V10.3318C68.1743 8.62417 69.9203 7.21289 72.2693 7.21289V10.8238Z" fill="#30393F"/>
<path d="M81.8793 7.21289C86.9903 7.21289 90.6723 11.0536 90.6723 16.2068C90.6723 21.3611 86.9263 25.2018 81.8793 25.2018C76.7993 25.2018 73.1173 21.4266 73.1173 16.2401C73.1173 11.0536 76.8953 7.21289 81.8793 7.21289ZM81.8793 22.0173C84.9583 22.0173 87.2123 19.5556 87.2123 16.2068C87.2123 12.8591 84.9583 10.3974 81.8793 10.3974C78.7673 10.3974 76.6093 12.8923 76.6093 16.2401C76.6093 19.6212 78.8003 22.0173 81.8793 22.0173Z" fill="#30393F"/>
<path d="M197.811 13.843C199.716 13.843 201.145 14.4992 201.779 15.0899V13.4821C201.779 11.5123 200.446 10.3309 198.255 10.3309C196.414 10.3309 194.827 10.9871 193.621 11.6766L192.287 9.18167C193.621 8.29558 195.842 7.21191 198.605 7.21191C203.525 7.21191 205.208 9.96998 205.208 13.7119V24.7734H202.192L201.906 23.4932C201.049 24.4781 199.716 25.2008 197.653 25.2008C194.16 25.2008 191.399 22.9357 191.399 19.4891C191.399 16.1736 194.002 13.843 197.811 13.843ZM198.382 22.345C200.414 22.345 201.874 21.1625 201.874 19.3903C201.874 17.5849 200.446 16.4357 198.351 16.4357C196.256 16.4357 194.858 17.6837 194.858 19.3903C194.858 21.097 196.287 22.345 198.382 22.345Z" fill="#DC1E28"/>
<path d="M222.578 14.4669V24.7734H219.15V14.1716C219.15 11.8077 217.721 10.4286 215.816 10.4286C213.626 10.4286 212.198 12.103 212.198 14.4337V24.7734H208.737V7.63933H212.134V9.87119C212.864 8.52542 214.578 7.21191 216.8 7.21191C221.086 7.21191 222.578 10.7239 222.578 14.4669Z" fill="#DC1E28"/>
<path d="M227.878 30.6497L230.227 24.4784L223.656 7.63965H227.37L231.846 20.1124L236.259 7.63965H239.878L231.211 30.6497H227.878Z" fill="#DC1E28"/>
<path d="M100 30.8996V7.60391H103.318V9.87105C103.576 9.52057 103.866 9.18105 104.188 8.85248C104.532 8.52391 105.123 8.16248 105.96 7.76819C106.819 7.37391 107.743 7.17676 108.731 7.17676C111.136 7.17676 113.102 8.0201 114.627 9.70676C116.173 11.3934 116.946 13.5401 116.946 16.1467C116.946 18.8191 116.205 20.9986 114.723 22.6853C113.263 24.3501 111.34 25.1825 108.956 25.1825C107.582 25.1825 106.422 24.8867 105.477 24.2953C104.532 23.682 103.877 23.0796 103.512 22.4882V30.8996H100ZM103.383 16.1467C103.383 17.9429 103.855 19.3667 104.8 20.4182C105.767 21.4696 106.97 21.9953 108.409 21.9953C109.869 21.9953 111.061 21.4586 111.985 20.3853C112.93 19.2901 113.402 17.8772 113.402 16.1467C113.402 14.4163 112.93 13.0253 111.985 11.9739C111.04 10.9006 109.837 10.3639 108.377 10.3639C106.873 10.3639 105.66 10.9225 104.736 12.0396C103.834 13.1567 103.383 14.5258 103.383 16.1467Z" fill="#30393F"/>
<path d="M123.879 12.0396C122.891 13.1348 122.397 14.5258 122.397 16.2125C122.397 17.8991 122.891 19.2901 123.879 20.3853C124.888 21.4586 126.177 21.9953 127.745 21.9953C129.313 21.9953 130.602 21.4477 131.611 20.3525C132.642 19.2572 133.158 17.8663 133.158 16.1796C133.158 14.4929 132.642 13.102 131.611 12.0067C130.602 10.9115 129.313 10.3639 127.745 10.3639C126.177 10.3639 124.888 10.9225 123.879 12.0396ZM118.853 16.2125C118.853 13.6277 119.701 11.481 121.398 9.77248C123.095 8.042 125.211 7.17676 127.745 7.17676C130.322 7.17676 132.449 8.03105 134.124 9.73962C135.821 11.4482 136.669 13.5948 136.669 16.1796C136.669 18.7644 135.821 20.911 134.124 22.6196C132.427 24.3282 130.301 25.1825 127.745 25.1825C125.168 25.1825 123.041 24.3391 121.366 22.6525C119.691 20.9658 118.853 18.8191 118.853 16.2125Z" fill="#30393F"/>
<path d="M147.827 7.17676V10.791C144.67 10.791 143.091 12.9815 143.091 17.3625V24.7553H139.579V7.60391H143.027V10.2982C143.37 9.4001 143.972 8.65533 144.831 8.06391C145.69 7.47248 146.689 7.17676 147.827 7.17676Z" fill="#30393F"/>
<path d="M151.699 7.60389V4.02246H155.179V7.60389H158.594V10.561H155.179V18.5453C155.179 19.8158 155.404 20.681 155.855 21.141C156.306 21.5791 157.036 21.7982 158.046 21.7982L158.722 21.7653V24.8539C158.314 24.9415 157.745 24.9853 157.015 24.9853C155.082 24.9853 153.707 24.3829 152.891 23.1782C152.096 21.9734 151.699 20.2429 151.699 17.9867V10.561H149.831V7.60389H151.699Z" fill="#30393F"/>
<path d="M160.509 19.4653C160.509 17.8006 161.11 16.4425 162.313 15.391C163.516 14.3396 165.084 13.8139 167.017 13.8139C168.8 13.8139 170.142 14.2301 171.044 15.0625V13.4525C171.044 12.4667 170.722 11.7001 170.078 11.1525C169.455 10.5829 168.585 10.2982 167.468 10.2982C165.922 10.2982 164.354 10.7472 162.764 11.6453L161.411 9.14819C163.409 7.83391 165.546 7.17676 167.822 7.17676C172.29 7.17676 174.524 9.34533 174.524 13.6825V24.7553H171.463L171.173 23.4739C170.163 24.6129 168.724 25.1825 166.856 25.1825C165.052 25.1825 163.537 24.6567 162.313 23.6053C161.11 22.532 160.509 21.152 160.509 19.4653ZM164.987 17.2639C164.343 17.8115 164.021 18.5125 164.021 19.3667C164.021 20.221 164.354 20.9329 165.019 21.5025C165.685 22.0501 166.544 22.3239 167.597 22.3239C168.628 22.3239 169.476 22.0501 170.142 21.5025C170.808 20.9548 171.141 20.2429 171.141 19.3667C171.141 18.4686 170.808 17.7567 170.142 17.231C169.498 16.6834 168.639 16.4096 167.565 16.4096C166.512 16.4096 165.653 16.6944 164.987 17.2639Z" fill="#30393F"/>
<path d="M178.215 24.7557V1H181.727V24.7557H178.215Z" fill="#30393F"/>
<path d="M254.135 12.291C252.972 11.119 251.398 10.4476 249.748 10.4201C246.601 10.4201 244.504 12.915 244.504 16.164C244.46 16.9019 244.565 17.6411 244.814 18.3371C245.063 19.0332 245.45 19.6717 245.952 20.2144C246.453 20.7571 247.06 21.1927 247.734 21.4952C248.408 21.7977 249.136 21.9607 249.875 21.9745C251.507 21.9171 253.054 21.2355 254.198 20.0703L255.184 23.0249C253.677 24.3922 251.718 25.1525 249.684 25.159C244.631 25.159 241.007 21.3182 241.007 16.164C240.959 14.9991 241.148 13.8365 241.561 12.7463C241.974 11.656 242.603 10.6608 243.411 9.82045C244.219 8.9801 245.189 8.31206 246.261 7.85656C247.334 7.40107 248.488 7.16754 249.653 7.17006C251.694 7.15811 253.665 7.90707 255.184 9.27086L254.135 12.291Z" fill="#DC1E28"/>
<path d="M257.767 1H261.232V24.7319H257.767V1Z" fill="#DC1E28"/>
<path d="M272.714 7.17085C273.893 7.14606 275.064 7.36318 276.156 7.80881C277.248 8.25444 278.237 8.91914 279.062 9.76189C279.886 10.6046 280.53 11.6076 280.953 12.7088C281.375 13.81 281.568 14.9862 281.518 16.1648C281.562 17.3421 281.366 18.516 280.942 19.6149C280.517 20.7139 279.874 21.7147 279.05 22.5565C278.226 23.3982 277.239 24.0631 276.15 24.5107C275.061 24.9583 273.892 25.1792 272.714 25.1598C271.539 25.1877 270.37 24.9736 269.281 24.5307C268.192 24.0878 267.205 23.4256 266.383 22.5852C265.56 21.7448 264.919 20.7441 264.499 19.6454C264.079 18.5466 263.889 17.3732 263.941 16.1981C263.896 15.0215 264.09 13.848 264.512 12.7487C264.933 11.6495 265.574 10.6473 266.394 9.80316C267.214 8.959 268.198 8.29038 269.284 7.83789C270.371 7.3854 271.538 7.15846 272.714 7.17085ZM272.714 21.9753C275.798 21.9753 278.054 19.5136 278.054 16.1648C278.054 12.817 275.798 10.3553 272.714 10.3553C269.599 10.3553 267.438 12.8503 267.438 16.1981C267.438 19.5791 269.631 21.9753 272.714 21.9753Z" fill="#DC1E28"/>
<path d="M284.057 17.9041V7.59766H287.489V18.1995C287.489 20.5633 288.92 21.9414 290.827 21.9414C293.02 21.9414 294.451 20.3003 294.451 17.9374V7.59766H297.916V24.7318H294.514V22.4999C294.043 23.3194 293.361 23.998 292.54 24.4655C291.718 24.9331 290.787 25.1725 289.842 25.1592C285.551 25.1591 284.057 21.646 284.057 17.9041Z" fill="#DC1E28"/>
<path d="M317.329 24.7319H314.055V22.5C313.436 23.3319 312.63 24.0062 311.702 24.4683C310.775 24.9303 309.751 25.167 308.715 25.1593C303.979 25.1593 300.61 21.4496 300.61 16.1976C300.61 10.9123 303.756 7.17036 308.492 7.17036C309.543 7.1451 310.583 7.38075 311.521 7.85624C312.458 8.33174 313.264 9.03226 313.864 9.89517V1H317.329L317.329 24.7319ZM309.033 10.3549C306.14 10.3549 304.106 12.7833 304.106 16.2309C304.106 19.743 306.236 22.0081 309.064 22.0081C312.116 22.0081 313.991 19.3821 313.991 16.2309C313.991 12.4879 311.798 10.3548 309.033 10.3548V10.3549Z" fill="#DC1E28"/>
</svg>
