<svg width="52" height="52" viewBox="0 0 52 52" fill="none" xmlns="http://www.w3.org/2000/svg">
<path opacity="0.1" d="M26.1166 3.40694C30.3407 0.313429 47.3435 19.2255 46.6056 20.5979C46.406 20.969 45.8805 21.817 45.4795 21.9465C44.7499 22.1819 29.3149 10.3092 29.3149 10.3092C29.3149 10.3092 51.9447 29.7126 51.5799 30.5351C51.2151 31.3576 49.7401 33.4863 48.3365 34.4193C46.801 35.4399 33.4677 27.7687 33.4677 27.7687C33.4677 27.7687 42.8497 38.7277 41.8732 40.4109C40.1817 43.3266 34.6405 47.6849 34.078 47.8187C32.9044 48.0979 23.0263 36.9621 22.5556 37.5258C22.0849 38.0895 27.4307 44.8469 27.4307 44.8469C27.4307 44.8469 26.4315 46.7892 25.8649 47.413C24.684 48.7132 -0.46664 28.9649 0.4989 26.7556C1.08951 25.4042 2.17198 24.1079 3.49761 22.5204C4.82324 20.9328 5.07305 20.7952 5.64081 20.5979C6.20858 20.4005 28.0054 34.3101 28.0054 34.3101C28.0054 34.3101 3.52931 11.4088 4.64922 9.18425C6.16497 6.17339 6.77643 5.429 9.47348 3.40694C11.2965 2.04021 39.1664 23.873 39.1664 23.873C39.1664 23.873 22.5731 8.80432 23.3504 6.71968C23.9392 5.14044 24.7568 4.40278 26.1166 3.40694Z" fill="#B2B2B2"/>
<path d="M31.32 21.5198V16.1398C31.32 15.6699 31.13 15.2198 30.8 14.8798L26.65 10.7299C26.31 10.3998 25.86 10.2098 25.38 10.2098H11.72C11.07 10.2098 10.53 10.7398 10.53 11.3998V35.7398C10.53 36.3998 11.07 36.9298 11.72 36.9298H22.65C24.44 39.8398 27.65 41.7899 31.32 41.7899C36.92 41.7899 41.47 37.2498 41.47 31.6498C41.47 26.0598 36.92 21.5198 31.32 21.5198ZM25.38 12.4398L29.09 16.1498H26.57C25.91 16.1498 25.38 15.6198 25.38 14.9598V12.4398V12.4398Z" fill="white"/>
<path fill-rule="evenodd" clip-rule="evenodd" d="M25.4974 31.9095C25.4973 31.6333 25.721 31.4094 25.9972 31.4092L30.6901 31.407L30.6923 26.7141C30.6925 26.4379 30.9164 26.2142 31.1926 26.2143C31.4687 26.2144 31.6925 26.4384 31.6923 26.7145L31.6901 31.4066L36.3821 31.4043C36.6583 31.4042 36.8822 31.628 36.8824 31.9041C36.8825 32.1803 36.6587 32.4042 36.3826 32.4043L31.6896 32.4066L31.6874 37.0995C31.6873 37.3757 31.4633 37.5994 31.1872 37.5993C30.9111 37.5992 30.6873 37.3752 30.6874 37.099L30.6896 32.407L25.9976 32.4092C25.7215 32.4094 25.4975 32.1856 25.4974 31.9095Z" fill="#B2B2B2"/>
<path d="M27.0901 20.5399V21.8998C26.3201 22.2299 25.6 22.6498 24.9401 23.1398H13.3101V20.5399H27.0901Z" fill="#EDEDED"/>
<path d="M22.85 25.2198C22.2401 26.0098 21.7501 26.8798 21.3801 27.8198H13.3101V25.2198H22.85Z" fill="#EDEDED"/>
<path d="M20.67 31.6498C20.67 31.9398 20.6801 32.2198 20.7101 32.4998H13.3101V29.8998H20.8201C20.72 30.4698 20.67 31.0498 20.67 31.6498Z" fill="#EDEDED"/>
<path fill-rule="evenodd" clip-rule="evenodd" d="M29.09 15.6498H26.57C26.19 15.6498 25.88 15.3398 25.88 14.9598V12.4398C25.88 12.1599 25.66 11.9398 25.38 11.9398C25.1 11.9398 24.88 12.1599 24.88 12.4398V14.9598C24.88 15.8898 25.64 16.6498 26.57 16.6498H29.09C29.37 16.6498 29.59 16.4199 29.59 16.1498C29.59 15.8698 29.37 15.6498 29.09 15.6498Z" fill="#B2B2B2"/>
<path fill-rule="evenodd" clip-rule="evenodd" d="M31.82 21.0298V16.1398C31.82 15.5399 31.58 14.9598 31.15 14.5298L27 10.3798C26.57 9.94983 25.99 9.70984 25.38 9.70984H11.72C10.79 9.70984 10.03 10.4698 10.03 11.3998V35.7398C10.03 36.6699 10.79 37.4298 11.72 37.4298H22.38C24.28 40.3598 27.57 42.2899 31.32 42.2899C37.2 42.2899 41.97 37.5298 41.97 31.6498C41.97 25.9498 37.47 21.2899 31.82 21.0298ZM11.72 36.4298C11.35 36.4298 11.03 36.1198 11.03 35.7398V11.3998C11.03 11.0198 11.35 10.7098 11.72 10.7098H25.38C25.72 10.7098 26.05 10.8398 26.29 11.0798L30.44 15.2398C30.68 15.4799 30.82 15.7998 30.82 16.1398V21.0298C29.5 21.0898 28.24 21.3898 27.09 21.8998C26.32 22.2299 25.6 22.6498 24.94 23.1398C24.14 23.7299 23.44 24.4298 22.85 25.2198C22.24 26.0098 21.75 26.8798 21.38 27.8198C21.13 28.4799 20.93 29.1798 20.82 29.8998C20.72 30.4698 20.67 31.0498 20.67 31.6498C20.67 31.9398 20.68 32.2198 20.71 32.4998C20.82 33.9099 21.2 35.2398 21.81 36.4298H11.72ZM31.32 41.2899C28.16 41.2899 25.35 39.7698 23.6 37.4298C23.36 37.1098 23.14 36.7798 22.94 36.4298C22.13 35.0198 21.67 33.3898 21.67 31.6498C21.67 26.4998 25.72 22.2899 30.82 22.0298C30.99 22.0198 31.15 22.0198 31.32 22.0198C31.49 22.0198 31.65 22.0198 31.82 22.0298C36.92 22.2899 40.97 26.4998 40.97 31.6498C40.97 36.9799 36.65 41.2899 31.32 41.2899Z" fill="#B2B2B2"/>
</svg>
