<svg width="52" height="52" viewBox="0 0 52 52" fill="none" xmlns="http://www.w3.org/2000/svg">
<path opacity="0.1" d="M26.1166 3.40694C30.3407 0.313429 47.3435 19.2255 46.6056 20.5979C46.406 20.969 45.8805 21.817 45.4795 21.9465C44.7499 22.1819 29.3149 10.3092 29.3149 10.3092C29.3149 10.3092 51.9447 29.7126 51.5799 30.5351C51.2151 31.3576 49.7401 33.4863 48.3365 34.4193C46.801 35.4399 33.4677 27.7687 33.4677 27.7687C33.4677 27.7687 42.8497 38.7277 41.8732 40.4109C40.1817 43.3266 34.6405 47.6849 34.078 47.8187C32.9044 48.0979 23.0263 36.9621 22.5556 37.5258C22.0849 38.0895 27.4307 44.8469 27.4307 44.8469C27.4307 44.8469 26.4315 46.7892 25.8649 47.413C24.684 48.7132 -0.46664 28.9649 0.4989 26.7556C1.08951 25.4042 2.17198 24.1079 3.49761 22.5204C4.82324 20.9328 5.07305 20.7952 5.64081 20.5979C6.20858 20.4005 28.0054 34.3101 28.0054 34.3101C28.0054 34.3101 3.52931 11.4088 4.64922 9.18425C6.16497 6.17339 6.77643 5.429 9.47348 3.40694C11.2965 2.04021 39.1664 23.873 39.1664 23.873C39.1664 23.873 22.5731 8.80432 23.3504 6.71968C23.9392 5.14044 24.7568 4.40278 26.1166 3.40694Z" fill="#B2B2B2"/>
<path fill-rule="evenodd" clip-rule="evenodd" d="M14.4401 21.6998L16.54 23.1898H13.3V15.1398C13.3 14.6998 13.67 14.3298 14.1401 14.3298H18.1801L14.1401 19.8298C13.7001 20.4298 13.8401 21.2698 14.4401 21.6998Z" fill="white"/>
<path fill-rule="evenodd" clip-rule="evenodd" d="M37.46 19.8698L33.59 17.1198L26 11.7199C25.83 11.5999 25.62 11.5498 25.42 11.5799L21.24 12.2398C21.03 12.2799 20.85 12.3899 20.73 12.5498L20.16 13.3299L19.42 14.3299L14.96 20.4099C14.84 20.5598 14.88 20.7799 15.04 20.8899L18.27 23.1898H19.53L24.44 16.5899L26.21 17.8598L22.25 23.1898H24.86L29.38 17.1299L31.15 18.3999L27.58 23.1898H30.31L33.21 19.2899L34.84 20.4499V20.7599L33.02 23.1898H35.45L37.54 20.3499C37.65 20.1999 37.61 19.9799 37.46 19.8698ZM25.8 12.8499L24.75 14.3199C24.31 14.9398 23.45 15.0598 22.84 14.6399L21.31 13.5799C21.09 13.4199 21.03 13.1098 21.19 12.8899C21.35 12.6599 21.67 12.6098 21.89 12.7699L22.31 13.0598L23.42 13.8199C23.6 13.9499 23.83 13.8999 23.93 13.7498L24.69 12.6798L24.98 12.2799C25.14 12.0598 25.45 12.0099 25.68 12.1599C25.91 12.3199 25.96 12.6299 25.8 12.8499Z" fill="white"/>
<path fill-rule="evenodd" clip-rule="evenodd" d="M39.04 18.4298V23.1898H36.69L38.35 20.9298C38.79 20.3298 38.65 19.4898 38.05 19.0598L36.03 17.6198H38.2C38.67 17.6198 39.04 17.9898 39.04 18.4298Z" fill="white"/>
<path fill-rule="evenodd" clip-rule="evenodd" d="M40.58 25.0798L39.15 38.8798V38.8898C39.11 39.2998 38.76 39.6298 38.32 39.6298H14.02C13.58 39.6298 13.2299 39.2998 13.19 38.8898L11.76 25.0798C11.7199 24.6098 12.0999 24.1898 12.5999 24.1898H39.74C40.24 24.1898 40.62 24.6098 40.58 25.0798Z" fill="white"/>
<path d="M24.6901 12.6798L23.9301 13.7498C23.8301 13.8998 23.6 13.9498 23.42 13.8198L22.3101 13.0598L24.6901 12.6798Z" fill="white"/>
<path fill-rule="evenodd" clip-rule="evenodd" d="M40.0399 23.2199V18.4298C40.0399 17.4199 39.21 16.6198 38.2 16.6198H34.62L26.59 10.9099C26.21 10.6398 25.7299 10.5298 25.26 10.5999L21.08 11.2598C20.61 11.3398 20.19 11.5898 19.9099 11.9699L18.9099 13.3298H14.14C13.13 13.3298 12.3 14.1298 12.3 15.1398V23.2199C11.37 23.3698 10.68 24.1998 10.77 25.1699L12.19 38.9799C12.28 39.9199 13.08 40.6298 14.02 40.6298H38.32C39.26 40.6298 40.06 39.9199 40.14 38.9799L41.57 25.1798V25.1699C41.6599 24.1998 40.9699 23.3698 40.0399 23.2199ZM38.2 17.6198C38.6699 17.6198 39.0399 17.9898 39.0399 18.4298V23.1898H36.69L38.3499 20.9298C38.7899 20.3298 38.65 19.4898 38.05 19.0598L36.03 17.6198H38.2V17.6198ZM19.4199 14.3298L20.1599 13.3298L20.7299 12.5498C20.8499 12.3898 21.03 12.2798 21.24 12.2398L25.4199 11.5798C25.62 11.5498 25.83 11.5999 26 11.7199L33.59 17.1198L37.46 19.8698C37.61 19.9799 37.65 20.1998 37.5399 20.3499L35.45 23.1898H18.27L15.0399 20.8898C14.88 20.7798 14.84 20.5598 14.96 20.4099L19.4199 14.3298ZM13.3 15.1398C13.3 14.6998 13.6699 14.3298 14.14 14.3298H18.18L14.14 19.8298C13.7 20.4298 13.84 21.2698 14.44 21.6998L16.5399 23.1898H13.3V15.1398V15.1398ZM39.15 38.8798V38.8898C39.11 39.2998 38.76 39.6298 38.32 39.6298H14.02C13.58 39.6298 13.2299 39.2998 13.19 38.8898L11.76 25.0798C11.7199 24.6098 12.0999 24.1898 12.5999 24.1898H39.74C40.24 24.1898 40.62 24.6098 40.58 25.0798L39.15 38.8798Z" fill="#B2B2B2"/>
<path fill-rule="evenodd" clip-rule="evenodd" d="M33.21 19.2899L30.31 23.1898H33.02L34.84 20.7598V20.4498L33.21 19.2899ZM29.38 17.1298L24.86 23.1898H27.58L31.15 18.3998L29.38 17.1298ZM24.44 16.5898L19.53 23.1898H22.25L26.21 17.8598L24.44 16.5898Z" fill="#EDEDED"/>
<path fill-rule="evenodd" clip-rule="evenodd" d="M21.1927 12.8882C21.3532 12.6635 21.6675 12.6087 21.8946 12.7659L23.4214 13.8222C23.6028 13.9476 23.8273 13.8968 23.9313 13.7513L24.9795 12.2845C25.1401 12.0599 25.4543 12.0051 25.6814 12.1622C25.9085 12.3193 25.9624 12.6288 25.8019 12.8535L24.7537 14.3203C24.3126 14.9375 23.4526 15.0596 22.84 14.6358L21.3132 13.5795C21.0861 13.4223 21.0321 13.1129 21.1927 12.8882Z" fill="#B2B2B2"/>
</svg>
