<svg width="160" height="136" viewBox="0 0 160 136" fill="none" xmlns="http://www.w3.org/2000/svg">
<path fill-rule="evenodd" clip-rule="evenodd" d="M39.3184 16.6738C35.7285 16.6738 32.8184 19.584 32.8184 23.1738C32.8184 26.7637 35.7285 29.6738 39.3184 29.6738H119.849C123.439 29.6738 126.349 26.7637 126.349 23.1738C126.349 19.584 123.439 16.6738 119.849 16.6738H39.3184ZM131.482 39.3927H62.6049C60.0804 38.6218 58.2515 36.3529 58.2515 33.6739C58.2515 31.4406 60.9156 29.8046 64.2515 29.6786V29.6739H39.2515V29.6786C42.5873 29.8046 45.2515 31.4406 45.2515 33.6739C45.2515 36.3529 43.4226 38.6218 40.898 39.3927H20.7363C17.1465 39.3927 14.2363 42.3028 14.2363 45.8927C14.2363 49.4825 17.1465 52.3927 20.7363 52.3927H73.7388C76.0891 53.2549 77.7583 55.44 77.7583 57.9993C77.7583 61.2326 75.0942 63.8686 71.7583 63.9946V63.9993H133.758V63.9946C130.422 63.8686 127.758 61.2326 127.758 57.9993C127.758 55.4325 129.437 53.2421 131.799 52.3851C132.461 52.3534 133.098 52.2224 133.694 52.0068C133.715 52.0057 133.737 52.0048 133.758 52.004V51.9993H133.714C136.205 51.0888 137.982 48.6983 137.982 45.8927C137.982 42.3028 135.072 39.3927 131.482 39.3927ZM54.501 63.9994C50.9111 63.9994 48.001 66.9095 48.001 70.4994C48.001 74.0892 50.9111 76.9994 54.501 76.9994H148.501C152.091 76.9994 155.001 74.0892 155.001 70.4994C155.001 66.9095 152.091 63.9994 148.501 63.9994H54.501ZM30.4116 93.9994C30.4116 91.238 32.6502 88.9994 35.4116 88.9994L82.9067 88.9995V88.9947C86.8301 88.8688 89.9633 86.2328 89.9633 82.9995C89.9633 79.7661 86.8301 77.1301 82.9067 77.0042V76.9995H118.19V77.0042C114.266 77.1301 111.133 79.7661 111.133 82.9995C111.133 86.2328 115.266 88.8688 119.19 88.9947V88.9995H129.937C133.69 89.009 135.919 91.2439 135.919 93.9994C135.919 96.7608 133.68 98.9994 129.919 98.9994H112.999V99.0041C109.663 99.1301 106.999 101.766 106.999 104.999C106.999 108.233 109.663 110.869 112.999 110.995V110.999H116.105C118.858 111.009 121.087 113.244 121.087 115.999C121.087 118.761 118.848 120.999 116.087 120.999H50.4653C47.7039 120.999 45.4653 118.761 45.4653 115.999C45.4653 113.238 47.7039 110.999 50.4653 110.999L82.9985 110.999V110.995C86.3344 110.869 88.9985 108.233 88.9985 104.999C88.9985 101.766 86.3344 99.1301 82.9985 99.0041V98.9994H35.4116C32.6502 98.9994 30.4116 96.7608 30.4116 93.9994Z" fill="#F5F5F5"/>
<path d="M0.71875 67.748C0.71875 65.2628 2.73347 63.248 5.21875 63.248H9.10052C11.5858 63.248 13.6005 65.2628 13.6005 67.748C13.6005 70.2333 11.5858 72.248 9.10052 72.248H5.21875C2.73347 72.248 0.71875 70.2333 0.71875 67.748Z" fill="#F5F5F5"/>
<path d="M139 19.502C139 17.0167 141.015 15.002 143.5 15.002H147.869C150.354 15.002 152.369 17.0167 152.369 19.502C152.369 21.9872 150.354 24.002 147.869 24.002H143.5C141.015 24.002 139 21.9872 139 19.502Z" fill="#F5F5F5"/>
<path d="M7 11.1523C7 8.9432 8.79086 7.15234 11 7.15234H22C24.2091 7.15234 26 8.9432 26 11.1523C26 13.3615 24.2091 15.1523 22 15.1523H11C8.79086 15.1523 7 13.3615 7 11.1523Z" fill="#F5F5F5"/>
<path fill-rule="evenodd" clip-rule="evenodd" d="M125.991 100.867C126.816 99.6353 127.227 98.036 127.227 96.0784C127.227 93.4104 125.692 90.5807 123.576 87.7872C121.433 84.9592 118.548 81.9844 115.575 79.0121C114.897 78.3336 114.189 77.6167 113.571 76.9907C112.711 76.119 112.024 75.4235 111.832 75.2529C111.419 74.886 110.787 74.9232 110.42 75.336C110.054 75.7489 110.091 76.3809 110.504 76.7478C110.653 76.8803 111.223 77.4583 111.988 78.2337C112.621 78.8761 113.389 79.654 114.161 80.4263C117.139 83.4042 119.933 86.2903 121.982 88.995C124.057 91.7342 125.227 94.109 125.227 96.0784C125.227 97.7671 124.872 98.9436 124.329 99.7539C123.795 100.551 123.021 101.081 122.005 101.382C119.9 102.003 116.861 101.603 113.391 100.486C113.391 100.486 113.39 100.486 113.391 100.486L111.308 99.8119C110.783 99.6419 110.219 99.93 110.049 100.455C109.879 100.981 110.167 101.545 110.693 101.715L112.777 102.389C116.327 103.533 119.86 104.1 122.571 103.3C123.963 102.889 125.158 102.111 125.991 100.867Z" fill="#666666"/>
<path d="M24 47H103C105.761 47 108 49.2386 108 52V111C108 113.761 105.761 116 103 116H24C21.2386 116 19 113.761 19 111V52C19 49.2386 21.2386 47 24 47Z" fill="#DDDDDD"/>
<path d="M19 52C19 49.2386 21.2386 47 24 47H103C105.761 47 108 49.2386 108 52V56H19V52Z" fill="#999999"/>
<path d="M26 52C26 49.2386 28.2386 47 31 47H110C112.761 47 115 49.2386 115 52V111C115 113.761 112.761 116 110 116H31C28.2386 116 26 113.761 26 111V52Z" fill="#EDEDED"/>
<path d="M26 52C26 49.2386 28.2386 47 31 47H110C112.761 47 115 49.2386 115 52V56H26V52Z" fill="#B3B3B3"/>
<path d="M36 24H29.9996C29.9996 24 25.4995 24 25.4995 29.5C25.4995 34.3055 25.4996 47 25.4996 47H36L36 24Z" fill="url(#paint0_linear_379_34463)"/>
<path opacity="0.15" d="M97.205 46.9922H34.2324C34.2324 64.0065 34.2432 93.7044 34.2432 108.11C34.2432 110.329 35.9063 112.001 38.0937 112.001C39.5974 112.001 41.9442 112.001 41.9442 112.001H49.6453H65.0473H80.449H88.15C88.15 112.001 90.537 112.001 92.001 112.001C94.063 112.001 97.24 110.513 97.24 107.975C97.24 81.2128 97.205 46.9922 97.205 46.9922Z" fill="black"/>
<path d="M97.2502 30.0011C97.2502 26.1727 95.0211 24 90.2442 24C69.7884 24 30.623 24 30.623 24C30.623 24 35.2478 25.0558 35.2478 30.0011C35.2478 47.5216 35.2478 92.1596 35.2478 106.994C35.2478 109.996 36.2416 111.001 39.1229 111.001C40.6362 111.001 42.998 111.001 42.998 111.001H50.7482H66.2487H81.7491H89.4991C89.4991 111.001 91.9021 111.001 93.3741 111.001C96.2332 111.001 97.2502 110.023 97.2502 107.001C97.2502 79.4412 97.2502 52.2608 97.2502 30.0011Z" fill="white"/>
<path opacity="0.3" fill-rule="evenodd" clip-rule="evenodd" d="M97.2502 56.0449C89.8917 56.5984 83.9442 62.8228 82.9479 70.7955C78.1555 72.3396 75 76.8968 75 82.2802C75 91.4231 81.8255 93.5557 87.9907 94.0049H91.523H97.2502V56.0449Z" fill="#EDEDED"/>
<path d="M88.6506 62.1406H43.4375C42.8852 62.1406 42.4375 62.5883 42.4375 63.1406C42.4375 63.6929 42.8852 64.1406 43.4375 64.1406H88.6506C89.2029 64.1406 89.6506 63.6929 89.6506 63.1406C89.6506 62.5883 89.2029 62.1406 88.6506 62.1406Z" fill="#EDEDED"/>
<path d="M88.6506 66.2324H43.4375C42.8852 66.2324 42.4375 66.6801 42.4375 67.2324C42.4375 67.7847 42.8852 68.2324 43.4375 68.2324H88.6506C89.2029 68.2324 89.6506 67.7847 89.6506 67.2324C89.6506 66.6801 89.2029 66.2324 88.6506 66.2324Z" fill="#EDEDED"/>
<path d="M43.4375 95.918H56.1573C56.7096 95.918 57.1573 96.3657 57.1573 96.918C57.1573 97.4703 56.7096 97.918 56.1573 97.918H43.4375C42.8852 97.918 42.4375 97.4703 42.4375 96.918C42.4375 96.3657 42.8852 95.918 43.4375 95.918Z" fill="#EDEDED"/>
<path d="M88.6509 70.3262H71.1113C70.5591 70.3262 70.1113 70.7739 70.1113 71.3262C70.1113 71.8785 70.5591 72.3262 71.1113 72.3262H88.6509C89.2032 72.3262 89.6509 71.8785 89.6509 71.3262C89.6509 70.7739 89.2032 70.3262 88.6509 70.3262Z" fill="#EDEDED"/>
<path d="M88.6509 74.418H71.1113C70.5591 74.418 70.1113 74.8657 70.1113 75.418C70.1113 75.9703 70.5591 76.418 71.1113 76.418H88.6509C89.2032 76.418 89.6509 75.9703 89.6509 75.418C89.6509 74.8657 89.2032 74.418 88.6509 74.418Z" fill="#EDEDED"/>
<path d="M43.3697 83.6667C58.8671 83.6667 70.3315 83.6319 88.4448 83.6309C89.3928 83.6308 89.6508 83.919 89.6508 84.4118C89.6508 85.764 89.6508 86.6226 89.6508 87.9115C89.6508 88.5727 89.3068 88.8615 88.4448 88.8615C73.24 88.8615 60.4144 88.8616 43.3697 88.8615C42.6201 88.8615 42.4375 88.6503 42.4375 88.1051C42.4376 86.5707 42.4375 85.8254 42.4375 84.4118C42.4375 83.8699 42.8367 83.6667 43.3697 83.6667Z" fill="#EDEDED"/>
<path d="M43.3697 55.2975C58.8671 55.2975 70.3315 55.2627 88.4448 55.2617C89.3928 55.2616 89.6508 55.5499 89.6508 56.0426C89.6508 57.3949 89.6508 58.2535 89.6508 59.5423C89.6508 60.2036 89.3068 60.4924 88.4448 60.4924C73.24 60.4924 60.4144 60.4924 43.3697 60.4924C42.6201 60.4924 42.4375 60.2811 42.4375 59.736C42.4376 58.2016 42.4375 57.4563 42.4375 56.0426C42.4375 55.5008 42.8367 55.2975 43.3697 55.2975Z" fill="#EDEDED"/>
<path d="M60.3599 45.3203H42.8203C42.268 45.3203 41.8203 45.768 41.8203 46.3203C41.8203 46.8726 42.268 47.3203 42.8203 47.3203H60.3599C60.9122 47.3203 61.3599 46.8726 61.3599 46.3203C61.3599 45.768 60.9122 45.3203 60.3599 45.3203Z" fill="#EDEDED"/>
<path d="M60.3599 41.3203H42.8203C42.268 41.3203 41.8203 41.768 41.8203 42.3203C41.8203 42.8726 42.268 43.3203 42.8203 43.3203H60.3599C60.9122 43.3203 61.3599 42.8726 61.3599 42.3203C61.3599 41.768 60.9122 41.3203 60.3599 41.3203Z" fill="#EDEDED"/>
<path d="M60.3599 37.3203H42.8203C42.268 37.3203 41.8203 37.768 41.8203 38.3203C41.8203 38.8726 42.268 39.3203 42.8203 39.3203H60.3599C60.9122 39.3203 61.3599 38.8726 61.3599 38.3203C61.3599 37.768 60.9122 37.3203 60.3599 37.3203Z" fill="#EDEDED"/>
<path fill-rule="evenodd" clip-rule="evenodd" d="M77.2354 60.8071C76.4107 62.0386 76 63.6378 76 65.5955C76 68.2634 77.5344 71.0931 79.6508 73.8866C81.7933 76.7146 84.6789 79.6894 87.6512 82.6617C88.3297 83.3403 89.0374 84.0571 89.6554 84.6832C90.5158 85.5548 91.2024 86.2503 91.3944 86.4209C91.8072 86.7878 92.4392 86.7506 92.8061 86.3378C93.173 85.925 93.1358 85.2929 92.723 84.926C92.5739 84.7935 92.0037 84.2155 91.2388 83.4401C90.6051 82.7977 89.8377 82.0198 89.0654 81.2475C86.0876 78.2697 83.294 75.3836 81.2449 72.6789C79.1697 69.9396 78 67.5648 78 65.5955C78 63.9067 78.3546 62.7302 78.8972 61.9199C79.4312 61.1225 80.2053 60.5923 81.2218 60.2923C83.3266 59.6711 86.366 60.0706 89.836 61.1881C89.8358 61.188 89.8363 61.1882 89.836 61.1881L91.9181 61.8619C92.4436 62.0319 93.0074 61.7438 93.1774 61.2184C93.3475 60.6929 93.0594 60.1291 92.5339 59.959L90.4499 59.2846C86.8991 58.1411 83.367 57.5738 80.6556 58.3741C79.264 58.7849 78.0687 59.5627 77.2354 60.8071Z" fill="#666666"/>
<path opacity="0.5" d="M95.9907 92H99.523H115.413H118.492H127.522H129.349C136.086 91.2349 140 85.1729 140 77.6056C140 69.5058 133.813 62.9532 126.18 62.9532C124.164 62.9532 122.25 63.4152 120.523 64.2391C118.116 58.21 112.664 54 106.319 54C98.4741 54 91.992 60.4353 90.9479 68.7907C86.1555 70.3347 83 74.892 83 80.2753C83 89.4182 89.8255 91.5509 95.9907 92Z" fill="#DEF4F2"/>
<path fill-rule="evenodd" clip-rule="evenodd" d="M89.1515 67.3313C90.7527 58.7202 97.701 52 106.319 52C112.923 52 118.567 55.9689 121.548 61.6829C123.012 61.2098 124.567 60.9532 126.18 60.9532C135.025 60.9532 142 68.5124 142 77.6056C142 85.7729 137.689 93.0658 129.574 93.9872C129.5 93.9957 129.424 94 129.349 94H95.9907C95.9422 94 95.8937 93.9982 95.8454 93.9947C92.6498 93.7619 88.9619 93.082 86.0372 91.0368C82.9719 88.8933 81 85.432 81 80.2753C81 74.5435 84.1417 69.4911 89.1515 67.3313ZM106.319 56C99.6475 56 93.8731 61.5117 92.9325 69.0387C92.8361 69.8102 92.3013 70.4559 91.5613 70.6943C87.6698 71.9481 85 75.6794 85 80.2753C85 84.2615 86.4408 86.4381 88.3295 87.7588C90.3427 89.1666 93.1213 89.7791 96.0645 90H129.23C134.531 89.3394 138 84.5262 138 77.6056C138 70.4992 132.6 64.9532 126.18 64.9532C124.473 64.9532 122.853 65.3435 121.384 66.0442C120.885 66.2824 120.31 66.3032 119.794 66.1017C119.279 65.9002 118.871 65.4944 118.666 64.9808C116.515 59.5933 111.725 56 106.319 56Z" fill="#E5E5E5"/>
<path fill-rule="evenodd" clip-rule="evenodd" d="M119.679 62.4259C116.976 57.3826 112.006 54 106.319 54C98.4741 54 91.992 60.4353 90.9479 68.7907C86.1555 70.3347 83 74.892 83 80.2753C83 89.4182 89.8255 91.5509 95.9907 92H129.349C136.086 91.2349 140 85.1729 140 77.6056C140 69.5058 133.813 62.9532 126.18 62.9532C124.775 62.9532 123.42 63.1775 122.143 63.5923C121.587 63.7728 121.047 63.9893 120.523 64.2391C120.274 63.6143 119.991 63.009 119.679 62.4259ZM129.23 90C134.531 89.3394 138 84.5262 138 77.6056C138 70.4992 132.6 64.9532 126.18 64.9532C124.473 64.9532 122.853 65.3435 121.384 66.0442C120.885 66.2824 120.31 66.3032 119.794 66.1017C119.279 65.9002 118.871 65.4944 118.666 64.9808C116.515 59.5933 111.725 56 106.319 56C99.6475 56 93.8731 61.5117 92.9325 69.0387C92.8361 69.8102 92.3013 70.4559 91.5613 70.6943C87.6698 71.9481 85 75.6794 85 80.2753C85 84.2615 86.4408 86.4381 88.3295 87.7588C90.3427 89.1666 93.1213 89.7791 96.0645 90H129.23Z" fill="white"/>
<path fill-rule="evenodd" clip-rule="evenodd" d="M120.553 62.1058C121.047 61.8588 121.648 62.059 121.895 62.553C122.455 63.6732 122.95 65.4197 123.286 67.1107C123.622 68.8014 123.829 70.5879 123.745 71.8025C123.707 72.3535 123.229 72.7692 122.679 72.7311C122.128 72.6929 121.712 72.2154 121.75 71.6644C121.816 70.716 121.649 69.1358 121.324 67.5006C120.999 65.8659 120.546 64.3272 120.106 63.4474C119.859 62.9535 120.059 62.3528 120.553 62.1058Z" fill="#E5E5E5"/>
<path fill-rule="evenodd" clip-rule="evenodd" d="M125.893 101.008C126.783 99.7593 127.227 98.1118 127.227 96.0773C127.227 93.4094 125.692 90.5797 123.576 87.7862C121.433 84.9582 118.548 81.9834 115.575 79.0111C114.897 78.3325 114.189 77.6156 113.571 76.9896C112.711 76.118 112.024 75.4225 111.832 75.2519C111.419 74.885 110.787 74.9222 110.42 75.335C110.054 75.7478 110.091 76.3799 110.504 76.7468C110.653 76.8793 111.223 77.4573 111.988 78.2327C112.621 78.8751 113.389 79.653 114.161 80.4253C117.139 83.4031 119.933 86.2892 121.982 88.9939C124.057 91.7332 125.227 94.108 125.227 96.0773C125.227 97.8323 124.844 99.0339 124.264 99.8474C123.693 100.649 122.86 101.173 121.758 101.447C121.222 101.581 120.897 102.124 121.03 102.66C121.164 103.196 121.707 103.522 122.243 103.388C123.714 103.021 124.995 102.269 125.893 101.008Z" fill="#666666"/>
<path fill-rule="evenodd" clip-rule="evenodd" d="M122.5 76C122.5 75.4477 122.052 75 121.5 75H111.167C110.614 75 110.167 75.4477 110.167 76C110.167 76.5523 110.614 77 111.167 77H121.5C122.052 77 122.5 76.5523 122.5 76Z" fill="#666666"/>
<path fill-rule="evenodd" clip-rule="evenodd" d="M111.168 87.332C111.72 87.332 112.168 86.8843 112.168 86.332V75.9987C112.168 75.4464 111.72 74.9987 111.168 74.9987C110.616 74.9987 110.168 75.4464 110.168 75.9987V86.332C110.168 86.8843 110.616 87.332 111.168 87.332Z" fill="#666666"/>
<path fill-rule="evenodd" clip-rule="evenodd" d="M77.3338 60.6657C76.4438 61.9145 76 63.562 76 65.5965C76 68.2645 77.5344 71.0942 79.6508 73.8876C81.7933 76.7156 84.6789 79.6905 87.6512 82.6628C88.3298 83.3413 89.0374 84.0582 89.6554 84.6842C90.5159 85.5559 91.2024 86.2514 91.3944 86.422C91.8072 86.7888 92.4392 86.7516 92.8061 86.3388C93.173 85.926 93.1358 85.2939 92.723 84.927C92.5739 84.7946 92.0037 84.2165 91.2388 83.4411C90.6051 82.7987 89.8377 82.0208 89.0654 81.2486C86.0876 78.2707 83.294 75.3846 81.2449 72.6799C79.1697 69.9407 78 67.5659 78 65.5965C78 63.8416 78.3827 62.64 78.9625 61.8265C79.5339 61.0246 80.3668 60.5012 81.4682 60.2263C82.0041 60.0926 82.33 59.5498 82.1963 59.0139C82.0626 58.4781 81.5198 58.1521 80.9839 58.2859C79.5122 58.6532 78.2321 59.4053 77.3338 60.6657Z" fill="#666666"/>
<path fill-rule="evenodd" clip-rule="evenodd" d="M80.7266 85.6738C80.7266 86.2261 81.1743 86.6738 81.7266 86.6738H92.0599C92.6122 86.6738 93.0599 86.2261 93.0599 85.6738C93.0599 85.1215 92.6122 84.6738 92.0599 84.6738H81.7266C81.1743 84.6738 80.7266 85.1215 80.7266 85.6738Z" fill="#666666"/>
<path fill-rule="evenodd" clip-rule="evenodd" d="M92.0586 74.3418C91.5063 74.3418 91.0586 74.7895 91.0586 75.3418V85.6751C91.0586 86.2274 91.5063 86.6751 92.0586 86.6751C92.6109 86.6751 93.0586 86.2274 93.0586 85.6751V75.3418C93.0586 74.7895 92.6109 74.3418 92.0586 74.3418Z" fill="#666666"/>
<defs>
<linearGradient id="paint0_linear_379_34463" x1="32.8497" y1="33.5561" x2="19.4984" y2="35.7887" gradientUnits="userSpaceOnUse">
<stop stop-color="#AFAFAF"/>
<stop offset="1" stop-color="#EDEDED"/>
</linearGradient>
</defs>
</svg>
