<?xml version="1.0" encoding="utf-8"?>
<!-- Generator: Adobe Illustrator 26.5.0, SVG Export Plug-In . SVG Version: 6.00 Build 0)  -->
<svg version="1.1" id="Warstwa_1" xmlns="http://www.w3.org/2000/svg" xmlns:xlink="http://www.w3.org/1999/xlink" x="0px" y="0px"
	 width="52px" height="52px" viewBox="0 0 52 52" style="enable-background:new 0 0 52 52;" xml:space="preserve">
<g>
	<g>
		<path style="opacity:0.1;fill:#B2B2B2;enable-background:new    ;" d="M26.1200008,3.4099901
			c4.2199993-3.089998,21.2299976,15.8200092,20.4899998,17.1900101c-0.2000008,0.3699989-0.7299995,1.2199993-1.1300011,1.3500004
			C44.75,22.1900005,29.3199997,10.3100004,29.3199997,10.3100004s22.6300011,19.3999977,22.2600021,20.2299995
			c-0.3600006,0.8199997-1.8400002,2.9500008-3.2400017,3.8799973c-1.5400009,1.0200005-14.8699989-6.6499977-14.8699989-6.6499977
			s9.3799973,10.9599991,8.4099998,12.6399994c-1.6900024,2.920002-7.2299995,7.2700005-7.7999992,7.4099998
			c-1.170002,0.2799988-11.0500011-10.8600006-11.5200024-10.2900009c-0.4699993,0.5600014,4.8800011,7.3199997,4.8800011,7.3199997
			s-1,1.9400024-1.5699997,2.5699997C24.6800003,48.7099991-0.469998,28.9599991,0.500002,26.7600002
			C1.09,25.4099998,2.1700001,24.1100006,3.5,22.5200005s1.5799999-1.7299995,2.1399999-1.9200001
			C6.21,20.3999996,28,34.3100014,28,34.3100014S3.52,11.4099998,4.6399999,9.1799898
			C6.1599998,6.1699901,6.77,5.4199901,9.46,3.3999901C11.2799997,2.02999,39.1500015,23.8700008,39.1500015,23.8700008
			S22.5599995,8.7999897,23.3299999,6.7199898c0.5900002-1.5799999,1.4099998-2.3199997,2.7700005-3.3099997H26.1200008z"/>
		<path style="fill-rule:evenodd;clip-rule:evenodd;fill:#FFFFFF;" d="M6.5,10.5c0-0.5522804,0.4477201-1,1-1h37
			c0.5522995,0,1,0.4477196,1,1v33c0,0.5522995-0.4477005,1-1,1h-37c-0.5522799,0-1-0.4477005-1-1V10.5z"/>
		<path style="fill-rule:evenodd;clip-rule:evenodd;fill:#B2B2B2;" d="M6,10.5C6,9.6715698,6.6715698,9,7.5,9h37
			c0.8283997,0,1.5,0.6715698,1.5,1.5v33c0,0.8283997-0.6716003,1.5-1.5,1.5h-37C6.6715698,45,6,44.3283997,6,43.5V10.5z M7.5,10
			C7.2238598,10,7,10.2238998,7,10.5v33C7,43.7761002,7.2238598,44,7.5,44h37c0.2761002,0,0.5-0.2238998,0.5-0.5v-33
			c0-0.2761002-0.2238998-0.5-0.5-0.5H7.5z"/>
		<path style="fill-rule:evenodd;clip-rule:evenodd;fill:#B2B2B2;" d="M12.5,6C12.7761002,6,13,6.2238598,13,6.5v5
			c0,0.2761002-0.2238998,0.5-0.5,0.5S12,11.7761002,12,11.5v-5C12,6.2238598,12.2238998,6,12.5,6z"/>
		<path style="fill-rule:evenodd;clip-rule:evenodd;fill:#B2B2B2;" d="M19.5,6C19.7761002,6,20,6.2238598,20,6.5v5
			c0,0.2761002-0.2238998,0.5-0.5,0.5S19,11.7761002,19,11.5v-5C19,6.2238598,19.2238998,6,19.5,6z"/>
		<path style="fill-rule:evenodd;clip-rule:evenodd;fill:#B2B2B2;" d="M26,6c0.2761002,0,0.5,0.2238598,0.5,0.5v5
			c0,0.2761002-0.2238998,0.5-0.5,0.5s-0.5-0.2238998-0.5-0.5v-5C25.5,6.2238598,25.7238998,6,26,6z"/>
		<path style="fill-rule:evenodd;clip-rule:evenodd;fill:#B2B2B2;" d="M32.5,6C32.7761002,6,33,6.2238598,33,6.5v5
			c0,0.2761002-0.2238998,0.5-0.5,0.5S32,11.7761002,32,11.5v-5C32,6.2238598,32.2238998,6,32.5,6z"/>
		<path style="fill-rule:evenodd;clip-rule:evenodd;fill:#B2B2B2;" d="M39.5,6C39.7761002,6,40,6.2238598,40,6.5v5
			c0,0.2761002-0.2238998,0.5-0.5,0.5S39,11.7761002,39,11.5v-5C39,6.2238598,39.2238998,6,39.5,6z"/>
		<path style="fill-rule:evenodd;clip-rule:evenodd;fill:#EDEDED;" d="M28.5,19H33v6h-6v-4.5C27,19.6716003,27.6716003,19,28.5,19z"
			/>
		<path style="fill-rule:evenodd;clip-rule:evenodd;fill:#B2B2B2;" d="M27,26h6v6h-6v-4.5V26z"/>
		<path style="fill-rule:evenodd;clip-rule:evenodd;fill:#EDEDED;" d="M34,26h6v6h-6v-4.5V26z"/>
		<path style="fill-rule:evenodd;clip-rule:evenodd;fill:#EDEDED;" d="M20,26h6v6h-6v-4.5V26z"/>
		<path style="fill-rule:evenodd;clip-rule:evenodd;fill:#EDEDED;" d="M20,33h6v6h-6v-4.5V33z"/>
		<path style="fill-rule:evenodd;clip-rule:evenodd;fill:#EDEDED;" d="M27,33h6v6h-6v-4.5V33z"/>
		<path style="fill-rule:evenodd;clip-rule:evenodd;fill:#EDEDED;" d="M14.5,39H19v-6h-6v4.5C13,38.3283997,13.6716003,39,14.5,39z"
			/>
		<path style="fill-rule:evenodd;clip-rule:evenodd;fill:#EDEDED;" d="M38.5,39H34v-6h6v4.5C40,38.3283997,39.3283997,39,38.5,39z"
			/>
		<path style="fill-rule:evenodd;clip-rule:evenodd;fill:#EDEDED;" d="M14.5,26H19v6h-6v-4.5C13,26.6716003,13.6716003,26,14.5,26z"
			/>
		<path style="fill-rule:evenodd;clip-rule:evenodd;fill:#EDEDED;" d="M38.5,19H34v6h6v-4.5C40,19.6716003,39.3283997,19,38.5,19z"
			/>
	</g>
</g>
</svg>
