<?xml version="1.0" encoding="utf-8"?>
<!-- Generator: Adobe Illustrator 26.5.0, SVG Export Plug-In . SVG Version: 6.00 Build 0)  -->
<svg version="1.1" id="Warstwa_1" xmlns="http://www.w3.org/2000/svg" xmlns:xlink="http://www.w3.org/1999/xlink" x="0px" y="0px"
	 width="52px" height="52px" viewBox="0 0 52 52" style="enable-background:new 0 0 52 52;" xml:space="preserve">
<g>
	<g>
		<path style="opacity:0.1;fill:#B2B2B2;enable-background:new    ;" d="M26.1200008,3.4100001
			C30.3400002,0.32,47.3499985,19.2299995,46.6100006,20.6000004c-0.2000008,0.3699989-0.7299995,1.2199993-1.1300011,1.3500004
			C44.75,22.1900005,29.3199997,10.3100004,29.3199997,10.3100004s22.6300011,19.3999977,22.2600021,20.2299995
			c-0.3600006,0.8199997-1.8400002,2.9500008-3.2400017,3.8799973c-1.5400009,1.0200005-14.8699989-6.6499977-14.8699989-6.6499977
			s9.3799973,10.9599991,8.4099998,12.6399994c-1.6900024,2.920002-7.2299995,7.2700005-7.7999992,7.4099998
			c-1.170002,0.2799988-11.0500011-10.8600006-11.5200024-10.2900009c-0.4699993,0.5600014,4.8800011,7.3199997,4.8800011,7.3199997
			s-1,1.9400024-1.5699997,2.5699997C24.6800003,48.7099991-0.469998,28.9599991,0.500002,26.7600002
			C1.09,25.4099998,2.1700001,24.1100006,3.5,22.5200005s1.5799999-1.7299995,2.1399999-1.9200001
			C6.21,20.3999996,28,34.3100014,28,34.3100014S3.52,11.4099998,4.6399999,9.1800003
			C6.1599998,6.1700001,6.77,5.4200001,9.46,3.4000001C11.2799997,2.03,39.1500015,23.8700008,39.1500015,23.8700008
			S22.5599995,8.8000002,23.3299999,6.7199998c0.5900002-1.5799999,1.4099998-2.3199997,2.7700005-3.3099997H26.1200008z"/>
		<path style="fill-rule:evenodd;clip-rule:evenodd;fill:#B2B2B2;" d="M6.3400002,43.5999985c0-0.2761002,0.2238498-0.5,0.5-0.5
			h38.3333015c0.2761993,0,0.5,0.2238998,0.5,0.5s-0.2238007,0.5-0.5,0.5H6.8400002
			C6.5638499,44.0999985,6.3400002,43.8760986,6.3400002,43.5999985z"/>
		<path style="fill-rule:evenodd;clip-rule:evenodd;fill:#FFFFFF;" d="M13.5,36.4000015
			c0-0.441803-0.3731003-0.8000031-0.8332996-0.8000031H9.3333302C8.8731003,35.5999985,8.5,35.9581985,8.5,36.4000015v7.1999969h5
			V36.4000015z"/>
		<path style="fill-rule:evenodd;clip-rule:evenodd;fill:#B2B2B2;" d="M8,36.4000015
			c0-0.7370033,0.6163902-1.3000031,1.3333302-1.3000031h3.3333702C13.3836002,35.0999985,14,35.6629982,14,36.4000015v7.1999969
			c0,0.2761002-0.2238998,0.5-0.5,0.5h-5c-0.2761402,0-0.5-0.2238998-0.5-0.5V36.4000015z M9.3333302,36.0999985
			C9.1298103,36.0999985,9,36.2533989,9,36.4000015v6.6999969h4v-6.6999969c0-0.1466026-0.1297998-0.3000031-0.3332996-0.3000031
			H9.3333302z"/>
		<path style="fill-rule:evenodd;clip-rule:evenodd;fill:#D9D9D9;" d="M23.5,28.3999996
			c0-0.4417992-0.3731003-0.7999992-0.8332996-0.7999992h-3.3334007c-0.4601994,0-0.8332996,0.3582001-0.8332996,0.7999992
			v15.1999989h5V28.3999996z"/>
		<path style="fill-rule:evenodd;clip-rule:evenodd;fill:#B2B2B2;" d="M18,28.3999996
			c0-0.7369995,0.6163998-1.2999992,1.3332996-1.2999992h3.3334007C23.3836002,27.1000004,24,27.6630001,24,28.3999996v15.1999989
			c0,0.2761002-0.2238998,0.5-0.5,0.5h-5c-0.2761002,0-0.5-0.2238998-0.5-0.5V28.3999996z M19.3332996,28.1000004
			C19.1298008,28.1000004,19,28.2534008,19,28.3999996v14.6999989h4V28.3999996
			c0-0.1465988-0.1298008-0.2999992-0.3332996-0.2999992H19.3332996z"/>
		<path style="fill-rule:evenodd;clip-rule:evenodd;fill:#FFFFFF;" d="M33.5,31.6000004
			c0-0.4418011-0.3731003-0.8000011-0.8333015-0.8000011h-3.3333988c-0.4601994,0-0.8332996,0.3582001-0.8332996,0.8000011
			v11.9999981h5V31.6000004z"/>
		<path style="fill-rule:evenodd;clip-rule:evenodd;fill:#B2B2B2;" d="M28,31.6000004
			c0-0.7369995,0.6163998-1.3000011,1.3332996-1.3000011h3.3333988C33.3835983,30.2999992,34,30.8630009,34,31.6000004v11.9999981
			c0,0.2761002-0.2238998,0.5-0.5,0.5h-5c-0.2761002,0-0.5-0.2238998-0.5-0.5V31.6000004z M29.3332996,31.2999992
			C29.1298008,31.2999992,29,31.4533997,29,31.6000004v11.4999981h4V31.6000004
			c0-0.1466007-0.1297989-0.3000011-0.3333015-0.3000011H29.3332996z"/>
		<path style="fill-rule:evenodd;clip-rule:evenodd;fill:#D9D9D9;" d="M43.5,20.3999996
			c0-0.4417992-0.3731003-0.7999992-0.8333015-0.7999992h-3.3333969c-0.4602013,0-0.8333015,0.3582001-0.8333015,0.7999992
			v23.1999989h5V20.3999996z"/>
		<path style="fill-rule:evenodd;clip-rule:evenodd;fill:#B2B2B2;" d="M38,20.3999996
			c0-0.7369995,0.6164017-1.2999992,1.3333015-1.2999992h3.3333969C43.3835983,19.1000004,44,19.6630001,44,20.3999996v23.1999989
			c0,0.2761002-0.2238998,0.5-0.5,0.5h-5c-0.2761002,0-0.5-0.2238998-0.5-0.5V20.3999996z M39.3333015,20.1000004
			C39.1297989,20.1000004,39,20.2534008,39,20.3999996v22.6999989h4V20.3999996
			c0-0.1465988-0.1297989-0.2999992-0.3333015-0.2999992H39.3333015z"/>
		<path style="fill-rule:evenodd;clip-rule:evenodd;fill:#D9D9D9;" d="M11.0066996,26.7999992
			c1.3807001,0,2.5-1.0744991,2.5-2.3999996S12.3873997,22,11.0066996,22C9.6259403,22,8.50665,23.0744991,8.50665,24.3999996
			S9.6259403,26.7999992,11.0066996,26.7999992z"/>
		<path style="fill-rule:evenodd;clip-rule:evenodd;fill:#B2B2B2;" d="M8.00665,24.3999996
			C8.00665,22.7793007,9.3692303,21.5,11.0066996,21.5c1.6374006,0,3,1.2793007,3,2.8999996
			c0,1.6207008-1.3625994,2.8999996-3,2.8999996C9.3692303,27.2999992,8.00665,26.0207005,8.00665,24.3999996z M11.0066996,22.5
			c-1.1240492,0-2.0000496,0.8696995-2.0000496,1.8999996s0.8760004,1.8999996,2.0000496,1.8999996
			c1.1240005,0,2-0.8696995,2-1.8999996S12.1307001,22.5,11.0066996,22.5z"/>
		<path style="fill-rule:evenodd;clip-rule:evenodd;fill:#FFFFFF;" d="M21.0067005,18.7999992
			c1.3806992,0,2.5-1.0744991,2.5-2.3999996S22.3873997,14,21.0067005,14c-1.3808002,0-2.5,1.0745001-2.5,2.3999996
			S19.6259003,18.7999992,21.0067005,18.7999992z"/>
		<path style="fill-rule:evenodd;clip-rule:evenodd;fill:#B2B2B2;" d="M18.0067005,16.3999996
			c0-1.6206999,1.3624992-2.8999996,3-2.8999996c1.6373997,0,3,1.2792997,3,2.8999996s-1.3626003,2.8999996-3,2.8999996
			C19.3691998,19.2999992,18.0067005,18.0207005,18.0067005,16.3999996z M21.0067005,14.5c-1.1240997,0-2,0.8697004-2,1.8999996
			s0.8759003,1.8999996,2,1.8999996c1.1239986,0,2-0.8696995,2-1.8999996S22.1306992,14.5,21.0067005,14.5z"/>
		<path style="fill-rule:evenodd;clip-rule:evenodd;fill:#D9D9D9;" d="M31.0067005,22
			c1.3807011,0,2.4999981-1.0744991,2.4999981-2.3999996s-1.119297-2.3999996-2.4999981-2.3999996
			c-1.3808002,0-2.5,1.0744991-2.5,2.3999996S29.6259003,22,31.0067005,22z"/>
		<path style="fill-rule:evenodd;clip-rule:evenodd;fill:#B2B2B2;" d="M28.0067005,19.6000004
			c0-1.6207008,1.3624992-2.8999996,3-2.8999996c1.6373997,0,2.9999981,1.2792988,2.9999981,2.8999996
			c0,1.6206989-1.3625984,2.8999996-2.9999981,2.8999996C29.3691998,22.5,28.0067005,21.2206993,28.0067005,19.6000004z
			 M31.0067005,17.7000008c-1.1240005,0-2,0.8696995-2,1.8999996S29.8827,21.5,31.0067005,21.5
			c1.1239986,0,1.9999981-0.8696995,1.9999981-1.8999996S32.1306992,17.7000008,31.0067005,17.7000008z"/>
		<path style="fill-rule:evenodd;clip-rule:evenodd;fill:#FFFFFF;" d="M41.0066986,11.6000004
			c1.380703,0,2.5-1.0745001,2.5-2.4000006c0-1.32548-1.119297-2.3999996-2.5-2.3999996c-1.3807983,0-2.5,1.0745196-2.5,2.3999996
			C38.5066986,10.5255003,39.6259003,11.6000004,41.0066986,11.6000004z"/>
		<path style="fill-rule:evenodd;clip-rule:evenodd;fill:#B2B2B2;" d="M38.0066986,9.1999998
			c0-1.6206698,1.3625031-2.8999996,3-2.8999996c1.6374016,0,3,1.2793298,3,2.8999996c0,1.6206999-1.3625984,2.9000006-3,2.9000006
			C39.3692017,12.1000004,38.0066986,10.8206997,38.0066986,9.1999998z M41.0066986,7.3000002c-1.1239967,0-2,0.8696995-2,1.8999996
			s0.8760033,1.9000006,2,1.9000006c1.1240005,0,2-0.8697004,2-1.9000006S42.1306992,7.3000002,41.0066986,7.3000002z"/>
		<path style="fill-rule:evenodd;clip-rule:evenodd;fill:#B2B2B2;" d="M19.4771004,17.6236
			c0.1724987,0.2155991,0.1375999,0.5303001-0.078001,0.7028008l-5.9783993,4.7839985
			c-0.2156,0.1725006-0.5302,0.1375999-0.7027998-0.0779991c-0.1725006-0.215601-0.1375999-0.5303001,0.0780001-0.7028008
			l5.9783993-4.7839985C18.9899006,17.3731003,19.3045006,17.4080009,19.4771004,17.6236z"/>
		<path style="fill-rule:evenodd;clip-rule:evenodd;fill:#B2B2B2;" d="M22.9020996,17.0060997
			c0.0841007-0.2630997,0.3656006-0.4081001,0.6286011-0.3239002L28.7873001,18.3638
			c0.2630997,0.0841007,0.4081001,0.3654995,0.3239002,0.6285c-0.0841007,0.2630997-0.3654995,0.4081001-0.6285,0.3239002
			l-5.2567005-1.6816006C22.9629993,17.5505009,22.8180008,17.2691002,22.9020996,17.0060997z"/>
		<path style="fill-rule:evenodd;clip-rule:evenodd;fill:#B2B2B2;" d="M39.3396988,10.2670002
			c0.2060013,0.184,0.2238998,0.5001001,0.0399017,0.7059994l-6.2649994,7.0160007
			c-0.1839027,0.2059994-0.5,0.2238998-0.7060013,0.0398998c-0.2058983-0.1839008-0.2238007-0.5-0.0399017-0.7059002
			l6.2650032-7.0159998C38.8176994,10.1009998,39.1337013,10.0831003,39.3396988,10.2670002z"/>
	</g>
</g>
</svg>
