<svg width="52" height="52" viewBox="0 0 52 52" fill="none" xmlns="http://www.w3.org/2000/svg">
<g clip-path="url(#clip0_28_392)">
<path d="M52 0H0V52H52V0Z" fill="white"/>
<path opacity="0.1" d="M26.12 3.41C30.34 0.32 47.35 19.23 46.61 20.6C46.41 20.97 45.88 21.82 45.48 21.95C44.75 22.19 29.32 10.31 29.32 10.31C29.32 10.31 51.95 29.71 51.58 30.54C51.22 31.36 49.74 33.49 48.34 34.42C46.8 35.44 33.47 27.77 33.47 27.77C33.47 27.77 42.85 38.73 41.88 40.41C40.19 43.33 34.65 47.68 34.08 47.82C32.91 48.1 23.03 36.96 22.56 37.53C22.09 38.09 27.44 44.85 27.44 44.85C27.44 44.85 26.44 46.79 25.87 47.42C24.68 48.71 -0.469998 28.96 0.500002 26.76C1.09 25.41 2.17 24.11 3.5 22.52C4.83 20.93 5.08 20.79 5.64 20.6C6.21 20.4 28 34.31 28 34.31C28 34.31 3.52 11.41 4.64 9.18C6.16 6.17 6.77 5.42 9.46 3.4C11.28 2.03 39.15 23.87 39.15 23.87C39.15 23.87 22.56 8.8 23.33 6.72C23.92 5.14 24.74 4.4 26.1 3.41H26.12Z" fill="#B2B2B2"/>
<path fill-rule="evenodd" clip-rule="evenodd" d="M6.34 43.6C6.34 43.3239 6.56385 43.1 6.84 43.1H45.1733C45.4495 43.1 45.6733 43.3239 45.6733 43.6C45.6733 43.8761 45.4495 44.1 45.1733 44.1H6.84C6.56385 44.1 6.34 43.8761 6.34 43.6Z" fill="#B2B2B2"/>
<path fill-rule="evenodd" clip-rule="evenodd" d="M13.5 36.4C13.5 35.9582 13.1269 35.6 12.6667 35.6H9.33333C8.8731 35.6 8.5 35.9582 8.5 36.4V43.6H13.5V36.4Z" fill="white"/>
<path fill-rule="evenodd" clip-rule="evenodd" d="M8 36.4C8 35.663 8.61639 35.1 9.33333 35.1H12.6667C13.3836 35.1 14 35.663 14 36.4V43.6C14 43.8761 13.7761 44.1 13.5 44.1H8.5C8.22386 44.1 8 43.8761 8 43.6V36.4ZM9.33333 36.1C9.12981 36.1 9 36.2534 9 36.4V43.1H13V36.4C13 36.2534 12.8702 36.1 12.6667 36.1H9.33333Z" fill="#B2B2B2"/>
<path fill-rule="evenodd" clip-rule="evenodd" d="M23.5 28.4C23.5 27.9582 23.1269 27.6 22.6667 27.6H19.3333C18.8731 27.6 18.5 27.9582 18.5 28.4V43.6H23.5V28.4Z" fill="#D9D9D9"/>
<path fill-rule="evenodd" clip-rule="evenodd" d="M18 28.4C18 27.663 18.6164 27.1 19.3333 27.1H22.6667C23.3836 27.1 24 27.663 24 28.4V43.6C24 43.8761 23.7761 44.1 23.5 44.1H18.5C18.2239 44.1 18 43.8761 18 43.6V28.4ZM19.3333 28.1C19.1298 28.1 19 28.2534 19 28.4V43.1H23V28.4C23 28.2534 22.8702 28.1 22.6667 28.1H19.3333Z" fill="#B2B2B2"/>
<path fill-rule="evenodd" clip-rule="evenodd" d="M33.5 31.6C33.5 31.1582 33.1269 30.8 32.6667 30.8H29.3333C28.8731 30.8 28.5 31.1582 28.5 31.6V43.6H33.5V31.6Z" fill="white"/>
<path fill-rule="evenodd" clip-rule="evenodd" d="M28 31.6C28 30.863 28.6164 30.3 29.3333 30.3H32.6667C33.3836 30.3 34 30.863 34 31.6V43.6C34 43.8761 33.7761 44.1 33.5 44.1H28.5C28.2239 44.1 28 43.8761 28 43.6V31.6ZM29.3333 31.3C29.1298 31.3 29 31.4534 29 31.6V43.1H33V31.6C33 31.4534 32.8702 31.3 32.6667 31.3H29.3333Z" fill="#B2B2B2"/>
<path fill-rule="evenodd" clip-rule="evenodd" d="M43.5 20.4C43.5 19.9582 43.1269 19.6 42.6667 19.6H39.3333C38.8731 19.6 38.5 19.9582 38.5 20.4V43.6H43.5V20.4Z" fill="#D9D9D9"/>
<path fill-rule="evenodd" clip-rule="evenodd" d="M38 20.4C38 19.663 38.6164 19.1 39.3333 19.1H42.6667C43.3836 19.1 44 19.663 44 20.4V43.6C44 43.8761 43.7761 44.1 43.5 44.1H38.5C38.2239 44.1 38 43.8761 38 43.6V20.4ZM39.3333 20.1C39.1298 20.1 39 20.2534 39 20.4V43.1H43V20.4C43 20.2534 42.8702 20.1 42.6667 20.1H39.3333Z" fill="#B2B2B2"/>
<path fill-rule="evenodd" clip-rule="evenodd" d="M11.0067 26.8C12.3874 26.8 13.5067 25.7255 13.5067 24.4C13.5067 23.0745 12.3874 22 11.0067 22C9.62594 22 8.50665 23.0745 8.50665 24.4C8.50665 25.7255 9.62594 26.8 11.0067 26.8Z" fill="#D9D9D9"/>
<path fill-rule="evenodd" clip-rule="evenodd" d="M8.00665 24.4C8.00665 22.7793 9.36923 21.5 11.0067 21.5C12.6441 21.5 14.0067 22.7793 14.0067 24.4C14.0067 26.0207 12.6441 27.3 11.0067 27.3C9.36923 27.3 8.00665 26.0207 8.00665 24.4ZM11.0067 22.5C9.88265 22.5 9.00665 23.3697 9.00665 24.4C9.00665 25.4303 9.88265 26.3 11.0067 26.3C12.1307 26.3 13.0067 25.4303 13.0067 24.4C13.0067 23.3697 12.1307 22.5 11.0067 22.5Z" fill="#B2B2B2"/>
<path fill-rule="evenodd" clip-rule="evenodd" d="M21.0067 18.8C22.3874 18.8 23.5067 17.7255 23.5067 16.4C23.5067 15.0745 22.3874 14 21.0067 14C19.6259 14 18.5067 15.0745 18.5067 16.4C18.5067 17.7255 19.6259 18.8 21.0067 18.8Z" fill="white"/>
<path fill-rule="evenodd" clip-rule="evenodd" d="M18.0067 16.4C18.0067 14.7793 19.3692 13.5 21.0067 13.5C22.6441 13.5 24.0067 14.7793 24.0067 16.4C24.0067 18.0207 22.6441 19.3 21.0067 19.3C19.3692 19.3 18.0067 18.0207 18.0067 16.4ZM21.0067 14.5C19.8826 14.5 19.0067 15.3697 19.0067 16.4C19.0067 17.4303 19.8826 18.3 21.0067 18.3C22.1307 18.3 23.0067 17.4303 23.0067 16.4C23.0067 15.3697 22.1307 14.5 21.0067 14.5Z" fill="#B2B2B2"/>
<path fill-rule="evenodd" clip-rule="evenodd" d="M31.0067 22C32.3874 22 33.5067 20.9255 33.5067 19.6C33.5067 18.2745 32.3874 17.2 31.0067 17.2C29.6259 17.2 28.5067 18.2745 28.5067 19.6C28.5067 20.9255 29.6259 22 31.0067 22Z" fill="#D9D9D9"/>
<path fill-rule="evenodd" clip-rule="evenodd" d="M28.0067 19.6C28.0067 17.9793 29.3692 16.7 31.0067 16.7C32.6441 16.7 34.0067 17.9793 34.0067 19.6C34.0067 21.2207 32.6441 22.5 31.0067 22.5C29.3692 22.5 28.0067 21.2207 28.0067 19.6ZM31.0067 17.7C29.8827 17.7 29.0067 18.5697 29.0067 19.6C29.0067 20.6303 29.8827 21.5 31.0067 21.5C32.1307 21.5 33.0067 20.6303 33.0067 19.6C33.0067 18.5697 32.1307 17.7 31.0067 17.7Z" fill="#B2B2B2"/>
<path fill-rule="evenodd" clip-rule="evenodd" d="M41.0067 11.6C42.3874 11.6 43.5067 10.5255 43.5067 9.2C43.5067 7.87452 42.3874 6.8 41.0067 6.8C39.6259 6.8 38.5067 7.87452 38.5067 9.2C38.5067 10.5255 39.6259 11.6 41.0067 11.6Z" fill="white"/>
<path fill-rule="evenodd" clip-rule="evenodd" d="M38.0067 9.2C38.0067 7.57933 39.3692 6.3 41.0067 6.3C42.6441 6.3 44.0067 7.57933 44.0067 9.2C44.0067 10.8207 42.6441 12.1 41.0067 12.1C39.3692 12.1 38.0067 10.8207 38.0067 9.2ZM41.0067 7.3C39.8827 7.3 39.0067 8.1697 39.0067 9.2C39.0067 10.2303 39.8827 11.1 41.0067 11.1C42.1307 11.1 43.0067 10.2303 43.0067 9.2C43.0067 8.1697 42.1307 7.3 41.0067 7.3Z" fill="#B2B2B2"/>
<path fill-rule="evenodd" clip-rule="evenodd" d="M19.4771 17.6236C19.6496 17.8392 19.6147 18.1539 19.3991 18.3264L13.4207 23.1104C13.2051 23.2829 12.8905 23.248 12.7179 23.0324C12.5454 22.8168 12.5803 22.5021 12.7959 22.3296L18.7743 17.5456C18.9899 17.3731 19.3045 17.408 19.4771 17.6236Z" fill="#B2B2B2"/>
<path fill-rule="evenodd" clip-rule="evenodd" d="M22.9021 17.0061C22.9862 16.743 23.2677 16.598 23.5307 16.6822L28.7873 18.3638C29.0504 18.4479 29.1954 18.7293 29.1112 18.9923C29.0271 19.2554 28.7457 19.4004 28.4827 19.3162L23.226 17.6346C22.963 17.5505 22.818 17.2691 22.9021 17.0061Z" fill="#B2B2B2"/>
<path fill-rule="evenodd" clip-rule="evenodd" d="M39.3397 10.267C39.5457 10.451 39.5636 10.7671 39.3796 10.973L33.1146 17.989C32.9307 18.195 32.6146 18.2129 32.4086 18.0289C32.2027 17.845 32.1848 17.5289 32.3687 17.323L38.6337 10.307C38.8177 10.101 39.1337 10.0831 39.3397 10.267Z" fill="#B2B2B2"/>
</g>
<defs>
<clipPath id="clip0_28_392">
<rect width="52" height="52" fill="white"/>
</clipPath>
</defs>
</svg>
