<svg width="52" height="52" viewBox="0 0 52 52" fill="none" xmlns="http://www.w3.org/2000/svg">
<path opacity="0.1" d="M26.1166 3.40694C30.3407 0.313429 47.3435 19.2255 46.6056 20.5979C46.406 20.969 45.8805 21.817 45.4795 21.9465C44.7499 22.1819 29.3149 10.3092 29.3149 10.3092C29.3149 10.3092 51.9447 29.7126 51.5799 30.5351C51.2151 31.3576 49.7401 33.4863 48.3365 34.4193C46.801 35.4399 33.4677 27.7687 33.4677 27.7687C33.4677 27.7687 42.8497 38.7277 41.8732 40.4109C40.1817 43.3266 34.6405 47.6849 34.078 47.8187C32.9044 48.0979 23.0263 36.9621 22.5556 37.5258C22.0849 38.0895 27.4307 44.8469 27.4307 44.8469C27.4307 44.8469 26.4315 46.7892 25.8649 47.413C24.684 48.7132 -0.46664 28.9649 0.4989 26.7556C1.08951 25.4042 2.17198 24.1079 3.49761 22.5204C4.82324 20.9328 5.07305 20.7952 5.64081 20.5979C6.20858 20.4005 28.0054 34.3101 28.0054 34.3101C28.0054 34.3101 3.52931 11.4088 4.64922 9.18425C6.16497 6.17339 6.77643 5.429 9.47348 3.40694C11.2965 2.04021 39.1664 23.873 39.1664 23.873C39.1664 23.873 22.5731 8.80432 23.3504 6.71968C23.9392 5.14044 24.7568 4.40278 26.1166 3.40694Z" fill="#B2B2B2"/>
<path fill-rule="evenodd" clip-rule="evenodd" d="M32.82 10.8998H11.84C10.75 10.8998 9.85999 11.7998 9.85999 12.8998V26.5498C9.85999 27.6398 10.74 28.5098 11.84 28.5098H12.82C12.97 28.5098 13.11 28.5798 13.21 28.6898C13.3 28.7998 13.34 28.9498 13.32 29.0999L12.45 33.9799L16.69 31.1798L17.69 30.5198L20.6 28.5999C20.68 28.5399 20.77 28.5098 20.87 28.5098H32.82C33.9 28.5098 34.74 27.6498 34.74 26.5498V12.8998C34.74 11.7798 33.89 10.8998 32.82 10.8998ZM23.28 23.9799H13.1V19.9099H23.28V23.9799V23.9799ZM31.77 18.2098H13.1V13.7998H31.77V18.2098Z" fill="white"/>
<path fill-rule="evenodd" clip-rule="evenodd" d="M42.2199 20.6699V34.1398C42.2199 35.2098 41.3499 36.0598 40.27 36.0598H39.2999C39.15 36.0598 39.0099 36.1298 38.9199 36.2398C38.8199 36.3499 38.78 36.4998 38.8099 36.6498L39.6599 41.4398L31.64 36.1398C31.5599 36.0898 31.46 36.0598 31.3599 36.0598H19.59C18.53 36.0598 17.6899 35.2198 17.6899 34.1398V31.7098L21.02 29.5098H32.8199C34.4699 29.5098 35.7399 28.1898 35.7399 26.5498V18.7098H40.27C41.34 18.7098 42.2199 19.5898 42.2199 20.6699Z" fill="white"/>
<path fill-rule="evenodd" clip-rule="evenodd" d="M40.27 17.7098H35.74V12.8998C35.74 11.2698 34.47 9.89984 32.82 9.89984H11.84C10.19 9.89984 8.85999 11.2498 8.85999 12.8998V26.5498C8.85999 28.1998 10.2 29.5098 11.84 29.5098H12.23L11.43 34.0498C11.42 34.0798 11.42 34.1098 11.42 34.1398C11.42 34.8798 12.23 35.2998 12.84 34.9199L16.69 32.3698V34.1398C16.69 35.7498 17.96 37.0598 19.59 37.0598H31.21L39.28 42.3898C39.88 42.7698 40.69 42.3499 40.69 41.6098V41.5298L39.9 37.0598H40.27C41.89 37.0598 43.22 35.7698 43.22 34.1398V20.6699C43.22 19.0498 41.9 17.7098 40.27 17.7098ZM12.45 33.9799L13.32 29.0999C13.34 28.9498 13.3 28.7998 13.21 28.6898C13.11 28.5798 12.97 28.5098 12.82 28.5098H11.84C10.74 28.5098 9.85999 27.6398 9.85999 26.5498V12.8998C9.85999 11.7998 10.75 10.8998 11.84 10.8998H32.82C33.89 10.8998 34.74 11.7798 34.74 12.8998V26.5498C34.74 27.6498 33.9 28.5098 32.82 28.5098H20.87C20.77 28.5098 20.68 28.5399 20.6 28.5999L17.69 30.5198L16.69 31.1798L12.45 33.9799ZM42.22 34.1398C42.22 35.2098 41.35 36.0598 40.27 36.0598H39.3C39.15 36.0598 39.01 36.1298 38.92 36.2398C38.82 36.3499 38.78 36.4998 38.81 36.6498L39.66 41.4398L31.64 36.1398C31.56 36.0898 31.46 36.0598 31.36 36.0598H19.59C18.53 36.0598 17.69 35.2198 17.69 34.1398V31.7098L21.02 29.5098H32.82C34.47 29.5098 35.74 28.1898 35.74 26.5498V18.7098H40.27C41.34 18.7098 42.22 19.5898 42.22 20.6699V34.1398V34.1398Z" fill="#B2B2B2"/>
<path d="M13.0955 13.796H31.773V18.2107H13.0955V13.796Z" fill="#EDEDED"/>
<path d="M13.0955 19.9086H23.2832V23.9837H13.0955V19.9086Z" fill="#EDEDED"/>
</svg>
