<svg width="80" height="80" viewBox="0 0 80 80" fill="none" xmlns="http://www.w3.org/2000/svg">
<path opacity="0.1" d="M40.1794 5.2414C46.678 0.482151 72.8361 29.5777 71.7009 31.689C71.3938 32.26 70.5854 33.5646 69.9685 33.7638C68.846 34.126 45.0998 15.8603 45.0998 15.8603C45.0998 15.8603 79.9149 45.7117 79.3537 46.977C78.7925 48.2424 76.5232 51.5174 74.3638 52.9527C72.0015 54.5229 51.4888 42.721 51.4888 42.721C51.4888 42.721 65.9226 59.581 64.4203 62.1706C61.818 66.6563 53.2931 73.3613 52.4277 73.5672C50.6221 73.9967 35.4251 56.8647 34.7009 57.732C33.9768 58.5992 42.2011 68.9952 42.2011 68.9952C42.2011 68.9952 40.6638 71.9834 39.7921 72.943C37.9754 74.9433 -0.717866 44.5614 0.76758 41.1624C1.67621 39.0834 3.34155 37.089 5.38098 34.6467C7.42041 32.2043 7.80473 31.9926 8.67821 31.689C9.5517 31.3854 43.0852 52.7847 43.0852 52.7847C43.0852 52.7847 5.42975 17.552 7.15268 14.1296C9.48461 9.49748 10.4253 8.35226 14.5746 5.2414C17.3792 3.13874 60.256 36.7277 60.256 36.7277C60.256 36.7277 34.7278 13.5451 35.9237 10.3379C36.8295 7.90832 38.0874 6.77346 40.1794 5.2414Z" fill="#B2B2B2"/>
<path fill-rule="evenodd" clip-rule="evenodd" d="M9.23077 25.3846C9.23077 24.9598 9.57517 24.6154 10 24.6154H70C70.4248 24.6154 70.7692 24.9598 70.7692 25.3846C70.7692 25.8094 70.4248 26.1538 70 26.1538H10C9.57517 26.1538 9.23077 25.8094 9.23077 25.3846Z" fill="#B3B2B2"/>
<path fill-rule="evenodd" clip-rule="evenodd" d="M9.23077 25.3846C9.23077 24.9598 9.57517 24.6154 10 24.6154H70C70.4248 24.6154 70.7692 24.9598 70.7692 25.3846C70.7692 25.8094 70.4248 26.1538 70 26.1538H10C9.57517 26.1538 9.23077 25.8094 9.23077 25.3846Z" fill="#B3B2B2"/>
<path d="M40 61.5385H27.6923C26.8426 61.5385 26.1538 62.2272 26.1538 63.0769C26.1538 63.9266 26.8426 64.6154 27.6923 64.6154H40C40.8497 64.6154 41.5385 63.9266 41.5385 63.0769C41.5385 62.2272 40.8497 61.5385 40 61.5385Z" fill="#D9D9D9"/>
<path d="M40 55.3845H27.6923C26.8426 55.3845 26.1538 56.0733 26.1538 56.923C26.1538 57.7727 26.8426 58.4614 27.6923 58.4614H40C40.8497 58.4614 41.5385 57.7727 41.5385 56.923C41.5385 56.0733 40.8497 55.3845 40 55.3845Z" fill="#D9D9D9"/>
<path d="M40 49.2307H27.6923C26.8426 49.2307 26.1538 49.9195 26.1538 50.7692C26.1538 51.6189 26.8426 52.3076 27.6923 52.3076H40C40.8497 52.3076 41.5385 51.6189 41.5385 50.7692C41.5385 49.9195 40.8497 49.2307 40 49.2307Z" fill="#D9D9D9"/>
<path d="M40 43.0769H27.6923C26.8426 43.0769 26.1538 43.7657 26.1538 44.6154C26.1538 45.4651 26.8426 46.1538 27.6923 46.1538H40C40.8497 46.1538 41.5385 45.4651 41.5385 44.6154C41.5385 43.7657 40.8497 43.0769 40 43.0769Z" fill="#D9D9D9"/>
<path d="M40 36.9231H27.6923C26.8426 36.9231 26.1538 37.6119 26.1538 38.4616C26.1538 39.3112 26.8426 40 27.6923 40H40C40.8497 40 41.5385 39.3112 41.5385 38.4616C41.5385 37.6119 40.8497 36.9231 40 36.9231Z" fill="#D9D9D9"/>
<path d="M40 30.7692H27.6923C26.8426 30.7692 26.1538 31.4579 26.1538 32.3076C26.1538 33.1573 26.8426 33.8461 27.6923 33.8461H40C40.8497 33.8461 41.5385 33.1573 41.5385 32.3076C41.5385 31.4579 40.8497 30.7692 40 30.7692Z" fill="#D9D9D9"/>
<path d="M40 16.9231H27.6923C26.8426 16.9231 26.1538 17.6119 26.1538 18.4616C26.1538 19.3113 26.8426 20 27.6923 20H40C40.8497 20 41.5385 19.3113 41.5385 18.4616C41.5385 17.6119 40.8497 16.9231 40 16.9231Z" fill="#B3B2B2"/>
<path d="M60 61.5385H47.6923C46.8426 61.5385 46.1538 62.2272 46.1538 63.0769C46.1538 63.9266 46.8426 64.6154 47.6923 64.6154H60C60.8497 64.6154 61.5385 63.9266 61.5385 63.0769C61.5385 62.2272 60.8497 61.5385 60 61.5385Z" fill="#D9D9D9"/>
<path d="M60 55.3845H47.6923C46.8426 55.3845 46.1538 56.0733 46.1538 56.923C46.1538 57.7727 46.8426 58.4614 47.6923 58.4614H60C60.8497 58.4614 61.5385 57.7727 61.5385 56.923C61.5385 56.0733 60.8497 55.3845 60 55.3845Z" fill="#D9D9D9"/>
<path d="M60 49.2307H47.6923C46.8426 49.2307 46.1538 49.9195 46.1538 50.7692C46.1538 51.6189 46.8426 52.3076 47.6923 52.3076H60C60.8497 52.3076 61.5385 51.6189 61.5385 50.7692C61.5385 49.9195 60.8497 49.2307 60 49.2307Z" fill="#D9D9D9"/>
<path d="M60 43.0769H47.6923C46.8426 43.0769 46.1538 43.7657 46.1538 44.6154C46.1538 45.4651 46.8426 46.1538 47.6923 46.1538H60C60.8497 46.1538 61.5385 45.4651 61.5385 44.6154C61.5385 43.7657 60.8497 43.0769 60 43.0769Z" fill="#D9D9D9"/>
<path d="M60 36.9231H47.6923C46.8426 36.9231 46.1538 37.6119 46.1538 38.4616C46.1538 39.3112 46.8426 40 47.6923 40H60C60.8497 40 61.5385 39.3112 61.5385 38.4616C61.5385 37.6119 60.8497 36.9231 60 36.9231Z" fill="#D9D9D9"/>
<path d="M60 30.7692H47.6923C46.8426 30.7692 46.1538 31.4579 46.1538 32.3076C46.1538 33.1573 46.8426 33.8461 47.6923 33.8461H60C60.8497 33.8461 61.5385 33.1573 61.5385 32.3076C61.5385 31.4579 60.8497 30.7692 60 30.7692Z" fill="#D9D9D9"/>
<path d="M60 16.9231H47.6923C46.8426 16.9231 46.1538 17.6119 46.1538 18.4616C46.1538 19.3113 46.8426 20 47.6923 20H60C60.8497 20 61.5385 19.3113 61.5385 18.4616C61.5385 17.6119 60.8497 16.9231 60 16.9231Z" fill="#B3B2B2"/>
<path d="M20 16.9231H16.9231C16.0734 16.9231 15.3846 17.6119 15.3846 18.4616C15.3846 19.3113 16.0734 20 16.9231 20H20C20.8497 20 21.5385 19.3113 21.5385 18.4616C21.5385 17.6119 20.8497 16.9231 20 16.9231Z" fill="#B3B2B2"/>
<path d="M20 30.7692H16.9231C16.0734 30.7692 15.3846 31.4579 15.3846 32.3076C15.3846 33.1573 16.0734 33.8461 16.9231 33.8461H20C20.8497 33.8461 21.5385 33.1573 21.5385 32.3076C21.5385 31.4579 20.8497 30.7692 20 30.7692Z" fill="#D9D9D9"/>
<path d="M20 36.9231H16.9231C16.0734 36.9231 15.3846 37.6119 15.3846 38.4616C15.3846 39.3112 16.0734 40 16.9231 40H20C20.8497 40 21.5385 39.3112 21.5385 38.4616C21.5385 37.6119 20.8497 36.9231 20 36.9231Z" fill="#D9D9D9"/>
<path d="M20 43.0769H16.9231C16.0734 43.0769 15.3846 43.7657 15.3846 44.6154C15.3846 45.4651 16.0734 46.1538 16.9231 46.1538H20C20.8497 46.1538 21.5385 45.4651 21.5385 44.6154C21.5385 43.7657 20.8497 43.0769 20 43.0769Z" fill="#D9D9D9"/>
<path d="M20 49.2307H16.9231C16.0734 49.2307 15.3846 49.9195 15.3846 50.7692C15.3846 51.6189 16.0734 52.3076 16.9231 52.3076H20C20.8497 52.3076 21.5385 51.6189 21.5385 50.7692C21.5385 49.9195 20.8497 49.2307 20 49.2307Z" fill="#D9D9D9"/>
<path d="M20 55.3845H16.9231C16.0734 55.3845 15.3846 56.0733 15.3846 56.923C15.3846 57.7727 16.0734 58.4614 16.9231 58.4614H20C20.8497 58.4614 21.5385 57.7727 21.5385 56.923C21.5385 56.0733 20.8497 55.3845 20 55.3845Z" fill="#D9D9D9"/>
<path d="M20 61.5385H16.9231C16.0734 61.5385 15.3846 62.2272 15.3846 63.0769C15.3846 63.9266 16.0734 64.6154 16.9231 64.6154H20C20.8497 64.6154 21.5385 63.9266 21.5385 63.0769C21.5385 62.2272 20.8497 61.5385 20 61.5385Z" fill="#D9D9D9"/>
</svg>
