<?xml version="1.0" encoding="utf-8"?>
<!-- Generator: Adobe Illustrator 26.5.0, SVG Export Plug-In . SVG Version: 6.00 Build 0)  -->
<svg version="1.1" id="Warstwa_1" xmlns="http://www.w3.org/2000/svg" xmlns:xlink="http://www.w3.org/1999/xlink" x="0px" y="0px"
	 width="52px" height="52px" viewBox="0 0 52 52" style="enable-background:new 0 0 52 52;" xml:space="preserve">
<g>
	<g>
		<path style="opacity:0.1;fill:#B2B2B2;enable-background:new    ;" d="M26.1200008,3.4099901
			c4.2199993-3.089998,21.2299976,15.8200092,20.4899998,17.1900101c-0.2000008,0.3699989-0.7299995,1.2199993-1.1300011,1.3500004
			C44.75,22.1900005,29.3199997,10.3100004,29.3199997,10.3100004s22.6300011,19.3999977,22.2600021,20.2299995
			c-0.3600006,0.8199997-1.8400002,2.9500008-3.2400017,3.8799973c-1.5400009,1.0200005-14.8699989-6.6499977-14.8699989-6.6499977
			s9.3799973,10.9599991,8.4099998,12.6399994c-1.6900024,2.920002-7.2299995,7.2700005-7.7999992,7.4099998
			c-1.170002,0.2799988-11.0500011-10.8600006-11.5200024-10.2900009c-0.4699993,0.5600014,4.8800011,7.3199997,4.8800011,7.3199997
			s-1,1.9400024-1.5699997,2.5699997C24.6800003,48.7099991-0.469998,28.9599991,0.500002,26.7600002
			C1.09,25.4099998,2.1700001,24.1100006,3.5,22.5200005s1.5799999-1.7299995,2.1399999-1.9200001
			C6.21,20.3999996,28,34.3100014,28,34.3100014S3.52,11.4099998,4.6399999,9.1799898
			C6.1599998,6.1699901,6.77,5.4199901,9.46,3.3999901C11.2799997,2.02999,39.1500015,23.8700008,39.1500015,23.8700008
			S22.5599995,8.7999897,23.3299999,6.7199898c0.5900002-1.5799999,1.4099998-2.3199997,2.7700005-3.3099997H26.1200008z"/>
		<path style="fill-rule:evenodd;clip-rule:evenodd;fill:#B2B2B2;" d="M38,13.5c0-0.2761002,0.2238998-0.5,0.5-0.5h5
			c0.2761002,0,0.5,0.2238998,0.5,0.5S43.7761002,14,43.5,14h-5C38.2238998,14,38,13.7761002,38,13.5z"/>
		<path style="fill-rule:evenodd;clip-rule:evenodd;fill:#B2B2B2;" d="M34.5,10C34.2238998,10,34,9.7761402,34,9.5v-5
			C34,4.2238598,34.2238998,4,34.5,4S35,4.2238598,35,4.5v5C35,9.7761402,34.7761002,10,34.5,10z"/>
		<path style="fill-rule:evenodd;clip-rule:evenodd;fill:#B2B2B2;" d="M36.6464996,11.3032999
			c-0.1953011-0.1952-0.1953011-0.5117998,0-0.7070999l3.5354996-3.5355201c0.1953011-0.19526,0.5118027-0.19526,0.7070999,0
			c0.1953011,0.19526,0.1953011,0.5118399,0,0.7071099l-3.5354996,3.5355101
			C37.1582985,11.4986,36.8417015,11.4986,36.6464996,11.3032999z"/>
		<g>
			<defs>
				<rect id="SVGID_1_" x="8" y="7" width="35.5" height="39"/>
			</defs>
			<clipPath id="SVGID_00000150104903331150291340000010487998446970058632_">
				<use xlink:href="#SVGID_1_"  style="overflow:visible;"/>
			</clipPath>
			<g style="clip-path:url(#SVGID_00000150104903331150291340000010487998446970058632_);">
				<path style="fill:#FFFFFF;" d="M33.5,12.5h-24c-0.5522804,0-1,0.4476995-1,1v31c0,0.5522995,0.4477196,1,1,1h24
					c0.5522995,0,1-0.4477005,1-1v-31C34.5,12.9476995,34.0522995,12.5,33.5,12.5z"/>
				<path style="fill-rule:evenodd;clip-rule:evenodd;fill:#B3B2B2;" d="M34.5,44c0.2761002,0,0.5,0.2238998,0.5,0.5
					c0,0.8260994-0.6739006,1.5-1.5,1.5c-0.2761002,0-0.5-0.2238998-0.5-0.5s0.2238998-0.5,0.5-0.5
					c0.2738991,0,0.5-0.2261009,0.5-0.5C34,44.2238998,34.2238998,44,34.5,44z"/>
				<path style="fill-rule:evenodd;clip-rule:evenodd;fill:#B3B2B2;" d="M9.5,13C9.22614,13,9,13.2261,9,13.5v31
					C9,44.7738991,9.22614,45,9.5,45H23c0.2761002,0,0.5,0.2238998,0.5,0.5S23.2761002,46,23,46H9.5
					C8.6738596,46,8,45.3260994,8,44.5v-31C8,12.6738997,8.6738596,12,9.5,12h24c0.8260994,0,1.5,0.6738997,1.5,1.5v10
					c0,0.2761002-0.2238998,0.5-0.5,0.5S34,23.7761002,34,23.5v-10c0-0.2739-0.2261009-0.5-0.5-0.5H9.5z"/>
				<path style="fill:#EDEDED;" d="M28.5,11.5v5c0,0.5499992-0.4500008,1-1,1h-12c-0.5500002,0-1-0.4500008-1-1v-5
					c0-0.5500002,0.4499998-1,1-1h3c0-1.6599998,1.3400002-3,3-3s3,1.3400002,3,3h3C28.0499992,10.5,28.5,10.9499998,28.5,11.5z"/>
				<path style="fill-rule:evenodd;clip-rule:evenodd;fill:#B3B2B2;" d="M21.5,8C20.1161003,8,19,9.1161404,19,10.5
					c0,0.2761002-0.2238998,0.5-0.5,0.5h-3c-0.2739,0-0.5,0.2261-0.5,0.5v5c0,0.2738991,0.2261,0.5,0.5,0.5h12
					c0.2738991,0,0.5-0.2261009,0.5-0.5v-5c0-0.2739-0.2261009-0.5-0.5-0.5h-3c-0.2761002,0-0.5-0.2238998-0.5-0.5
					C24,9.1161404,22.8838997,8,21.5,8z M18.0352993,10C18.2772007,8.30159,19.7336998,7,21.5,7s3.2227993,1.30159,3.4647007,3H27.5
					c0.8260994,0,1.5,0.6738997,1.5,1.5v5c0,0.8260994-0.6739006,1.5-1.5,1.5h-12c-0.8261003,0-1.5-0.6739006-1.5-1.5v-5
					c0-0.8261003,0.6738997-1.5,1.5-1.5H18.0352993z"/>
				<path style="fill-rule:evenodd;clip-rule:evenodd;fill:#B3B2B2;" d="M11.5,17.5c0.2761002,0,0.5,0.2238998,0.5,0.5v22
					c0,0.2738991,0.2261,0.5,0.5,0.5h10.25c0.2761002,0,0.5,0.2238998,0.5,0.5s-0.2238998,0.5-0.5,0.5H12.5
					c-0.8261003,0-1.5-0.6739006-1.5-1.5V18C11,17.7238998,11.2238998,17.5,11.5,17.5z"/>
				<path style="fill-rule:evenodd;clip-rule:evenodd;fill:#B3B2B2;" d="M31.5,17.6100006c0.2761002,0,0.5,0.2237988,0.5,0.5V23.5
					c0,0.2761002-0.2238998,0.5-0.5,0.5S31,23.7761002,31,23.5v-5.3899994C31,17.8337994,31.2238998,17.6100006,31.5,17.6100006z"/>
				<path style="fill:#EDEDED;" d="M43,45.5H27.5V29.4599991C27.5,28.9300003,27.9300003,28.5,28.4599991,28.5h10.6300011
					c0.2700005,0,0.5200005,0.1100006,0.7099991,0.2900009l2.9099998,2.9099998C42.9000015,31.8899994,43,32.1399994,43,32.4099998
					V45.5L43,45.5z"/>
				<path style="fill-rule:evenodd;clip-rule:evenodd;fill:#B3B2B2;" d="M28.4599991,29C28.2061005,29,28,29.2061005,28,29.4599991
					V45h14.5V32.4099998c0-0.1422997-0.0508003-0.2636986-0.1436005-0.3563995l-2.9044991-2.9046001
					C39.3473015,29.0517006,39.2192993,29,39.0900002,29H28.4599991z M43,45.5h0.5V32.4099998
					c0-0.3977013-0.1492004-0.7763004-0.4364014-1.0636005l-2.9099998-2.9099998l0.000103-0.0000992l-0.0098-0.0093002
					C39.8693008,28.1669006,39.4989014,28,39.0900002,28H28.4599991C27.6539001,28,27,28.6539001,27,29.4599991V45.5
					c0,0.2761002,0.2238998,0.5,0.5,0.5H43V45.5z"/>
				<path style="fill-rule:evenodd;clip-rule:evenodd;fill:#B3B2B2;" d="M30.3099995,33.5600014c0-0.2761002,0.2238998-0.5,0.5-0.5
					h5.3799992c0.2761002,0,0.5,0.2238998,0.5,0.5s-0.2238998,0.5-0.5,0.5h-5.3799992
					C30.5338993,34.0600014,30.3099995,33.8361015,30.3099995,33.5600014z"/>
				<path style="fill-rule:evenodd;clip-rule:evenodd;fill:#B3B2B2;" d="M30.3099995,38.0600014c0-0.2761002,0.2238998-0.5,0.5-0.5
					h8.8799992c0.2761002,0,0.5,0.2238998,0.5,0.5s-0.2238998,0.5-0.5,0.5h-8.8799992
					C30.5338993,38.5600014,30.3099995,38.3361015,30.3099995,38.0600014z"/>
			</g>
		</g>
	</g>
</g>
</svg>
