<svg width="160" height="136" viewBox="0 0 160 136" fill="none" xmlns="http://www.w3.org/2000/svg">
<path fill-rule="evenodd" clip-rule="evenodd" d="M41.6549 17C39.0841 17 37 19.0841 37 21.6549C37 24.2258 39.0841 26.3099 41.6549 26.3099H44.7309C46.877 27.0157 48.4065 28.8493 48.4065 31C48.4065 33.6944 46.0059 35.8911 43 35.9961V36H45C41.6863 36 39 38.6863 39 42C39 45.3137 41.6863 48 45 48H59V48.0043C62.3359 48.1198 65 50.5361 65 53.5C65 56.4639 62.3359 58.8802 59 58.9957V59H33C29.6863 59 27 61.6863 27 65C27 68.3137 29.6863 71 33 71H32V71.0047C34.8021 71.1307 37.04 73.7667 37.04 77C37.04 80.2333 34.8021 82.8693 32 82.9953V83C28.6863 83 26 85.6863 26 89C26 92.3137 28.6863 95 32 95H42.2856V95.0034C44.2872 95.0933 45.8856 96.9762 45.8856 99.2857C45.8856 101.595 44.2872 103.478 42.2856 103.568V103.571C39.9187 103.571 38 105.49 38 107.857C38 110.224 39.9188 112.143 42.2857 112.143H88.7143C91.0812 112.143 93 110.224 93 107.857C93 105.49 91.0812 103.571 88.7143 103.571L83.1428 103.571V103.568C81.1413 103.478 79.5428 101.595 79.5428 99.2857C79.5428 96.9762 81.1413 95.0933 83.1428 95.0034V95H97C100.314 95 103 92.3137 103 89C103 85.6863 100.314 83 97 83H89.2V82.9953C86.3979 82.8693 84.16 80.2333 84.16 77C84.16 73.7667 86.3979 71.1307 89.2 71.0047V71H137C140.314 71 143 68.3137 143 65C143 61.6863 140.314 59 137 59H130V58.9957C126.664 58.8802 124 56.4639 124 53.5C124 50.5361 126.664 48.1198 130 48.0043V48H129C132.314 48 135 45.3137 135 42C135 38.6863 132.314 36 129 36H81V35.9961C77.9941 35.8911 75.5935 33.6944 75.5935 31C75.5935 28.8493 77.123 27.0157 79.2691 26.3099H86.6527C89.2235 26.3099 91.3076 24.2258 91.3076 21.6549C91.3076 19.0841 89.2235 17 86.6527 17H41.6549Z" fill="#F5F5F5"/>
<path d="M106 102C106 100.343 107.343 99 109 99H124C125.657 99 127 100.343 127 102C127 103.657 125.657 105 124 105H109C107.343 105 106 103.657 106 102Z" fill="#F5F5F5"/>
<path d="M112 88C112 85.2386 114.239 83 117 83H134C136.761 83 139 85.2386 139 88C139 90.7614 136.761 93 134 93H117C114.239 93 112 90.7614 112 88Z" fill="#F5F5F5"/>
<path d="M19 36.5C19 34.0147 21.0147 32 23.5 32H31.8077C34.293 32 36.3077 34.0147 36.3077 36.5C36.3077 38.9853 34.293 41 31.8077 41H23.5C21.0147 41 19 38.9853 19 36.5Z" fill="#F5F5F5"/>
<path d="M117.308 112.5C117.308 110.015 115.293 108 112.808 108H104.5C102.015 108 99.9999 110.015 99.9999 112.5C99.9999 114.985 102.015 117 104.5 117H112.808C115.293 117 117.308 114.985 117.308 112.5Z" fill="#F5F5F5"/>
<path d="M29 40.5355C29 37.5 31 35 34.5 35H122.5C124.433 35 127 37.5829 127 39.5355V98.4645C127 102 125 104 122.067 104H33.6667C31.0894 104 29 101.889 29 99.2859V40.5355Z" fill="#CCCCCC"/>
<path d="M122.456 35.5H35.6561C33.5122 35.5 31.7743 37.238 31.7743 39.3818V97.4909C31.7743 99.6348 33.5122 101.373 35.6561 101.373H122.456C124.6 101.373 126.338 99.6348 126.338 97.4909V39.3818C126.338 37.238 124.6 35.5 122.456 35.5Z" fill="white" stroke="#E5E5E5"/>
<path d="M35.656 36H122.456C124.324 36 125.838 37.5141 125.838 39.3818V97.4909C125.838 99.3586 124.324 100.873 122.456 100.873H35.656C33.7883 100.873 32.2742 99.3586 32.2742 97.4909V39.3818C32.2742 37.5141 33.7883 36 35.656 36Z" fill="white"/>
<path d="M47.6909 59H63.4727C64.4066 59 65.1636 59.757 65.1636 60.6909C65.1636 61.6248 64.4066 62.3818 63.4727 62.3818H47.6909C46.757 62.3818 46 61.6248 46 60.6909C46 59.757 46.757 59 47.6909 59Z" fill="#E5E5E5"/>
<path d="M48.6909 84.7817H64.4727C65.4066 84.7817 66.1636 85.5388 66.1636 86.4726C66.1636 87.4065 65.4066 88.1636 64.4727 88.1636H48.6909C47.757 88.1636 47 87.4065 47 86.4726C47 85.5388 47.757 84.7817 48.6909 84.7817Z" fill="#E5E5E5"/>
<path d="M52.6909 72H64.0727C65.0066 72 65.7636 72.757 65.7636 73.6909C65.7636 74.6248 65.0066 75.3818 64.0727 75.3818H52.6909C51.757 75.3818 51 74.6248 51 73.6909C51 72.757 51.757 72 52.6909 72Z" fill="#E5E5E5"/>
<path d="M74.1429 56C87.6477 56 86.2156 56.0017 102 56C105.857 55.9996 107.143 58.5714 107.143 60.5C107.143 62.4286 105.857 65 102 65C88.7501 65 88.9961 65 74.1429 65C70.2857 65 69 62.4286 69 60.5C69 58.5714 70.2857 56 74.1429 56Z" fill="#F5F5F5"/>
<path d="M73.6909 58.7817H102.473C103.407 58.7817 104.164 59.5388 104.164 60.4726C104.164 61.4065 103.407 62.1636 102.473 62.1636H73.6909C72.757 62.1636 72 61.4065 72 60.4726C72 59.5388 72.757 58.7817 73.6909 58.7817Z" fill="#E5E5E5"/>
<path d="M74.1429 82C87.6477 82 86.2156 82.0017 102 82C105.857 81.9996 107.143 84.5714 107.143 86.5C107.143 88.4286 105.857 91 102 91C88.7501 91 88.9961 91 74.1429 91C70.2857 91 69 88.4286 69 86.5C69 84.5714 70.2857 82 74.1429 82Z" fill="#F8F1F1"/>
<path d="M73.6909 84.7817H102.473C103.407 84.7817 104.164 85.5388 104.164 86.4726C104.164 87.4065 103.407 88.1636 102.473 88.1636H73.6909C72.757 88.1636 72 87.4065 72 86.4726C72 85.5388 72.757 84.7817 73.6909 84.7817Z" fill="#DC1E28"/>
<path opacity="0.82" d="M73.6909 84.7817H102.473C103.407 84.7817 104.164 85.5388 104.164 86.4726C104.164 87.4065 103.407 88.1636 102.473 88.1636H73.6909C72.757 88.1636 72 87.4065 72 86.4726C72 85.5388 72.757 84.7817 73.6909 84.7817Z" fill="white"/>
<path d="M74.1429 69C87.6477 69 86.2156 69.0017 102 69C105.857 68.9996 107.143 71.5714 107.143 73.5C107.143 75.4286 105.857 78 102 78C88.7501 78 88.9961 78 74.1429 78C70.2857 78 69 75.4286 69 73.5C69 71.5714 70.2857 69 74.1429 69Z" fill="#F5F5F5"/>
<path d="M73.6909 71.7817H102.473C103.407 71.7817 104.164 72.5388 104.164 73.4726C104.164 74.4065 103.407 75.1636 102.473 75.1636H73.6909C72.757 75.1636 72 74.4065 72 73.4726C72 72.5388 72.757 71.7817 73.6909 71.7817Z" fill="#E5E5E5"/>
<path d="M37.9905 41.0381C54.4581 41.0381 100.64 41.0011 119.888 41C120.895 40.9999 121.169 41.3062 121.169 41.8298C121.169 43.2667 121.169 44.1791 121.169 45.5486C121.169 46.2513 120.803 46.5581 119.888 46.5581C103.731 46.5581 56.1023 46.5582 37.9905 46.5581C37.194 46.5581 37 46.3336 37 45.7544C37.0001 44.1239 37 43.3319 37 41.8298C37 41.254 37.4242 41.0381 37.9905 41.0381Z" fill="#EDEDED"/>
<path fill-rule="evenodd" clip-rule="evenodd" d="M41.0667 83C41.3428 83 41.5667 83.2239 41.5667 83.5L41.5667 86C41.5667 86.2761 41.3428 86.5 41.0667 86.5C40.7905 86.5 40.5667 86.2761 40.5667 86L40.5667 83.5C40.5667 83.2239 40.7905 83 41.0667 83Z" fill="#DC1E28"/>
<path fill-rule="evenodd" clip-rule="evenodd" d="M43.9287 85.0302C44.0232 85.2896 43.8894 85.5766 43.6299 85.671L41.2807 86.5261C41.0212 86.6205 40.7342 86.4867 40.6398 86.2272C40.5454 85.9677 40.6791 85.6808 40.9386 85.5864L43.2879 84.7313C43.5474 84.6369 43.8343 84.7707 43.9287 85.0302Z" fill="#DC1E28"/>
<path fill-rule="evenodd" clip-rule="evenodd" d="M42.9096 88.7132C42.6834 88.8716 42.3716 88.8166 42.2132 88.5904L40.7793 86.5425C40.6209 86.3163 40.6759 86.0046 40.9021 85.8462C41.1283 85.6878 41.44 85.7428 41.5984 85.969L43.0324 88.0168C43.1908 88.2431 43.1358 88.5548 42.9096 88.7132Z" fill="#DC1E28"/>
<path fill-rule="evenodd" clip-rule="evenodd" d="M38.171 85.0302C38.0766 85.2896 38.2104 85.5766 38.4698 85.671L40.8191 86.5261C41.0786 86.6205 41.3655 86.4867 41.4599 86.2272C41.5544 85.9677 41.4206 85.6808 41.1611 85.5864L38.8119 84.7313C38.5524 84.6369 38.2655 84.7707 38.171 85.0302Z" fill="#DC1E28"/>
<path fill-rule="evenodd" clip-rule="evenodd" d="M39.19 88.7132C39.4162 88.8716 39.728 88.8166 39.8864 88.5904L41.3203 86.5425C41.4787 86.3163 41.4238 86.0046 41.1976 85.8462C40.9713 85.6878 40.6596 85.7428 40.5012 85.969L39.0672 88.0168C38.9089 88.2431 38.9638 88.5548 39.19 88.7132Z" fill="#DC1E28"/>
<path d="M143.14 57.444C144.158 56.0569 144.032 55.0423 143.883 53.3092C143.715 51.3515 143.463 48.2952 143.463 48.2952L141.488 51.257C141.488 51.257 141.615 52.239 141.772 53.6372C141.816 54.4402 142.023 55.3101 141.509 56.0103C139.531 58.7056 137.356 61.7061 137.356 61.7061C137.356 61.7061 135.595 61.5541 134.597 62.9137C133.684 64.1578 134.613 66.0422 135.15 66.4362C135.776 66.8953 136.422 66.5984 136.677 66.2515C139.716 62.1053 141.327 59.9145 143.14 57.444Z" fill="#30393F"/>
<path opacity="0.2" d="M143.14 57.444C144.158 56.0569 144.032 55.0423 143.883 53.3092C143.715 51.3515 143.463 48.2952 143.463 48.2952L141.488 51.257C141.488 51.257 141.615 52.239 141.772 53.6372C141.816 54.4402 142.023 55.3101 141.509 56.0103C139.531 58.7056 137.356 61.7061 137.356 61.7061C137.356 61.7061 135.595 61.5541 134.597 62.9137C133.684 64.1578 134.613 66.0422 135.15 66.4362C135.776 66.8953 136.422 66.5984 136.677 66.2515C139.716 62.1053 141.327 59.9145 143.14 57.444Z" fill="white"/>
<path d="M142.898 50.8078C143.811 49.562 141.861 47.8903 140.446 46.852C139.031 45.8137 136.851 44.4539 135.937 45.6994C133.608 48.8728 127.71 56.9102 127.71 56.9102C127.71 56.9102 128.964 55.9732 132.076 58.2572C135.241 60.5792 134.671 62.0181 134.671 62.0181C134.671 62.0181 140.976 53.428 142.898 50.8078Z" fill="#30393F"/>
<path opacity="0.2" d="M142.898 50.8078C143.811 49.562 141.861 47.8903 140.446 46.852C139.031 45.8137 136.851 44.4539 135.937 45.6994C133.608 48.8728 127.71 56.9102 127.71 56.9102C127.71 56.9102 128.964 55.9732 132.076 58.2572C135.241 60.5792 134.671 62.0181 134.671 62.0181C134.671 62.0181 140.976 53.428 142.898 50.8078Z" fill="white"/>
<path d="M130.336 67.9254C131.249 66.6797 129.299 65.008 127.884 63.9697C126.469 62.9313 124.289 61.5716 123.375 62.8171C121.046 65.9904 115.148 74.0278 115.148 74.0278C115.148 74.0278 116.402 73.0909 119.514 75.3748C122.679 77.6969 122.109 79.1358 122.109 79.1358C122.109 79.1358 128.414 70.5457 130.336 67.9254Z" fill="#30393F"/>
<path opacity="0.2" d="M130.336 67.9254C131.249 66.6797 129.299 65.008 127.884 63.9697C126.469 62.9313 124.289 61.5716 123.375 62.8171C121.046 65.9904 115.148 74.0278 115.148 74.0278C115.148 74.0278 116.402 73.0909 119.514 75.3748C122.679 77.6969 122.109 79.1358 122.109 79.1358C122.109 79.1358 128.414 70.5457 130.336 67.9254Z" fill="white"/>
<path d="M144.584 48.5104C145.498 47.2646 143.547 45.5929 142.132 44.5546C140.717 43.5163 138.537 42.1565 137.623 43.402C135.295 46.5754 129.396 54.6128 129.396 54.6128C129.396 54.6128 130.65 53.6759 133.763 55.9598C136.927 58.2818 136.357 59.7208 136.357 59.7208C136.357 59.7208 142.663 51.1306 144.584 48.5104Z" fill="#EE9F07"/>
<path opacity="0.5" d="M144.584 48.5104C145.498 47.2646 143.547 45.5929 142.132 44.5546C140.717 43.5163 138.537 42.1565 137.623 43.402C135.295 46.5754 129.396 54.6128 129.396 54.6128C129.396 54.6128 130.65 53.6759 133.763 55.9598C136.927 58.2818 136.357 59.7208 136.357 59.7208C136.357 59.7208 142.663 51.1306 144.584 48.5104Z" fill="url(#paint0_linear_3975_353)"/>
<path d="M135.181 61.3238C136.506 59.5175 134.607 57.7755 133.192 56.7372C131.777 55.6989 129.545 54.4093 128.22 56.2154C124.843 60.8171 116.629 72.0101 116.629 72.0101C116.629 72.0101 117.943 70.9918 121.055 73.2757C124.22 75.5978 123.59 77.1183 123.59 77.1183C123.59 77.1183 132.394 65.1232 135.181 61.3238Z" fill="#EE9F07"/>
<path opacity="0.5" d="M135.181 61.3238C136.506 59.5175 134.607 57.7755 133.192 56.7372C131.777 55.6989 129.545 54.4093 128.22 56.2154C124.843 60.8171 116.629 72.0101 116.629 72.0101C116.629 72.0101 117.943 70.9918 121.055 73.2757C124.22 75.5978 123.59 77.1183 123.59 77.1183C123.59 77.1183 132.394 65.1232 135.181 61.3238Z" fill="url(#paint1_linear_3975_353)"/>
<path d="M122.41 78.7269C123.735 76.9206 121.836 75.1786 120.421 74.1403C119.006 73.1019 116.774 71.8124 115.449 73.6185C112.072 78.2202 110.913 85.9058 111.481 86.3225C112.049 86.7393 119.623 82.5262 122.41 78.7269Z" fill="#EE9F07"/>
<path opacity="0.5" d="M122.41 78.7269C123.735 76.9206 121.836 75.1786 120.421 74.1403C119.006 73.1019 116.774 71.8124 115.449 73.6185C112.072 78.2202 110.913 85.9058 111.481 86.3225C112.049 86.7393 119.623 82.5262 122.41 78.7269Z" fill="url(#paint2_linear_3975_353)"/>
<path d="M113.413 85.6577C113.733 85.4866 113.998 84.217 113.412 83.7905C112.827 83.364 111.572 83.4055 111.456 84.1889C111.281 85.3735 111.311 86.1979 111.477 86.3195C111.643 86.441 112.531 86.1296 113.413 85.6577Z" fill="black"/>
<defs>
<linearGradient id="paint0_linear_3975_353" x1="133.353" y1="47.1" x2="141.672" y2="53.3744" gradientUnits="userSpaceOnUse">
<stop stop-color="white"/>
<stop offset="1" stop-color="white" stop-opacity="0"/>
</linearGradient>
<linearGradient id="paint1_linear_3975_353" x1="123.399" y1="60.0709" x2="131.857" y2="66.6567" gradientUnits="userSpaceOnUse">
<stop stop-color="white"/>
<stop offset="1" stop-color="white" stop-opacity="0"/>
</linearGradient>
<linearGradient id="paint2_linear_3975_353" x1="112.641" y1="75.666" x2="121.007" y2="83.2402" gradientUnits="userSpaceOnUse">
<stop stop-color="white"/>
<stop offset="1" stop-color="white" stop-opacity="0"/>
</linearGradient>
</defs>
</svg>
