<svg width="160" height="136" viewBox="0 0 160 136" fill="none" xmlns="http://www.w3.org/2000/svg">
<path d="M123.75 63.84C122.66 64.92 122 66.38 122 68C122 71.23 124.66 73.87 128 73.99V74H129.5C133.09 74 136 76.91 136 80.5C136 82.3 135.27 83.92 134.1 85.1C132.92 86.27 131.3 87 129.5 87H71C69.33 87.06 67.83 87.76 66.75 88.84C65.66 89.92 65 91.38 65 93C65 96.23 67.66 98.87 71 98.99V99C73.76 99 76 101.24 76 104C76 105.38 75.44 106.63 74.54 107.54C73.63 108.44 72.38 109 71 109H39C36.24 109 34 106.76 34 104C34 102.62 34.56 101.37 35.46 100.46C36.37 99.56 37.62 99 39 99H42V98.99C45.34 98.87 48 96.23 48 93C48 89.77 45.34 87.13 42 87H35.5C31.91 87 29 84.09 29 80.5C29 78.7 29.73 77.08 30.9 75.9C32.08 74.73 33.7 74 35.5 74H67V73.99C70.34 73.87 73 71.23 73 68C73 64.77 70.34 62.13 67 62H54.5C50.91 62 48 59.09 48 55.5C48 53.7 48.73 52.08 49.9 50.9C51.08 49.73 52.7 49 54.5 49H54V48.99C57.34 48.87 60 46.23 60 43C60 39.77 57.34 37.13 54 37H46.5C42.91 37 40 34.09 40 30.5C40 28.7 40.73 27.08 41.9 25.9C43.08 24.73 44.7 24 46.5 24H111.5C115.09 24 118 26.91 118 30.5C118 32.3 117.27 33.92 116.1 35.1C114.92 36.27 113.3 37 111.5 37H111.75C110.08 37.06 108.58 37.76 107.5 38.84C106.42 39.92 105.75 41.38 105.75 43C105.75 46.23 108.41 48.87 111.75 48.99V49H134.5C138.09 49 141 51.91 141 55.5C141 57.3 140.27 58.92 139.1 60.1C137.92 61.27 136.3 62 134.5 62H128C126.33 62.06 124.83 62.76 123.75 63.84Z" fill="#F5F5F5"/>
<path fill-rule="evenodd" clip-rule="evenodd" d="M89.1746 30.1899C88.423 29.4285 87.3978 29 86.328 29H54C51.7909 29 50 30.7909 50 33V103C50 105.209 51.7909 107 54 107H105C107.209 107 109 105.209 109 103V51.9145C109 50.8626 108.586 49.853 107.847 49.1044L89.1746 30.1899Z" fill="#E5E5E5"/>
<path fill-rule="evenodd" clip-rule="evenodd" d="M88.8787 30.8787C88.3161 30.3161 87.553 30 86.7574 30H54C52.3431 30 51 31.3431 51 33V103C51 104.657 52.3431 106 54 106H105C106.657 106 108 104.657 108 103V51.2426C108 50.447 107.684 49.6839 107.121 49.1213L88.8787 30.8787Z" fill="white"/>
<path d="M61 53H66.7436C67.2959 53 67.7436 53.4477 67.7436 54C67.7436 54.5523 67.2959 55 66.7436 55H61C60.4477 55 60 54.5523 60 54C60 53.4477 60.4477 53 61 53Z" fill="#EDEDED"/>
<path d="M61 60H88C88.5523 60 89 60.4477 89 61C89 61.5523 88.5523 62 88 62H61C60.4477 62 60 61.5523 60 61C60 60.4477 60.4477 60 61 60Z" fill="#EDEDED"/>
<path d="M61 67H88C88.5523 67 89 67.4477 89 68C89 68.5523 88.5523 69 88 69H61C60.4477 69 60 68.5523 60 68C60 67.4477 60.4477 67 61 67Z" fill="#EDEDED"/>
<path d="M61 74H77C77.5523 74 78 74.4477 78 75C78 75.5523 77.5523 76 77 76H61C60.4477 76 60 75.5523 60 75C60 74.4477 60.4477 74 61 74Z" fill="#EDEDED"/>
<path d="M61 81H77C77.5523 81 78 81.4477 78 82C78 82.5523 77.5523 83 77 83H61C60.4477 83 60 82.5523 60 82C60 81.4477 60.4477 81 61 81Z" fill="#EDEDED"/>
<path d="M61 88H73.4103C73.9626 88 74.4103 88.4477 74.4103 89C74.4103 89.5523 73.9626 90 73.4103 90H61C60.4477 90 60 89.5523 60 89C60 88.4477 60.4477 88 61 88Z" fill="#EDEDED"/>
<path d="M61 46H77C77.5523 46 78 46.4477 78 47C78 47.5523 77.5523 48 77 48H61C60.4477 48 60 47.5523 60 47C60 46.4477 60.4477 46 61 46Z" fill="#EDEDED"/>
<path d="M88 30H87V45C87 48.3137 89.6863 51 93 51H108V50L88 30Z" fill="#DC1E28"/>
<path opacity="0.75" d="M88 30H87V45C87 48.3137 89.6863 51 93 51H108V50L88 30Z" fill="white"/>
<path d="M78.9993 78.5C78.9993 77.1193 80.1186 76 81.4993 76H106.999V81H81.4993C80.1186 81 78.9993 79.8807 78.9993 78.5Z" fill="#EDEDED"/>
<path d="M93.9993 92.5V63.5C93.9993 62.1193 95.1186 61 96.4993 61C97.88 61 98.9993 62.1193 98.9993 63.5V92.5C98.9993 93.8807 97.88 95 96.4993 95C95.1186 95 93.9993 93.8807 93.9993 92.5Z" fill="#EDEDED"/>
<path d="M85.5 76H114.5C115.881 76 117 77.1193 117 78.5C117 79.8807 115.881 81 114.5 81H85.5C84.1193 81 83 79.8807 83 78.5C83 77.1193 84.1193 76 85.5 76Z" fill="#DC1E28"/>
<path d="M98 92.5V63.5C98 62.1193 99.1193 61 100.5 61C101.881 61 103 62.1193 103 63.5V92.5C103 93.8807 101.881 95 100.5 95C99.1193 95 98 93.8807 98 92.5Z" fill="#DC1E28"/>
<path fill-rule="evenodd" clip-rule="evenodd" d="M85 30V45C85 49.4183 88.5817 53 93 53H108V51.178L107.822 51H93C89.6863 51 87 48.3137 87 45V30H85Z" fill="#F5F5F5"/>
</svg>
