<svg width="121" height="102" viewBox="0 0 121 102" fill="none" xmlns="http://www.w3.org/2000/svg">
<path fill-rule="evenodd" clip-rule="evenodd" d="M54.0597 14.6757C54.0597 12.0186 56.2136 9.86462 58.8707 9.86462H95.9164C98.5734 9.86462 100.727 12.0186 100.727 14.6757C100.727 17.3327 98.5734 19.4867 95.9164 19.4867H58.8707C56.2136 19.4867 54.0597 17.3327 54.0597 14.6757ZM61.8314 23.9284C61.8314 26.3216 59.8595 28.2727 57.3904 28.3659V28.3687H22.5522C19.8951 28.3687 17.7412 30.5226 17.7412 33.1797C17.7412 35.8368 19.8951 37.9908 22.5522 37.9908H103.28C105.937 37.9908 108.091 35.8368 108.091 33.1797C108.091 30.5226 105.937 28.3687 103.28 28.3687H97.3591V28.3659C94.89 28.2727 92.9181 26.3216 92.9181 23.9284C92.9181 21.5352 94.89 19.5842 97.3591 19.4909V19.4874H57.3904V19.4909C59.8595 19.5842 61.8314 21.5352 61.8314 23.9284ZM29.8006 42.4325C29.8006 44.8256 27.2621 46.7767 24.0835 46.8699V46.8734H25.8495C23.2313 46.9184 21.1227 49.0548 21.1227 51.6838C21.1227 54.3408 23.2766 56.4948 25.9337 56.4948H99.2865C101.944 56.4948 104.098 54.3408 104.098 51.6838C104.098 49.0548 101.989 46.9184 99.3707 46.8734H100.311V46.8699C97.1329 46.7767 94.5944 44.8256 94.5944 42.4325C94.5944 40.0393 97.1329 38.0882 100.311 37.995V37.9915H24.0835V37.995C27.2621 38.0882 29.8006 40.0393 29.8006 42.4325ZM24.3464 65.374C27.4108 65.2807 29.8582 63.3297 29.8582 60.9365C29.8582 58.5433 27.4108 56.5923 24.3464 56.499V56.4955H61.0914V56.499C58.027 56.5923 55.5796 58.5433 55.5796 60.9365C55.5796 63.3297 58.027 65.2807 61.0914 65.374V65.3775H92.5481C95.2051 65.3775 97.3591 67.5314 97.3591 70.1885C97.3591 72.8456 95.2051 74.9996 92.5481 74.9996H61.0912V75.0031C58.7092 74.9996 56.2448 77.0473 56.2448 79.4405C56.2448 81.8337 58.8287 83.8815 61.0912 83.878V83.8815H60.6456C63.0241 83.8815 64.9523 85.8097 64.9523 88.1882C64.9523 90.5668 63.0241 92.495 60.6456 92.495H15.3624C12.9839 92.495 11.0557 90.5668 11.0557 88.1882C11.0557 85.8097 12.9839 83.8815 15.3624 83.8815H21.8944V83.878C24.0918 83.8815 27.1221 81.8337 27.1221 79.4405C27.1221 77.0473 24.3128 74.9996 21.8944 75.0031V74.9996H22.5522C19.8951 74.9996 17.7412 72.8456 17.7412 70.1885C17.7412 67.5314 19.8951 65.3775 22.5522 65.3775H24.3464V65.374Z" fill="#F5F5F5"/>
<path d="M23.7129 18.0064C23.7129 16.3713 25.0384 15.0457 26.6735 15.0457H34.8153C36.4504 15.0457 37.776 16.3713 37.776 18.0064C37.776 19.6415 36.4504 20.967 34.8153 20.967H26.6735C25.0384 20.967 23.7129 19.6415 23.7129 18.0064Z" fill="#F5F5F5"/>
<path d="M73.9307 90.7992C73.9307 88.7553 75.5876 87.0984 77.6315 87.0984H81.2965C83.3404 87.0984 84.9973 88.7553 84.9973 90.7992C84.9973 92.8431 83.3404 94.5 81.2965 94.5H77.6315C75.5876 94.5 73.9307 92.8431 73.9307 90.7992Z" fill="#F5F5F5"/>
<path d="M41 21.75H82.25C84.3211 21.75 86 23.4289 86 25.5V81C86 83.0711 84.3211 84.75 82.25 84.75H41C38.9289 84.75 37.25 83.0711 37.25 81V25.5C37.25 23.4289 38.9289 21.75 41 21.75Z" fill="#DDDDDD"/>
<path d="M42.5 26.25C42.5 24.179 44.179 22.5 46.25 22.5H81.5C83.5708 22.5 85.25 24.179 85.25 26.25V80.25C85.25 82.3208 83.5708 84 81.5 84H46.25C44.179 84 42.5 82.3208 42.5 80.25V26.25Z" fill="white"/>
<path fill-rule="evenodd" clip-rule="evenodd" d="M70.25 81.75H56.75V76.5C56.75 74.8431 58.0931 73.5 59.75 73.5H67.25C68.9069 73.5 70.25 74.8431 70.25 76.5V81.75ZM59.75 75C58.9216 75 58.25 75.6716 58.25 76.5V80.25H68.75V76.5C68.75 75.6716 68.0784 75 67.25 75H59.75Z" fill="#CCCCCC"/>
<path d="M33.5 84C33.5 81.929 35.179 80.25 37.25 80.25H83.75C85.8208 80.25 87.5 81.929 87.5 84V84.75H33.5V84Z" fill="#999999"/>
<path d="M38.75 84C38.75 81.929 40.429 80.25 42.5 80.25H86C88.0708 80.25 89.75 81.929 89.75 84V84.75H38.75V84Z" fill="#B3B3B3"/>
<path d="M47 62.25C47 61.4216 47.6716 60.75 48.5 60.75H52.25C53.0784 60.75 53.75 61.4216 53.75 62.25V68.25C53.75 69.0784 53.0784 69.75 52.25 69.75H48.5C47.6716 69.75 47 69.0784 47 68.25V62.25Z" fill="#F4F4F4"/>
<path d="M56 62.25C56 61.4216 56.6716 60.75 57.5 60.75H61.25C62.0784 60.75 62.75 61.4216 62.75 62.25V68.25C62.75 69.0784 62.0784 69.75 61.25 69.75H57.5C56.6716 69.75 56 69.0784 56 68.25V62.25Z" fill="#E5E5E5"/>
<path d="M65 62.25C65 61.4216 65.6716 60.75 66.5 60.75H70.25C71.0784 60.75 71.75 61.4216 71.75 62.25V68.25C71.75 69.0784 71.0784 69.75 70.25 69.75H66.5C65.6716 69.75 65 69.0784 65 68.25V62.25Z" fill="#E5E5E5"/>
<path d="M74 62.25C74 61.4216 74.6716 60.75 75.5 60.75H79.25C80.0784 60.75 80.75 61.4216 80.75 62.25V68.25C80.75 69.0784 80.0784 69.75 79.25 69.75H75.5C74.6716 69.75 74 69.0784 74 68.25V62.25Z" fill="#E5E5E5"/>
<path d="M47 51C47 50.1716 47.6716 49.5 48.5 49.5H52.25C53.0784 49.5 53.75 50.1716 53.75 51V57C53.75 57.8284 53.0784 58.5 52.25 58.5H48.5C47.6716 58.5 47 57.8284 47 57V51Z" fill="#E5E5E5"/>
<path d="M47 39.75C47 38.9216 47.6716 38.25 48.5 38.25H52.25C53.0784 38.25 53.75 38.9216 53.75 39.75V45.75C53.75 46.5784 53.0784 47.25 52.25 47.25H48.5C47.6716 47.25 47 46.5784 47 45.75V39.75Z" fill="#E5E5E5"/>
<path d="M47 28.5C47 27.6716 47.6716 27 48.5 27H52.25C53.0784 27 53.75 27.6716 53.75 28.5V34.5C53.75 35.3284 53.0784 36 52.25 36H48.5C47.6716 36 47 35.3284 47 34.5V28.5Z" fill="#E5E5E5"/>
<path d="M56 51C56 50.1716 56.6716 49.5 57.5 49.5H61.25C62.0784 49.5 62.75 50.1716 62.75 51V57C62.75 57.8284 62.0784 58.5 61.25 58.5H57.5C56.6716 58.5 56 57.8284 56 57V51Z" fill="#E5E5E5"/>
<path d="M56 39.75C56 38.9216 56.6716 38.25 57.5 38.25H61.25C62.0784 38.25 62.75 38.9216 62.75 39.75V45.75C62.75 46.5784 62.0784 47.25 61.25 47.25H57.5C56.6716 47.25 56 46.5784 56 45.75V39.75Z" fill="#F4F4F4"/>
<path d="M56 28.5C56 27.6716 56.6716 27 57.5 27H61.25C62.0784 27 62.75 27.6716 62.75 28.5V34.5C62.75 35.3284 62.0784 36 61.25 36H57.5C56.6716 36 56 35.3284 56 34.5V28.5Z" fill="#E5E5E5"/>
<path d="M65 51C65 50.1716 65.6716 49.5 66.5 49.5H70.25C71.0784 49.5 71.75 50.1716 71.75 51V57C71.75 57.8284 71.0784 58.5 70.25 58.5H66.5C65.6716 58.5 65 57.8284 65 57V51Z" fill="#E5E5E5"/>
<path d="M65 39.75C65 38.9216 65.6716 38.25 66.5 38.25H70.25C71.0784 38.25 71.75 38.9216 71.75 39.75V45.75C71.75 46.5784 71.0784 47.25 70.25 47.25H66.5C65.6716 47.25 65 46.5784 65 45.75V39.75Z" fill="#E5E5E5"/>
<path d="M65 28.5C65 27.6716 65.6716 27 66.5 27H70.25C71.0784 27 71.75 27.6716 71.75 28.5V34.5C71.75 35.3284 71.0784 36 70.25 36H66.5C65.6716 36 65 35.3284 65 34.5V28.5Z" fill="#F4F4F4"/>
<path d="M74 51C74 50.1716 74.6716 49.5 75.5 49.5H79.25C80.0784 49.5 80.75 50.1716 80.75 51V57C80.75 57.8284 80.0784 58.5 79.25 58.5H75.5C74.6716 58.5 74 57.8284 74 57V51Z" fill="#F4F4F4"/>
<path d="M74 39.75C74 38.9216 74.6716 38.25 75.5 38.25H79.25C80.0784 38.25 80.75 38.9216 80.75 39.75V45.75C80.75 46.5784 80.0784 47.25 79.25 47.25H75.5C74.6716 47.25 74 46.5784 74 45.75V39.75Z" fill="#E5E5E5"/>
<path d="M74 28.5C74 27.6716 74.6716 27 75.5 27H79.25C80.0784 27 80.75 27.6716 80.75 28.5V34.5C80.75 35.3284 80.0784 36 79.25 36H75.5C74.6716 36 74 35.3284 74 34.5V28.5Z" fill="#E5E5E5"/>
<path d="M74.749 68.25V76.875C74.749 77.9105 75.5885 78.75 76.624 78.75C77.6596 78.75 78.499 77.9105 78.499 76.875V68.25H84.4988V64.5H78.499V55.125C78.499 54.0895 77.6596 53.25 76.624 53.25C75.5885 53.25 74.749 54.0895 74.749 55.125V64.5H65.374C64.3385 64.5 63.499 65.3395 63.499 66.375C63.499 67.4105 64.3385 68.25 65.374 68.25H74.749Z" fill="#EDEDED"/>
<path d="M74 64.5H74.7495V60.951C74.9702 60.8232 75.2266 60.75 75.5 60.75H78.4995V64.5H80.75V68.25H78.4995V69.75H75.5C75.2266 69.75 74.9702 69.6768 74.7495 69.549V68.25H74V64.5Z" fill="#D7D7D7"/>
<path d="M65 64.5374C65.121 64.5129 65.2462 64.5 65.3745 64.5H71.75V68.25H65.3745C65.2462 68.25 65.121 68.2371 65 68.2126V64.5374Z" fill="#D7D7D7"/>
<path d="M78.499 58.5H75.4996C75.2261 58.5 74.9698 58.4268 74.749 58.299V55.125C74.749 54.0895 75.5885 53.25 76.624 53.25C77.6596 53.25 78.499 54.0895 78.499 55.125V58.5Z" fill="#E5E5E5"/>
<path d="M68.375 64.5H90.125C91.1605 64.5 92 65.3395 92 66.375C92 67.4105 91.1605 68.25 90.125 68.25H68.375C67.3395 68.25 66.5 67.4105 66.5 66.375C66.5 65.3395 67.3395 64.5 68.375 64.5Z" fill="#DC1E28"/>
<path d="M77.75 76.875V55.125C77.75 54.0895 78.5895 53.25 79.625 53.25C80.6605 53.25 81.5 54.0895 81.5 55.125V76.875C81.5 77.9105 80.6605 78.75 79.625 78.75C78.5895 78.75 77.75 77.9105 77.75 76.875Z" fill="#DC1E28"/>
</svg>
