<?xml version="1.0" encoding="utf-8"?>
<!-- Generator: Adobe Illustrator 26.5.0, SVG Export Plug-In . SVG Version: 6.00 Build 0)  -->
<svg version="1.1" id="Warstwa_1" xmlns="http://www.w3.org/2000/svg" xmlns:xlink="http://www.w3.org/1999/xlink" x="0px" y="0px"
	 width="52px" height="52px" viewBox="0 0 52 52" style="enable-background:new 0 0 52 52;" xml:space="preserve">
<g>
	<g>
		<path style="opacity:0.1;fill:#B2B2B2;enable-background:new    ;" d="M26.1200008,3.4099901
			c4.2199993-3.089998,21.2299976,15.8200092,20.4899998,17.1900101c-0.2000008,0.3699989-0.7299995,1.2199993-1.1300011,1.3500004
			C44.75,22.1900005,29.3199997,10.3100004,29.3199997,10.3100004s22.6300011,19.3999977,22.2600021,20.2299995
			c-0.3600006,0.8199997-1.8400002,2.9500008-3.2400017,3.8799973c-1.5400009,1.0200005-14.8699989-6.6499977-14.8699989-6.6499977
			s9.3799973,10.9599991,8.4099998,12.6399994c-1.6900024,2.920002-7.2299995,7.2700005-7.7999992,7.4099998
			c-1.170002,0.2799988-11.0500011-10.8600006-11.5200024-10.2900009c-0.4699993,0.5600014,4.8800011,7.3199997,4.8800011,7.3199997
			s-1,1.9400024-1.5699997,2.5699997C24.6800003,48.7099991-0.469998,28.9599991,0.500002,26.7600002
			C1.09,25.4099998,2.1700001,24.1100006,3.5,22.5200005s1.5799999-1.7299995,2.1399999-1.9200001
			C6.21,20.3999996,28,34.3100014,28,34.3100014S3.52,11.4099998,4.6399999,9.1799898
			C6.1599998,6.1699901,6.77,5.4199901,9.46,3.3999901C11.2799997,2.02999,39.1500015,23.8700008,39.1500015,23.8700008
			S22.5599995,8.7999897,23.3299999,6.7199898c0.5900002-1.5799999,1.4099998-2.3199997,2.7700005-3.3099997H26.1200008z"/>
		<path style="fill-rule:evenodd;clip-rule:evenodd;fill:#B2B2B2;" d="M17.4981995,40.4572983
			c0.0235996,0.2751007-0.1802998,0.5173035-0.4554996,0.5409012c-3.2390995,0.2777023-5.9487,0.8097992-7.8351803,1.4305
			c-0.9464893,0.3114014-1.6616297,0.6374016-2.1295595,0.9496002C6.5731902,43.7150002,6.5,43.9366989,6.5,44
			c0,0.0292015,0.0158401,0.1343994,0.2210598,0.3129005c0.2014704,0.1753006,0.5279303,0.3684006,0.99543,0.5668983
			c0.9308004,0.3950996,2.3095102,0.7658997,4.0542107,1.0833015C15.2523003,46.5962982,20.0960007,47,25.5,47
			s10.2476997-0.4037018,13.7293015-1.0368996c1.7446976-0.3174019,3.1233978-0.6882019,4.0541992-1.0833015
			c0.4674988-0.1984978,0.7939987-0.3915977,0.9953995-0.5668983C44.4841995,44.1343994,44.5,44.0292015,44.5,44
			c0-0.0649986-0.0732994-0.2868004-0.5735016-0.6225014c-0.4644966-0.3117981-1.1755981-0.6375999-2.1194-0.9488983
			c-1.8810997-0.6206017-4.5903969-1.1525993-7.8495979-1.4304008c-0.2751007-0.0234985-0.4790993-0.2654991-0.4556999-0.540699
			c0.0234985-0.2751007,0.2654991-0.4790993,0.540699-0.4556999c3.3107986,0.2821999,6.1015015,0.8250999,8.0778999,1.4771004
			c0.9850006,0.3248978,1.7919998,0.6847992,2.3633995,1.0682983C45.0195007,42.9067993,45.5,43.3899994,45.5,44
			c0,0.4407997-0.2545013,0.7975006-0.5647011,1.0674019c-0.3139,0.273098-0.7479973,0.5150986-1.2609978,0.7327995
			c-1.0301018,0.437397-2.4920998,0.8240967-4.2661018,1.146698C35.8522987,47.5937004,30.9459991,48,25.5,48
			s-10.3522997-0.4062996-13.9082003-1.0531006c-1.7740097-0.3226013-3.23596-0.709301-4.2660999-1.146698
			c-0.51297-0.217701-0.9470596-0.4597015-1.2610197-0.7327995C5.7544799,44.7975006,5.5,44.4407997,5.5,44
			c0-0.6116982,0.4855599-1.0950012,1.0229702-1.4536018c0.5742698-0.3830986,1.3847499-0.7427979,2.3720102-1.0675964
			c1.98102-0.6518021,4.7714195-1.1948013,8.0623198-1.4770012C17.2324009,39.978199,17.4745998,40.1820984,17.4981995,40.4572983z"
			/>
		<path style="fill:#FFFFFF;" d="M34,40.5c6.5699997,0.5600014,11,2.1500015,11,3.5c0,1.8800011-8.6500015,3.5-19.5,3.5
			S6,45.8800011,6,44c0-1.3499985,4.4700003-2.9399986,11-3.5"/>
		<path style="fill-rule:evenodd;clip-rule:evenodd;fill:#B2B2B2;" d="M17.4981995,40.4572983
			c0.0235996,0.2751007-0.1802998,0.5173035-0.4554996,0.5409012c-3.2390995,0.2777023-5.9487,0.8097992-7.8351803,1.4305
			c-0.9464893,0.3114014-1.6616297,0.6374016-2.1295595,0.9496002C6.5731902,43.7150002,6.5,43.9366989,6.5,44
			c0,0.0292015,0.0158401,0.1343994,0.2210598,0.3129005c0.2014704,0.1753006,0.5279303,0.3684006,0.99543,0.5668983
			c0.9308004,0.3950996,2.3095102,0.7658997,4.0542107,1.0833015C15.2523003,46.5962982,20.0960007,47,25.5,47
			s10.2476997-0.4037018,13.7293015-1.0368996c1.7446976-0.3174019,3.1233978-0.6882019,4.0541992-1.0833015
			c0.4674988-0.1984978,0.7939987-0.3915977,0.9953995-0.5668983C44.4841995,44.1343994,44.5,44.0292015,44.5,44
			c0-0.0649986-0.0732994-0.2868004-0.5735016-0.6225014c-0.4644966-0.3117981-1.1755981-0.6375999-2.1194-0.9488983
			c-1.8810997-0.6206017-4.5903969-1.1525993-7.8495979-1.4304008c-0.2751007-0.0234985-0.4790993-0.2654991-0.4556999-0.540699
			c0.0234985-0.2751007,0.2654991-0.4790993,0.540699-0.4556999c3.3107986,0.2821999,6.1015015,0.8250999,8.0778999,1.4771004
			c0.9850006,0.3248978,1.7919998,0.6847992,2.3633995,1.0682983C45.0195007,42.9067993,45.5,43.3899994,45.5,44
			c0,0.4407997-0.2545013,0.7975006-0.5647011,1.0674019c-0.3139,0.273098-0.7479973,0.5150986-1.2609978,0.7327995
			c-1.0301018,0.437397-2.4920998,0.8240967-4.2661018,1.146698C35.8522987,47.5937004,30.9459991,48,25.5,48
			s-10.3522997-0.4062996-13.9082003-1.0531006c-1.7740097-0.3226013-3.23596-0.709301-4.2660999-1.146698
			c-0.51297-0.217701-0.9470596-0.4597015-1.2610197-0.7327995C5.7544799,44.7975006,5.5,44.4407997,5.5,44
			c0-0.6116982,0.4855599-1.0950012,1.0229702-1.4536018c0.5742698-0.3830986,1.3847499-0.7427979,2.3720102-1.0675964
			c1.98102-0.6518021,4.7714195-1.1948013,8.0623198-1.4770012C17.2324009,39.978199,17.4745998,40.1820984,17.4981995,40.4572983z"
			/>
		<path style="fill:#E5E5E5;" d="M11,19c2.21,0,4-1.7900009,4-4s-1.79-4-4-4s-4,1.79-4,4S8.79,19,11,19z"/>
		<path style="fill-rule:evenodd;clip-rule:evenodd;fill:#B2B2B2;" d="M6.5,15c0-2.4861002,2.0138597-4.5,4.5-4.5
			c2.4861002,0,4.5,2.0138998,4.5,4.5s-2.0138998,4.5-4.5,4.5C8.5138597,19.5,6.5,17.4860992,6.5,15z M11,11.5
			c-1.9338598,0-3.5,1.5661001-3.5,3.5s1.5661402,3.5,3.5,3.5c1.9338999,0,3.5-1.5660992,3.5-3.5S12.9338999,11.5,11,11.5z"/>
		<path style="fill:#FFFFFF;" d="M10.9799995,21C8.2299995,21,6,23.3700008,6,26.1200008V30.5h2.5l0.5,7h4l0.5-7h2.4700003
			v-4.3799992c0-2.75-2.2300005-5.1200008-4.9800005-5.1200008H10.9799995z"/>
		<path style="fill-rule:evenodd;clip-rule:evenodd;fill:#B2B2B2;" d="M5.5,26.1200008C5.5,23.1119995,7.93607,20.5,10.9799995,20.5
			h0.0100002c3.0439005,0,5.4799995,2.6119995,5.4799995,5.6200008V30.5c0,0.2761002-0.2238998,0.5-0.499999,0.5H13.9656
			l-0.4668999,6.5355988C13.4799995,37.7972984,13.2622995,38,13,38H9c-0.2623196,0-0.4800396-0.2027016-0.4987297-0.4644012
			L8.03444,31H6c-0.2761402,0-0.5-0.2238998-0.5-0.5V26.1200008z M10.9799995,21.5C8.5239296,21.5,6.5,23.6280003,6.5,26.1200008V30
			h2c0.2623196,0,0.4800396,0.2026997,0.4987297,0.4643993L9.46556,37h3.06884l0.4668999-6.5356007
			C13.0200005,30.2026997,13.2377005,30,13.5,30h1.9700003v-3.8799992c0-2.4920006-2.0239-4.6200008-4.4800005-4.6200008H10.9799995
			z"/>
		<path style="fill:#E5E5E5;" d="M40.0299988,19c2.2100029,0,4-1.7900009,4-4s-1.7899971-4-4-4c-2.2099991,0-4,1.79-4,4
			S37.8199997,19,40.0299988,19z"/>
		<path style="fill-rule:evenodd;clip-rule:evenodd;fill:#B2B2B2;" d="M35.5299988,15c0-2.4861002,2.0139008-4.5,4.5-4.5
			c2.4861031,0,4.5,2.0138998,4.5,4.5s-2.0138969,4.5-4.5,4.5C37.5438995,19.5,35.5299988,17.4860992,35.5299988,15z
			 M40.0299988,11.5c-1.9338989,0-3.5,1.5661001-3.5,3.5s1.5661011,3.5,3.5,3.5c1.9339027,0,3.5-1.5660992,3.5-3.5
			S41.9639015,11.5,40.0299988,11.5z"/>
		<path style="fill:#FFFFFF;" d="M40.0200005,21c-2.75,0-4.9799995,2.3700008-4.9799995,5.1200008V30.5h2.5l0.5,7h4l0.5-7h2.4699974
			v-4.3799992c0-2.75-2.2299995-5.1200008-4.9799995-5.1200008H40.0200005z"/>
		<path style="fill-rule:evenodd;clip-rule:evenodd;fill:#B2B2B2;" d="M34.5400009,26.1200008
			c0-3.0080013,2.4361-5.6200008,5.4799995-5.6200008h0.0099983c3.0438995,0,5.4799995,2.6119995,5.4799995,5.6200008V30.5
			c0,0.2761002-0.2238998,0.5-0.5,0.5H43.0056l-0.4668999,6.5355988C42.5200005,37.7972984,42.3022995,38,42.0400009,38h-4
			c-0.2623024,0-0.4799995-0.2027016-0.4986992-0.4644012L37.0744019,31h-2.0344009c-0.2761002,0-0.5-0.2238998-0.5-0.5V26.1200008z
			 M40.0200005,21.5c-2.4561005,0-4.4799995,2.1280003-4.4799995,4.6200008V30h2
			c0.2622986,0,0.4799995,0.2026997,0.4986992,0.4643993L38.5056,37h3.0688019l0.4668999-6.5356007
			C42.0600014,30.2026997,42.2776985,30,42.5400009,30h1.9699974v-3.8799992c0-2.4920006-2.0238991-4.6200008-4.4799995-4.6200008
			H40.0200005z"/>
		<path style="fill:#E5E5E5;" d="M25.5,17c2.6200008,0,4.75-2.1300001,4.75-4.75S28.1200008,7.5,25.5,7.5s-4.75,2.1300001-4.75,4.75
			S22.8799992,17,25.5,17z"/>
		<path style="fill-rule:evenodd;clip-rule:evenodd;fill:#B2B2B2;" d="M20.25,12.25C20.25,9.3538599,22.6039009,7,25.5,7
			s5.25,2.3538599,5.25,5.25c0,2.8961-2.3539009,5.25-5.25,5.25S20.25,15.1461,20.25,12.25z M25.5,8
			c-2.3439007,0-4.25,1.9061403-4.25,4.25c0,2.3438997,1.9060993,4.25,4.25,4.25s4.25-1.9061003,4.25-4.25
			C29.75,9.9061403,27.8439007,8,25.5,8z"/>
		<path style="fill:#FFFFFF;" d="M31.4799995,24.9400005c0-3.3000011-2.6800003-5.9800014-5.9799995-5.9800014
			s-5.9799995,2.6800003-5.9799995,5.9800014L19.5,30.5h3l0.5,8h5l0.5-8h3L31.4799995,24.9400005z"/>
		<path style="fill-rule:evenodd;clip-rule:evenodd;fill:#B2B2B2;" d="M19.0200005,24.9391003
			c0.0004997-3.5757008,2.9041996-6.4791012,6.4799995-6.4791012s6.4794006,2.9033012,6.4799995,6.4790001
			c0,0.0003014,0,0.0007,0,0.0010014L32,30.4981995c0.0004997,0.1329002-0.052,0.260601-0.1457996,0.3547001
			C31.7604008,30.9470997,31.6329002,31,31.5,31h-2.5303001l-0.4706993,7.5312004C28.4825993,38.7947006,28.2639999,39,28,39h-5
			c-0.2639999,0-0.4825993-0.2052994-0.4990005-0.4687996L22.0303001,31H19.5c-0.1329002,0-0.2604008-0.0529003-0.3542004-0.1471004
			C19.052,30.7588005,18.9995003,30.6310997,19,30.4981995l0.0200005-5.5581989
			C19.0200005,24.9396992,19.0200005,24.9393997,19.0200005,24.9391003z M25.5,19.4599991
			c-3.0238991,0-5.4799995,2.4561005-5.4799995,5.4800014v0.0017986L20.0018005,30H22.5
			c0.2639999,0,0.4825993,0.2052994,0.4990005,0.4687996L23.4696999,38h4.0606003l0.4706993-7.5312004
			C28.0174007,30.2052994,28.2360001,30,28.5,30h2.4981995l-0.0181999-5.0582008v-0.0017986
			C30.9799995,21.9160995,28.5238991,19.4599991,25.5,19.4599991z"/>
	</g>
</g>
</svg>
