<svg width="52" height="52" viewBox="0 0 52 52" fill="none" xmlns="http://www.w3.org/2000/svg">
<path opacity="0.08" d="M26.1738 3.49099C30.4191 0.381956 47.5072 19.3889 46.7656 20.7682C46.5651 21.1412 46.0368 21.9935 45.6338 22.1236C44.9006 22.3602 29.3881 10.4279 29.3881 10.4279C29.3881 10.4279 52.1316 29.9286 51.7649 30.7553C51.3983 31.582 49.9159 33.7214 48.5052 34.659C46.962 35.6847 33.5618 27.975 33.5618 27.975C33.5618 27.975 42.9909 38.989 42.0095 40.6807C40.3095 43.611 34.7404 47.9912 34.1752 48.1256C32.9957 48.4062 23.068 37.2146 22.5949 37.7811C22.1218 38.3477 27.4945 45.1389 27.4945 45.1389C27.4945 45.1389 26.4902 47.0909 25.9208 47.7179C24.734 49.0246 -0.542883 29.1773 0.427502 26.9568C1.02107 25.5986 2.10898 24.2958 3.44126 22.7003C4.77354 21.1049 5.02461 20.9666 5.59522 20.7682C6.16584 20.5699 28.0721 34.5493 28.0721 34.5493C28.0721 34.5493 3.47312 11.533 4.59865 9.29731C6.12201 6.27133 6.73654 5.5232 9.44713 3.491C11.2793 2.11741 39.2891 24.0598 39.2891 24.0598C39.2891 24.0598 22.6125 8.91547 23.3937 6.82036C23.9854 5.2332 24.8072 4.49183 26.1738 3.49099Z" fill="#B2B2B2"/>
<path d="M30.6799 28.6898C30.71 28.6298 30.7399 28.5698 30.7899 28.5198L37.45 21.8698V17.0498C37.45 16.7598 37.0599 16.4998 36.6199 16.4998H9.27997C8.83997 16.4998 8.44995 16.7598 8.44995 17.0498V35.9498C8.44995 36.2398 8.83997 36.4998 9.27997 36.4998H36.6199C37.0599 36.4998 37.45 36.2398 37.45 35.9498V29.1498L34.4299 32.1599C34.3799 32.2098 34.33 32.2498 34.2599 32.2698L29.5099 34.0999C29.45 34.1198 29.39 34.1298 29.33 34.1298C29.2 34.1298 29.0699 34.0798 28.9799 33.9898C28.84 33.8499 28.7899 33.6398 28.8599 33.4598L30.6799 28.6898Z" fill="white"/>
<path d="M45.45 19.7598L38.45 26.7398L37.45 27.7398L34.09 31.0898L31.9 28.8298L37.45 23.2899L38.45 22.2899L43.25 17.4998L45.45 19.7598Z" fill="#EDEDED"/>
<path d="M49.3699 14.2199L48.7599 13.6098C47.9299 12.7699 46.5599 12.7699 45.7299 13.6098L42.9099 16.4298L38.45 20.8799V17.0498C38.45 16.1999 37.6299 15.4998 36.6199 15.4998H9.27997C8.26996 15.4998 7.44995 16.1999 7.44995 17.0498V35.9499C7.44995 36.8098 8.26996 37.4998 9.27997 37.4998H36.6199C37.6299 37.4998 38.45 36.8098 38.45 35.9499V28.1499L49.3699 17.2599C49.78 16.8598 49.9999 16.3199 49.9999 15.7398C49.9999 15.1699 49.78 14.6299 49.3699 14.2199ZM30.7899 28.5199C30.7399 28.5699 30.71 28.6299 30.6799 28.6898L28.8599 33.4599C28.7899 33.6399 28.84 33.8499 28.9799 33.9898C29.0699 34.0799 29.2 34.1299 29.33 34.1299C29.39 34.1299 29.45 34.1198 29.5099 34.0999L34.2599 32.2699C34.33 32.2498 34.3799 32.2099 34.4299 32.1599L37.45 29.1499V35.9499C37.45 36.2398 37.0599 36.4998 36.6199 36.4998H9.27997C8.83997 36.4998 8.44995 36.2398 8.44995 35.9499V17.0498C8.44995 16.7599 8.83997 16.4998 9.27997 16.4998H36.6199C37.0599 16.4998 37.45 16.7599 37.45 17.0498V21.8698L30.7899 28.5199ZM31.3599 29.7199L33.2 31.6098L30.2 32.7599L31.3599 29.7199ZM38.45 26.7398L37.45 27.7398L34.09 31.0899L31.9 28.8299L37.45 23.2899L38.45 22.2899L43.2499 17.4998L45.45 19.7599L38.45 26.7398ZM46.1599 19.0498L43.96 16.7899L44.5999 16.1399L46.8099 18.4099L46.1599 19.0498ZM48.6699 16.5498L47.52 17.6999L45.3099 15.4398L46.4299 14.3199C46.8799 13.8698 47.6099 13.8698 48.0599 14.3199L48.6699 14.9298C48.8799 15.1499 48.9999 15.4298 48.9999 15.7398C48.9999 16.0498 48.8799 16.3399 48.6699 16.5498Z" fill="#B2B2B2"/>
<path d="M33.2 31.6098L30.2 32.7598L31.3599 29.7198L33.2 31.6098Z" fill="#EDEDED"/>
<path d="M10.95 19.0001H24.7275V21.6001H10.95V19.0001Z" fill="#EDEDED"/>
<path d="M25.95 19.0001H28.95V21.6001H25.95V19.0001Z" fill="#EDEDED"/>
<path d="M25.95 27.0001H28.95V29.6001H25.95V27.0001Z" fill="#EDEDED"/>
<path d="M10.95 23.0001H24.7275V25.6001H10.95V23.0001Z" fill="#EDEDED"/>
<path d="M10.95 27.0001H24.7275V29.6001H10.95V27.0001Z" fill="#EDEDED"/>
<path d="M10.95 31.0001H24.7275V33.6001H10.95V31.0001Z" fill="#EDEDED"/>
<path d="M46.8099 18.4099L46.1599 19.0498L43.96 16.7899L44.5999 16.1398L46.8099 18.4099Z" fill="#EDEDED"/>
<path d="M48.9999 15.7398C48.9999 16.0498 48.8799 16.3398 48.6699 16.5498L47.52 17.6998L45.3099 15.4398L46.4299 14.3198C46.8799 13.8698 47.6099 13.8698 48.0599 14.3198L48.6699 14.9298C48.8799 15.1498 48.9999 15.4298 48.9999 15.7398Z" fill="#EDEDED"/>
</svg>
