<svg width="52" height="52" viewBox="0 0 52 52" fill="none" xmlns="http://www.w3.org/2000/svg">
<path opacity="0.1" d="M26.1166 3.40694C30.3407 0.313429 47.3435 19.2255 46.6056 20.5979C46.406 20.969 45.8805 21.817 45.4795 21.9465C44.7499 22.1819 29.3149 10.3092 29.3149 10.3092C29.3149 10.3092 51.9447 29.7126 51.5799 30.5351C51.2151 31.3576 49.7401 33.4863 48.3365 34.4193C46.801 35.4399 33.4677 27.7687 33.4677 27.7687C33.4677 27.7687 42.8497 38.7277 41.8732 40.4109C40.1817 43.3266 34.6405 47.6849 34.078 47.8187C32.9044 48.0979 23.0263 36.9621 22.5556 37.5258C22.0849 38.0895 27.4307 44.8469 27.4307 44.8469C27.4307 44.8469 26.4315 46.7892 25.8649 47.413C24.684 48.7132 -0.46664 28.9649 0.4989 26.7556C1.08951 25.4042 2.17198 24.1079 3.49761 22.5204C4.82324 20.9328 5.07305 20.7952 5.64081 20.5979C6.20858 20.4005 28.0054 34.3101 28.0054 34.3101C28.0054 34.3101 3.52931 11.4088 4.64922 9.18425C6.16497 6.17339 6.77643 5.429 9.47348 3.40694C11.2965 2.04021 39.1664 23.873 39.1664 23.873C39.1664 23.873 22.5731 8.80432 23.3504 6.71968C23.9392 5.14044 24.7568 4.40278 26.1166 3.40694Z" fill="#B2B2B2"/>
<path d="M37.35 15.0598C37.32 15.4298 36.6 16.0798 34.66 16.6998L34.14 16.8698C33.73 16.9998 33.35 17.1198 32.99 17.2298V17.2398C32.72 17.3198 32.46 17.3998 32.22 17.4698C30.22 18.0698 28.84 18.3298 26.23 18.3598C23.47 18.3998 21.71 18.1598 19.85 17.6898C19.6 17.6298 19.34 17.5598 19.07 17.4798C18.97 17.4598 18.87 17.4298 18.77 17.3998C18.07 17.1998 17.01 16.8098 16.29 16.3698L15.96 16.1698C15.53 15.9098 14.62 15.3698 14.61 15.0798C14.59 14.7598 15.42 14.2798 16.16 14.0598L17.87 13.5898L17.65 14.2698C17.57 14.5398 17.72 14.8198 17.98 14.8998C18.24 14.9798 18.52 14.8398 18.61 14.5798L19.1 13.0198C19.11 12.9998 19.11 12.9798 19.12 12.9598C19.16 12.7898 19.76 10.2698 20.44 8.15984C20.65 7.52983 21.17 7.33983 21.46 7.28984C21.94 7.19981 22.61 7.44981 23.32 7.71983C24.08 7.9998 24.93 8.32982 25.83 8.33983C27.01 8.34984 27.81 7.97984 28.53 7.64983C29.25 7.32982 29.76 7.08983 30.45 7.27983C30.93 7.40984 31.33 7.94981 31.49 8.41985C31.97 9.90984 32.66 12.7798 32.7 12.9598C32.7 12.9798 32.71 12.9998 32.71 13.0198L33.22 14.5798C33.31 14.8398 33.59 14.9898 33.85 14.8998C34.12 14.8098 34.26 14.5298 34.17 14.2698L33.94 13.5598C34.74 13.7798 35.93 14.1398 36.79 14.5798C36.96 14.6698 37.37 14.8698 37.35 15.0598Z" fill="#E5E5E5"/>
<path d="M32.9001 19.1998C32.8901 19.2198 32.8801 19.2299 32.8801 19.2498C32.86 19.2998 32.85 19.3598 32.8301 19.4099C32.72 19.8998 32.7601 20.3598 32.79 20.8098C32.8201 21.2198 32.85 21.6198 32.7501 21.9898C32.7401 22.0498 32.72 22.1298 32.7101 22.2198C32.7001 22.2798 32.6801 22.3698 32.66 22.4498C32.6 22.3998 32.55 22.3598 32.5201 22.3198C32.4401 22.2498 32.3701 22.1898 32.3301 22.1599C32.22 22.0798 32.0701 22.0598 31.9401 22.1098C31.8101 22.1599 31.72 22.2798 31.7001 22.4099C31.6801 22.5298 31.66 22.6398 31.6301 22.7598C31.5801 23.0198 31.5301 23.2598 31.5201 23.5098C31.5201 23.6699 31.5001 23.8298 31.4601 23.9799C30.8701 24.1699 30.2701 24.3598 29.7701 24.4398C28.2701 24.6998 25.86 24.4398 25.8401 24.4398C25.7001 24.4199 25.5701 24.4598 25.48 24.5598C25.3801 24.6498 25.3301 24.7798 25.3401 24.9099L25.4001 26.0198C24.73 25.8798 23.5801 25.6398 22.48 25.3298C21.9601 25.1798 21.35 24.9199 20.7801 24.6498C20.6201 24.2698 20.5201 23.8998 20.5001 23.5098C20.5001 23.2598 20.4501 23.0098 20.3901 22.7498C20.3701 22.6398 20.35 22.5298 20.3301 22.4099C20.3 22.2798 20.2101 22.1599 20.0801 22.1098C19.9501 22.0598 19.8101 22.0798 19.7001 22.1599C19.6501 22.1898 19.5901 22.2498 19.5101 22.3198C19.47 22.3598 19.42 22.4099 19.3701 22.4598C19.35 22.3698 19.3301 22.2798 19.3201 22.2198C19.3 22.1298 19.29 22.0498 19.2701 21.9898C19.1801 21.5999 19.17 21.1898 19.17 20.7598C19.16 20.3298 19.1501 19.8798 19.05 19.4398C19.04 19.3898 19.04 19.2998 19.04 19.2299C19.1801 19.1198 19.3 18.9199 19.4401 18.6198C21.3201 19.1098 23.0601 19.3698 25.7101 19.3698C25.8801 19.3698 26.0601 19.3698 26.2501 19.3598C28.98 19.3298 30.48 19.0399 32.5301 18.4199C32.54 18.4498 32.55 18.4799 32.5601 18.5098C32.66 18.8298 32.7401 19.0898 32.9001 19.1998Z" fill="white"/>
<path d="M26.5399 34.3098C26.5699 37.0898 25.7 41.1898 25.4299 42.3998H25.2399C12.0499 42.3998 10.5999 41.2998 10.4699 40.9598C9.83997 39.2698 9.88995 38.6699 10.1199 37.1798C10.8199 33.8098 11.96 33.4298 18.2399 31.3499L20.1799 30.7098C20.2899 30.6699 20.39 30.5798 20.4399 30.4698C20.4899 30.3598 20.4999 30.2398 20.46 30.1198C20.03 28.9799 19.02 26.0798 18.78 24.6798C19.0399 24.7998 19.3799 24.9698 19.6799 25.1098C19.8599 25.1998 20.0499 25.2899 20.2499 25.3898C20.6899 25.5999 21.1699 25.8198 21.6299 25.9998C21.84 26.0798 22.0399 26.1498 22.2399 26.1998C23.5499 26.5698 24.9199 26.8398 25.5099 26.9598C25.58 27.2899 25.6899 27.8598 25.83 28.5798C25.8699 28.8298 25.9199 29.0999 25.9699 29.3898C26.2399 30.9498 26.52 32.8898 26.5399 34.3098Z" fill="#E5E5E5"/>
<path d="M41.52 40.9598C40.96 42.4698 31.35 42.4298 27.74 42.3998H26.35C26.67 40.9598 27.47 37.0698 27.44 34.2998C27.42 32.8198 27.14 30.8598 26.87 29.2698C26.82 28.9998 26.77 28.7299 26.73 28.4799C26.53 27.4498 26.37 26.6898 26.33 26.5098L26.27 25.3798C27.1 25.4398 28.73 25.5298 29.92 25.3298C30.28 25.2698 30.66 25.1699 31.05 25.0498C31.31 24.9799 31.57 24.8898 31.83 24.8098C31.91 24.7899 31.99 24.7598 32.07 24.7398C32.56 24.5898 33.13 24.4199 33.44 24.3898C33.29 25.4099 32.26 28.3698 31.59 30.1198C31.55 30.2299 31.56 30.3598 31.61 30.4698C31.66 30.5798 31.75 30.6699 31.87 30.7098L33.73 31.3198C40.18 33.4698 41.17 33.7998 41.88 37.1599C42.11 38.6699 42.16 39.2698 41.52 40.9598Z" fill="#E5E5E5"/>
<path d="M42.76 36.9998C41.95 33.1098 40.4199 32.5998 34.01 30.4698L32.5999 29.9998C33.08 28.7098 34.3599 25.1998 34.3599 24.1898C34.3599 23.9698 34.26 23.7698 34.09 23.6398C33.7399 23.3898 33.2 23.4698 32.2999 23.7298C32.3099 23.6698 32.3199 23.5998 32.3199 23.5398C32.33 23.4398 32.34 23.3398 32.3499 23.2298C32.53 23.3598 32.6899 23.4298 32.8699 23.4098C33.3099 23.3598 33.4099 22.8298 33.4899 22.3598C33.51 22.2898 33.52 22.2298 33.53 22.1798C33.65 21.6898 33.6199 21.2098 33.59 20.7498C33.5599 20.3398 33.53 19.9598 33.6099 19.5898L33.64 19.4798C33.7 19.3098 33.78 19.0398 33.65 18.7898C33.5999 18.7098 33.53 18.6198 33.4099 18.5498C33.39 18.4798 33.3599 18.3798 33.3199 18.2698C33.3099 18.2498 33.3099 18.2198 33.2899 18.1898C33.65 18.0698 34.03 17.9498 34.4399 17.8198L34.96 17.6498C37.1199 16.9598 38.26 16.1198 38.3499 15.1498C38.4299 14.2798 37.59 13.8698 37.1599 13.6498C36.02 13.0598 34.2999 12.6098 33.5999 12.4398C33.4099 11.6298 32.8599 9.39982 32.4399 8.10978C32.2 7.38981 31.58 6.54979 30.71 6.3098C29.6699 6.02983 28.8799 6.38981 28.1199 6.73979C27.46 7.03984 26.8199 7.31981 25.84 7.33983C25.1199 7.32982 24.3799 7.04979 23.6699 6.77983C22.83 6.46983 22.0399 6.15983 21.27 6.29979C20.4199 6.45982 19.7499 7.03984 19.4899 7.84984C18.9099 9.63981 18.39 11.7098 18.21 12.4598L15.89 13.0998C15.4999 13.2198 13.5399 13.8498 13.6099 15.1298C13.65 15.9498 14.5699 16.4998 15.45 17.0298L15.76 17.2198C16.5699 17.7098 17.7399 18.1398 18.4899 18.3598C18.5399 18.3798 18.5999 18.3898 18.65 18.4098C18.6199 18.4798 18.58 18.5398 18.5599 18.5698C18.4799 18.6098 18.4 18.6698 18.3599 18.7298C18.1599 19.0298 18.27 19.5898 18.27 19.5898C18.3499 19.9698 18.3599 20.3598 18.3699 20.7698C18.3699 21.2298 18.3799 21.6998 18.4999 22.1798C18.51 22.2298 18.52 22.2898 18.53 22.3598C18.6199 22.8298 18.71 23.3598 19.1599 23.4098C19.33 23.4298 19.4999 23.3598 19.6699 23.2298C19.6899 23.3398 19.7 23.4398 19.7 23.5398C19.71 23.7598 19.7299 23.9698 19.78 24.1698C18.83 23.6998 18.4099 23.5198 18.0699 23.7298C17.9399 23.8098 17.8199 24.0398 17.8199 24.1898C17.8199 25.3698 18.9999 28.7398 19.45 29.9998L17.96 30.4998C11.5699 32.6198 10.0499 33.1198 9.23993 37.0198C8.97992 38.6898 8.93994 39.4398 9.62995 41.2798C10.01 42.2898 12.2199 43.3198 25.5999 43.2998H25.78C25.7899 43.2998 25.7899 43.2998 25.7999 43.2998H27.7399C28.2199 43.3098 28.7 43.3098 29.1599 43.3098C37.0699 43.3098 41.7499 42.9298 42.3699 41.2798C43.0499 39.4498 43.02 38.6998 42.76 36.9998ZM18.77 17.3998C18.0699 17.1998 17.01 16.8098 16.2899 16.3698L15.96 16.1698C15.53 15.9098 14.6199 15.3698 14.6099 15.0798C14.59 14.7598 15.4199 14.2798 16.1599 14.0598L17.8699 13.5898L17.65 14.2698C17.5699 14.5398 17.7199 14.8198 17.9799 14.8998C18.2399 14.9798 18.52 14.8398 18.6099 14.5798L19.0999 13.0198C19.1099 12.9998 19.1099 12.9798 19.1199 12.9598C19.1599 12.7898 19.76 10.2698 20.4399 8.15983C20.65 7.52983 21.1699 7.33983 21.46 7.28984C21.9399 7.19981 22.6099 7.44981 23.3199 7.71983C24.08 7.9998 24.9299 8.32982 25.83 8.33983C27.01 8.34984 27.8099 7.97984 28.53 7.64982C29.2499 7.32982 29.76 7.08983 30.45 7.27983C30.9299 7.40983 31.33 7.94981 31.4899 8.41984C31.9699 9.90983 32.6599 12.7798 32.7 12.9598C32.7 12.9798 32.71 12.9998 32.71 13.0198L33.2199 14.5798C33.3099 14.8398 33.59 14.9898 33.8499 14.8998C34.1199 14.8098 34.26 14.5298 34.1699 14.2698L33.9399 13.5598C34.7399 13.7798 35.9299 14.1398 36.7899 14.5798C36.96 14.6698 37.3699 14.8698 37.3499 15.0598C37.3199 15.4298 36.5999 16.0798 34.6599 16.6998L34.14 16.8698C33.7299 16.9998 33.3499 17.1198 32.9899 17.2298V17.2398C32.7199 17.3198 32.46 17.3998 32.2199 17.4698C30.2199 18.0698 28.84 18.3298 26.2299 18.3598C23.4699 18.3998 21.71 18.1598 19.8499 17.6898C19.5999 17.6298 19.34 17.5598 19.0699 17.4798C18.9699 17.4598 18.8699 17.4298 18.77 17.3998ZM19.7 22.1598C19.65 22.1898 19.59 22.2498 19.51 22.3198C19.4699 22.3598 19.4199 22.4098 19.3699 22.4598C19.3499 22.3698 19.33 22.2798 19.3199 22.2198C19.2999 22.1298 19.2899 22.0498 19.27 21.9898C19.1799 21.5998 19.1699 21.1898 19.1699 20.7598C19.1599 20.3298 19.15 19.8798 19.0499 19.4398C19.0399 19.3898 19.0399 19.2998 19.0399 19.2298C19.1799 19.1198 19.2999 18.9198 19.4399 18.6198C21.3199 19.1098 23.0599 19.3698 25.71 19.3698C25.8799 19.3698 26.0599 19.3698 26.2499 19.3598C28.9799 19.3298 30.4799 19.0398 32.53 18.4198C32.5399 18.4498 32.5499 18.4798 32.5599 18.5098C32.6599 18.8298 32.7399 19.0898 32.9 19.1998C32.89 19.2198 32.8799 19.2298 32.8799 19.2498C32.8599 19.2998 32.8499 19.3598 32.83 19.4098C32.7199 19.8998 32.76 20.3598 32.7899 20.8098C32.8199 21.2198 32.8499 21.6198 32.7499 21.9898C32.7399 22.0498 32.7199 22.1298 32.71 22.2198C32.7 22.2798 32.6799 22.3698 32.6599 22.4498C32.5999 22.3998 32.5499 22.3598 32.52 22.3198C32.4399 22.2498 32.3699 22.1898 32.33 22.1598C32.2199 22.0798 32.0699 22.0598 31.9399 22.1098C31.8099 22.1598 31.7199 22.2798 31.7 22.4098C31.6799 22.5298 31.6599 22.6398 31.6299 22.7598C31.58 23.0198 31.53 23.2598 31.52 23.5098C31.52 23.6698 31.4999 23.8298 31.46 23.9798C30.8699 24.1698 30.27 24.3598 29.77 24.4398C28.27 24.6998 25.8599 24.4398 25.84 24.4398C25.7 24.4198 25.5699 24.4598 25.4799 24.5598C25.3799 24.6498 25.33 24.7798 25.34 24.9098L25.4 26.0198C24.7299 25.8798 23.58 25.6398 22.4799 25.3298C21.96 25.1798 21.3499 24.9198 20.78 24.6498C20.6199 24.2698 20.52 23.8998 20.4999 23.5098C20.4999 23.2598 20.45 23.0098 20.39 22.7498C20.3699 22.6398 20.3499 22.5298 20.33 22.4098C20.2999 22.2798 20.21 22.1598 20.08 22.1098C19.95 22.0598 19.8099 22.0798 19.7 22.1598ZM25.4299 42.3998H25.2399C12.0499 42.3998 10.5999 41.2998 10.4699 40.9598C9.83997 39.2698 9.88996 38.6698 10.1199 37.1798C10.8199 33.8098 11.96 33.4298 18.2399 31.3498L20.1799 30.7098C20.2899 30.6698 20.39 30.5798 20.4399 30.4698C20.4899 30.3598 20.4999 30.2398 20.46 30.1198C20.03 28.9798 19.02 26.0798 18.78 24.6798C19.0399 24.7998 19.3799 24.9698 19.6799 25.1098C19.8599 25.1998 20.0499 25.2898 20.2499 25.3898C20.6899 25.5998 21.1699 25.8198 21.6299 25.9998C21.84 26.0798 22.0399 26.1498 22.2399 26.1998C23.5499 26.5698 24.9199 26.8398 25.51 26.9598C25.58 27.2898 25.6899 27.8598 25.83 28.5798C25.8699 28.8298 25.9199 29.0998 25.9699 29.3898C26.2399 30.9498 26.52 32.8898 26.5399 34.3098C26.5699 37.0898 25.7 41.1898 25.4299 42.3998ZM41.52 40.9598C40.96 42.4698 31.3499 42.4298 27.7399 42.3998H26.3499C26.6699 40.9598 27.4699 37.0698 27.4399 34.2998C27.4199 32.8198 27.14 30.8598 26.8699 29.2698C26.8199 28.9998 26.77 28.7298 26.7299 28.4798C26.53 27.4498 26.3699 26.6898 26.33 26.5098L26.27 25.3798C27.0999 25.4398 28.7299 25.5298 29.9199 25.3298C30.28 25.2698 30.6599 25.1698 31.0499 25.0498C31.3099 24.9798 31.5699 24.8898 31.83 24.8098C31.9099 24.7898 31.9899 24.7598 32.0699 24.7398C32.5599 24.5898 33.1299 24.4198 33.4399 24.3898C33.2899 25.4098 32.26 28.3698 31.59 30.1198C31.5499 30.2298 31.5599 30.3598 31.6099 30.4698C31.6599 30.5798 31.7499 30.6698 31.8699 30.7098L33.7299 31.3198C40.1799 33.4698 41.1699 33.7998 41.8799 37.1598C42.1099 38.6698 42.1599 39.2698 41.52 40.9598Z" fill="#B2B2B2"/>
</svg>
