<?xml version="1.0" encoding="utf-8"?>
<!-- Generator: Adobe Illustrator 26.5.0, SVG Export Plug-In . SVG Version: 6.00 Build 0)  -->
<svg version="1.1" id="Warstwa_1" xmlns="http://www.w3.org/2000/svg" xmlns:xlink="http://www.w3.org/1999/xlink" x="0px" y="0px"
	 width="52px" height="52px" viewBox="0 0 52 52" style="enable-background:new 0 0 52 52;" xml:space="preserve">
<g>
	<g>
		<path style="opacity:0.1;fill:#B2B2B2;enable-background:new    ;" d="M26.1200008,3.4099901
			c4.2199993-3.089998,21.2299976,15.8200092,20.4899998,17.1900101c-0.2000008,0.3699989-0.7299995,1.2199993-1.1300011,1.3500004
			C44.75,22.1900005,29.3199997,10.3100004,29.3199997,10.3100004s22.6300011,19.3999977,22.2600021,20.2299995
			c-0.3600006,0.8199997-1.8400002,2.9500008-3.2400017,3.8799973c-1.5400009,1.0200005-14.8699989-6.6499977-14.8699989-6.6499977
			s9.3799973,10.9599991,8.4099998,12.6399994c-1.6900024,2.920002-7.2299995,7.2700005-7.7999992,7.4099998
			c-1.170002,0.2799988-11.0500011-10.8600006-11.5200024-10.2900009c-0.4699993,0.5600014,4.8800011,7.3199997,4.8800011,7.3199997
			s-1,1.9400024-1.5699997,2.5699997C24.6800003,48.7099991-0.469998,28.9599991,0.500002,26.7600002
			C1.09,25.4099998,2.1700001,24.1100006,3.5,22.5200005s1.5799999-1.7299995,2.1399999-1.9200001
			C6.21,20.3999996,28,34.3100014,28,34.3100014S3.52,11.4099998,4.6399999,9.1799898
			C6.1599998,6.1699901,6.77,5.4199901,9.46,3.3999901C11.2799997,2.02999,39.1500015,23.8700008,39.1500015,23.8700008
			S22.5599995,8.7999897,23.3299999,6.7199898c0.5900002-1.5799999,1.4099998-2.3199997,2.7700005-3.3099997H26.1200008z"/>
		<g>
			<defs>
				<rect id="SVGID_1_" x="9" y="8" width="35.5" height="35.4799995"/>
			</defs>
			<clipPath id="SVGID_00000003081672796769591830000001838869133934658962_">
				<use xlink:href="#SVGID_1_"  style="overflow:visible;"/>
			</clipPath>
			<g style="clip-path:url(#SVGID_00000003081672796769591830000001838869133934658962_);">
				<path style="fill-rule:evenodd;clip-rule:evenodd;fill:#FFFFFF;" d="M22.5799999,39.5H10.5c-0.5500002,0-1-0.4500008-1-1v-27
					c0-0.5500002,0.4499998-1,1-1h19c0.5499992,0,1,0.4499998,1,1v20.0300007c0,0.2600002-0.1000004,0.5199986-0.2900009,0.6999989
					l-6.9199982,6.9700012C23.1000004,39.3899994,22.8500004,39.5,22.5799999,39.5L22.5799999,39.5z"/>
				<path style="fill-rule:evenodd;clip-rule:evenodd;fill:#B3B2B2;" d="M10.5,11c-0.2739,0-0.5,0.2261-0.5,0.5v27
					c0,0.2738991,0.2261,0.5,0.5,0.5h12.0799999c0.1294003,0,0.2542-0.0514984,0.3560009-0.1530991
					c0.0001984-0.0002022,0.0002995-0.0003014,0.0003986-0.0004997l6.9188004-6.9687004l0.0109005-0.0107002
					C29.9459991,31.7914009,30,31.6678009,30,31.5300007V11.5c0-0.2739-0.2261009-0.5-0.5-0.5H10.5z M22.5799999,40H10.5
					C9.6738596,40,9,39.3260994,9,38.5v-27c0-0.8261003,0.6738596-1.5,1.5-1.5h19c0.8260994,0,1.5,0.6738997,1.5,1.5v20.0300007
					c0,0.3795986-0.1439991,0.7731991-0.4400005,1.0571003l-6.9151993,6.9651985l-0.0011997,0.0013008
					C23.3654003,39.8316994,22.9904003,40,22.5799999,40z"/>
				<path style="fill-rule:evenodd;clip-rule:evenodd;fill:#D9D9D9;" d="M30,31.5v0.0300007
					c0,0.1299992-0.0499992,0.2600002-0.1499996,0.3499985l-6.9099998,6.9699993C22.8400002,38.9500008,22.7199993,39,22.5799999,39
					H22.5v-6.5c0-0.5499992,0.4500008-1,1-1H30z"/>
				<path style="fill-rule:evenodd;clip-rule:evenodd;fill:#B3B2B2;" d="M21.75,18.5c0-0.2761002,0.2238998-0.5,0.5-0.5h5
					c0.2761002,0,0.5,0.2238998,0.5,0.5s-0.2238998,0.5-0.5,0.5h-5C21.9738998,19,21.75,18.7761002,21.75,18.5z"/>
				<path style="fill-rule:evenodd;clip-rule:evenodd;fill:#B3B2B2;" d="M21.75,26.5c0-0.2761002,0.2238998-0.5,0.5-0.5h5
					c0.2761002,0,0.5,0.2238998,0.5,0.5s-0.2238998,0.5-0.5,0.5h-5C21.9738998,27,21.75,26.7761002,21.75,26.5z"/>
				<path style="fill-rule:evenodd;clip-rule:evenodd;fill:#B3B2B2;" d="M19.8535995,14.1464005
					c0.1952,0.1952991,0.1952,0.5118999,0,0.7071991l-4.5,4.5c-0.1952991,0.1952-0.5118999,0.1952-0.7071991,0l-2.5-2.5
					c-0.1952009-0.1952991-0.1952009-0.5118999,0-0.7071991c0.1952991-0.1952009,0.5118999-0.1952009,0.7071991,0L15,18.2929001
					l4.1464005-4.1464996C19.3416996,13.9511995,19.6583004,13.9511995,19.8535995,14.1464005z"/>
				<path style="fill-rule:evenodd;clip-rule:evenodd;fill:#B3B2B2;" d="M19.8535995,22.1464005
					c0.1952,0.1952991,0.1952,0.5118999,0,0.7071991l-4.5,4.5c-0.1952991,0.1952-0.5118999,0.1952-0.7071991,0l-2.5-2.5
					c-0.1952009-0.1952991-0.1952009-0.5118999,0-0.7071991c0.1952991-0.1952,0.5118999-0.1952,0.7071991,0L15,26.2929001
					l4.1464005-4.1464996C19.3416996,21.9512005,19.6583004,21.9512005,19.8535995,22.1464005z"/>
				<path style="fill:#D9D9D9;" d="M40,9h-4.9900017v12H40V9z"/>
				<path style="fill:#FFFFFF;" d="M39.9900017,20H35v16h4.9900017V20z"/>
				<path style="fill:#B3B2B2;" d="M40,37h-5c-0.5499992,0-1-0.4500008-1-1V9c0-0.5500002,0.4500008-1,1-1h5
					c0.5499992,0,1,0.4499998,1,1v27C41,36.5499992,40.5499992,37,40,37z M35.5,36h4c0.2799988,0,0.5-0.2200012,0.5-0.5v-26
					C40,9.2200003,39.7799988,9,39.5,9h-4C35.2200012,9,35,9.2200003,35,9.5v26C35,35.7799988,35.2200012,36,35.5,36z"/>
				<path style="fill:#D9D9D9;" d="M36,36.5h3v2c0,0.5499992-0.4500008,1-1,1h-1c-0.5499992,0-1-0.4500008-1-1V36.5z"/>
				<path style="fill-rule:evenodd;clip-rule:evenodd;fill:#B3B2B2;" d="M35.5,36.5c0-0.2761002,0.2238998-0.5,0.5-0.5h3
					c0.2761002,0,0.5,0.2238998,0.5,0.5v2c0,0.8260994-0.6739006,1.5-1.5,1.5h-1c-0.8260994,0-1.5-0.6739006-1.5-1.5V36.5z M36.5,37
					v1.5c0,0.2738991,0.2261009,0.5,0.5,0.5h1c0.2738991,0,0.5-0.2261009,0.5-0.5V37H36.5z"/>
				<path style="fill-rule:evenodd;clip-rule:evenodd;fill:#B3B2B2;" d="M37.5,39.5c0.2761002,0,0.5,0.2238998,0.5,0.5v2.9799995
					c0,0.2761002-0.2238998,0.5-0.5,0.5s-0.5-0.2238998-0.5-0.5V40C37,39.7238998,37.2238998,39.5,37.5,39.5z"/>
				<path style="fill-rule:evenodd;clip-rule:evenodd;fill:#B3B2B2;" d="M40,9.5C40,9.2238598,40.2238998,9,40.5,9
					c2.2061005,0,4,1.7938995,4,4v11.5c0,0.2761002-0.2238998,0.5-0.5,0.5s-0.5-0.2238998-0.5-0.5V13c0-1.6539001-1.3460999-3-3-3
					C40.2238998,10,40,9.7761402,40,9.5z"/>
			</g>
		</g>
	</g>
</g>
</svg>
