<svg width="52" height="52" viewBox="0 0 52 52" fill="none" xmlns="http://www.w3.org/2000/svg">
<path d="M28.5 6.34985C21.25 6.34985 15.35 12.2498 15.35 19.4998C15.35 26.7498 21.25 32.6498 28.5 32.6498C35.75 32.6498 41.65 26.7498 41.65 19.4998C41.65 12.2498 35.75 6.34985 28.5 6.34985ZM28.5 31.3499C21.97 31.3499 16.65 26.0298 16.65 19.4998C16.65 12.9698 21.97 7.64984 28.5 7.64984C35.03 7.64984 40.35 12.9698 40.35 19.4998C40.35 26.0298 35.03 31.3499 28.5 31.3499Z" fill="#E5E5E5"/>
<path opacity="0.1" d="M26.1166 3.40694C30.3407 0.313429 47.3435 19.2255 46.6056 20.5979C46.406 20.969 45.8805 21.817 45.4795 21.9465C44.7499 22.1819 29.3149 10.3092 29.3149 10.3092C29.3149 10.3092 51.9447 29.7126 51.5799 30.5351C51.2151 31.3576 49.7401 33.4863 48.3365 34.4193C46.801 35.4399 33.4677 27.7687 33.4677 27.7687C33.4677 27.7687 42.8497 38.7277 41.8732 40.4109C40.1817 43.3266 34.6405 47.6849 34.078 47.8187C32.9044 48.0979 23.0263 36.9621 22.5556 37.5258C22.0849 38.0895 27.4307 44.8469 27.4307 44.8469C27.4307 44.8469 26.4315 46.7892 25.8649 47.413C24.684 48.7132 -0.46664 28.9649 0.4989 26.7556C1.08951 25.4042 2.17198 24.1079 3.49761 22.5204C4.82324 20.9328 5.07305 20.7952 5.64081 20.5979C6.20858 20.4005 28.0054 34.3101 28.0054 34.3101C28.0054 34.3101 3.52931 11.4088 4.64922 9.18425C6.16497 6.17339 6.77643 5.429 9.47348 3.40694C11.2965 2.04021 39.1664 23.873 39.1664 23.873C39.1664 23.873 22.5731 8.80432 23.3504 6.71968C23.9392 5.14044 24.7568 4.40278 26.1166 3.40694Z" fill="#B2B2B2"/>
<path d="M28 33.4898V37.8098C28 38.0098 27.87 38.1998 27.68 38.2798L21 40.7798V34.7498C21 34.4698 20.78 34.2498 20.5 34.2498C20.22 34.2498 20 34.4698 20 34.7498V40.8198L13 38.6398V32.4998C13 32.2198 12.78 31.9998 12.5 31.9998C12.22 31.9998 12 32.2198 12 32.4998V38.6398L5.65002 40.6198C5.5 40.6599 5.33002 40.6398 5.20001 40.5399C5.07001 40.4498 5 40.2998 5 40.1398V21.2398C5 21.0198 5.14001 20.8198 5.34998 20.7598L12.01 18.6798C12 18.6998 12 18.7299 12 18.7498V23.4398C12 23.7198 12.22 23.9398 12.5 23.9398C12.78 23.9398 13 23.7198 13 23.4398V18.7498C13 18.7299 13 18.7198 12.99 18.6998L14.51 19.2198C14.5 19.3198 14.5 19.4099 14.5 19.4998C14.5 27.0598 20.5 33.2299 28 33.4898Z" fill="white"/>
<path d="M41.4 29.9998L39.14 32.2598L37.35 30.4698L37.28 30.3998C38.11 29.7299 38.87 28.9698 39.53 28.1298L39.61 28.2098L41.4 29.9998Z" fill="#E5E5E5"/>
<path d="M47.06 36.0999C47.06 36.3798 46.96 36.6398 46.76 36.8298L45.97 37.6198C45.58 38.0098 44.89 38.0098 44.5 37.6198L39.85 32.9698L42.11 30.7098L46.76 35.3598C46.96 35.5598 47.06 35.8198 47.06 36.0999Z" fill="#E5E5E5"/>
<path d="M28.5 31.5C35.1274 31.5 40.5 26.1274 40.5 19.5C40.5 12.8726 35.1274 7.5 28.5 7.5C21.8726 7.5 16.5 12.8726 16.5 19.5C16.5 26.1274 21.8726 31.5 28.5 31.5Z" fill="white"/>
<path d="M32.5303 23.9269C32.4023 23.9269 32.2744 23.8781 32.1768 23.7805L28.5986 20.2023L25.0205 23.7805C24.8252 23.9758 24.5088 23.9758 24.3135 23.7805C24.1182 23.5851 24.1182 23.2687 24.3135 23.0734L27.8916 19.4953L24.3135 15.9172C24.2158 15.8195 24.167 15.6916 24.167 15.5637C24.167 15.4357 24.2158 15.3078 24.3135 15.2101C24.5088 15.0148 24.8252 15.0148 25.0205 15.2101L28.5986 18.7883L32.1768 15.2101C32.3721 15.0148 32.6885 15.0148 32.8838 15.2101C33.0791 15.4055 33.0791 15.7219 32.8838 15.9172L29.3057 19.4953L32.8838 23.0734C32.9814 23.1711 33.0303 23.299 33.0303 23.4269C33.0303 23.5549 32.9814 23.6828 32.8838 23.7805C32.7861 23.8781 32.6582 23.9269 32.5303 23.9269Z" fill="#B2B2B2"/>
<path d="M9.78003 26.3198C9.69 26.0999 9.45001 25.9799 9.20001 26.0399C8.64001 26.1798 8.16998 26.4799 7.79999 26.9398C7.65002 27.1298 7.65997 27.3999 7.82001 27.5798C7.91998 27.6898 8.06 27.7498 8.19 27.7498C8.28998 27.7498 8.38 27.7199 8.46002 27.6699L9.59003 26.9398C9.79999 26.8098 9.88 26.5498 9.78003 26.3198ZM13.25 26.8399C12.73 26.5899 12.26 26.4099 11.81 26.2598C11.55 26.1798 11.27 26.3198 11.18 26.5698C11.09 26.8198 11.22 27.0999 11.47 27.1998L12.85 27.7498C12.91 27.7799 12.97 27.7899 13.03 27.7899C13.23 27.7899 13.41 27.6798 13.49 27.4898C13.6 27.2398 13.49 26.9498 13.25 26.8399ZM16.41 28.7598L15.48 28.0899C15.48 28.0798 15.47 28.0798 15.47 28.0698C15.35 27.9799 15.24 27.8898 15.12 27.8298C14.89 27.6898 14.6 27.7598 14.45 27.9898C14.31 28.2099 14.36 28.5098 14.58 28.6599L14.88 28.8798C14.97 28.9498 15.06 29.0198 15.13 29.0598L15.82 29.5698C15.91 29.6298 16.01 29.6599 16.12 29.6599C16.27 29.6599 16.42 29.5899 16.52 29.4599C16.68 29.2299 16.63 28.9199 16.41 28.7598ZM7.65002 28.5498C7.39001 28.4898 7.13 28.6599 7.06 28.9298C6.98999 29.2498 6.91998 29.5999 6.88 29.9998C6.84998 30.2698 7.03998 30.5098 7.29999 30.5498C7.33002 30.5598 7.34998 30.5598 7.38 30.5598C7.60999 30.5598 7.83002 30.3798 7.87 30.1398L8.03998 29.1298C8.09003 28.8598 7.90997 28.6098 7.65002 28.5498ZM19.12 30.5399C19.11 30.5399 19.11 30.5399 19.11 30.5399H19.1C18.98 30.4599 18.85 30.3898 18.73 30.3098C18.45 30.1499 18.17 29.9898 17.83 29.8298C17.59 29.7099 17.3 29.8198 17.17 30.0598C17.05 30.2899 17.14 30.5899 17.38 30.7199L18.61 31.4099C18.62 31.4099 18.62 31.4099 18.63 31.4199C18.71 31.4599 18.79 31.4799 18.88 31.4799C19.05 31.4799 19.22 31.3898 19.31 31.2199C19.36 31.1398 19.38 31.0598 19.38 30.9799C19.38 30.7998 19.28 30.6298 19.12 30.5399ZM7.28998 31.6499C7.01001 31.6499 6.78998 31.8698 6.78003 32.1398V32.7598C6.78003 33.0299 7 33.2598 7.27002 33.2598H7.28003C7.54999 33.2598 7.77002 33.0498 7.78003 32.7698V32.1599C7.78003 31.8798 7.57001 31.6599 7.28998 31.6499Z" fill="#B2B2B2"/>
<path d="M28.5 7.49982C22.09 7.49982 16.85 12.5198 16.52 18.8499C16.51 19.0698 16.5 19.2798 16.5 19.4998C16.5 19.6398 16.5 19.7698 16.51 19.9099C16.72 26.1798 21.74 31.2299 28 31.4799C28.17 31.4998 28.33 31.4998 28.5 31.4998C28.67 31.4998 28.83 31.4998 29 31.4799C35.4 31.2299 40.5 25.9598 40.5 19.4998C40.5 12.8698 35.13 7.49982 28.5 7.49982ZM29 30.4898C28.83 30.4998 28.67 30.4998 28.5 30.4998C28.33 30.4998 28.17 30.4998 28 30.4898C22.42 30.2398 17.91 25.8198 17.53 20.2598C17.51 20.0098 17.5 19.7598 17.5 19.4998C17.5 19.3998 17.5 19.2899 17.51 19.1898C17.67 13.2598 22.54 8.49982 28.5 8.49982C34.57 8.49982 39.5 13.4298 39.5 19.4998C39.5 25.3998 34.84 30.2299 29 30.4898Z" fill="#B2B2B2"/>
<path d="M38 20.0002C37.7236 20.0002 37.5 19.7766 37.5 19.5002C37.5 14.5378 33.4629 10.5002 28.5 10.5002C28.2236 10.5002 28 10.2766 28 10.0002C28 9.72382 28.2236 9.50018 28.5 9.50018C34.0137 9.50018 38.5 13.986 38.5 19.5002C38.5 19.7766 38.2764 20.0002 38 20.0002Z" fill="#B2B2B2"/>
<path d="M47.47 34.6498L40.22 27.3998L40.13 27.3098C41.62 25.0798 42.5 22.3898 42.5 19.4998C42.5 11.7698 36.23 5.49982 28.5 5.49982C26.33 5.49982 24.27 5.99982 22.43 6.87982C22.23 6.97986 22.03 7.07983 21.83 7.18982C21.63 7.2998 21.44 7.40985 21.24 7.52985C21.02 7.66986 20.79 7.80981 20.58 7.95984C17.33 10.1798 15.08 13.7498 14.6 17.8598C14.59 17.9698 14.58 18.0698 14.57 18.1798L12.97 17.6298C12.67 17.5298 12.34 17.5298 12.04 17.6198L5.04999 19.7998C4.41998 19.9998 4 20.5798 4 21.2398V40.1398C4 40.6198 4.21997 41.0598 4.60999 41.3499C5 41.6298 5.48999 41.7098 5.95001 41.5698L12.35 39.5698C12.45 39.5399 12.55 39.5399 12.65 39.5698L20.02 41.8798C20.17 41.9199 20.32 41.9398 20.47 41.9398C20.65 41.9398 20.83 41.9099 21 41.8499L28.03 39.2098C28.61 38.9898 29 38.4298 29 37.8098V33.4799C29.03 33.4898 29.07 33.4799 29.1 33.4799C31.83 33.3698 34.36 32.4698 36.47 31.0098L43.79 38.3298C44.17 38.7098 44.69 38.9298 45.23 38.9298C45.78 38.9298 46.29 38.7098 46.68 38.3298L47.47 37.5399C47.85 37.1599 48.06 36.6398 48.06 36.0999C48.06 35.5498 47.85 35.0399 47.47 34.6498ZM28 37.8098C28 38.0098 27.87 38.1998 27.68 38.2798L21 40.7798V34.7498C21 34.4698 20.78 34.2498 20.5 34.2498C20.22 34.2498 20 34.4698 20 34.7498V40.8198L13 38.6398V32.4998C13 32.2198 12.78 31.9998 12.5 31.9998C12.22 31.9998 12 32.2198 12 32.4998V38.6398L5.65002 40.6198C5.5 40.6599 5.33002 40.6398 5.20001 40.5399C5.07001 40.4498 5 40.2998 5 40.1398V21.2398C5 21.0198 5.14001 20.8198 5.34998 20.7598L12.01 18.6798C12 18.6998 12 18.7299 12 18.7498V23.4398C12 23.7198 12.22 23.9398 12.5 23.9398C12.78 23.9398 13 23.7198 13 23.4398V18.7498C13 18.7299 13 18.7198 12.99 18.6998L14.51 19.2198C14.5 19.3198 14.5 19.4099 14.5 19.4998C14.5 27.0598 20.5 33.2299 28 33.4898V37.8098ZM29.06 32.4799H29C28.86 32.4998 28.72 32.4998 28.58 32.4998H28.5C28.33 32.4998 28.17 32.4998 28 32.4898C21.08 32.2299 15.53 26.5399 15.5 19.5598V19.4998C15.5 19.3298 15.5 19.1599 15.52 18.9898V18.9199C15.52 18.7899 15.53 18.6498 15.54 18.5098C15.55 18.3499 15.57 18.1699 15.59 17.9799C16.03 14.2498 18.05 10.8998 21.16 8.76984C21.31 8.66986 21.47 8.56982 21.63 8.46985L21.75 8.38983C21.94 8.26984 22.12 8.16986 22.31 8.06982C22.5 7.95984 22.69 7.86981 22.86 7.77985C24.64 6.92981 26.54 6.49982 28.5 6.49982C35.67 6.49982 41.5 12.3298 41.5 19.4998C41.5 22.0898 40.74 24.5999 39.32 26.7299C39.12 26.9998 38.93 27.2598 38.74 27.5098C38.14 28.2798 37.44 28.9898 36.65 29.6198C36.45 29.7899 36.18 29.9998 35.9 30.1898C33.88 31.5898 31.51 32.3798 29.06 32.4799ZM37.35 30.4698L37.28 30.3998C38.11 29.7299 38.87 28.9698 39.53 28.1298L39.61 28.2098L41.4 29.9998L39.14 32.2598L37.35 30.4698ZM46.76 36.8298L45.97 37.6198C45.58 38.0098 44.89 38.0098 44.5 37.6198L39.85 32.9698L42.11 30.7098L46.76 35.3598C46.96 35.5598 47.06 35.8198 47.06 36.0999C47.06 36.3798 46.96 36.6398 46.76 36.8298Z" fill="#B2B2B2"/>
</svg>
