<svg width="53" height="52" viewBox="0 0 53 52" fill="none" xmlns="http://www.w3.org/2000/svg">
<path opacity="0.1" d="M26.6166 3.4068C30.8407 0.313297 47.8435 19.2253 47.1056 20.5978C46.906 20.9689 46.3805 21.8169 45.9795 21.9463C45.2499 22.1818 29.8149 10.3091 29.8149 10.3091C29.8149 10.3091 52.4447 29.7124 52.0799 30.535C51.7151 31.3575 50.2401 33.4862 48.8365 34.4192C47.301 35.4398 33.9677 27.7686 33.9677 27.7686C33.9677 27.7686 43.3497 38.7276 42.3732 40.4108C40.6817 43.3265 35.1405 47.6847 34.578 47.8185C33.4044 48.0977 23.5263 36.962 23.0556 37.5257C22.5849 38.0894 27.9307 44.8468 27.9307 44.8468C27.9307 44.8468 26.9315 46.789 26.3649 47.4129C25.184 48.7131 0.033392 28.9648 0.998932 26.7555C1.58954 25.4041 2.67201 24.1077 3.99764 22.5202C5.32327 20.9327 5.57308 20.7951 6.14084 20.5978C6.70861 20.4004 28.5054 34.31 28.5054 34.31C28.5054 34.31 4.02934 11.4087 5.14925 9.18412C6.665 6.17326 7.27646 5.42887 9.97351 3.40681C11.7965 2.04008 39.6664 23.8729 39.6664 23.8729C39.6664 23.8729 23.0731 8.80419 23.8504 6.71954C24.4392 5.14031 25.2568 4.40265 26.6166 3.4068Z" fill="#B2B2B2"/>
<path fill-rule="evenodd" clip-rule="evenodd" d="M29.3199 7.8999H8.3399C7.24988 7.8999 6.35986 8.79987 6.35986 9.8999V23.5499C6.35986 24.6399 7.23987 25.5099 8.3399 25.5099H9.31989C9.46985 25.5099 9.60986 25.5799 9.7099 25.6899C9.79987 25.7999 9.8399 25.9499 9.81989 26.0999L8.94989 30.9799L13.1899 28.1799L14.1899 27.5199L17.0999 25.5999C17.1799 25.5399 17.2699 25.5099 17.3699 25.5099H29.3199C30.3999 25.5099 31.2399 24.6499 31.2399 23.5499V9.8999C31.2399 8.77991 30.3899 7.8999 29.3199 7.8999ZM19.7799 20.9799H9.59985V16.9099H19.7799V20.9799ZM28.2699 15.2099H9.59985V10.7999H28.2699V15.2099Z" fill="white"/>
<path fill-rule="evenodd" clip-rule="evenodd" d="M33.4999 27.0001L32.2399 14.7099V9.8999C32.2399 8.2699 30.9698 6.8999 29.3199 6.8999H8.3399C6.68988 6.8999 5.35986 8.24988 5.35986 9.8999V23.5499C5.35986 25.1999 6.69989 26.5099 8.3399 26.5099H8.72986L7.92987 31.0499C7.91986 31.0799 7.91986 31.1099 7.91986 31.1399C7.91986 31.8799 8.72986 32.2999 9.3399 31.9199L13.1899 29.3699L14.1899 28.7099L33.4999 27.0001ZM8.94989 30.9799L9.81989 26.0999C9.8399 25.9499 9.79987 25.7999 9.7099 25.6899C9.60986 25.5799 9.46985 25.5099 9.31989 25.5099H8.3399C7.23987 25.5099 6.35986 24.6399 6.35986 23.5499V9.8999C6.35986 8.79987 7.24988 7.8999 8.3399 7.8999H29.3199C30.3899 7.8999 31.2399 8.77991 31.2399 9.8999V23.5499C31.2399 24.6499 30.3999 25.5099 29.3199 25.5099H17.3699C17.2699 25.5099 17.1799 25.5399 17.0999 25.5999L14.1899 27.5199L13.1899 28.1799L8.94989 30.9799ZM33.4999 27.0001L14.1899 28.7099L17.5199 26.5099H29.3199C30.9698 26.5099 32.2399 25.1899 32.2399 23.5499V14.7099L33.4999 27.0001Z" fill="#B2B2B2"/>
<path d="M9.59546 10.7959H28.273V15.2106H9.59546V10.7959Z" fill="#EDEDED"/>
<path d="M9.59546 16.9087H19.7832V20.9838H9.59546V16.9087Z" fill="#EDEDED"/>
<path d="M27.9381 13.4209C20.6881 13.4209 14.7881 19.3209 14.7881 26.5709C14.7881 33.8209 20.6881 39.7209 27.9381 39.7209C35.1881 39.7209 41.0881 33.8209 41.0881 26.5709C41.0881 19.3209 35.1881 13.4209 27.9381 13.4209ZM27.9381 38.4209C21.4081 38.4209 16.0881 33.1009 16.0881 26.5709C16.0881 20.0409 21.4081 14.7209 27.9381 14.7209C34.4681 14.7209 39.7881 20.0409 39.7881 26.5709C39.7881 33.1009 34.4681 38.4209 27.9381 38.4209Z" fill="#E5E5E5"/>
<path d="M27.938 38.5713C34.5654 38.5713 39.938 33.1987 39.938 26.5713C39.938 19.9439 34.5654 14.5713 27.938 14.5713C21.3106 14.5713 15.938 19.9439 15.938 26.5713C15.938 33.1987 21.3106 38.5713 27.938 38.5713Z" fill="white"/>
<path d="M31.9683 30.998C31.8403 30.998 31.7124 30.9492 31.6147 30.8516L28.0366 27.2734L24.4585 30.8516C24.2632 31.0469 23.9468 31.0469 23.7515 30.8516C23.5562 30.6562 23.5562 30.3398 23.7515 30.1445L27.3296 26.5664L23.7515 22.9883C23.6538 22.8906 23.605 22.7627 23.605 22.6348C23.605 22.5068 23.6538 22.3789 23.7515 22.2812C23.9468 22.0859 24.2632 22.0859 24.4585 22.2812L28.0366 25.8594L31.6147 22.2812C31.8101 22.0859 32.1265 22.0859 32.3218 22.2812C32.5171 22.4766 32.5171 22.793 32.3218 22.9883L28.7437 26.5664L32.3218 30.1445C32.4194 30.2422 32.4683 30.3701 32.4683 30.498C32.4683 30.626 32.4194 30.7539 32.3218 30.8516C32.2241 30.9492 32.0962 30.998 31.9683 30.998Z" fill="#B2B2B2"/>
<path d="M27.938 14.5708C21.528 14.5708 16.288 19.5908 15.958 25.9208C15.948 26.1408 15.938 26.3508 15.938 26.5708C15.938 26.7108 15.938 26.8408 15.948 26.9808C16.158 33.2508 21.178 38.3008 27.438 38.5508C27.608 38.5708 27.768 38.5708 27.938 38.5708C28.108 38.5708 28.268 38.5708 28.438 38.5508C34.838 38.3008 39.938 33.0308 39.938 26.5708C39.938 19.9408 34.568 14.5708 27.938 14.5708ZM28.438 37.5608C28.268 37.5708 28.108 37.5708 27.938 37.5708C27.768 37.5708 27.608 37.5708 27.438 37.5608C21.858 37.3108 17.348 32.8908 16.968 27.3308C16.948 27.0808 16.938 26.8308 16.938 26.5708C16.938 26.4708 16.938 26.3608 16.948 26.2608C17.108 20.3308 21.978 15.5708 27.938 15.5708C34.008 15.5708 38.938 20.5008 38.938 26.5708C38.938 32.4708 34.278 37.3008 28.438 37.5608Z" fill="#B2B2B2"/>
<path d="M37.438 27.0713C37.1616 27.0713 36.938 26.8477 36.938 26.5713C36.938 21.6089 32.9009 17.5713 27.938 17.5713C27.6616 17.5713 27.438 17.3477 27.438 17.0713C27.438 16.7949 27.6616 16.5713 27.938 16.5713C33.4517 16.5713 37.938 21.0571 37.938 26.5713C37.938 26.8477 37.7144 27.0713 37.438 27.0713Z" fill="#B2B2B2"/>
<path d="M36.72 37.4697C37.55 36.7997 38.31 36.0397 38.97 35.1997L39.05 35.2797L40.84 37.0697L38.58 39.3297L36.79 37.5397L36.72 37.4697Z" fill="#E5E5E5"/>
<path d="M39.29 40.0398L41.55 37.7798L46.2001 42.4297C46.4001 42.6298 46.5001 42.8898 46.5001 43.1698C46.5001 43.4498 46.4001 43.7098 46.2001 43.8998L45.41 44.6898C45.0201 45.0798 44.3301 45.0798 43.9401 44.6898L39.29 40.0398Z" fill="#E5E5E5"/>
<path d="M28.498 39.551H28.438C28.298 39.571 28.158 39.571 28.018 39.571H27.938C27.768 39.571 27.608 39.571 27.438 39.561C20.518 39.301 14.968 33.611 14.938 26.631V26.571C14.938 26.401 14.938 26.231 14.958 26.061V25.9911C14.958 25.861 14.968 25.721 14.978 25.581C14.988 25.421 15.008 25.2411 15.028 25.0511C15.468 21.321 17.488 17.971 20.598 15.841C20.748 15.7411 20.908 15.641 21.068 15.541L21.188 15.461C21.378 15.341 21.558 15.2411 21.748 15.141C21.938 15.031 22.128 14.941 22.298 14.851C24.078 14.001 25.978 13.571 27.938 13.571C35.108 13.571 40.938 19.401 40.938 26.571C40.938 29.161 40.178 31.671 38.758 33.801C38.558 34.071 38.368 34.331 38.178 34.581C37.578 35.351 36.878 36.061 36.088 36.691C35.888 36.861 35.618 37.071 35.338 37.261C33.318 38.661 30.948 39.451 28.498 39.551ZM36.788 37.541L36.718 37.471C37.548 36.801 38.308 36.041 38.968 35.201L39.048 35.281L40.838 37.071L38.578 39.331L36.788 37.541ZM46.198 43.901L45.408 44.691C45.018 45.081 44.328 45.081 43.938 44.691L39.288 40.041L41.548 37.781L46.198 42.431C46.398 42.631 46.498 42.891 46.498 43.171C46.498 43.451 46.398 43.711 46.198 43.901ZM46.9099 41.7198L39.6599 34.4698L39.5699 34.3798C39.6899 34.1998 39.8099 34.0098 39.9099 33.8198C40.02 33.6498 40.1199 33.4799 40.22 33.2999C40.3799 32.9998 40.5399 32.6898 40.6799 32.3698C40.78 32.1798 40.8599 31.9799 40.9299 31.7798C40.95 31.7299 40.9799 31.6798 40.9899 31.6198C41.1099 31.3298 41.21 31.0298 41.3099 30.7299C41.3599 30.5698 41.4099 30.3998 41.45 30.2299C41.4999 30.0598 41.5399 29.8898 41.58 29.7198C41.6199 29.5499 41.6599 29.3798 41.6899 29.2098C41.8499 28.3499 41.9399 27.4698 41.9399 26.5698C41.9399 22.7098 40.3699 19.2098 37.84 16.6798C37.53 16.3599 37.1899 16.0598 36.84 15.7698C36.3199 15.3398 35.77 14.9498 35.2 14.5999C34.0399 13.8998 32.78 13.3599 31.4299 13.0098C30.9899 12.8998 30.53 12.7999 30.0699 12.7299C29.3699 12.6298 28.6599 12.5698 27.9399 12.5698C27.7 12.5698 27.46 12.5798 27.22 12.5898C27.0699 12.5999 26.9099 12.6099 26.7599 12.6198C26.4199 12.6498 26.08 12.6898 25.7399 12.7399C25.53 12.7798 25.33 12.8098 25.1199 12.8599C24.96 12.8898 24.7999 12.9199 24.64 12.9698C24.4299 13.0098 24.2299 13.0698 24.03 13.1298C23.8499 13.1798 23.6699 13.2299 23.4999 13.2899C22.2899 13.6998 21.15 14.2598 20.1199 14.9698C20.08 14.9799 20.0499 15.0098 20.02 15.0298C19.8699 15.1298 19.72 15.2399 19.5699 15.3599C19.39 15.4899 19.21 15.6298 19.0399 15.7698C18.8599 15.9199 18.6899 16.0598 18.53 16.2198C18.3599 16.3698 18.2 16.5198 18.0399 16.6798C17.8799 16.8398 17.7299 16.9998 17.58 17.1699C17.4299 17.3298 17.28 17.4998 17.14 17.6699C16.9999 17.8398 16.8599 18.0198 16.72 18.1998C16.59 18.3798 16.46 18.5598 16.33 18.7498C16.08 19.1198 15.84 19.5098 15.6299 19.8998C15.52 20.0999 15.4199 20.2999 15.3199 20.5098C15.22 20.7098 15.1299 20.9199 15.0399 21.1298C14.9799 21.2798 14.9099 21.4298 14.8599 21.5898C14.7 21.9899 14.5699 22.3898 14.46 22.8098C14.4 23.0098 14.3499 23.2098 14.2999 23.4199C14.2399 23.6699 14.1899 23.9199 14.15 24.1699C14.1099 24.4199 14.0699 24.6699 14.0399 24.9298C14.03 25.0399 14.02 25.1398 14.0099 25.2498H13.9999C13.97 25.5898 13.95 25.9398 13.95 26.2899C13.9399 26.3798 13.9399 26.4799 13.9399 26.5698C13.9399 27.7798 14.09 28.9498 14.3799 30.0598C14.4399 30.2899 14.4999 30.5098 14.5699 30.7299C14.72 31.1998 14.89 31.6599 15.09 32.1099C15.1599 32.2899 15.2399 32.4598 15.3199 32.6298C15.4299 32.8599 15.5399 33.0698 15.6599 33.2899C15.7599 33.4698 15.8599 33.6498 15.97 33.8198C16.33 34.4099 16.7299 34.9698 17.1699 35.4998C17.2999 35.6599 17.4399 35.8198 17.58 35.9698C17.72 36.1298 17.8599 36.2798 17.9999 36.4199C18.3699 36.7899 18.7499 37.1398 19.15 37.4498C19.2899 37.5698 19.4299 37.6798 19.5699 37.7798C19.7499 37.9199 19.9299 38.0499 20.1199 38.1699C20.28 38.2798 20.4399 38.3898 20.5999 38.4899C21.21 38.8599 21.84 39.1898 22.4999 39.4698C22.6799 39.5499 22.8699 39.6198 23.0599 39.6898C23.4199 39.8298 23.7999 39.9498 24.1799 40.0499C24.34 40.0999 24.4999 40.1398 24.6599 40.1798C24.9299 40.2498 25.2 40.2999 25.4799 40.3499C25.6699 40.3898 25.8599 40.4199 26.0499 40.4398C26.2499 40.4698 26.46 40.4899 26.6599 40.5098C26.9199 40.5399 27.1799 40.5499 27.4399 40.5598C27.6099 40.5698 27.77 40.5698 27.9399 40.5698C28.1099 40.5698 28.27 40.5698 28.4399 40.5598V40.5499C28.47 40.5598 28.5099 40.5499 28.5399 40.5499C29.22 40.5198 29.89 40.4498 30.5399 40.3198C30.95 40.2498 31.3499 40.1599 31.7399 40.0399C31.96 39.9799 32.1799 39.9099 32.4 39.8398C32.4299 39.8298 32.47 39.8198 32.4999 39.7999C32.7899 39.7098 33.08 39.5898 33.3699 39.4698C33.3799 39.4698 33.3799 39.4698 33.3799 39.4698C33.6599 39.3499 33.9299 39.2299 34.1899 39.0999C34.2399 39.0698 34.2999 39.0399 34.3599 39.0098C34.58 38.8998 34.7899 38.7798 34.9999 38.6599C35.2599 38.5098 35.5099 38.3398 35.7599 38.1699C35.8099 38.1498 35.8599 38.1099 35.9099 38.0798L43.2299 45.3998C43.6099 45.7798 44.1299 45.9998 44.6699 45.9998C45.22 45.9998 45.7299 45.7798 46.1199 45.3998L46.9099 44.6099C47.2899 44.2299 47.4999 43.7098 47.4999 43.1699C47.4999 42.6198 47.2899 42.1099 46.9099 41.7198Z" fill="#B2B2B2"/>
</svg>
