<svg width="80" height="80" viewBox="0 0 80 80" fill="none" xmlns="http://www.w3.org/2000/svg">
<path opacity="0.1" d="M40.1794 5.24146C46.678 0.482212 72.8362 29.5777 71.7009 31.6891C71.3938 32.26 70.5854 33.5646 69.9685 33.7639C68.846 34.126 45.0998 15.8603 45.0998 15.8603C45.0998 15.8603 79.9149 45.7117 79.3537 46.9771C78.7925 48.2425 76.5232 51.5174 74.3638 52.9528C72.0015 54.523 51.4888 42.7211 51.4888 42.7211C51.4888 42.7211 65.9226 59.5811 64.4203 62.1706C61.818 66.6563 53.2931 73.3614 52.4277 73.5673C50.6222 73.9968 35.4251 56.8648 34.7009 57.732C33.9768 58.5993 42.2011 68.9953 42.2011 68.9953C42.2011 68.9953 40.6638 71.9834 39.7921 72.9431C37.9754 74.9434 -0.717866 44.5614 0.76758 41.1625C1.67621 39.0834 3.34155 37.0891 5.38098 34.6468C7.42041 32.2043 7.80473 31.9926 8.67821 31.6891C9.5517 31.3854 43.0852 52.7848 43.0852 52.7848C43.0852 52.7848 5.42975 17.552 7.15268 14.1296C9.48461 9.49754 10.4253 8.35232 14.5746 5.24146C17.3792 3.1388 60.256 36.7277 60.256 36.7277C60.256 36.7277 34.7278 13.5451 35.9237 10.338C36.8295 7.90838 38.0874 6.77352 40.1794 5.24146Z" fill="#B2B2B2"/>
<path d="M60 61.5385H27.6923C26.8426 61.5385 26.1538 62.2272 26.1538 63.0769C26.1538 63.9266 26.8426 64.6154 27.6923 64.6154H60C60.8497 64.6154 61.5384 63.9266 61.5384 63.0769C61.5384 62.2272 60.8497 61.5385 60 61.5385Z" fill="#D9D9D9"/>
<path d="M47.6923 46.1539H27.6923C26.8426 46.1539 26.1539 46.8426 26.1539 47.6923C26.1539 48.542 26.8426 49.2308 27.6923 49.2308H47.6923C48.542 49.2308 49.2308 48.542 49.2308 47.6923C49.2308 46.8426 48.542 46.1539 47.6923 46.1539Z" fill="#D9D9D9"/>
<path d="M35.3846 40L27.6923 40C26.8426 40 26.1539 40.6888 26.1539 41.5385C26.1539 42.3882 26.8426 43.0769 27.6923 43.0769H35.3846C36.2343 43.0769 36.9231 42.3882 36.9231 41.5385C36.9231 40.6888 36.2343 40 35.3846 40Z" fill="#D9D9D9"/>
<path d="M40 23.077L27.6923 23.077C26.8426 23.077 26.1539 23.7657 26.1539 24.6154C26.1539 25.4651 26.8426 26.1539 27.6923 26.1539H40C40.8497 26.1539 41.5385 25.4651 41.5385 24.6154C41.5385 23.7657 40.8497 23.077 40 23.077Z" fill="#D9D9D9"/>
<path d="M60 55.3846L27.6923 55.3846C26.8426 55.3846 26.1539 56.0734 26.1539 56.9231C26.1539 57.7728 26.8426 58.4616 27.6923 58.4616H60C60.8497 58.4616 61.5385 57.7728 61.5385 56.9231C61.5385 56.0734 60.8497 55.3846 60 55.3846Z" fill="#D9D9D9"/>
<path d="M35.3846 29.2308H27.6923C26.8426 29.2308 26.1539 29.9195 26.1539 30.7692C26.1539 31.6189 26.8426 32.3077 27.6923 32.3077H35.3846C36.2343 32.3077 36.9231 31.6189 36.9231 30.7692C36.9231 29.9195 36.2343 29.2308 35.3846 29.2308Z" fill="#D9D9D9"/>
<path fill-rule="evenodd" clip-rule="evenodd" d="M22.8517 55.6099C23.152 55.9103 23.152 56.3974 22.8517 56.6979L15.9286 63.6209C15.6282 63.9213 15.1411 63.9213 14.8406 63.6209L10.9945 59.7748C10.6941 59.4743 10.6941 58.9873 10.9945 58.6868C11.2949 58.3865 11.782 58.3865 12.0825 58.6868L15.3846 61.9891L21.7637 55.6099C22.0641 55.3096 22.5512 55.3096 22.8517 55.6099Z" fill="#B3B2B2"/>
<path fill-rule="evenodd" clip-rule="evenodd" d="M22.8517 40.2252C23.152 40.5257 23.152 41.0128 22.8517 41.3132L15.9286 48.2363C15.6282 48.5366 15.1411 48.5366 14.8406 48.2363L10.9945 44.3902C10.6941 44.0897 10.6941 43.6026 10.9945 43.3022C11.2949 43.0018 11.782 43.0018 12.0825 43.3022L15.3846 46.6045L21.7637 40.2252C22.0641 39.9249 22.5512 39.9249 22.8517 40.2252Z" fill="#B3B2B2"/>
<path fill-rule="evenodd" clip-rule="evenodd" d="M22.8517 23.3021C23.152 23.6026 23.152 24.0897 22.8517 24.3901L15.9286 31.3132C15.6282 31.6135 15.1411 31.6135 14.8406 31.3132L10.9945 27.4671C10.6941 27.1666 10.6941 26.6795 10.9945 26.3791C11.2949 26.0788 11.782 26.0788 12.0825 26.3791L15.3846 29.6814L21.7637 23.3021C22.0641 23.0018 22.5512 23.0018 22.8517 23.3021Z" fill="#B3B2B2"/>
<path fill-rule="evenodd" clip-rule="evenodd" d="M50.3586 3.53516C50.5305 3.92368 50.3549 4.37796 49.9663 4.54981C47.7527 5.52897 45.6923 6.95569 43.9242 8.82732C42.1248 10.7323 40.8036 12.9171 39.953 15.2305C39.8063 15.6292 39.3643 15.8336 38.9655 15.687C38.5668 15.5404 38.3624 15.0983 38.509 14.6995C39.4298 12.1954 40.8602 9.83071 42.8058 7.77087C44.7168 5.74799 46.9467 4.20324 49.344 3.14284C49.7325 2.97099 50.1868 3.14664 50.3586 3.53516Z" fill="#C5C5C5"/>
<path fill-rule="evenodd" clip-rule="evenodd" d="M51.8307 9.04021C51.6645 8.6851 51.237 8.53756 50.8803 8.6867C49.3121 9.34227 47.8528 10.2976 46.602 11.549L46.602 11.549C45.3282 12.8235 44.3909 14.2877 43.7872 15.8392C43.642 16.2125 43.8496 16.6122 44.2201 16.741C44.5853 16.8679 45.0034 16.6954 45.1458 16.3292C45.6812 14.953 46.5132 13.6524 47.6475 12.5173C48.7624 11.402 50.0617 10.5515 51.4584 9.96757C51.8212 9.81594 52.0005 9.40307 51.8307 9.04021Z" fill="#C5C5C5"/>
<path fill-rule="evenodd" clip-rule="evenodd" d="M67.5083 3.53516C67.3364 3.92368 67.5121 4.37796 67.9006 4.54981C70.1143 5.52897 72.1746 6.95569 73.9427 8.82732C75.7421 10.7323 77.0633 12.9171 77.914 15.2305C78.0606 15.6292 78.5027 15.8336 78.9014 15.687C79.3002 15.5404 79.5045 15.0983 79.3579 14.6995C78.4371 12.1954 77.0068 9.83071 75.0611 7.77087C73.1501 5.74799 70.9203 4.20324 68.5229 3.14284C68.1344 2.97099 67.6801 3.14664 67.5083 3.53516Z" fill="#C5C5C5"/>
<path fill-rule="evenodd" clip-rule="evenodd" d="M66.0362 9.04021C66.2024 8.6851 66.63 8.53756 66.9867 8.6867C68.5548 9.34227 70.0141 10.2976 71.265 11.549L71.265 11.549C72.5387 12.8235 73.4761 14.2877 74.0797 15.8392C74.2249 16.2125 74.0173 16.6122 73.6469 16.741C73.2816 16.8679 72.8636 16.6954 72.7211 16.3292C72.1857 14.953 71.3538 13.6524 70.2194 12.5173C69.1046 11.402 67.8052 10.5515 66.4085 9.96757C66.0458 9.81594 65.8664 9.40307 66.0362 9.04021Z" fill="#C5C5C5"/>
<path d="M62.9736 38.6154C62.9736 41.1846 60.8395 42.8571 58.3692 42.8571C55.8989 42.8571 53.8307 41.1824 53.8307 38.6154" fill="#E5E5E5"/>
<path fill-rule="evenodd" clip-rule="evenodd" d="M53.8308 37.8461C54.2556 37.8461 54.6 38.1905 54.6 38.6154C54.6 40.6799 56.2417 42.0879 58.3692 42.0879C60.5121 42.0879 62.2044 40.6685 62.2044 38.6154C62.2044 38.1905 62.5488 37.8461 62.9736 37.8461C63.3984 37.8461 63.7428 38.1905 63.7428 38.6154C63.7428 41.7006 61.167 43.6264 58.3692 43.6264C55.5561 43.6264 53.0615 41.6848 53.0615 38.6154C53.0615 38.1905 53.4059 37.8461 53.8308 37.8461Z" fill="#B2B2B2"/>
<path d="M74.2791 35.3165C71.9494 32.8022 68.0154 27.3538 68.0154 23.1538C68.0154 19.1846 65.3714 15.8 61.6615 14.4901C61.6923 14.3011 61.7121 14.1099 61.7121 13.9099C61.7121 12.0527 60.2549 10.5494 58.4593 10.5494C56.6637 10.5494 55.2066 12.0549 55.2066 13.9099C55.2066 14.0637 55.2198 14.2132 55.2395 14.3626C51.3274 15.567 48.4967 19.0461 48.4967 23.1516C48.4967 29.033 44.6154 32.6176 42.4373 35.4198C40.2395 37.7033 53.9318 38.7165 58.3582 38.7165C62.7846 38.7165 76.6088 37.8286 74.2791 35.3165Z" fill="#EDEDED"/>
<path fill-rule="evenodd" clip-rule="evenodd" d="M54.4382 13.8222C54.4835 11.6056 56.2445 9.78015 58.4592 9.78015C60.7028 9.78015 62.4812 11.6513 62.4812 13.9098C62.4812 13.9338 62.481 13.9577 62.4806 13.9814C66.1723 15.5225 68.7845 19.0332 68.7845 23.1538C68.7845 25.047 69.6842 27.3145 70.9392 29.4818C72.1819 31.6278 73.7122 33.5729 74.8431 34.7934C75.0521 35.0188 75.2306 35.2986 75.2902 35.6342C75.353 35.9881 75.2678 36.3163 75.0996 36.5883C74.8006 37.0718 74.2344 37.3895 73.695 37.6165C72.5594 38.0942 70.8264 38.451 68.9619 38.7198C65.201 39.262 60.601 39.4856 58.3581 39.4856C56.1106 39.4856 51.5438 39.23 47.8029 38.6856C45.9462 38.4154 44.2247 38.0649 43.0904 37.6127C42.5535 37.3987 41.9912 37.1038 41.679 36.6587C41.5022 36.4066 41.3912 36.0845 41.4441 35.7221C41.4917 35.3955 41.6593 35.1281 41.8523 34.9189C42.2032 34.4687 42.5856 34.0091 42.9813 33.5333C45.1529 30.9227 47.7274 27.8278 47.7274 23.1516C47.7274 18.8819 50.533 15.2694 54.4382 13.8222ZM58.4592 11.3186C57.1119 11.3186 55.9757 12.4559 55.9757 13.9098C55.9757 14.0198 55.9851 14.1339 56.002 14.2616C56.0513 14.6339 55.8247 14.9873 55.4658 15.0977C51.8434 16.2129 49.2658 19.417 49.2658 23.1516C49.2658 28.4362 46.2731 32.0089 44.0978 34.6056C43.7189 35.0579 43.3648 35.4806 43.0557 35.8776C43.1629 35.9532 43.351 36.0604 43.6601 36.1836C44.6133 36.5637 46.1794 36.8946 48.0244 37.1632C51.6868 37.6962 56.1793 37.9472 58.3581 37.9472C60.5417 37.9472 65.067 37.7269 68.7423 37.1971C70.5959 36.9299 72.1588 36.5937 73.0984 36.1984C73.4484 36.0512 73.6345 35.9265 73.7241 35.8495C73.7212 35.8462 73.7182 35.8429 73.715 35.8395L73.7148 35.8392C72.516 34.5454 70.9145 32.5093 69.6079 30.2527C68.3134 28.0173 67.2461 25.4605 67.2461 23.1538C67.2461 19.5424 64.8388 16.4277 61.4053 15.2154C61.0543 15.0914 60.8424 14.7339 60.9022 14.3664C60.9281 14.2073 60.9428 14.0586 60.9428 13.9098C60.9428 12.454 59.8069 11.3186 58.4592 11.3186ZM42.9488 36.0048C42.9488 36.0048 42.949 36.0043 42.9496 36.0034L42.9488 36.0048Z" fill="#B2B2B2"/>
</svg>
