<?xml version="1.0" encoding="utf-8"?>
<!-- Generator: Adobe Illustrator 26.5.0, SVG Export Plug-In . SVG Version: 6.00 Build 0)  -->
<svg version="1.1" id="Warstwa_1" xmlns="http://www.w3.org/2000/svg" xmlns:xlink="http://www.w3.org/1999/xlink" x="0px" y="0px"
	 width="52px" height="52px" viewBox="0 0 52 52" style="enable-background:new 0 0 52 52;" xml:space="preserve">
<g>
	<path style="opacity:0.1;fill:#B2B2B2;enable-background:new    ;" d="M26.1166,3.40693
		c4.2241001-3.0935109,21.2268982,15.8185701,20.4889984,17.1909714c-0.1996002,0.3710995-0.7250977,1.219099-1.1260986,1.3486004
		C44.7499008,22.1819,29.3148994,10.3092003,29.3148994,10.3092003s22.6297989,19.4034004,22.2649994,20.2259007
		c-0.3647995,0.8224983-1.839798,2.9512005-3.2434006,3.8841991c-1.5354996,1.0205994-14.8687973-6.6506004-14.8687973-6.6506004
		s9.382,10.9589996,8.4054985,12.6422005c-1.6914978,2.915699-7.2327003,7.2739983-7.7952003,7.4077988
		c-1.1735992,0.2792015-11.0516987-10.8565979-11.5223999-10.2929001c-0.4706993,0.5637016,4.8751011,7.3211021,4.8751011,7.3211021
		s-0.9992008,1.9422989-1.5657997,2.5660973C24.684,48.7131996-0.466608,28.9648991,0.498932,26.7556
		c0.590608-1.3514004,1.6730779-2.6476994,2.9987078-4.2352009c1.3256299-1.5875988,1.5754402-1.7251987,2.1432002-1.9224987
		c0.56777-0.197401,22.3645592,13.7122002,22.3645592,13.7122002S3.52934,11.4088001,4.64925,9.1842403
		C6.165,6.1733799,6.7764602,5.4289899,9.4735098,3.40693c1.8229904-1.36673,29.6928902,20.4660683,29.6928902,20.4660683
		s-16.5933018-15.0686893-15.816-17.1533298C23.9391994,5.14043,24.7567997,4.40277,26.1166,3.40693z"/>
	<path style="fill-rule:evenodd;clip-rule:evenodd;fill:#B3B2B2;" d="M6,16.5C6,16.2238998,6.2238598,16,6.5,16h39
		c0.2761002,0,0.5,0.2238998,0.5,0.5S45.7761002,17,45.5,17h-39C6.2238598,17,6,16.7761002,6,16.5z"/>
	<path style="fill-rule:evenodd;clip-rule:evenodd;fill:#B3B2B2;" d="M6,16.5C6,16.2238998,6.2238598,16,6.5,16h39
		c0.2761002,0,0.5,0.2238998,0.5,0.5S45.7761002,17,45.5,17h-39C6.2238598,17,6,16.7761002,6,16.5z"/>
	<path style="fill:#D9D9D9;" d="M26,40h-8c-0.5522995,0-1,0.4477005-1,1s0.4477005,1,1,1h8c0.5522995,0,1-0.4477005,1-1
		S26.5522995,40,26,40z"/>
	<path style="fill:#D9D9D9;" d="M26,36h-8c-0.5522995,0-1,0.4477005-1,1s0.4477005,1,1,1h8c0.5522995,0,1-0.4477005,1-1
		S26.5522995,36,26,36z"/>
	<path style="fill:#D9D9D9;" d="M26,32h-8c-0.5522995,0-1,0.4477005-1,1s0.4477005,1,1,1h8c0.5522995,0,1-0.4477005,1-1
		S26.5522995,32,26,32z"/>
	<path style="fill:#D9D9D9;" d="M26,28h-8c-0.5522995,0-1,0.4477005-1,1s0.4477005,1,1,1h8c0.5522995,0,1-0.4477005,1-1
		S26.5522995,28,26,28z"/>
	<path style="fill:#D9D9D9;" d="M26,24h-8c-0.5522995,0-1,0.4477005-1,1s0.4477005,1,1,1h8c0.5522995,0,1-0.4477005,1-1
		S26.5522995,24,26,24z"/>
	<path style="fill:#D9D9D9;" d="M26,20h-8c-0.5522995,0-1,0.4477005-1,1s0.4477005,1,1,1h8c0.5522995,0,1-0.4477005,1-1
		S26.5522995,20,26,20z"/>
	<path style="fill:#B3B2B2;" d="M26,11h-8c-0.5522995,0-1,0.4476995-1,1s0.4477005,1,1,1h8c0.5522995,0,1-0.4476995,1-1
		S26.5522995,11,26,11z"/>
	<path style="fill:#D9D9D9;" d="M39,40h-8c-0.5522995,0-1,0.4477005-1,1s0.4477005,1,1,1h8c0.5522995,0,1-0.4477005,1-1
		S39.5522995,40,39,40z"/>
	<path style="fill:#D9D9D9;" d="M39,36h-8c-0.5522995,0-1,0.4477005-1,1s0.4477005,1,1,1h8c0.5522995,0,1-0.4477005,1-1
		S39.5522995,36,39,36z"/>
	<path style="fill:#D9D9D9;" d="M39,32h-8c-0.5522995,0-1,0.4477005-1,1s0.4477005,1,1,1h8c0.5522995,0,1-0.4477005,1-1
		S39.5522995,32,39,32z"/>
	<path style="fill:#D9D9D9;" d="M39,28h-8c-0.5522995,0-1,0.4477005-1,1s0.4477005,1,1,1h8c0.5522995,0,1-0.4477005,1-1
		S39.5522995,28,39,28z"/>
	<path style="fill:#D9D9D9;" d="M39,24h-8c-0.5522995,0-1,0.4477005-1,1s0.4477005,1,1,1h8c0.5522995,0,1-0.4477005,1-1
		S39.5522995,24,39,24z"/>
	<path style="fill:#D9D9D9;" d="M39,20h-8c-0.5522995,0-1,0.4477005-1,1s0.4477005,1,1,1h8c0.5522995,0,1-0.4477005,1-1
		S39.5522995,20,39,20z"/>
	<path style="fill:#B3B2B2;" d="M39,11h-8c-0.5522995,0-1,0.4476995-1,1s0.4477005,1,1,1h8c0.5522995,0,1-0.4476995,1-1
		S39.5522995,11,39,11z"/>
	<path style="fill:#B3B2B2;" d="M13,11h-2c-0.5523005,0-1,0.4476995-1,1s0.4476995,1,1,1h2c0.5523005,0,1-0.4476995,1-1
		S13.5523005,11,13,11z"/>
	<path style="fill:#D9D9D9;" d="M13,20h-2c-0.5523005,0-1,0.4477005-1,1s0.4476995,1,1,1h2c0.5523005,0,1-0.4477005,1-1
		S13.5523005,20,13,20z"/>
	<path style="fill:#D9D9D9;" d="M13,24h-2c-0.5523005,0-1,0.4477005-1,1s0.4476995,1,1,1h2c0.5523005,0,1-0.4477005,1-1
		S13.5523005,24,13,24z"/>
	<path style="fill:#D9D9D9;" d="M13,28h-2c-0.5523005,0-1,0.4477005-1,1s0.4476995,1,1,1h2c0.5523005,0,1-0.4477005,1-1
		S13.5523005,28,13,28z"/>
	<path style="fill:#D9D9D9;" d="M13,32h-2c-0.5523005,0-1,0.4477005-1,1s0.4476995,1,1,1h2c0.5523005,0,1-0.4477005,1-1
		S13.5523005,32,13,32z"/>
	<path style="fill:#D9D9D9;" d="M13,36h-2c-0.5523005,0-1,0.4477005-1,1s0.4476995,1,1,1h2c0.5523005,0,1-0.4477005,1-1
		S13.5523005,36,13,36z"/>
	<path style="fill:#D9D9D9;" d="M13,40h-2c-0.5523005,0-1,0.4477005-1,1s0.4476995,1,1,1h2c0.5523005,0,1-0.4477005,1-1
		S13.5523005,40,13,40z"/>
</g>
</svg>
