<svg width="52" height="52" viewBox="0 0 52 52" fill="none" xmlns="http://www.w3.org/2000/svg">
<path opacity="0.1" d="M26.1166 3.40694C30.3407 0.313428 47.3435 19.2255 46.6056 20.5979C46.406 20.969 45.8805 21.817 45.4795 21.9465C44.7499 22.1819 29.3149 10.3092 29.3149 10.3092C29.3149 10.3092 51.9447 29.7126 51.5799 30.5351C51.2151 31.3576 49.7401 33.4863 48.3365 34.4193C46.801 35.4399 33.4677 27.7687 33.4677 27.7687C33.4677 27.7687 42.8497 38.7277 41.8732 40.4109C40.1817 43.3266 34.6405 47.6849 34.078 47.8187C32.9044 48.0979 23.0263 36.9621 22.5556 37.5258C22.0849 38.0895 27.4307 44.8469 27.4307 44.8469C27.4307 44.8469 26.4315 46.7892 25.8649 47.413C24.684 48.7132 -0.46664 28.9649 0.4989 26.7556C1.08951 25.4042 2.17198 24.1079 3.49761 22.5204C4.82324 20.9328 5.07305 20.7952 5.64081 20.5979C6.20858 20.4005 28.0054 34.3101 28.0054 34.3101C28.0054 34.3101 3.52931 11.4088 4.64922 9.18425C6.16497 6.17339 6.77643 5.429 9.47348 3.40694C11.2965 2.04021 39.1664 23.873 39.1664 23.873C39.1664 23.873 22.5731 8.80432 23.3504 6.71968C23.9392 5.14044 24.7568 4.40278 26.1166 3.40694Z" fill="#B2B2B2"/>
<path d="M34.3523 32.3946L41.8028 39.844C42.4032 40.4443 42.4032 41.4265 41.8028 42.0266L41.0159 42.8135C40.4156 43.4138 39.4334 43.4138 38.8333 42.8135L31.3337 35.3152" fill="#E5E5E5"/>
<path fill-rule="evenodd" clip-rule="evenodd" d="M33.9987 32.0411C34.1939 31.8458 34.5105 31.8458 34.7058 32.041L42.1564 39.4904C42.9519 40.2859 42.952 41.5847 42.1564 42.3802C42.1564 42.3802 42.1564 42.3801 42.1564 42.3802L41.3695 43.1671C40.574 43.9626 39.2752 43.9627 38.4798 43.1671C38.4797 43.1671 38.4798 43.1671 38.4798 43.1671L30.9802 35.6688C30.7849 35.4735 30.7849 35.1569 30.9802 34.9617C31.1754 34.7664 31.492 34.7664 31.6873 34.9616L39.1868 42.4599C39.5916 42.8649 40.2573 42.865 40.6624 42.46L41.4493 41.673C41.8542 41.2682 41.8544 40.6026 41.4493 40.1975C41.4493 40.1975 41.4493 40.1976 41.4493 40.1975L33.9987 32.7482C33.8035 32.5529 33.8034 32.2363 33.9987 32.0411Z" fill="#B2B2B2"/>
<path d="M23.2959 37.8752C30.7788 37.8752 36.8448 31.8091 36.8448 24.3263C36.8448 16.8434 30.7788 10.7773 23.2959 10.7773C15.813 10.7773 9.74695 16.8434 9.74695 24.3263C9.74695 31.8091 15.813 37.8752 23.2959 37.8752Z" fill="#B2B2B2" fill-opacity="0.2"/>
<path fill-rule="evenodd" clip-rule="evenodd" d="M23.2959 11.2773C16.0892 11.2773 10.247 17.1195 10.247 24.3263C10.247 31.533 16.0892 37.3752 23.2959 37.3752C30.5026 37.3752 36.3448 31.533 36.3448 24.3263C36.3448 17.1195 30.5026 11.2773 23.2959 11.2773ZM9.24695 24.3263C9.24695 16.5673 15.5369 10.2773 23.2959 10.2773C31.0549 10.2773 37.3448 16.5673 37.3448 24.3263C37.3448 32.0853 31.0549 38.3752 23.2959 38.3752C15.5369 38.3752 9.24695 32.0853 9.24695 24.3263Z" fill="#B2B2B2"/>
<path d="M23.2881 36.3488C29.924 36.3488 35.3034 30.9694 35.3034 24.3336C35.3034 17.6977 29.924 12.3183 23.2881 12.3183C16.6523 12.3183 11.2729 17.6977 11.2729 24.3336C11.2729 30.9694 16.6523 36.3488 23.2881 36.3488Z" fill="white"/>
<path fill-rule="evenodd" clip-rule="evenodd" d="M23.2881 12.8183C16.9284 12.8183 11.7729 17.9739 11.7729 24.3336C11.7729 30.6933 16.9284 35.8488 23.2881 35.8488C29.6478 35.8488 34.8034 30.6933 34.8034 24.3336C34.8034 17.9739 29.6478 12.8183 23.2881 12.8183ZM10.7729 24.3336C10.7729 17.4216 16.3762 11.8183 23.2881 11.8183C30.2001 11.8183 35.8034 17.4216 35.8034 24.3336C35.8034 31.2456 30.2001 36.8488 23.2881 36.8488C16.3762 36.8488 10.7729 31.2456 10.7729 24.3336Z" fill="#B2B2B2"/>
<path fill-rule="evenodd" clip-rule="evenodd" d="M19.0032 20.0488C19.1985 19.8535 19.515 19.8535 19.7103 20.0488L23.2883 23.6267L26.8663 20.0488C27.0615 19.8535 27.3781 19.8535 27.5734 20.0488C27.7686 20.244 27.7686 20.5606 27.5734 20.7559L23.9954 24.3338L27.5734 27.9118C27.7686 28.1071 27.7686 28.4237 27.5734 28.6189C27.3781 28.8142 27.0615 28.8142 26.8663 28.6189L23.2883 25.041L19.7103 28.6189C19.515 28.8142 19.1985 28.8142 19.0032 28.6189C18.8079 28.4237 18.8079 28.1071 19.0032 27.9118L22.5812 24.3338L19.0032 20.7559C18.8079 20.5606 18.8079 20.244 19.0032 20.0488Z" fill="#B2B2B2"/>
<path fill-rule="evenodd" clip-rule="evenodd" d="M23.236 14.3615C23.2496 14.0857 23.4842 13.8732 23.76 13.8868C29.0675 14.1483 33.3408 18.3393 33.7318 23.6119C33.7522 23.8873 33.5455 24.1271 33.2701 24.1475C32.9947 24.168 32.7549 23.9613 32.7345 23.6859C32.3808 18.9154 28.5129 15.1222 23.7108 14.8855C23.4349 14.872 23.2224 14.6373 23.236 14.3615Z" fill="#B2B2B2"/>
<path fill-rule="evenodd" clip-rule="evenodd" d="M37.1983 35.1463L34.1159 38.2287L33.4088 37.5216L36.4912 34.4392L37.1983 35.1463Z" fill="#B2B2B2"/>
</svg>
