<svg width="52" height="52" viewBox="0 0 52 52" fill="none" xmlns="http://www.w3.org/2000/svg">
<path opacity="0.1" d="M26.1166 3.40694C30.3407 0.313429 47.3435 19.2255 46.6056 20.5979C46.406 20.969 45.8805 21.817 45.4795 21.9465C44.7499 22.1819 29.3149 10.3092 29.3149 10.3092C29.3149 10.3092 51.9447 29.7126 51.5799 30.5351C51.2151 31.3576 49.7401 33.4863 48.3365 34.4193C46.801 35.4399 33.4677 27.7687 33.4677 27.7687C33.4677 27.7687 42.8497 38.7277 41.8732 40.4109C40.1817 43.3266 34.6405 47.6849 34.078 47.8187C32.9044 48.0979 23.0263 36.9621 22.5556 37.5258C22.0849 38.0895 27.4307 44.8469 27.4307 44.8469C27.4307 44.8469 26.4315 46.7892 25.8649 47.413C24.684 48.7132 -0.46664 28.9649 0.4989 26.7556C1.08951 25.4042 2.17198 24.1079 3.49761 22.5204C4.82324 20.9328 5.07305 20.7952 5.64081 20.5979C6.20858 20.4005 28.0054 34.3101 28.0054 34.3101C28.0054 34.3101 3.52931 11.4088 4.64922 9.18425C6.16497 6.17339 6.77643 5.429 9.47348 3.40694C11.2965 2.04021 39.1664 23.873 39.1664 23.873C39.1664 23.873 22.5731 8.80432 23.3504 6.71968C23.9392 5.14044 24.7568 4.40278 26.1166 3.40694Z" fill="#B2B2B2"/>
<path d="M12.03 13.3598V29.5298H6.51001C6.15997 29.5298 5.87 29.2498 5.87 28.8898V13.3598H12.03Z" fill="white"/>
<path d="M30.65 8.28986V12.3598H5.87V8.28986C5.87 7.92981 6.15997 7.63983 6.51001 7.63983H30C30.36 7.63983 30.65 7.92981 30.65 8.28986Z" fill="white"/>
<path d="M30.65 13.3598H13.03V29.5298H30.65V13.3598Z" fill="white"/>
<path fill-rule="evenodd" clip-rule="evenodd" d="M30 6.63983H6.51001C5.60999 6.63983 4.87 7.37982 4.87 8.28986V28.8898C4.87 29.7998 5.60999 30.5298 6.51001 30.5298H31.15C31.42 30.5298 31.65 30.3098 31.65 30.0298V8.28986C31.65 7.37982 30.91 6.63983 30 6.63983ZM5.87 28.8898V13.3598H12.03V29.5298H6.51001C6.15997 29.5298 5.87 29.2498 5.87 28.8898ZM30.65 29.5298H13.03V13.3598H30.65V29.5298ZM30.65 12.3598H5.87V8.28986C5.87 7.92981 6.15997 7.63983 6.51001 7.63983H30C30.36 7.63983 30.65 7.92981 30.65 8.28986V12.3598Z" fill="#B2B2B2"/>
<path fill-rule="evenodd" clip-rule="evenodd" d="M7.73254 10.0031C7.73254 9.72697 7.9564 9.50311 8.23254 9.50311H8.94894C9.22508 9.50311 9.44894 9.72697 9.44894 10.0031C9.44894 10.2792 9.22508 10.5031 8.94894 10.5031H8.23254C7.9564 10.5031 7.73254 10.2792 7.73254 10.0031Z" fill="#B2B2B2"/>
<path fill-rule="evenodd" clip-rule="evenodd" d="M10.5963 10.0027C10.5963 9.72654 10.8201 9.50269 11.0963 9.50269H11.8127C12.0888 9.50269 12.3127 9.72654 12.3127 10.0027C12.3127 10.2788 12.0888 10.5027 11.8127 10.5027H11.0963C10.8201 10.5027 10.5963 10.2788 10.5963 10.0027Z" fill="#B2B2B2"/>
<path fill-rule="evenodd" clip-rule="evenodd" d="M13.4608 10.0027C13.4608 9.72654 13.6846 9.50269 13.9608 9.50269H14.6771C14.9533 9.50269 15.1771 9.72654 15.1771 10.0027C15.1771 10.2788 14.9533 10.5027 14.6771 10.5027H13.9608C13.6846 10.5027 13.4608 10.2788 13.4608 10.0027Z" fill="#B2B2B2"/>
<path d="M27.438 13.4213C20.188 13.4213 14.288 19.3212 14.288 26.5712C14.288 33.8212 20.188 39.7213 27.438 39.7213C34.688 39.7213 40.588 33.8212 40.588 26.5712C40.588 19.3212 34.688 13.4213 27.438 13.4213ZM27.438 38.4213C20.908 38.4213 15.588 33.1013 15.588 26.5712C15.588 20.0413 20.908 14.7213 27.438 14.7213C33.968 14.7213 39.288 20.0413 39.288 26.5712C39.288 33.1013 33.968 38.4213 27.438 38.4213Z" fill="#E5E5E5"/>
<path d="M27.438 38.5714C34.0654 38.5714 39.438 33.1988 39.438 26.5714C39.438 19.944 34.0654 14.5714 27.438 14.5714C20.8106 14.5714 15.438 19.944 15.438 26.5714C15.438 33.1988 20.8106 38.5714 27.438 38.5714Z" fill="white"/>
<path d="M31.4683 30.9984C31.3403 30.9984 31.2124 30.9495 31.1147 30.8519L27.5366 27.2737L23.9585 30.8519C23.7632 31.0472 23.4468 31.0472 23.2515 30.8519C23.0562 30.6566 23.0562 30.3401 23.2515 30.1448L26.8296 26.5667L23.2515 22.9886C23.1538 22.8909 23.105 22.763 23.105 22.6351C23.105 22.5071 23.1538 22.3792 23.2515 22.2816C23.4468 22.0862 23.7632 22.0862 23.9585 22.2816L27.5366 25.8597L31.1147 22.2816C31.3101 22.0862 31.6265 22.0862 31.8218 22.2816C32.0171 22.4769 32.0171 22.7933 31.8218 22.9886L28.2437 26.5667L31.8218 30.1448C31.9194 30.2425 31.9683 30.3704 31.9683 30.4984C31.9683 30.6263 31.9194 30.7542 31.8218 30.8519C31.7241 30.9495 31.5962 30.9984 31.4683 30.9984Z" fill="#B2B2B2"/>
<path d="M27.438 14.5712C21.028 14.5712 15.788 19.5912 15.458 25.9213C15.448 26.1412 15.438 26.3513 15.438 26.5712C15.438 26.7112 15.438 26.8412 15.448 26.9813C15.658 33.2512 20.678 38.3013 26.938 38.5513C27.108 38.5712 27.268 38.5712 27.438 38.5712C27.608 38.5712 27.768 38.5712 27.938 38.5513C34.338 38.3013 39.438 33.0312 39.438 26.5712C39.438 19.9412 34.068 14.5712 27.438 14.5712ZM27.938 37.5612C27.768 37.5712 27.608 37.5712 27.438 37.5712C27.268 37.5712 27.108 37.5712 26.938 37.5612C21.358 37.3112 16.848 32.8912 16.468 27.3312C16.448 27.0812 16.438 26.8312 16.438 26.5712C16.438 26.4713 16.438 26.3613 16.448 26.2612C16.608 20.3312 21.478 15.5712 27.438 15.5712C33.508 15.5712 38.438 20.5012 38.438 26.5712C38.438 32.4713 33.778 37.3013 27.938 37.5612Z" fill="#B2B2B2"/>
<path d="M36.938 27.0716C36.6616 27.0716 36.438 26.848 36.438 26.5716C36.438 21.6092 32.4009 17.5716 27.438 17.5716C27.1616 17.5716 26.938 17.348 26.938 17.0716C26.938 16.7952 27.1616 16.5716 27.438 16.5716C32.9517 16.5716 37.438 21.0574 37.438 26.5716C37.438 26.848 37.2144 27.0716 36.938 27.0716Z" fill="#B2B2B2"/>
<path d="M36.22 37.4698C37.05 36.7998 37.81 36.0399 38.47 35.1998L38.55 35.2798L40.34 37.0698L38.08 39.3298L36.29 37.5399L36.22 37.4698Z" fill="#E5E5E5"/>
<path d="M38.7899 40.0399L41.0499 37.7798L45.7 42.4298C45.9 42.6298 45.9999 42.8898 45.9999 43.1699C45.9999 43.4498 45.9 43.7098 45.7 43.8998L44.9099 44.6898C44.52 45.0798 43.83 45.0798 43.4399 44.6898L38.7899 40.0399Z" fill="#E5E5E5"/>
<path d="M27.998 39.5512H27.938C27.798 39.5712 27.658 39.5712 27.518 39.5712H27.438C27.268 39.5712 27.108 39.5712 26.938 39.5612C20.018 39.3012 14.468 33.6112 14.438 26.6312V26.5712C14.438 26.4012 14.438 26.2312 14.458 26.0612V25.9912C14.458 25.8612 14.468 25.7212 14.478 25.5812C14.488 25.4212 14.508 25.2412 14.528 25.0512C14.968 21.3212 16.988 17.9712 20.098 15.8412C20.248 15.7412 20.408 15.6412 20.568 15.5412L20.688 15.4612C20.878 15.3412 21.058 15.2412 21.248 15.1412C21.438 15.0312 21.628 14.9412 21.798 14.8512C23.578 14.0012 25.478 13.5712 27.438 13.5712C34.608 13.5712 40.438 19.4012 40.438 26.5712C40.438 29.1612 39.678 31.6712 38.258 33.8012C38.058 34.0712 37.868 34.3312 37.678 34.5812C37.078 35.3512 36.378 36.0612 35.588 36.6912C35.388 36.8612 35.118 37.0712 34.838 37.2612C32.818 38.6612 30.448 39.4512 27.998 39.5512ZM36.288 37.5412L36.218 37.4712C37.048 36.8012 37.808 36.0412 38.468 35.2012L38.548 35.2812L40.338 37.0712L38.078 39.3312L36.288 37.5412ZM45.698 43.9012L44.908 44.6912C44.518 45.0812 43.828 45.0812 43.438 44.6912L38.788 40.0412L41.048 37.7812L45.698 42.4312C45.898 42.6312 45.998 42.8912 45.998 43.1712C45.998 43.4512 45.898 43.7112 45.698 43.9012ZM46.4099 41.72L39.1599 34.47L39.0699 34.38C39.1899 34.2 39.3099 34.01 39.4099 33.82C39.52 33.65 39.6199 33.48 39.72 33.3C39.8799 33 40.0399 32.69 40.1799 32.37C40.28 32.18 40.3599 31.98 40.4299 31.78C40.45 31.73 40.4799 31.68 40.4899 31.62C40.6099 31.33 40.71 31.03 40.8099 30.73C40.8599 30.57 40.9099 30.4 40.95 30.23C40.9999 30.06 41.0399 29.89 41.08 29.72C41.1199 29.55 41.1599 29.38 41.1899 29.21C41.3499 28.35 41.4399 27.47 41.4399 26.57C41.4399 22.71 39.8699 19.21 37.34 16.68C37.03 16.36 36.6899 16.06 36.34 15.77C35.8199 15.34 35.27 14.95 34.7 14.6C33.5399 13.9 32.28 13.36 30.9299 13.01C30.4899 12.9 30.03 12.8 29.5699 12.73C28.8699 12.63 28.1599 12.57 27.4399 12.57C27.2 12.57 26.96 12.58 26.72 12.59C26.5699 12.6 26.4099 12.61 26.2599 12.62C25.9199 12.65 25.58 12.69 25.2399 12.7401C25.03 12.78 24.83 12.81 24.6199 12.86C24.46 12.89 24.2999 12.92 24.14 12.97C23.9299 13.01 23.7299 13.07 23.53 13.13C23.3499 13.18 23.1699 13.23 22.9999 13.29C21.7899 13.7 20.65 14.26 19.6199 14.97C19.58 14.98 19.5499 15.01 19.52 15.03C19.3699 15.13 19.22 15.2401 19.0699 15.36C18.89 15.4901 18.71 15.63 18.5399 15.77C18.3599 15.92 18.1899 16.06 18.03 16.22C17.8599 16.37 17.7 16.52 17.5399 16.68C17.3799 16.84 17.2299 17 17.08 17.17C16.9299 17.33 16.78 17.5 16.64 17.67C16.4999 17.84 16.3599 18.02 16.22 18.2C16.09 18.38 15.96 18.56 15.83 18.75C15.58 19.12 15.34 19.51 15.1299 19.9C15.02 20.1 14.9199 20.3 14.8199 20.51C14.72 20.71 14.6299 20.92 14.5399 21.13C14.4799 21.28 14.4099 21.43 14.3599 21.59C14.2 21.9901 14.0699 22.39 13.96 22.81C13.9 23.01 13.8499 23.21 13.7999 23.42C13.7399 23.67 13.6899 23.92 13.65 24.17C13.6099 24.42 13.5699 24.67 13.5399 24.93C13.53 25.04 13.52 25.14 13.5099 25.25H13.4999C13.47 25.59 13.45 25.94 13.45 26.29C13.4399 26.38 13.4399 26.48 13.4399 26.57C13.4399 27.78 13.59 28.95 13.8799 30.06C13.9399 30.29 13.9999 30.51 14.0699 30.73C14.22 31.2 14.39 31.66 14.59 32.11C14.6599 32.29 14.7399 32.46 14.8199 32.63C14.9299 32.86 15.0399 33.07 15.1599 33.29C15.2599 33.47 15.3599 33.65 15.47 33.82C15.83 34.41 16.2299 34.97 16.6699 35.5C16.7999 35.66 16.9399 35.82 17.08 35.97C17.22 36.13 17.3599 36.28 17.4999 36.42C17.8699 36.79 18.2499 37.14 18.65 37.45C18.7899 37.57 18.9299 37.68 19.0699 37.78C19.2499 37.92 19.4299 38.05 19.6199 38.17C19.78 38.28 19.9399 38.39 20.0999 38.4901C20.71 38.86 21.34 39.19 21.9999 39.47C22.1799 39.55 22.3699 39.62 22.5599 39.69C22.9199 39.83 23.2999 39.95 23.6799 40.05C23.84 40.1 23.9999 40.14 24.1599 40.18C24.4299 40.25 24.7 40.3 24.9799 40.35C25.1699 40.39 25.3599 40.42 25.5499 40.44C25.7499 40.47 25.96 40.4901 26.1599 40.51C26.4199 40.54 26.6799 40.55 26.9399 40.56C27.1099 40.57 27.27 40.57 27.4399 40.57C27.6099 40.57 27.77 40.57 27.9399 40.56V40.55C27.97 40.56 28.0099 40.55 28.0399 40.55C28.72 40.52 29.39 40.45 30.0399 40.32C30.45 40.25 30.8499 40.16 31.2399 40.04C31.46 39.98 31.6799 39.91 31.9 39.84C31.9299 39.83 31.97 39.82 31.9999 39.8C32.2899 39.71 32.58 39.59 32.8699 39.47C32.8799 39.47 32.8799 39.47 32.8799 39.47C33.1599 39.35 33.4299 39.23 33.6899 39.1C33.7399 39.07 33.7999 39.04 33.8599 39.01C34.08 38.9 34.2899 38.78 34.4999 38.66C34.7599 38.51 35.0099 38.34 35.2599 38.17C35.3099 38.15 35.3599 38.11 35.4099 38.08L42.7299 45.4C43.1099 45.78 43.6299 46 44.1699 46C44.72 46 45.2299 45.78 45.6199 45.4L46.4099 44.61C46.7899 44.23 46.9999 43.71 46.9999 43.17C46.9999 42.62 46.7899 42.11 46.4099 41.72Z" fill="#B2B2B2"/>
</svg>
