<?xml version="1.0" encoding="utf-8"?>
<!-- Generator: Adobe Illustrator 27.0.0, SVG Export Plug-In . SVG Version: 6.00 Build 0)  -->
<svg version="1.1" id="Warstwa_1" xmlns="http://www.w3.org/2000/svg" xmlns:xlink="http://www.w3.org/1999/xlink" x="0px" y="0px"
	 width="52px" height="52px" viewBox="0 0 52 52" style="enable-background:new 0 0 52 52;" xml:space="preserve">
<path style="opacity:0.1;fill:#B2B2B2;enable-background:new    ;" d="M26.1166,3.40694
	c4.2241001-3.0935111,21.2268982,15.8185596,20.4889984,17.1909599c-0.1996002,0.3710995-0.7250977,1.219099-1.1260986,1.3486004
	C44.7499008,22.1819,29.3148994,10.3092003,29.3148994,10.3092003s22.6297989,19.4034004,22.2649994,20.2259007
	c-0.3647995,0.8224983-1.839798,2.9512005-3.2434006,3.8841991c-1.5354996,1.0205994-14.8687973-6.6506004-14.8687973-6.6506004
	s9.382,10.9589996,8.4054985,12.6422005c-1.6914978,2.915699-7.2327003,7.2739983-7.7952003,7.4077988
	c-1.1735992,0.2792015-11.0516987-10.8565979-11.5223999-10.2929001c-0.4706993,0.5637016,4.8751011,7.3211021,4.8751011,7.3211021
	s-0.9992008,1.9422989-1.5657997,2.5660973C24.684,48.7131996-0.46664,28.9648991,0.4989,26.7556
	c0.59061-1.3514004,1.67308-2.6476994,2.9987102-4.2352009C4.8232398,20.9328003,5.07305,20.7952003,5.64081,20.5979004
	c0.56777-0.197401,22.3645897,13.7122002,22.3645897,13.7122002S3.52931,11.4088001,4.64922,9.1842499
	c1.5157499-3.01086,2.1272101-3.75525,4.8242602-5.7773099c1.82302-1.36673,29.6929207,20.4660587,29.6929207,20.4660587
	s-16.5933018-15.0686789-15.816-17.1533203C23.9391994,5.14044,24.7567997,4.4027801,26.1166,3.40694z"/>
<path style="fill:#D9D9D9;" d="M39,40H18c-0.5522995,0-1,0.4477005-1,1s0.4477005,1,1,1h21c0.5522995,0,1-0.4477005,1-1
	S39.5522995,40,39,40z"/>
<path style="fill:#D9D9D9;" d="M31,30H18c-0.5522995,0-1,0.4477005-1,1s0.4477005,1,1,1h13c0.5522995,0,1-0.4477005,1-1
	S31.5522995,30,31,30z"/>
<path style="fill:#D9D9D9;" d="M23,26h-5c-0.5522995,0-1,0.4477005-1,1s0.4477005,1,1,1h5c0.5522995,0,1-0.4477005,1-1
	S23.5522995,26,23,26z"/>
<path style="fill:#D9D9D9;" d="M26,15h-8c-0.5522995,0-1,0.4476995-1,1c0,0.5522995,0.4477005,1,1,1h8c0.5522995,0,1-0.4477005,1-1
	C27,15.4476995,26.5522995,15,26,15z"/>
<path style="fill:#D9D9D9;" d="M39,36H18c-0.5522995,0-1,0.4477005-1,1s0.4477005,1,1,1h21c0.5522995,0,1-0.4477005,1-1
	S39.5522995,36,39,36z"/>
<path style="fill:#D9D9D9;" d="M23,19h-5c-0.5522995,0-1,0.4477005-1,1s0.4477005,1,1,1h5c0.5522995,0,1-0.4477005,1-1
	S23.5522995,19,23,19z"/>
<path style="fill-rule:evenodd;clip-rule:evenodd;fill:#B3B2B2;" d="M14.8535995,36.1464005
	c0.1952009,0.1953011,0.1952009,0.511898,0,0.7071991l-4.5,4.5c-0.1952991,0.1952019-0.5118999,0.1952019-0.7071991,0
	l-2.5000005-2.5c-0.1952-0.1953011-0.1952-0.511898,0-0.7071991c0.1953001-0.1952019,0.5118999-0.1952019,0.7072001,0L10,40.2929001
	l4.1464005-4.1464996C14.3416996,35.9511986,14.6583004,35.9511986,14.8535995,36.1464005z"/>
<path style="fill-rule:evenodd;clip-rule:evenodd;fill:#B3B2B2;" d="M14.8535995,26.1464005
	c0.1952009,0.1952991,0.1952009,0.5118999,0,0.7071991l-4.5,4.5c-0.1952991,0.1952-0.5118999,0.1952-0.7071991,0l-2.5000005-2.5
	c-0.1952-0.1952991-0.1952-0.5118999,0-0.7071991c0.1953001-0.1952,0.5118999-0.1952,0.7072001,0L10,30.2929001l4.1464005-4.1464996
	C14.3416996,25.9512005,14.6583004,25.9512005,14.8535995,26.1464005z"/>
<path style="fill-rule:evenodd;clip-rule:evenodd;fill:#B3B2B2;" d="M14.8535995,15.1464005
	c0.1952009,0.1952991,0.1952009,0.5118999,0,0.7071991l-4.5,4.5c-0.1952991,0.1952-0.5118999,0.1952-0.7071991,0l-2.5000005-2.5
	c-0.1952-0.1952991-0.1952-0.5118999,0-0.7071991c0.1953001-0.1952,0.5118999-0.1952,0.7072001,0L10,19.2929001l4.1464005-4.1464996
	C14.3416996,14.9511995,14.6583004,14.9511995,14.8535995,15.1464005z"/>
<path style="fill-rule:evenodd;clip-rule:evenodd;fill:#C5C5C5;" d="M32.7331009,2.2978699
	C32.844799,2.55041,32.7307014,2.84568,32.4780998,2.9573901c-1.4389,0.6364498-2.7780991,1.5638201-3.9274006,2.78038
	c-1.1695995,1.2382398-2.0283985,2.6583395-2.5812988,4.1620502c-0.0953007,0.2591801-0.3826008,0.3919792-0.6417999,0.2966795
	c-0.259201-0.0952997-0.3920002-0.3826094-0.2967014-0.6417894C25.6294003,7.927,26.5590992,6.3899798,27.8237991,5.0510802
	C29.0659008,3.7362101,30.5153008,2.73212,32.0736008,2.04286C32.3260994,1.93116,32.6213989,2.04533,32.7331009,2.2978699z"/>
<path style="fill-rule:evenodd;clip-rule:evenodd;fill:#C5C5C5;" d="M33.6899986,5.8761301
	c-0.1080971-0.2308202-0.3859978-0.3267202-0.6177979-0.2297802c-1.0193024,0.4261303-1.9679012,1.0470901-2.780901,1.8605199
	v0.00001c-0.8278999,0.8284101-1.4372005,1.7800999-1.8295994,2.78862
	c-0.0944004,0.2426004,0.0405998,0.5024004,0.2813988,0.5861006c0.2374001,0.0824995,0.5091-0.0296001,0.6017017-0.2676001
	c0.3479996-0.8945303,0.8887997-1.7399502,1.6260986-2.4777308c0.7247009-0.7249794,1.5692005-1.2778096,2.4771023-1.6573496
	C33.6837997,6.3803601,33.8003006,6.11199,33.6899986,5.8761301z"/>
<path style="fill-rule:evenodd;clip-rule:evenodd;fill:#C5C5C5;" d="M43.8804016,2.2978699
	C43.7686996,2.55041,43.8829002,2.84568,44.1353989,2.9573901c1.4389,0.6364498,2.7781029,1.5638201,3.9274025,2.78038
	c1.1695976,1.2382398,2.0284004,2.6583395,2.5812988,4.1620502c0.0952988,0.2591801,0.3826981,0.3919792,0.6417999,0.2966795
	c0.259201-0.0952997,0.3921013-0.3826094,0.2967987-0.6417894C50.9841995,7.927,50.0544014,6.3899798,48.7896996,5.0510802
	C47.5475998,3.7362101,46.0982018,2.73212,44.5399017,2.04286C44.2873993,1.93116,43.9920998,2.04533,43.8804016,2.2978699z"/>
<path style="fill-rule:evenodd;clip-rule:evenodd;fill:#C5C5C5;" d="M42.9235992,5.8761301
	c0.1080017-0.2308202,0.3859024-0.3267202,0.6178017-0.2297802c1.0192986,0.4261303,1.9678001,1.0470901,2.7807999,1.8605199
	v0.00001c0.8279991,0.8284101,1.4371986,1.7800999,1.8295975,2.78862c0.0944023,0.2426004-0.0404968,0.5024004-0.2812996,0.5861006
	c-0.2374001,0.0824995-0.5091972-0.0296001-0.601799-0.2676001C46.9207001,9.71947,46.3800011,8.8740501,45.642601,8.1362696
	c-0.7246017-0.7249794-1.5692024-1.2778096-2.4771004-1.6573496C42.9297981,6.3803601,42.8132019,6.11199,42.9235992,5.8761301z"/>
<path style="fill:#E5E5E5;" d="M40.9328003,25.1000004c0,1.6700001-1.3871002,2.7570992-2.9928017,2.7570992
	c-1.6056976,0-2.9499969-1.0886002-2.9499969-2.7570992"/>
<path style="fill:#B2B2B2;" d="M48.6500244,22.6199951c-0.7400513-0.7999878-1.7300415-2.0599976-2.5400391-3.460022
	C45.289978,17.75,44.710022,16.2800293,44.710022,15.0499878c0-2.6799927-1.7000122-4.9599609-4.1000366-5.9599609V9.039978
	c0-1.4699707-1.1499634-2.6799927-2.6099854-2.6799927c-1.4400024,0-2.5900269,1.1799927-2.6199951,2.6199951
	c-2.5300293,0.9500122-4.3599854,3.2900391-4.3599854,6.0700073c0,3.0400391-1.6700439,5.0499878-3.0800171,6.75
	c-0.2600098,0.3099976-0.5100098,0.6000366-0.7399902,0.9000244c-0.1199951,0.1300049-0.2300415,0.3099976-0.2600098,0.5199585
	c-0.039978,0.2300415,0.039978,0.4400024,0.1500244,0.6100464c0.1999512,0.289978,0.5699463,0.4799805,0.9199829,0.6199951
	c0.7399902,0.289978,1.8499756,0.5199585,3.0599976,0.7000122c1.0999756,0.1499634,2.3200073,0.2799683,3.4500122,0.3599854
	c0.1999512,1.7600098,1.7199707,2.8499756,3.4199829,2.8499756c1.6900024,0,3.25-1.0799561,3.460022-2.8399658
	c1.1199951-0.0800171,2.3299561-0.2000122,3.4299927-0.3500366c1.2099609-0.1799927,2.3299561-0.4099731,3.0700073-0.7199707
	c0.3499756-0.1500244,0.7199707-0.3500366,0.9099731-0.6699829c0.1099854-0.1700439,0.1699829-0.3900146,0.1300049-0.6200562
	C48.9000244,22.9400024,48.7800293,22.7600098,48.6500244,22.6199951z M37.9400024,27.3599854
	c-1.2000122,0-2.1699829-0.7000122-2.4000244-1.7699585c0.9500122,0.0499878,1.8000488,0.0799561,2.3900146,0.0799561
	c0.6000366,0,1.4700317-0.0299683,2.4500122-0.0799561C40.1400146,26.6500244,39.1500244,27.3599854,37.9400024,27.3599854z
	 M47.5100098,23.5300293C46.9000244,23.789978,45.8900146,24,44.6799927,24.1799927
	c-2.3900146,0.3400269-5.3300171,0.4899902-6.75,0.4899902c-1.4099731,0-4.3300171-0.1699829-6.710022-0.5100098
	C30.0200195,23.9799805,29,23.7700195,28.3800049,23.5200195c-0.2000122-0.0800171-0.3200073-0.1500244-0.3900146-0.2000122
	c0.2000122-0.2600098,0.4299927-0.5300293,0.6699829-0.8300171c1.4200439-1.6799927,3.3600464-4.0100098,3.3600464-7.4400024
	c0-2.4299927,1.6799927-4.5100098,4.0299683-5.2399902c0.2399902-0.0700073,0.3800049-0.2999878,0.3500366-0.539978
	c-0.0100098-0.0800171-0.0200195-0.1600342-0.0200195-0.2300415c0-0.9400024,0.7399902-1.6799927,1.6199951-1.6799927
	c0.8699951,0,1.6099854,0.7399902,1.6099854,1.6799927c0,0.1000366-0.0100098,0.1900024-0.0199585,0.3000488
	c-0.0400391,0.2399902,0.0999756,0.4699707,0.3199463,0.5499878c2.2400513,0.789978,3.8000488,2.8099976,3.8000488,5.1599731
	c0,1.5,0.6900024,3.1600342,1.539978,4.6099854c0.8400269,1.4700317,1.8900146,2.7900391,2.6599731,3.6400146
	C47.8499756,23.3599854,47.7299805,23.4299927,47.5100098,23.5300293z"/>
<path style="fill:#EDEDED;" d="M47.9099731,23.2999878c-0.0599976,0.0599976-0.1799927,0.1300049-0.3999634,0.2300415
	C46.9000244,23.789978,45.8900146,24,44.6799927,24.1799927c-2.3900146,0.3400269-5.3300171,0.4899902-6.75,0.4899902
	c-1.4099731,0-4.3300171-0.1699829-6.710022-0.5100098C30.0200195,23.9799805,29,23.7700195,28.3800049,23.5200195
	c-0.2000122-0.0800171-0.3200073-0.1500244-0.3900146-0.2000122c0.2000122-0.2600098,0.4299927-0.5300293,0.6699829-0.8300171
	c1.4200439-1.6799927,3.3600464-4.0100098,3.3600464-7.4400024c0-2.4299927,1.6799927-4.5100098,4.0299683-5.2399902
	c0.2399902-0.0700073,0.3800049-0.2999878,0.3500366-0.539978c-0.0100098-0.0800171-0.0200195-0.1600342-0.0200195-0.2300415
	c0-0.9400024,0.7399902-1.6799927,1.6199951-1.6799927c0.8699951,0,1.6099854,0.7399902,1.6099854,1.6799927
	c0,0.1000366-0.0100098,0.1900024-0.0199585,0.3000488c-0.0400391,0.2399902,0.0999756,0.4699707,0.3199463,0.5499878
	c2.2400513,0.789978,3.8000488,2.8099976,3.8000488,5.1599731c0,1.5,0.6900024,3.1600342,1.539978,4.6099854
	C46.0900269,21.1300049,47.1400146,22.4500122,47.9099731,23.2999878z"/>
</svg>
