<svg width="52" height="52" viewBox="0 0 52 52" fill="none" xmlns="http://www.w3.org/2000/svg">
<path opacity="0.1" d="M26.1166 3.40694C30.3407 0.313429 47.3435 19.2255 46.6056 20.5979C46.406 20.969 45.8805 21.817 45.4795 21.9465C44.7499 22.1819 29.3149 10.3092 29.3149 10.3092C29.3149 10.3092 51.9447 29.7126 51.5799 30.5351C51.2151 31.3576 49.7401 33.4863 48.3365 34.4193C46.801 35.4399 33.4677 27.7687 33.4677 27.7687C33.4677 27.7687 42.8497 38.7277 41.8732 40.4109C40.1817 43.3266 34.6405 47.6849 34.078 47.8187C32.9044 48.0979 23.0263 36.9621 22.5556 37.5258C22.0849 38.0895 27.4307 44.8469 27.4307 44.8469C27.4307 44.8469 26.4315 46.7892 25.8649 47.413C24.684 48.7132 -0.46664 28.9649 0.4989 26.7556C1.08951 25.4042 2.17198 24.1079 3.49761 22.5204C4.82324 20.9328 5.07305 20.7952 5.64081 20.5979C6.20858 20.4005 28.0054 34.3101 28.0054 34.3101C28.0054 34.3101 3.52931 11.4088 4.64922 9.18425C6.16497 6.17339 6.77643 5.429 9.47348 3.40694C11.2965 2.04021 39.1664 23.873 39.1664 23.873C39.1664 23.873 22.5731 8.80432 23.3504 6.71968C23.9392 5.14044 24.7568 4.40278 26.1166 3.40694Z" fill="#B2B2B2"/>
<path d="M19.34 16.1898L19.3 16.0298C19.25 15.8098 19.18 15.5898 19.12 15.3798C18.97 14.8698 18.83 14.3898 18.78 13.9099C18.68 13.0898 18.96 12.6298 19.71 12.3698C19.94 12.2998 20.08 12.0698 20.04 11.8398C20.01 11.5798 19.97 11.3198 19.93 11.0698C19.85 10.4998 19.77 9.96985 19.75 9.43982C19.73 8.91986 19.84 8.53986 20.15 8.18982C20.48 8.53986 20.83 8.88983 21.18 9.22986C21.3 9.34985 21.45 9.39984 21.64 9.47986C21.77 9.53986 21.92 9.53986 22.06 9.47986C22.19 9.41986 22.29 9.2998 22.33 9.15985L22.42 8.8598C22.45 8.71985 22.49 8.59985 22.53 8.46985C23.33 9.07983 24.36 9.50983 25.74 9.81982C26.47 9.98981 27.21 10.1298 27.94 10.2698C28.6 10.3998 29.26 10.5298 29.91 10.6699C30.53 10.8098 31.06 11.0798 31.43 11.4598C31.5 11.5298 31.55 11.6498 31.62 11.7899C31.66 11.8898 31.7 11.9898 31.76 12.0898C31.83 12.2198 31.96 12.3198 32.11 12.3499C33.19 12.5399 33.25 13.3998 33.2 13.8998C33.14 14.3698 33.01 14.8499 32.87 15.3499C32.81 15.5498 32.76 15.7398 32.71 15.9398C32.63 16.2299 32.56 16.5198 32.48 16.8098C32.44 16.5098 32.39 16.2098 32.33 15.9199C32.17 15.0798 31.84 14.4199 31.31 13.8998C31.06 13.6599 30.74 13.4799 30.43 13.3298C30.39 13.3098 30.35 13.2899 30.3 13.2899C30.23 13.2698 30.16 13.2498 30.08 13.2398C30.06 13.2299 30.03 13.2198 30 13.2198C29.5 13.1298 29.18 13.1798 28.73 13.2498C28.25 13.3298 27.52 13.4398 26.03 13.4498H25.78C25.14 13.4498 24.62 13.4298 24.17 13.3998H24.12C23.7 13.3598 23.35 13.3198 23.06 13.2899C22.17 13.1998 21.63 13.1398 20.95 13.5098C20.09 13.9698 19.61 15.0798 19.34 16.1898Z" fill="#E5E5E5"/>
<path d="M41.54 34.8798C41.77 36.3198 41.81 36.8499 41.2 38.4498C40.66 39.8398 31.25 39.7899 27.71 39.7798L26.3 39.7698L24.86 39.7798C21.51 39.7899 11.34 39.8398 10.8 38.4398C10.18 36.8499 10.23 36.3198 10.46 34.8898C11.14 31.7198 12.25 31.3698 18.39 29.3998L19.91 28.8998C21.15 31.0698 22.22 32.6098 23.2 33.5999C24.18 34.5898 25.09 35.0399 26.01 35.0399C27.86 35.0399 29.65 33.2498 32.14 28.8998L33.57 29.3698C39.88 31.3998 40.86 31.7098 41.54 34.8798Z" fill="#E5E5E5"/>
<path d="M19.65 19.5698C19.6 19.5798 19.56 19.5898 19.52 19.5898C19.54 19.5999 19.56 19.5999 19.58 19.5999C19.63 19.5999 19.69 19.5999 19.73 19.5898C19.8 19.5798 19.87 19.5399 19.93 19.4898L19.65 19.5698ZM24.29 13.3998H24.17C24.62 13.4298 25.14 13.4498 25.78 13.4498H26.03C25.45 13.4398 24.86 13.4199 24.29 13.3998Z" fill="#B2B2B2"/>
<path d="M42.53 34.7098C42.52 34.6998 42.52 34.6898 42.52 34.6798C41.71 30.9398 40.21 30.4498 33.88 28.4199L32.36 27.9298C32.34 27.8098 32.26 27.6998 32.14 27.6298C32.03 27.5698 31.31 27.0898 31.17 26.1998V26.1898C31.18 26.1599 31.18 26.1298 31.19 26.0999C31.25 25.8998 31.31 25.6398 31.38 25.2598C31.48 25.0798 31.59 24.8898 31.69 24.7098C32.1 23.9498 32.3 23.2798 32.32 22.5798C32.32 22.5298 32.33 22.4799 32.33 22.4298C32.46 22.4998 32.6 22.5399 32.75 22.5298C33.28 22.4698 33.38 21.8698 33.4699 21.3298L33.5 21.1699C33.62 20.6398 33.59 20.1398 33.56 19.6498C33.54 19.2798 33.51 18.9199 33.56 18.5898L33.6 18.3698C33.67 18.1599 33.76 17.8499 33.6 17.5498C33.56 17.4698 33.49 17.3798 33.38 17.3098C33.48 16.9398 33.58 16.5698 33.68 16.1898C33.73 15.9998 33.78 15.8098 33.83 15.6198C33.98 15.0999 34.13 14.5598 34.19 14.0098C34.34 12.7299 33.7 11.7398 32.54 11.4199C32.54 11.4099 32.54 11.3998 32.53 11.3898C32.44 11.1898 32.34 10.9598 32.15 10.7698C31.64 10.2398 30.94 9.86981 30.12 9.68982C29.46 9.5498 28.8 9.41986 28.13 9.28986C27.41 9.14984 26.68 9.00983 25.96 8.84985C24.63 8.5498 23.69 8.13983 22.99 7.55981C22.65 7.27985 22.37 7.27985 22.19 7.32983C22.02 7.37982 21.79 7.51984 21.67 7.87982C21.63 7.98981 21.59 8.09985 21.56 8.19983C21.31 7.95984 21.07 7.70984 20.83 7.45984C20.66 7.27985 20.45 7.09985 20.15 7.09985C19.88 7.12982 19.64 7.26984 19.48 7.42981C18.96 7.94983 18.72 8.61981 18.75 9.46985C18.77 10.0598 18.86 10.6498 18.95 11.2198C18.96 11.3398 18.98 11.4598 19 11.5898C18.28 11.9398 17.62 12.6398 17.78 14.0298C17.85 14.5898 18.01 15.1298 18.16 15.6599C18.22 15.8698 18.28 16.0698 18.34 16.2798L18.74 17.8098C18.7 17.8098 18.66 17.8098 18.61 17.8298L18.2 18.0198L18.29 18.4498C18.38 18.8499 18.39 19.2598 18.39 19.6898C18.4 20.1699 18.4 20.6599 18.52 21.1699L18.55 21.3298C18.64 21.8698 18.74 22.4698 19.26 22.5298C19.42 22.5399 19.56 22.4998 19.69 22.4298C19.7 22.4799 19.7 22.5399 19.7 22.5898C19.74 23.5598 20.13 24.3598 20.47 24.9598L20.52 25.0498C20.56 25.1198 20.6 25.1898 20.64 25.2598C20.71 25.6498 20.78 25.9099 20.83 26.1098C20.85 26.1898 20.87 26.2398 20.88 26.2998V26.3198C20.72 27.0898 19.9 27.5999 19.85 27.6298C19.73 27.6998 19.66 27.8198 19.63 27.9498L18.08 28.4398C11.78 30.4698 10.28 30.9498 9.47996 34.7098C9.21995 36.3198 9.18998 37.0399 9.86997 38.7998C10.49 40.4199 15.08 40.7798 23.33 40.7798H24.86L26.3 40.7698L27.7 40.7798C36.55 40.8098 41.47 40.5198 42.13 38.8098C42.81 37.0399 42.79 36.3198 42.53 34.7098ZM31.23 28.1998C30.1 30.1498 29.15 31.5498 28.3 32.4598C27.44 33.3698 26.7 33.7899 25.99 33.7899C24.58 33.7899 23.01 32.1098 20.77 28.1998C20.82 28.1599 20.88 28.1098 20.93 28.0598C21.36 27.6599 21.76 27.0999 21.87 26.4199C22.93 27.3898 24.5 28.6798 25.96 28.5598C27.4699 28.4398 28.88 27.6998 30.18 26.3499C30.3 27.0999 30.69 27.6898 31.1 28.0698V28.0798C31.14 28.1198 31.19 28.1599 31.23 28.1998ZM19.3 16.0298C19.25 15.8098 19.18 15.5898 19.12 15.3798C18.97 14.8698 18.83 14.3898 18.78 13.9099C18.68 13.0898 18.96 12.6298 19.71 12.3698C19.94 12.2998 20.08 12.0698 20.04 11.8398C20.01 11.5798 19.97 11.3198 19.93 11.0698C19.85 10.4998 19.77 9.96985 19.75 9.43982C19.73 8.91986 19.84 8.53986 20.15 8.18982C20.48 8.53986 20.83 8.88983 21.18 9.22986C21.3 9.34985 21.45 9.39984 21.64 9.47986C21.77 9.53986 21.92 9.53986 22.06 9.47986C22.19 9.41986 22.29 9.2998 22.33 9.15985L22.42 8.8598C22.45 8.71985 22.49 8.59985 22.53 8.46985C23.33 9.07983 24.36 9.50983 25.74 9.81982C26.4699 9.98981 27.21 10.1298 27.94 10.2698C28.6 10.3998 29.26 10.5298 29.91 10.6699C30.53 10.8098 31.06 11.0798 31.43 11.4598C31.5 11.5298 31.55 11.6498 31.62 11.7899C31.66 11.8898 31.7 11.9898 31.76 12.0898C31.83 12.2198 31.96 12.3198 32.11 12.3499C33.19 12.5399 33.25 13.3998 33.2 13.8998C33.14 14.3698 33.01 14.8499 32.87 15.3499C32.81 15.5498 32.76 15.7398 32.71 15.9398C32.63 16.2299 32.56 16.5198 32.48 16.8098C32.44 16.5098 32.39 16.2098 32.33 15.9199C32.17 15.0798 31.84 14.4199 31.31 13.8998C31.06 13.6599 30.74 13.4799 30.43 13.3298C30.39 13.3098 30.35 13.2899 30.3 13.2899C30.23 13.2698 30.16 13.2498 30.08 13.2398C30.06 13.2299 30.03 13.2198 30 13.2198C29.5 13.1298 29.18 13.1798 28.73 13.2498C28.25 13.3298 27.52 13.4398 26.03 13.4498H25.78C25.14 13.4498 24.62 13.4298 24.17 13.3998H24.12C23.7 13.3598 23.35 13.3198 23.06 13.2899C22.17 13.1998 21.63 13.1398 20.95 13.5098C20.09 13.9698 19.61 15.0798 19.34 16.1898L19.3 16.0298ZM20.7 22.5698C20.7 22.2899 20.65 22.0198 20.6 21.7598C20.58 21.6398 20.55 21.5198 20.53 21.3998L20.41 20.5598L19.73 21.0698C19.69 21.1098 19.63 21.1699 19.55 21.2398C19.54 21.2198 19.54 21.1898 19.54 21.1699C19.52 21.0798 19.51 21.0098 19.5 20.9498C19.4 20.5399 19.4 20.1198 19.39 19.6798V19.5999C19.43 19.6098 19.47 19.5999 19.52 19.5898C19.56 19.5898 19.6 19.5798 19.65 19.5698L19.93 19.4898C19.96 19.4698 19.98 19.4398 20.01 19.4099C20.06 19.3499 20.11 19.2899 20.13 19.2198C20.16 19.1498 20.19 19.0598 20.21 18.9498L20.26 18.3998C20.29 18.0999 20.32 17.8098 20.36 17.4998C20.5 16.5298 20.63 15.6098 21.19 14.7899C21.43 14.4498 21.69 14.2398 22.2 14.2398C22.22 14.2299 22.25 14.2398 22.27 14.2398C22.31 14.2398 22.36 14.2498 22.42 14.2498C22.5 14.2698 22.58 14.2798 22.68 14.2998C22.84 14.3298 23.01 14.3598 23.17 14.3698L24.04 14.3898L24.11 14.3998C24.57 14.4298 25.12 14.4498 25.78 14.4498H26.02C26.43 14.4598 26.84 14.4598 27.25 14.4598C27.82 14.4498 28.39 14.3898 28.93 14.3198C29.21 14.2899 29.5 14.2498 29.78 14.2198H29.9C29.91 14.2198 29.91 14.2198 29.91 14.2198C29.94 14.2198 29.9699 14.2198 29.9699 14.2198C30 14.2299 30.03 14.2498 30.06 14.2698C31.13 14.7899 31.48 17.6699 31.48 19.0898L31.5557 19.5927L32.24 19.5798L32.53 19.1699C32.54 19.2899 32.54 19.4099 32.55 19.5298C32.55 19.5898 32.56 19.6498 32.56 19.7098C32.59 20.1498 32.61 20.5598 32.52 20.9498C32.51 21.0098 32.5 21.0798 32.48 21.1699C32.48 21.1898 32.4699 21.2198 32.4699 21.2398C32.39 21.1699 32.33 21.1098 32.29 21.0698L31.61 20.5598L31.49 21.3998C31.4699 21.5198 31.45 21.6398 31.42 21.7598C31.37 22.0298 31.33 22.2899 31.32 22.5598C31.3 23.0898 31.14 23.6198 30.81 24.2398C30.81 24.2498 30.8 24.2498 30.8 24.2598C30.57 24.2899 30.42 24.4998 30.32 24.6398C28.96 26.4498 27.46 27.4398 25.88 27.5598C24.6 27.6098 22.82 25.9498 22.06 25.2198C21.84 25.0098 21.66 24.8398 21.5 24.7398C21.46 24.6798 21.42 24.6198 21.39 24.5498L21.33 24.4598C20.92 23.7299 20.72 23.1398 20.7 22.5698ZM41.2 38.4498C40.66 39.8398 31.25 39.7899 27.71 39.7798L26.3 39.7698L24.86 39.7798C21.51 39.7899 11.34 39.8398 10.8 38.4398C10.18 36.8499 10.23 36.3198 10.46 34.8898C11.14 31.7198 12.25 31.3698 18.39 29.3998L19.91 28.8998C21.15 31.0698 22.22 32.6098 23.2 33.5999C24.18 34.5898 25.09 35.0399 26.01 35.0399C27.86 35.0399 29.65 33.2498 32.14 28.8998L33.57 29.3698C39.88 31.3998 40.86 31.7098 41.54 34.8798C41.77 36.3198 41.81 36.8499 41.2 38.4498Z" fill="#B2B2B2"/>
<path d="M31.1 28.0698V28.0798C31.14 28.1198 31.19 28.1599 31.23 28.1998C30.1 30.1498 29.15 31.5498 28.3 32.4598C27.44 33.3698 26.7 33.7899 25.99 33.7899C24.58 33.7899 23.01 32.1098 20.77 28.1998C20.82 28.1599 20.88 28.1098 20.93 28.0598C21.36 27.6599 21.76 27.0999 21.87 26.4199C22.93 27.3898 24.5 28.6798 25.96 28.5598C27.47 28.4398 28.88 27.6998 30.18 26.3499C30.3 27.0999 30.69 27.6898 31.1 28.0698Z" fill="white"/>
<path d="M31.32 22.5598C31.3 23.0898 31.14 23.6198 30.81 24.2398C30.81 24.2498 30.8 24.2498 30.8 24.2598C30.57 24.2899 30.42 24.4998 30.32 24.6398C28.96 26.4498 27.46 27.4398 25.88 27.5598C24.6 27.6098 22.82 25.9498 22.06 25.2198C21.84 25.0098 21.66 24.8398 21.5 24.7398C21.46 24.6798 21.42 24.6198 21.39 24.5498L21.33 24.4598C20.92 23.7299 20.72 23.1398 20.7 22.5698C20.7 22.2899 20.65 22.0198 20.6 21.7598C20.58 21.6398 20.55 21.5198 20.53 21.3998L20.41 20.5598L19.73 21.0698C19.69 21.1098 19.63 21.1699 19.55 21.2398C19.54 21.2198 19.54 21.1898 19.54 21.1699C19.52 21.0798 19.51 21.0098 19.5 20.9498C19.4 20.5399 19.4 20.1198 19.39 19.6798V19.5999C19.43 19.6098 19.47 19.5999 19.52 19.5898C19.56 19.5898 19.6 19.5798 19.65 19.5698L19.93 19.4898C19.96 19.4698 19.98 19.4398 20.01 19.4099C20.06 19.3499 20.11 19.2899 20.13 19.2198C20.16 19.1498 20.19 19.0598 20.21 18.9498L20.26 18.3998C20.29 18.0999 20.32 17.8098 20.36 17.4998C20.5 16.5298 20.63 15.6098 21.19 14.7899C21.43 14.4498 21.69 14.2398 22.2 14.2398C22.22 14.2299 22.25 14.2398 22.27 14.2398C22.31 14.2398 22.36 14.2498 22.42 14.2498C22.5 14.2698 22.58 14.2798 22.68 14.2998C22.84 14.3298 23.01 14.3598 23.17 14.3698L24.04 14.3898L24.11 14.3998C24.57 14.4298 25.12 14.4498 25.78 14.4498H26.02C26.43 14.4598 26.84 14.4598 27.25 14.4598C27.82 14.4498 28.39 14.3898 28.93 14.3198C29.21 14.2899 29.5 14.2498 29.78 14.2198H29.9C29.91 14.2198 29.91 14.2198 29.91 14.2198C29.94 14.2198 29.97 14.2198 29.97 14.2198C30 14.2299 30.03 14.2498 30.06 14.2698C31.13 14.7899 31.48 17.6699 31.48 19.0898L31.56 19.5898L32.24 19.5798L32.53 19.1699C32.54 19.2899 32.54 19.4099 32.55 19.5298C32.55 19.5898 32.56 19.6498 32.56 19.7098C32.59 20.1498 32.61 20.5598 32.52 20.9498C32.51 21.0098 32.5 21.0798 32.48 21.1699C32.48 21.1898 32.47 21.2198 32.47 21.2398C32.39 21.1699 32.33 21.1098 32.29 21.0698L31.61 20.5598L31.49 21.3998C31.47 21.5198 31.45 21.6398 31.42 21.7598C31.37 22.0298 31.33 22.2899 31.32 22.5598Z" fill="white"/>
</svg>
