<svg width="52" height="52" viewBox="0 0 52 52" fill="none" xmlns="http://www.w3.org/2000/svg">
<path opacity="0.08" d="M26.1738 3.49099C30.4191 0.381955 47.5072 19.3889 46.7656 20.7682C46.5651 21.1412 46.0368 21.9935 45.6338 22.1236C44.9006 22.3602 29.3881 10.4279 29.3881 10.4279C29.3881 10.4279 52.1315 29.9286 51.7649 30.7553C51.3983 31.582 49.9159 33.7214 48.5052 34.659C46.962 35.6847 33.5618 27.975 33.5618 27.975C33.5618 27.975 42.9909 38.989 42.0095 40.6807C40.3095 43.611 34.7404 47.9911 34.1752 48.1256C32.9957 48.4062 23.068 37.2146 22.5949 37.7811C22.1218 38.3477 27.4945 45.1389 27.4945 45.1389C27.4945 45.1389 26.4902 47.0909 25.9208 47.7179C24.734 49.0246 -0.542884 29.1773 0.427502 26.9568C1.02107 25.5986 2.10898 24.2958 3.44126 22.7003C4.77354 21.1049 5.02461 20.9666 5.59522 20.7682C6.16584 20.5699 28.0721 34.5493 28.0721 34.5493C28.0721 34.5493 3.47312 11.533 4.59865 9.29731C6.12201 6.27133 6.73654 5.5232 9.44713 3.491C11.2793 2.11741 39.2891 24.0598 39.2891 24.0598C39.2891 24.0598 22.6125 8.91547 23.3937 6.82036C23.9854 5.2332 24.8072 4.49183 26.1738 3.49099Z" fill="#B2B2B2"/>
<path d="M35 30.4998H10.5V10.9998C10.5 10.7198 10.72 10.4998 11 10.4998H34.5C34.78 10.4998 35 10.7198 35 10.9998V30.4998Z" fill="white"/>
<path fill-rule="evenodd" clip-rule="evenodd" d="M19 16.7498V16.8598C18.94 18.0498 17.95 18.9998 16.75 18.9998C16.2 18.9998 15.69 18.7998 15.3 18.4698C14.81 18.0498 14.5 17.4398 14.5 16.7498C14.5 16.7098 14.5 16.6699 14.51 16.6298C14.57 15.4498 15.55 14.4998 16.75 14.4998C17.66 14.4998 18.45 15.0498 18.8 15.8398C18.93 16.1198 19 16.4199 19 16.7498Z" fill="#EDEDED"/>
<path d="M34.5 34.9998H11C10.72 34.9998 10.5 34.7798 10.5 34.4998V31.4998H35V34.4998C35 34.7798 34.78 34.9998 34.5 34.9998Z" fill="white"/>
<path d="M39.83 19.2299L37.99 39.7098C37.96 39.9799 37.72 40.1798 37.45 40.1599L14.04 38.0598C13.91 38.0498 13.79 37.9799 13.7 37.8798C13.62 37.7798 13.58 37.6498 13.59 37.5198L13.73 35.9998H34.5C35.33 35.9998 36 35.3298 36 34.4998V18.3898L39.38 18.6898C39.65 18.7198 39.85 18.9598 39.83 19.2299Z" fill="white"/>
<path d="M39.46 17.6898L36 17.3798V10.9998C36 10.1699 35.33 9.49982 34.5 9.49982H11C10.17 9.49982 9.5 10.1699 9.5 10.9998V34.4998C9.5 35.3298 10.17 35.9998 11 35.9998H12.72L12.59 37.4298C12.56 37.8198 12.68 38.2098 12.93 38.5198C13.19 38.8298 13.55 39.0198 13.95 39.0498L37.36 41.1599H37.49C38.26 41.1599 38.92 40.5798 38.99 39.7998L40.83 19.3198C40.9 18.4998 40.29 17.7698 39.46 17.6898ZM10.5 10.9998C10.5 10.7198 10.72 10.4998 11 10.4998H34.5C34.78 10.4998 35 10.7198 35 10.9998V30.4998H10.5V10.9998ZM11 34.9998C10.72 34.9998 10.5 34.7798 10.5 34.4998V31.4998H35V34.4998C35 34.7798 34.78 34.9998 34.5 34.9998H11ZM37.99 39.7098C37.96 39.9799 37.72 40.1798 37.45 40.1599L14.04 38.0598C13.91 38.0498 13.79 37.9799 13.7 37.8798C13.62 37.7798 13.58 37.6498 13.59 37.5198L13.73 35.9998H34.5C35.33 35.9998 36 35.3298 36 34.4998V18.3898L39.38 18.6898C39.65 18.7198 39.85 18.9598 39.83 19.2299L37.99 39.7098Z" fill="#B2B2B2"/>
<path fill-rule="evenodd" clip-rule="evenodd" d="M30.8 30.4998H14.8L18.23 24.7899C18.3801 24.4599 18.7001 24.2498 19.0601 24.2199C19.41 24.1898 19.7601 24.3598 19.9601 24.6499L22.7501 27.9998L25.8801 21.1198C26.22 20.3698 26.7601 20.3798 27.0601 21.1399L30.8 30.4998Z" fill="#EDEDED"/>
</svg>
