<svg width="52" height="52" viewBox="0 0 52 52" fill="none" xmlns="http://www.w3.org/2000/svg">
<path opacity="0.1" d="M26.1166 3.40694C30.3407 0.313429 47.3435 19.2255 46.6056 20.5979C46.406 20.969 45.8805 21.817 45.4795 21.9465C44.7499 22.1819 29.3149 10.3092 29.3149 10.3092C29.3149 10.3092 51.9447 29.7126 51.5799 30.5351C51.2151 31.3576 49.7401 33.4863 48.3365 34.4193C46.801 35.4399 33.4677 27.7687 33.4677 27.7687C33.4677 27.7687 42.8497 38.7277 41.8732 40.4109C40.1817 43.3266 34.6405 47.6849 34.078 47.8187C32.9044 48.0979 23.0263 36.9621 22.5556 37.5258C22.0849 38.0895 27.4307 44.8469 27.4307 44.8469C27.4307 44.8469 26.4315 46.7892 25.8649 47.413C24.684 48.7132 -0.46664 28.9649 0.4989 26.7556C1.08951 25.4042 2.17198 24.1079 3.49761 22.5204C4.82324 20.9328 5.07305 20.7952 5.64081 20.5979C6.20858 20.4005 28.0054 34.3101 28.0054 34.3101C28.0054 34.3101 3.52931 11.4088 4.64922 9.18425C6.16497 6.17339 6.77643 5.429 9.47348 3.40694C11.2965 2.04021 39.1664 23.873 39.1664 23.873C39.1664 23.873 22.5731 8.80432 23.3504 6.71968C23.9392 5.14044 24.7568 4.40278 26.1166 3.40694Z" fill="#B2B2B2"/>
<path d="M34.3523 32.3946L41.8028 39.844C42.4032 40.4443 42.4032 41.4265 41.8028 42.0266L41.0159 42.8135C40.4156 43.4138 39.4334 43.4138 38.8333 42.8135L31.3337 35.3152" fill="#B2B2B2" fill-opacity="0.2"/>
<path fill-rule="evenodd" clip-rule="evenodd" d="M33.9987 32.0411C34.1939 31.8458 34.5105 31.8458 34.7058 32.041L42.1564 39.4904C42.9519 40.2859 42.952 41.5847 42.1564 42.3802C42.1564 42.3802 42.1564 42.3801 42.1564 42.3802L41.3695 43.1671C40.574 43.9626 39.2752 43.9627 38.4798 43.1671C38.4797 43.1671 38.4798 43.1671 38.4798 43.1671L30.9802 35.6688C30.7849 35.4735 30.7849 35.1569 30.9802 34.9617C31.1754 34.7664 31.492 34.7664 31.6873 34.9616L39.1868 42.4599C39.5916 42.8649 40.2573 42.865 40.6624 42.46L41.4493 41.673C41.8542 41.2682 41.8544 40.6026 41.4493 40.1975C41.4493 40.1975 41.4493 40.1976 41.4493 40.1975L33.9987 32.7482C33.8035 32.5529 33.8034 32.2363 33.9987 32.0411Z" fill="#B2B2B2"/>
<path d="M23.2959 37.8752C30.7788 37.8752 36.8448 31.8091 36.8448 24.3263C36.8448 16.8434 30.7788 10.7773 23.2959 10.7773C15.813 10.7773 9.74695 16.8434 9.74695 24.3263C9.74695 31.8091 15.813 37.8752 23.2959 37.8752Z" fill="#B2B2B2" fill-opacity="0.2"/>
<path fill-rule="evenodd" clip-rule="evenodd" d="M23.2959 11.2773C16.0892 11.2773 10.247 17.1195 10.247 24.3263C10.247 31.533 16.0892 37.3752 23.2959 37.3752C30.5026 37.3752 36.3448 31.533 36.3448 24.3263C36.3448 17.1195 30.5026 11.2773 23.2959 11.2773ZM9.24695 24.3263C9.24695 16.5673 15.5369 10.2773 23.2959 10.2773C31.0549 10.2773 37.3448 16.5673 37.3448 24.3263C37.3448 32.0853 31.0549 38.3752 23.2959 38.3752C15.5369 38.3752 9.24695 32.0853 9.24695 24.3263Z" fill="#B2B2B2"/>
<path d="M23.2881 36.3488C29.924 36.3488 35.3034 30.9694 35.3034 24.3336C35.3034 17.6977 29.924 12.3183 23.2881 12.3183C16.6523 12.3183 11.2729 17.6977 11.2729 24.3336C11.2729 30.9694 16.6523 36.3488 23.2881 36.3488Z" fill="white"/>
<path fill-rule="evenodd" clip-rule="evenodd" d="M23.2881 12.8183C16.9284 12.8183 11.7729 17.9739 11.7729 24.3336C11.7729 30.6933 16.9284 35.8488 23.2881 35.8488C29.6478 35.8488 34.8034 30.6933 34.8034 24.3336C34.8034 17.9739 29.6479 12.8183 23.2881 12.8183ZM10.7729 24.3336C10.7729 17.4216 16.3762 11.8183 23.2881 11.8183C30.2001 11.8183 35.8034 17.4216 35.8034 24.3336C35.8034 31.2456 30.2001 36.8488 23.2881 36.8488C16.3762 36.8488 10.7729 31.2456 10.7729 24.3336Z" fill="#B2B2B2"/>
<path fill-rule="evenodd" clip-rule="evenodd" d="M35.05 16.0098C34.3301 16.2198 33.6301 16.5399 33.1301 17.0298C32.6201 17.5298 32.29 18.2299 32.0601 18.9598C31.8401 18.2299 31.5101 17.5298 31.0101 17.0298C30.5101 16.5298 29.8101 16.2098 29.0901 15.9898C29.8101 15.7598 30.5101 15.4199 31.0101 14.9099C31.5201 14.3898 31.85 13.6599 32.0701 12.9099C32.3101 13.6798 32.6501 14.4298 33.1801 14.9598C33.67 15.4498 34.35 15.7798 35.05 16.0098Z" fill="white"/>
<path fill-rule="evenodd" clip-rule="evenodd" d="M31.5689 23.1577L32.0685 23.1373L32.5682 23.1536C32.5594 23.4225 32.3395 23.6362 32.0705 23.6373C31.8015 23.6384 31.5799 23.4265 31.5689 23.1577ZM31.566 22.474C31.5621 22.6795 31.5627 22.8473 31.5643 22.9651C31.5652 23.0252 31.5663 23.0723 31.5672 23.1049L31.5684 23.1428L31.5687 23.1532L31.5688 23.1562L31.5689 23.1577L32.0685 23.1373L32.5682 23.1536L32.5684 23.1492L32.5686 23.1388L32.5695 23.101C32.5702 23.0685 32.5709 23.0214 32.5713 22.9614C32.5721 22.8437 32.5715 22.6761 32.5663 22.4708C32.5788 21.8618 32.6336 20.9224 32.8253 20.001C33.0223 19.0543 33.3458 18.219 33.8323 17.7433C34.3218 17.2646 35.1784 16.9562 36.1361 16.7762C37.0675 16.6012 38.0037 16.5634 38.5765 16.5601C38.7486 16.5662 38.8882 16.5683 38.986 16.5689C39.0359 16.5693 39.075 16.5692 39.102 16.569L39.1335 16.5687L39.1421 16.5686H39.1447H39.1458C39.4154 16.5638 39.6329 16.3461 39.6371 16.0764C39.6413 15.8068 39.4309 15.5824 39.1615 15.5692H39.1602L39.1577 15.569L39.149 15.5687L39.1176 15.5674C39.0905 15.5664 39.0515 15.5651 39.0015 15.5639C38.9037 15.5615 38.7641 15.5593 38.5919 15.56C38.0224 15.5393 37.094 15.4735 36.171 15.2734C35.2227 15.0678 34.3715 14.7391 33.8848 14.2523C33.341 13.7085 32.9989 12.7161 32.802 11.6596C32.6108 10.6332 32.5748 9.65357 32.569 9.22561C32.5696 9.15298 32.5695 9.09552 32.5692 9.05544L32.5687 9.00775L32.5685 8.99472L32.5684 8.99101V8.98986C32.5625 8.71761 32.3398 8.49947 32.0675 8.5C31.7952 8.50054 31.5734 8.7189 31.5686 8.99118L31.5685 8.99299V8.9967L31.5683 9.00972L31.568 9.05741C31.5679 9.09749 31.568 9.15494 31.5689 9.22757C31.5648 9.65239 31.5331 10.6207 31.3493 11.6362C31.16 12.6816 30.8281 13.6649 30.297 14.2076C29.8159 14.6992 28.973 15.0354 28.0281 15.2491C27.1081 15.457 26.1769 15.5307 25.5905 15.556C25.404 15.5559 25.2522 15.5591 25.1457 15.5624C25.0913 15.5641 25.0487 15.5658 25.0192 15.5671L24.9849 15.5687L24.9755 15.5692L24.9727 15.5694H24.9715C24.7027 15.5848 24.4941 15.8103 24.5 16.0794C24.5058 16.3486 24.7237 16.5649 24.9929 16.5686H24.997L25.0064 16.5687L25.0406 16.5689C25.0701 16.5689 25.1126 16.5688 25.1669 16.5682C25.2732 16.567 25.4248 16.5638 25.6111 16.556C26.1955 16.5573 27.1223 16.5936 28.039 16.7685C28.9812 16.9482 29.819 17.2576 30.3008 17.7393C30.7774 18.216 31.0984 19.0535 31.2967 20.0018C31.4897 20.9243 31.5496 21.8646 31.566 22.474ZM32.0611 18.9574C32.2862 18.2314 32.6224 17.5278 33.1332 17.0283C33.634 16.5385 34.3313 16.2193 35.0491 16.0078C34.3461 15.7792 33.666 15.4478 33.1777 14.9594C32.6513 14.433 32.3056 13.6816 32.0747 12.9133C31.8511 13.6609 31.5174 14.3902 31.0117 14.9071C30.5143 15.4153 29.814 15.7585 29.0921 15.9942C29.8096 16.2074 30.5071 16.5314 31.0079 17.0322C31.5068 17.5312 31.8376 18.2331 32.0611 18.9574Z" fill="#B2B2B2"/>
<path fill-rule="evenodd" clip-rule="evenodd" d="M37.1983 35.1463L34.1159 38.2287L33.4088 37.5216L36.4912 34.4392L37.1983 35.1463Z" fill="#B2B2B2"/>
<path fill-rule="evenodd" clip-rule="evenodd" d="M25.0459 19.5228C25.322 19.5228 25.5459 19.7467 25.5459 20.0228V22.0182C25.9435 21.7817 26.4749 21.5861 27.1406 21.5861C28.0703 21.5861 28.6757 22.0941 29.021 22.7333C29.3517 23.3453 29.4567 24.0882 29.4567 24.689C29.4567 25.3225 29.287 26.0535 28.9309 26.6421C28.5712 27.2365 27.9776 27.7443 27.1406 27.7443C26.444 27.7443 25.9161 27.5945 25.5239 27.3915C25.4611 27.5958 25.2708 27.7443 25.0459 27.7443C24.7698 27.7443 24.5459 27.5205 24.5459 27.2443V20.0228C24.5459 19.7467 24.7698 19.5228 25.0459 19.5228ZM25.5459 26.1531V23.3037C25.5475 23.3018 25.5491 23.3 25.5507 23.2981C25.6178 23.221 25.7217 23.1151 25.8624 23.0086C26.1416 22.7974 26.562 22.5861 27.1406 22.5861C27.6309 22.5861 27.9334 22.824 28.1412 23.2086C28.3636 23.6202 28.4567 24.1788 28.4567 24.689C28.4567 25.1665 28.3242 25.7131 28.0753 26.1244C27.8299 26.5299 27.5154 26.7443 27.1406 26.7443C26.4127 26.7443 25.9955 26.5391 25.7704 26.3705C25.6603 26.288 25.5885 26.2085 25.5459 26.1531Z" fill="#B2B2B2"/>
<path fill-rule="evenodd" clip-rule="evenodd" d="M20.4588 20.0473C20.6602 20.0466 20.8424 20.1669 20.9209 20.3525L23.7542 27.0495C23.8618 27.3038 23.7429 27.5972 23.4886 27.7048C23.2342 27.8124 22.9409 27.6935 22.8333 27.4391L22.0769 25.6515H18.8746L18.0935 27.4441C17.9832 27.6972 17.6885 27.813 17.4354 27.7027C17.1822 27.5924 17.0665 27.2977 17.1768 27.0446L18.087 24.9557L19.9987 20.3554C20.076 20.1694 20.2573 20.0479 20.4588 20.0473ZM19.2963 24.6515H21.6539L20.4645 21.8403L19.2963 24.6515Z" fill="#B2B2B2"/>
</svg>
