<svg width="52" height="52" viewBox="0 0 52 52" fill="none" xmlns="http://www.w3.org/2000/svg">
<path opacity="0.1" d="M26.1166 3.40694C30.3407 0.313429 47.3435 19.2255 46.6056 20.5979C46.406 20.969 45.8805 21.817 45.4795 21.9465C44.7499 22.1819 29.3149 10.3092 29.3149 10.3092C29.3149 10.3092 51.9447 29.7126 51.5799 30.5351C51.2151 31.3576 49.7401 33.4863 48.3365 34.4193C46.801 35.4399 33.4677 27.7687 33.4677 27.7687C33.4677 27.7687 42.8497 38.7277 41.8732 40.4109C40.1817 43.3266 34.6405 47.6849 34.078 47.8187C32.9044 48.0979 23.0263 36.9621 22.5556 37.5258C22.0849 38.0895 27.4307 44.8469 27.4307 44.8469C27.4307 44.8469 26.4315 46.7892 25.8649 47.413C24.684 48.7132 -0.46664 28.9649 0.4989 26.7556C1.08951 25.4042 2.17198 24.1079 3.49761 22.5204C4.82324 20.9328 5.07305 20.7952 5.64081 20.5979C6.20858 20.4005 28.0054 34.3101 28.0054 34.3101C28.0054 34.3101 3.52931 11.4088 4.64922 9.18425C6.16497 6.17339 6.77643 5.429 9.47348 3.40694C11.2965 2.04021 39.1664 23.873 39.1664 23.873C39.1664 23.873 22.5731 8.80432 23.3504 6.71968C23.9392 5.14044 24.7568 4.40278 26.1166 3.40694Z" fill="#B2B2B2"/>
<path fill-rule="evenodd" clip-rule="evenodd" d="M4.07007 31.0999L21.3401 21.4998L22.3401 20.9398L24.1201 19.9498L22.3401 21.8098L21.3401 22.8499L10.7501 33.8798L4.07007 31.0999Z" fill="#E5E5E5"/>
<path fill-rule="evenodd" clip-rule="evenodd" d="M12.71 39.6599L11.4299 34.6198L21.34 24.2899L22.34 23.2598L21.34 24.6599L13.7999 35.2299C13.7599 35.2798 13.7299 35.3298 13.71 35.3898V35.3998C13.7 35.4099 13.7 35.4099 13.7 35.4199L12.71 39.6599Z" fill="#E5E5E5"/>
<path fill-rule="evenodd" clip-rule="evenodd" d="M13.71 39.7698L14.5399 36.2299L16.0599 36.8898L13.71 39.7698Z" fill="#E5E5E5"/>
<path fill-rule="evenodd" clip-rule="evenodd" d="M22.9699 35.5498L22.78 36.5298L22.4299 38.4199L17.0599 36.2299L14.96 35.3298L21.34 26.3898L22.34 24.9898L25.8699 20.0498L22.9699 35.5498Z" fill="#E5E5E5"/>
<path fill-rule="evenodd" clip-rule="evenodd" d="M40.3599 10.3598V12.6599C40.3599 13.0598 40.03 13.3898 39.6299 13.3898H29.4099C29.0099 13.3898 28.6799 13.0598 28.6799 12.6599V10.3598C28.6799 9.95984 29.0099 9.62982 29.4099 9.62982H31.0599C31.5999 9.62982 32.1299 9.39984 32.4899 8.97986C32.9799 8.40985 33.71 8.0498 34.52 8.0498C35.33 8.0498 36.0499 8.40985 36.5399 8.97986C36.9 9.39984 37.4399 9.62982 37.9799 9.62982H39.6299C40.03 9.62982 40.3599 9.95984 40.3599 10.3598Z" fill="#E5E5E5"/>
<path fill-rule="evenodd" clip-rule="evenodd" d="M46.7001 11.9799V34.7998C46.7001 35.2299 46.35 35.5698 45.9301 35.5698H23.98L27.2601 18.0598C27.2501 18.0698 27.2501 18.0798 27.2401 18.0898C27.2501 18.0598 27.2601 18.0399 27.2701 18.0098C27.2801 17.9698 27.2801 17.9398 27.2801 17.9099C27.2801 17.8998 27.2801 17.8898 27.2801 17.8898C27.2801 17.8398 27.2701 17.7899 27.2501 17.7398C27.2501 17.7299 27.2401 17.7198 27.2401 17.7098C27.2401 17.6998 27.23 17.6898 27.22 17.6798C27.22 17.6599 27.2101 17.6398 27.1901 17.6298C27.1901 17.6098 27.17 17.5898 27.16 17.5798C27.16 17.5798 27.1501 17.5698 27.1401 17.5598C27.1401 17.5598 27.1301 17.5498 27.1201 17.5399C27.0701 17.4998 27.0201 17.4698 26.9601 17.4498C26.9301 17.4398 26.91 17.4298 26.8801 17.4199C26.85 17.4099 26.8201 17.4099 26.7801 17.4099C26.72 17.4099 26.67 17.4199 26.6201 17.4398C26.61 17.4398 26.6 17.4398 26.5901 17.4498L26.5801 17.4598H26.5701C26.54 17.4698 26.5201 17.4799 26.4901 17.4998L22.3401 19.7998V11.9799C22.3401 11.5598 22.6801 11.2198 23.11 11.2198H25.8C25.98 11.2198 26.1301 11.1298 26.22 10.9998H27.6801V12.6599C27.6801 13.6098 28.4601 14.3898 29.41 14.3898H39.6301C40.5801 14.3898 41.36 13.6098 41.36 12.6599V10.9998H42.8201C42.91 11.1298 43.0601 11.2198 43.23 11.2198H45.9301C46.35 11.2198 46.7001 11.5598 46.7001 11.9799Z" fill="white"/>
<path fill-rule="evenodd" clip-rule="evenodd" d="M45.93 10.2198H43.23C42.96 10.2198 42.73 10.4398 42.73 10.7198C42.73 10.9898 42.96 11.2198 43.23 11.2198H45.93C46.35 11.2198 46.7 11.5598 46.7 11.9799V34.7998C46.7 35.2299 46.35 35.5698 45.93 35.5698H23.98L27.26 18.0598C27.25 18.0698 27.25 18.0798 27.24 18.0898C27.25 18.0598 27.26 18.0399 27.27 18.0098C27.28 17.9698 27.28 17.9398 27.28 17.9099C27.28 17.8998 27.28 17.8898 27.28 17.8898C27.28 17.8398 27.27 17.7899 27.25 17.7398C27.25 17.7299 27.24 17.7198 27.24 17.7098C27.24 17.6998 27.23 17.6898 27.22 17.6798C27.22 17.6599 27.21 17.6398 27.19 17.6298C27.19 17.6098 27.17 17.5898 27.16 17.5798C27.16 17.5798 27.15 17.5698 27.14 17.5598C27.14 17.5598 27.13 17.5498 27.12 17.5399C27.07 17.4998 27.02 17.4698 26.96 17.4498C26.93 17.4398 26.91 17.4298 26.88 17.4199C26.85 17.4099 26.82 17.4099 26.78 17.4099C26.72 17.4099 26.67 17.4199 26.62 17.4398C26.61 17.4398 26.6 17.4398 26.59 17.4498L26.58 17.4598H26.57C26.54 17.4698 26.52 17.4799 26.49 17.4998L22.34 19.7998V11.9799C22.34 11.5598 22.68 11.2198 23.11 11.2198H25.8C26.08 11.2198 26.3 10.9898 26.3 10.7198C26.3 10.4398 26.08 10.2198 25.8 10.2198H23.11C22.13 10.2198 21.34 11.0098 21.34 11.9799V20.3598L2.68001 30.7198C2.51003 30.8198 2.40999 30.9998 2.42 31.1898C2.43001 31.3798 2.55 31.5498 2.73 31.6198L10.45 34.8398L12.25 41.8898C12.29 42.0698 12.44 42.2098 12.62 42.2498C12.81 42.2899 13 42.2299 13.12 42.0798L17.02 37.2998L22.61 39.5798C22.75 39.6298 22.91 39.6298 23.04 39.5498C23.17 39.4799 23.27 39.3499 23.3 39.2098L23.79 36.5698H45.93C46.9 36.5698 47.7 35.7798 47.7 34.7998V11.9799C47.7 11.0098 46.9 10.2198 45.93 10.2198ZM4.07002 31.0999L21.34 21.4998L22.34 20.9398L24.12 19.9498L22.34 21.8098L21.34 22.8499L10.75 33.8798L4.07002 31.0999ZM12.71 39.6599L11.43 34.6198L21.34 24.2899L22.34 23.2598L21.34 24.6599L13.8 35.2299C13.76 35.2798 13.73 35.3298 13.71 35.3898V35.3998C13.7 35.4099 13.7 35.4099 13.7 35.4199L12.71 39.6599ZM13.71 39.7698L14.54 36.2299L16.06 36.8898L13.71 39.7698ZM22.97 35.5498L22.78 36.5298L22.43 38.4199L17.06 36.2299L14.96 35.3298L21.34 26.3898L22.34 24.9898L25.87 20.0498L22.97 35.5498Z" fill="#B2B2B2"/>
<path fill-rule="evenodd" clip-rule="evenodd" d="M33.5427 10.7156C33.5427 10.4395 33.7666 10.2156 34.0427 10.2156H34.9936C35.2697 10.2156 35.4936 10.4395 35.4936 10.7156C35.4936 10.9917 35.2697 11.2156 34.9936 11.2156H34.0427C33.7666 11.2156 33.5427 10.9917 33.5427 10.7156Z" fill="#B2B2B2"/>
<path fill-rule="evenodd" clip-rule="evenodd" d="M41.1615 18.6343C41.3587 18.8276 41.3617 19.1442 41.1683 19.3413L33.4441 27.2151C33.3506 27.3103 33.223 27.3643 33.0896 27.3649C32.9562 27.3656 32.828 27.3129 32.7336 27.2186L28.7665 23.2526C28.5712 23.0574 28.5712 22.7408 28.7664 22.5455C28.9616 22.3502 29.2782 22.3502 29.4735 22.5454L33.0837 26.1545L40.4545 18.641C40.6478 18.4439 40.9644 18.4409 41.1615 18.6343Z" fill="#B2B2B2"/>
<path fill-rule="evenodd" clip-rule="evenodd" d="M9.38122 8.02709C9.5765 7.83185 9.89308 7.83187 10.0883 8.02715C10.422 8.36091 10.7643 8.73797 11.092 9.14228C11.2658 9.35683 11.2328 9.67169 11.0183 9.84554C10.8037 10.0194 10.4889 9.98641 10.315 9.77186C10.0099 9.39538 9.69103 9.04411 9.38116 8.7342C9.18592 8.53892 9.18594 8.22234 9.38122 8.02709Z" fill="#B2B2B2"/>
<path fill-rule="evenodd" clip-rule="evenodd" d="M12.0314 11.4521C12.2878 11.3494 12.5788 11.474 12.6815 11.7303C12.8891 12.2486 13.0269 12.7838 13.0416 13.3066C13.0542 13.7564 13.0139 14.1775 12.9206 14.5736C12.8573 14.8424 12.5881 15.009 12.3193 14.9457C12.0505 14.8824 11.8839 14.6132 11.9472 14.3444C12.0188 14.0407 12.0524 13.7067 12.042 13.3346C12.0316 12.9637 11.9316 12.5476 11.7532 12.1021C11.6505 11.8458 11.7751 11.5547 12.0314 11.4521Z" fill="#B2B2B2"/>
<path fill-rule="evenodd" clip-rule="evenodd" d="M8.4222 12.6395C8.49567 12.3733 8.77103 12.2171 9.03721 12.2906C9.8681 12.5199 10.6507 12.9896 11.2992 13.6183C11.4975 13.8105 11.5024 14.127 11.3102 14.3253C11.118 14.5236 10.8014 14.5285 10.6032 14.3363C10.0611 13.8109 9.42263 13.4343 8.77114 13.2545C8.50495 13.181 8.34873 12.9057 8.4222 12.6395Z" fill="#B2B2B2"/>
<path fill-rule="evenodd" clip-rule="evenodd" d="M7.01389 12.7199C7.12927 12.9708 7.01942 13.2677 6.76853 13.383C6.47878 13.5163 6.19561 13.708 5.92776 13.9688C5.68405 14.2062 5.48896 14.4259 5.33717 14.6366C5.17581 14.8607 4.86333 14.9116 4.63925 14.7502C4.41516 14.5888 4.36432 14.2764 4.52568 14.0523C4.72107 13.7809 4.95832 13.5171 5.23006 13.2524C5.57611 12.9154 5.95309 12.6574 6.35072 12.4745C6.60161 12.3591 6.89852 12.469 7.01389 12.7199Z" fill="#B2B2B2"/>
<path fill-rule="evenodd" clip-rule="evenodd" d="M12.0823 15.4989C12.341 15.4023 12.629 15.5337 12.7257 15.7924C12.8772 16.1982 12.9845 16.6265 13.0381 17.0704C13.1083 17.6524 13.0723 18.2883 12.9202 18.9323C12.8567 19.201 12.5873 19.3674 12.3186 19.3039C12.0499 19.2404 11.8835 18.9711 11.947 18.7023C12.0738 18.1654 12.1005 17.648 12.0453 17.1902C12.0016 16.8282 11.9139 16.477 11.7889 16.1422C11.6922 15.8836 11.8236 15.5955 12.0823 15.4989Z" fill="#B2B2B2"/>
<path fill-rule="evenodd" clip-rule="evenodd" d="M4.36811 15.69C4.64201 15.6549 4.89252 15.8484 4.92764 16.1223C4.95877 16.3651 5.03032 16.6374 5.151 16.9505C5.31966 17.388 5.60665 17.6411 5.97446 17.7779C6.23328 17.8741 6.36507 18.162 6.26882 18.4208C6.17257 18.6796 5.88472 18.8114 5.6259 18.7152C5.0005 18.4826 4.4938 18.0259 4.21792 17.3101C4.07561 16.9409 3.97937 16.5896 3.93576 16.2495C3.90064 15.9756 4.09421 15.7251 4.36811 15.69Z" fill="#B2B2B2"/>
<path fill-rule="evenodd" clip-rule="evenodd" d="M11.6458 16.0589C11.8385 16.2567 11.8344 16.5733 11.6366 16.7659C11.353 17.0422 11.0334 17.2984 10.684 17.541C10.2305 17.8559 9.70894 18.1423 9.16386 18.3702C8.9091 18.4767 8.61621 18.3566 8.50967 18.1018C8.40313 17.847 8.5233 17.5541 8.77806 17.4476C9.26002 17.2461 9.71943 16.9933 10.1136 16.7196C10.4274 16.5017 10.7024 16.2799 10.9388 16.0496C11.1366 15.8569 11.4532 15.8611 11.6458 16.0589Z" fill="#B2B2B2"/>
<path fill-rule="evenodd" clip-rule="evenodd" d="M11.1066 21.3676C11.2969 21.5678 11.2888 21.8843 11.0886 22.0745C10.6703 22.4719 10.1818 22.8354 9.61885 23.1491C9.27814 23.339 8.89051 23.5987 8.46023 23.909C8.23626 24.0705 7.92375 24.0199 7.76222 23.7959C7.6007 23.5719 7.65132 23.2594 7.87529 23.0979C8.31693 22.7794 8.74111 22.4935 9.13206 22.2756C9.62253 22.0023 10.043 21.6885 10.3998 21.3496C10.5999 21.1593 10.9164 21.1674 11.1066 21.3676Z" fill="#B2B2B2"/>
<path fill-rule="evenodd" clip-rule="evenodd" d="M6.25904 24.942C6.42396 25.1635 6.37811 25.4767 6.15662 25.6416C5.76884 25.9304 5.37053 26.2195 4.96707 26.4959C4.7054 26.6752 4.30197 26.9779 3.85051 27.3919C3.64699 27.5786 3.3307 27.5649 3.14406 27.3614C2.95743 27.1579 2.97111 26.8416 3.17463 26.6549C3.66434 26.2058 4.10537 25.8741 4.40185 25.671C4.79081 25.4045 5.17779 25.1237 5.55939 24.8396C5.78088 24.6747 6.09412 24.7205 6.25904 24.942Z" fill="#B2B2B2"/>
<path fill-rule="evenodd" clip-rule="evenodd" d="M1.85652 28.901C2.09302 29.0436 2.16919 29.3509 2.02665 29.5874C1.78914 29.9814 1.5783 30.4046 1.41069 30.8545C1.2181 31.3716 1.11303 31.9386 1.07594 32.5307C1.05868 32.8063 0.821269 33.0157 0.545666 32.9984C0.270064 32.9812 0.0606375 32.7437 0.0778992 32.4681C0.119703 31.8007 0.239626 31.1336 0.473597 30.5055C0.665304 29.9908 0.904534 29.5119 1.17018 29.0712C1.31273 28.8347 1.62001 28.7585 1.85652 28.901Z" fill="#B2B2B2"/>
<path fill-rule="evenodd" clip-rule="evenodd" d="M0.873247 35.7018C1.14069 35.633 1.41325 35.7941 1.48204 36.0615C1.65504 36.7341 1.85472 37.3285 2.02728 37.7822C2.24825 38.3633 2.47416 38.94 2.73895 39.4939C2.85805 39.743 2.75263 40.0415 2.5035 40.1606C2.25436 40.2797 1.95584 40.1743 1.83674 39.9252C1.55274 39.3311 1.31441 38.721 1.09259 38.1377C0.908609 37.654 0.697029 37.0239 0.513564 36.3106C0.444774 36.0432 0.60581 35.7706 0.873247 35.7018Z" fill="#B2B2B2"/>
<path fill-rule="evenodd" clip-rule="evenodd" d="M4.21554 42.3513C4.36996 42.1224 4.68072 42.062 4.90965 42.2164C5.35159 42.5145 5.86844 42.761 6.48323 42.9352C6.7826 43.0201 7.17786 43.0733 7.63052 43.0994C7.9062 43.1153 8.1168 43.3516 8.1009 43.6273C8.08499 43.903 7.84862 44.1136 7.57293 44.0977C7.08792 44.0697 6.61053 44.0107 6.21051 43.8973C5.49671 43.695 4.88272 43.4045 4.35045 43.0455C4.12152 42.891 4.06112 42.5803 4.21554 42.3513Z" fill="#B2B2B2"/>
<path fill-rule="evenodd" clip-rule="evenodd" d="M11.8998 43.3507C11.9361 43.6244 11.7435 43.8757 11.4698 43.912L11.4677 43.9122L11.4625 43.9129L11.4433 43.9154L11.3711 43.9244C11.3085 43.932 11.2177 43.9428 11.1038 43.9553C10.876 43.9804 10.5549 44.0128 10.1802 44.0421C9.90497 44.0636 9.66433 43.8579 9.64278 43.5826C9.62124 43.3073 9.82695 43.0667 10.1022 43.0451C10.4645 43.0168 10.7749 42.9855 10.9943 42.9613C11.104 42.9493 11.1908 42.939 11.2498 42.9318L11.3169 42.9234L11.3336 42.9213L11.3376 42.9207C11.6113 42.8845 11.8636 43.0769 11.8998 43.3507Z" fill="#B2B2B2"/>
<path fill-rule="evenodd" clip-rule="evenodd" d="M31.7355 8.32751C32.4067 7.54472 33.4035 7.04608 34.5181 7.04608C35.6327 7.04608 36.6295 7.54469 37.3006 8.32751C37.4646 8.51866 37.7129 8.63084 37.9796 8.63084H39.629C40.5805 8.63084 41.3572 9.40727 41.3572 10.359V12.6569C41.3572 13.6087 40.5805 14.3851 39.629 14.3851H29.4073C28.4557 14.3851 27.6791 13.6087 27.6791 12.6569V10.359C27.6791 9.40727 28.4557 8.63084 29.4073 8.63084H31.0567C31.3232 8.63084 31.5714 8.51873 31.7354 8.32757L31.7355 8.32751ZM34.5181 8.04608C33.7086 8.04608 32.9846 8.407 32.4946 8.97851L32.4945 8.97856C32.1311 9.40226 31.6002 9.63084 31.0567 9.63084H29.4073C29.0079 9.63084 28.6791 9.95963 28.6791 10.359V12.6569C28.6791 13.0563 29.0079 13.3851 29.4073 13.3851H39.629C40.0283 13.3851 40.3572 13.0563 40.3572 12.6569V10.359C40.3572 9.95963 40.0283 9.63084 39.629 9.63084H37.9796C37.4361 9.63084 36.905 9.4023 36.5416 8.97856L36.5415 8.97846C36.0516 8.407 35.3277 8.04608 34.5181 8.04608Z" fill="#B2B2B2"/>
</svg>
