<svg width="281" height="12" viewBox="0 0 281 12" fill="none" xmlns="http://www.w3.org/2000/svg">
<path d="M5.73438 0.46875H6.85938V6.24023C6.85938 6.88086 6.7168 7.41406 6.43164 7.83984C6.14648 8.26562 5.76758 8.58594 5.29492 8.80078C4.82617 9.01172 4.31641 9.11719 3.76562 9.11719C3.1875 9.11719 2.66406 9.01172 2.19531 8.80078C1.73047 8.58594 1.36133 8.26562 1.08789 7.83984C0.818359 7.41406 0.683594 6.88086 0.683594 6.24023V0.46875H1.80273V6.24023C1.80273 6.68555 1.88477 7.05273 2.04883 7.3418C2.21289 7.63086 2.44141 7.8457 2.73438 7.98633C3.03125 8.12695 3.375 8.19727 3.76562 8.19727C4.16016 8.19727 4.50391 8.12695 4.79688 7.98633C5.09375 7.8457 5.32422 7.63086 5.48828 7.3418C5.65234 7.05273 5.73438 6.68555 5.73438 6.24023V0.46875ZM9.55469 3.87891V11.4375H8.46484V2.66016H9.46094L9.55469 3.87891ZM13.8262 5.77734V5.90039C13.8262 6.36133 13.7715 6.78906 13.6621 7.18359C13.5527 7.57422 13.3926 7.91406 13.1816 8.20312C12.9746 8.49219 12.7188 8.7168 12.4141 8.87695C12.1094 9.03711 11.7598 9.11719 11.3652 9.11719C10.9629 9.11719 10.6074 9.05078 10.2988 8.91797C9.99023 8.78516 9.72852 8.5918 9.51367 8.33789C9.29883 8.08398 9.12695 7.7793 8.99805 7.42383C8.87305 7.06836 8.78711 6.66797 8.74023 6.22266V5.56641C8.78711 5.09766 8.875 4.67773 9.00391 4.30664C9.13281 3.93555 9.30273 3.61914 9.51367 3.35742C9.72852 3.0918 9.98828 2.89062 10.293 2.75391C10.5977 2.61328 10.9492 2.54297 11.3477 2.54297C11.7461 2.54297 12.0996 2.62109 12.4082 2.77734C12.7168 2.92969 12.9766 3.14844 13.1875 3.43359C13.3984 3.71875 13.5566 4.06055 13.6621 4.45898C13.7715 4.85352 13.8262 5.29297 13.8262 5.77734ZM12.7363 5.90039V5.77734C12.7363 5.46094 12.7031 5.16406 12.6367 4.88672C12.5703 4.60547 12.4668 4.35938 12.3262 4.14844C12.1895 3.93359 12.0137 3.76562 11.7988 3.64453C11.584 3.51953 11.3281 3.45703 11.0312 3.45703C10.7578 3.45703 10.5195 3.50391 10.3164 3.59766C10.1172 3.69141 9.94727 3.81836 9.80664 3.97852C9.66602 4.13477 9.55078 4.31445 9.46094 4.51758C9.375 4.7168 9.31055 4.92383 9.26758 5.13867V6.65625C9.3457 6.92969 9.45508 7.1875 9.5957 7.42969C9.73633 7.66797 9.92383 7.86133 10.1582 8.00977C10.3926 8.1543 10.6875 8.22656 11.043 8.22656C11.3359 8.22656 11.5879 8.16602 11.7988 8.04492C12.0137 7.91992 12.1895 7.75 12.3262 7.53516C12.4668 7.32031 12.5703 7.07422 12.6367 6.79688C12.7031 6.51562 12.7363 6.2168 12.7363 5.90039ZM19.0879 7.53516V2.66016H20.1777V9H19.1406L19.0879 7.53516ZM19.293 6.19922L19.7441 6.1875C19.7441 6.60938 19.6992 7 19.6094 7.35938C19.5234 7.71484 19.3828 8.02344 19.1875 8.28516C18.9922 8.54688 18.7363 8.75195 18.4199 8.90039C18.1035 9.04492 17.7188 9.11719 17.2656 9.11719C16.957 9.11719 16.6738 9.07227 16.416 8.98242C16.1621 8.89258 15.9434 8.75391 15.7598 8.56641C15.5762 8.37891 15.4336 8.13477 15.332 7.83398C15.2344 7.5332 15.1855 7.17188 15.1855 6.75V2.66016H16.2695V6.76172C16.2695 7.04688 16.3008 7.2832 16.3633 7.4707C16.4297 7.6543 16.5176 7.80078 16.627 7.91016C16.7402 8.01562 16.8652 8.08984 17.002 8.13281C17.1426 8.17578 17.2871 8.19727 17.4355 8.19727C17.8965 8.19727 18.2617 8.10938 18.5312 7.93359C18.8008 7.75391 18.9941 7.51367 19.1113 7.21289C19.2324 6.9082 19.293 6.57031 19.293 6.19922ZM25.5215 7.31836C25.5215 7.16211 25.4863 7.01758 25.416 6.88477C25.3496 6.74805 25.2109 6.625 25 6.51562C24.793 6.40234 24.4805 6.30469 24.0625 6.22266C23.7109 6.14844 23.3926 6.06055 23.1074 5.95898C22.8262 5.85742 22.5859 5.73438 22.3867 5.58984C22.1914 5.44531 22.041 5.27539 21.9355 5.08008C21.8301 4.88477 21.7773 4.65625 21.7773 4.39453C21.7773 4.14453 21.832 3.9082 21.9414 3.68555C22.0547 3.46289 22.2129 3.26562 22.416 3.09375C22.623 2.92188 22.8711 2.78711 23.1602 2.68945C23.4492 2.5918 23.7715 2.54297 24.127 2.54297C24.6348 2.54297 25.0684 2.63281 25.4277 2.8125C25.7871 2.99219 26.0625 3.23242 26.2539 3.5332C26.4453 3.83008 26.541 4.16016 26.541 4.52344H25.457C25.457 4.34766 25.4043 4.17773 25.2988 4.01367C25.1973 3.8457 25.0469 3.70703 24.8477 3.59766C24.6523 3.48828 24.4121 3.43359 24.127 3.43359C23.8262 3.43359 23.582 3.48047 23.3945 3.57422C23.2109 3.66406 23.0762 3.7793 22.9902 3.91992C22.9082 4.06055 22.8672 4.20898 22.8672 4.36523C22.8672 4.48242 22.8867 4.58789 22.9258 4.68164C22.9688 4.77148 23.043 4.85547 23.1484 4.93359C23.2539 5.00781 23.4023 5.07812 23.5938 5.14453C23.7852 5.21094 24.0293 5.27734 24.3262 5.34375C24.8457 5.46094 25.2734 5.60156 25.6094 5.76562C25.9453 5.92969 26.1953 6.13086 26.3594 6.36914C26.5234 6.60742 26.6055 6.89648 26.6055 7.23633C26.6055 7.51367 26.5469 7.76758 26.4297 7.99805C26.3164 8.22852 26.1504 8.42773 25.9316 8.5957C25.7168 8.75977 25.459 8.88867 25.1582 8.98242C24.8613 9.07227 24.5273 9.11719 24.1562 9.11719C23.5977 9.11719 23.125 9.01758 22.7383 8.81836C22.3516 8.61914 22.0586 8.36133 21.8594 8.04492C21.6602 7.72852 21.5605 7.39453 21.5605 7.04297H22.6504C22.666 7.33984 22.752 7.57617 22.9082 7.75195C23.0645 7.92383 23.2559 8.04688 23.4824 8.12109C23.709 8.19141 23.9336 8.22656 24.1562 8.22656C24.4531 8.22656 24.7012 8.1875 24.9004 8.10938C25.1035 8.03125 25.2578 7.92383 25.3633 7.78711C25.4688 7.65039 25.5215 7.49414 25.5215 7.31836ZM23.6992 1.72266L24.8359 0H26.1426L24.5723 1.72266H23.6992ZM30.5664 8.22656C30.8242 8.22656 31.0625 8.17383 31.2812 8.06836C31.5 7.96289 31.6797 7.81836 31.8203 7.63477C31.9609 7.44727 32.041 7.23438 32.0605 6.99609H33.0918C33.0723 7.37109 32.9453 7.7207 32.7109 8.04492C32.4805 8.36523 32.1777 8.625 31.8027 8.82422C31.4277 9.01953 31.0156 9.11719 30.5664 9.11719C30.0898 9.11719 29.6738 9.0332 29.3184 8.86523C28.9668 8.69727 28.6738 8.4668 28.4395 8.17383C28.209 7.88086 28.0352 7.54492 27.918 7.16602C27.8047 6.7832 27.748 6.37891 27.748 5.95312V5.70703C27.748 5.28125 27.8047 4.87891 27.918 4.5C28.0352 4.11719 28.209 3.7793 28.4395 3.48633C28.6738 3.19336 28.9668 2.96289 29.3184 2.79492C29.6738 2.62695 30.0898 2.54297 30.5664 2.54297C31.0625 2.54297 31.4961 2.64453 31.8672 2.84766C32.2383 3.04688 32.5293 3.32031 32.7402 3.66797C32.9551 4.01172 33.0723 4.40234 33.0918 4.83984H32.0605C32.041 4.57812 31.9668 4.3418 31.8379 4.13086C31.7129 3.91992 31.541 3.75195 31.3223 3.62695C31.1074 3.49805 30.8555 3.43359 30.5664 3.43359C30.2344 3.43359 29.9551 3.5 29.7285 3.63281C29.5059 3.76172 29.3281 3.9375 29.1953 4.16016C29.0664 4.37891 28.9727 4.62305 28.9141 4.89258C28.8594 5.1582 28.832 5.42969 28.832 5.70703V5.95312C28.832 6.23047 28.8594 6.50391 28.9141 6.77344C28.9688 7.04297 29.0605 7.28711 29.1895 7.50586C29.3223 7.72461 29.5 7.90039 29.7227 8.0332C29.9492 8.16211 30.2305 8.22656 30.5664 8.22656ZM29.7285 1.72266L30.8652 0H32.1719L30.6016 1.72266H29.7285ZM38.3711 4.01367V9H37.2871V2.66016H38.3125L38.3711 4.01367ZM38.1133 5.58984L37.6621 5.57227C37.666 5.13867 37.7305 4.73828 37.8555 4.37109C37.9805 4 38.1562 3.67773 38.3828 3.4043C38.6094 3.13086 38.8789 2.91992 39.1914 2.77148C39.5078 2.61914 39.8574 2.54297 40.2402 2.54297C40.5527 2.54297 40.834 2.58594 41.084 2.67188C41.334 2.75391 41.5469 2.88672 41.7227 3.07031C41.9023 3.25391 42.0391 3.49219 42.1328 3.78516C42.2266 4.07422 42.2734 4.42773 42.2734 4.8457V9H41.1836V4.83398C41.1836 4.50195 41.1348 4.23633 41.0371 4.03711C40.9395 3.83398 40.7969 3.6875 40.6094 3.59766C40.4219 3.50391 40.1914 3.45703 39.918 3.45703C39.6484 3.45703 39.4023 3.51367 39.1797 3.62695C38.9609 3.74023 38.7715 3.89648 38.6113 4.0957C38.4551 4.29492 38.332 4.52344 38.2422 4.78125C38.1562 5.03516 38.1133 5.30469 38.1133 5.58984ZM43.6328 5.90039V5.76562C43.6328 5.30859 43.6992 4.88477 43.832 4.49414C43.9648 4.09961 44.1562 3.75781 44.4062 3.46875C44.6562 3.17578 44.959 2.94922 45.3145 2.78906C45.6699 2.625 46.0684 2.54297 46.5098 2.54297C46.9551 2.54297 47.3555 2.625 47.7109 2.78906C48.0703 2.94922 48.375 3.17578 48.625 3.46875C48.8789 3.75781 49.0723 4.09961 49.2051 4.49414C49.3379 4.88477 49.4043 5.30859 49.4043 5.76562V5.90039C49.4043 6.35742 49.3379 6.78125 49.2051 7.17188C49.0723 7.5625 48.8789 7.9043 48.625 8.19727C48.375 8.48633 48.0723 8.71289 47.7168 8.87695C47.3652 9.03711 46.9668 9.11719 46.5215 9.11719C46.0762 9.11719 45.6758 9.03711 45.3203 8.87695C44.9648 8.71289 44.6602 8.48633 44.4062 8.19727C44.1562 7.9043 43.9648 7.5625 43.832 7.17188C43.6992 6.78125 43.6328 6.35742 43.6328 5.90039ZM44.7168 5.76562V5.90039C44.7168 6.2168 44.7539 6.51562 44.8281 6.79688C44.9023 7.07422 45.0137 7.32031 45.1621 7.53516C45.3145 7.75 45.5039 7.91992 45.7305 8.04492C45.957 8.16602 46.2207 8.22656 46.5215 8.22656C46.8184 8.22656 47.0781 8.16602 47.3008 8.04492C47.5273 7.91992 47.7148 7.75 47.8633 7.53516C48.0117 7.32031 48.123 7.07422 48.1973 6.79688C48.2754 6.51562 48.3145 6.2168 48.3145 5.90039V5.76562C48.3145 5.45312 48.2754 5.1582 48.1973 4.88086C48.123 4.59961 48.0098 4.35156 47.8574 4.13672C47.709 3.91797 47.5215 3.74609 47.2949 3.62109C47.0723 3.49609 46.8105 3.43359 46.5098 3.43359C46.2129 3.43359 45.9512 3.49609 45.7246 3.62109C45.502 3.74609 45.3145 3.91797 45.1621 4.13672C45.0137 4.35156 44.9023 4.59961 44.8281 4.88086C44.7539 5.1582 44.7168 5.45312 44.7168 5.76562ZM52.3691 7.875L53.998 2.66016H54.7129L54.5723 3.69727L52.9141 9H52.2168L52.3691 7.875ZM51.2734 2.66016L52.6621 7.93359L52.7617 9H52.0293L50.1895 2.66016H51.2734ZM56.2715 7.89258L57.5957 2.66016H58.6738L56.834 9H56.1074L56.2715 7.89258ZM54.8711 2.66016L56.4648 7.78711L56.6465 9H55.9551L54.25 3.68555L54.1094 2.66016H54.8711ZM62.418 9.11719C61.9766 9.11719 61.5762 9.04297 61.2168 8.89453C60.8613 8.74219 60.5547 8.5293 60.2969 8.25586C60.043 7.98242 59.8477 7.6582 59.7109 7.2832C59.5742 6.9082 59.5059 6.49805 59.5059 6.05273V5.80664C59.5059 5.29102 59.582 4.83203 59.7344 4.42969C59.8867 4.02344 60.0938 3.67969 60.3555 3.39844C60.6172 3.11719 60.9141 2.9043 61.2461 2.75977C61.5781 2.61523 61.9219 2.54297 62.2773 2.54297C62.7305 2.54297 63.1211 2.62109 63.4492 2.77734C63.7812 2.93359 64.0527 3.15234 64.2637 3.43359C64.4746 3.71094 64.6309 4.03906 64.7324 4.41797C64.834 4.79297 64.8848 5.20312 64.8848 5.64844V6.13477H60.1504V5.25H63.8008V5.16797C63.7852 4.88672 63.7266 4.61328 63.625 4.34766C63.5273 4.08203 63.3711 3.86328 63.1562 3.69141C62.9414 3.51953 62.6484 3.43359 62.2773 3.43359C62.0312 3.43359 61.8047 3.48633 61.5977 3.5918C61.3906 3.69336 61.2129 3.8457 61.0645 4.04883C60.916 4.25195 60.8008 4.5 60.7188 4.79297C60.6367 5.08594 60.5957 5.42383 60.5957 5.80664V6.05273C60.5957 6.35352 60.6367 6.63672 60.7188 6.90234C60.8047 7.16406 60.9277 7.39453 61.0879 7.59375C61.252 7.79297 61.4492 7.94922 61.6797 8.0625C61.9141 8.17578 62.1797 8.23242 62.4766 8.23242C62.8594 8.23242 63.1836 8.1543 63.4492 7.99805C63.7148 7.8418 63.9473 7.63281 64.1465 7.37109L64.8027 7.89258C64.666 8.09961 64.4922 8.29688 64.2812 8.48438C64.0703 8.67188 63.8105 8.82422 63.502 8.94141C63.1973 9.05859 62.8359 9.11719 62.418 9.11719ZM73.8496 8.10938V9H69.2383V8.10938H73.8496ZM73.6797 3.42773L69.4844 9H68.8223V8.20312L72.9883 2.66016H73.6797V3.42773ZM73.1992 2.66016V3.55664H68.8691V2.66016H73.1992ZM78.9824 7.76953V0H80.0723V9H79.0762L78.9824 7.76953ZM74.7168 5.90039V5.77734C74.7168 5.29297 74.7754 4.85352 74.8926 4.45898C75.0137 4.06055 75.1836 3.71875 75.4023 3.43359C75.625 3.14844 75.8887 2.92969 76.1934 2.77734C76.502 2.62109 76.8457 2.54297 77.2246 2.54297C77.623 2.54297 77.9707 2.61328 78.2676 2.75391C78.5684 2.89062 78.8223 3.0918 79.0293 3.35742C79.2402 3.61914 79.4062 3.93555 79.5273 4.30664C79.6484 4.67773 79.7324 5.09766 79.7793 5.56641V6.10547C79.7363 6.57031 79.6523 6.98828 79.5273 7.35938C79.4062 7.73047 79.2402 8.04688 79.0293 8.30859C78.8223 8.57031 78.5684 8.77148 78.2676 8.91211C77.9668 9.04883 77.6152 9.11719 77.2129 9.11719C76.8418 9.11719 76.502 9.03711 76.1934 8.87695C75.8887 8.7168 75.625 8.49219 75.4023 8.20312C75.1836 7.91406 75.0137 7.57422 74.8926 7.18359C74.7754 6.78906 74.7168 6.36133 74.7168 5.90039ZM75.8066 5.77734V5.90039C75.8066 6.2168 75.8379 6.51367 75.9004 6.79102C75.9668 7.06836 76.0684 7.3125 76.2051 7.52344C76.3418 7.73438 76.5156 7.90039 76.7266 8.02148C76.9375 8.13867 77.1895 8.19727 77.4824 8.19727C77.8418 8.19727 78.1367 8.12109 78.3672 7.96875C78.6016 7.81641 78.7891 7.61523 78.9297 7.36523C79.0703 7.11523 79.1797 6.84375 79.2578 6.55078V5.13867C79.2109 4.92383 79.1426 4.7168 79.0527 4.51758C78.9668 4.31445 78.8535 4.13477 78.7129 3.97852C78.5762 3.81836 78.4062 3.69141 78.2031 3.59766C78.0039 3.50391 77.7676 3.45703 77.4941 3.45703C77.1973 3.45703 76.9414 3.51953 76.7266 3.64453C76.5156 3.76562 76.3418 3.93359 76.2051 4.14844C76.0684 4.35938 75.9668 4.60547 75.9004 4.88672C75.8379 5.16406 75.8066 5.46094 75.8066 5.77734ZM81.7891 2.66016H82.8789V9.75586C82.8789 10.1426 82.8164 10.4707 82.6914 10.7402C82.5703 11.0098 82.3867 11.2129 82.1406 11.3496C81.8984 11.4902 81.5918 11.5605 81.2207 11.5605C81.123 11.5605 81.0098 11.5508 80.8809 11.5312C80.748 11.5117 80.6367 11.4883 80.5469 11.4609L80.5527 10.5879C80.627 10.6035 80.7109 10.6152 80.8047 10.623C80.8984 10.6348 80.9805 10.6406 81.0508 10.6406C81.2109 10.6406 81.3457 10.6113 81.4551 10.5527C81.5645 10.4941 81.6465 10.4004 81.7012 10.2715C81.7598 10.1426 81.7891 9.9707 81.7891 9.75586V2.66016ZM81.6777 0.978516C81.6777 0.802734 81.7324 0.654297 81.8418 0.533203C81.9512 0.412109 82.1094 0.351562 82.3164 0.351562C82.5273 0.351562 82.6875 0.412109 82.7969 0.533203C82.9062 0.654297 82.9609 0.802734 82.9609 0.978516C82.9609 1.14648 82.9062 1.29102 82.7969 1.41211C82.6875 1.5293 82.5273 1.58789 82.3164 1.58789C82.1094 1.58789 81.9512 1.5293 81.8418 1.41211C81.7324 1.29102 81.6777 1.14648 81.6777 0.978516ZM87.2617 9.11719C86.8203 9.11719 86.4199 9.04297 86.0605 8.89453C85.7051 8.74219 85.3984 8.5293 85.1406 8.25586C84.8867 7.98242 84.6914 7.6582 84.5547 7.2832C84.418 6.9082 84.3496 6.49805 84.3496 6.05273V5.80664C84.3496 5.29102 84.4258 4.83203 84.5781 4.42969C84.7305 4.02344 84.9375 3.67969 85.1992 3.39844C85.4609 3.11719 85.7578 2.9043 86.0898 2.75977C86.4219 2.61523 86.7656 2.54297 87.1211 2.54297C87.5742 2.54297 87.9648 2.62109 88.293 2.77734C88.625 2.93359 88.8965 3.15234 89.1074 3.43359C89.3184 3.71094 89.4746 4.03906 89.5762 4.41797C89.6777 4.79297 89.7285 5.20312 89.7285 5.64844V6.13477H84.9941V5.25H88.6445V5.16797C88.6289 4.88672 88.5703 4.61328 88.4688 4.34766C88.3711 4.08203 88.2148 3.86328 88 3.69141C87.7852 3.51953 87.4922 3.43359 87.1211 3.43359C86.875 3.43359 86.6484 3.48633 86.4414 3.5918C86.2344 3.69336 86.0566 3.8457 85.9082 4.04883C85.7598 4.25195 85.6445 4.5 85.5625 4.79297C85.4805 5.08594 85.4395 5.42383 85.4395 5.80664V6.05273C85.4395 6.35352 85.4805 6.63672 85.5625 6.90234C85.6484 7.16406 85.7715 7.39453 85.9316 7.59375C86.0957 7.79297 86.293 7.94922 86.5234 8.0625C86.7578 8.17578 87.0234 8.23242 87.3203 8.23242C87.7031 8.23242 88.0273 8.1543 88.293 7.99805C88.5586 7.8418 88.791 7.63281 88.9902 7.37109L89.6465 7.89258C89.5098 8.09961 89.3359 8.29688 89.125 8.48438C88.9141 8.67188 88.6543 8.82422 88.3457 8.94141C88.041 9.05859 87.6797 9.11719 87.2617 9.11719ZM88.1289 8.51367L88.5625 8.84766C88.3945 8.97266 88.2344 9.10156 88.082 9.23438C87.9297 9.37109 87.8047 9.51367 87.707 9.66211C87.6094 9.81445 87.5605 9.97656 87.5605 10.1484C87.5605 10.2773 87.5938 10.3809 87.6602 10.459C87.7305 10.5371 87.8496 10.5762 88.0176 10.5762C88.1465 10.5762 88.2617 10.5566 88.3633 10.5176C88.4648 10.4824 88.5449 10.4492 88.6035 10.418L88.6855 11.1328C88.5879 11.1914 88.4629 11.248 88.3105 11.3027C88.1621 11.3613 87.9727 11.3906 87.7422 11.3906C87.4258 11.3906 87.1582 11.2949 86.9395 11.1035C86.7246 10.916 86.6172 10.6387 86.6172 10.2715C86.6172 10.0605 86.668 9.85156 86.7695 9.64453C86.875 9.4375 87.0391 9.23828 87.2617 9.04688C87.4844 8.85547 87.7734 8.67773 88.1289 8.51367ZM93.5312 8.22656C93.7891 8.22656 94.0273 8.17383 94.2461 8.06836C94.4648 7.96289 94.6445 7.81836 94.7852 7.63477C94.9258 7.44727 95.0059 7.23438 95.0254 6.99609H96.0566C96.0371 7.37109 95.9102 7.7207 95.6758 8.04492C95.4453 8.36523 95.1426 8.625 94.7676 8.82422C94.3926 9.01953 93.9805 9.11719 93.5312 9.11719C93.0547 9.11719 92.6387 9.0332 92.2832 8.86523C91.9316 8.69727 91.6387 8.4668 91.4043 8.17383C91.1738 7.88086 91 7.54492 90.8828 7.16602C90.7695 6.7832 90.7129 6.37891 90.7129 5.95312V5.70703C90.7129 5.28125 90.7695 4.87891 90.8828 4.5C91 4.11719 91.1738 3.7793 91.4043 3.48633C91.6387 3.19336 91.9316 2.96289 92.2832 2.79492C92.6387 2.62695 93.0547 2.54297 93.5312 2.54297C94.0273 2.54297 94.4609 2.64453 94.832 2.84766C95.2031 3.04688 95.4941 3.32031 95.7051 3.66797C95.9199 4.01172 96.0371 4.40234 96.0566 4.83984H95.0254C95.0059 4.57812 94.9316 4.3418 94.8027 4.13086C94.6777 3.91992 94.5059 3.75195 94.2871 3.62695C94.0723 3.49805 93.8203 3.43359 93.5312 3.43359C93.1992 3.43359 92.9199 3.5 92.6934 3.63281C92.4707 3.76172 92.293 3.9375 92.1602 4.16016C92.0312 4.37891 91.9375 4.62305 91.8789 4.89258C91.8242 5.1582 91.7969 5.42969 91.7969 5.70703V5.95312C91.7969 6.23047 91.8242 6.50391 91.8789 6.77344C91.9336 7.04297 92.0254 7.28711 92.1543 7.50586C92.2871 7.72461 92.4648 7.90039 92.6875 8.0332C92.9141 8.16211 93.1953 8.22656 93.5312 8.22656ZM98.4531 2.66016V9H97.3633V2.66016H98.4531ZM97.2812 0.978516C97.2812 0.802734 97.334 0.654297 97.4395 0.533203C97.5488 0.412109 97.709 0.351562 97.9199 0.351562C98.127 0.351562 98.2852 0.412109 98.3945 0.533203C98.5078 0.654297 98.5645 0.802734 98.5645 0.978516C98.5645 1.14648 98.5078 1.29102 98.3945 1.41211C98.2852 1.5293 98.127 1.58789 97.9199 1.58789C97.709 1.58789 97.5488 1.5293 97.4395 1.41211C97.334 1.29102 97.2812 1.14648 97.2812 0.978516ZM102.824 9.11719C102.383 9.11719 101.982 9.04297 101.623 8.89453C101.268 8.74219 100.961 8.5293 100.703 8.25586C100.449 7.98242 100.254 7.6582 100.117 7.2832C99.9805 6.9082 99.9121 6.49805 99.9121 6.05273V5.80664C99.9121 5.29102 99.9883 4.83203 100.141 4.42969C100.293 4.02344 100.5 3.67969 100.762 3.39844C101.023 3.11719 101.32 2.9043 101.652 2.75977C101.984 2.61523 102.328 2.54297 102.684 2.54297C103.137 2.54297 103.527 2.62109 103.855 2.77734C104.188 2.93359 104.459 3.15234 104.67 3.43359C104.881 3.71094 105.037 4.03906 105.139 4.41797C105.24 4.79297 105.291 5.20312 105.291 5.64844V6.13477H100.557V5.25H104.207V5.16797C104.191 4.88672 104.133 4.61328 104.031 4.34766C103.934 4.08203 103.777 3.86328 103.562 3.69141C103.348 3.51953 103.055 3.43359 102.684 3.43359C102.438 3.43359 102.211 3.48633 102.004 3.5918C101.797 3.69336 101.619 3.8457 101.471 4.04883C101.322 4.25195 101.207 4.5 101.125 4.79297C101.043 5.08594 101.002 5.42383 101.002 5.80664V6.05273C101.002 6.35352 101.043 6.63672 101.125 6.90234C101.211 7.16406 101.334 7.39453 101.494 7.59375C101.658 7.79297 101.855 7.94922 102.086 8.0625C102.32 8.17578 102.586 8.23242 102.883 8.23242C103.266 8.23242 103.59 8.1543 103.855 7.99805C104.121 7.8418 104.354 7.63281 104.553 7.37109L105.209 7.89258C105.072 8.09961 104.898 8.29688 104.688 8.48438C104.477 8.67188 104.217 8.82422 103.908 8.94141C103.604 9.05859 103.242 9.11719 102.824 9.11719ZM107.541 7.71094V8.58398C107.541 8.93945 107.451 9.31445 107.271 9.70898C107.092 10.1074 106.84 10.4395 106.516 10.7051L105.9 10.2773C106.025 10.1055 106.131 9.92969 106.217 9.75C106.303 9.57422 106.367 9.39062 106.41 9.19922C106.457 9.01172 106.48 8.8125 106.48 8.60156V7.71094H107.541ZM115.639 7.91602V4.65234C115.639 4.40234 115.588 4.18555 115.486 4.00195C115.389 3.81445 115.24 3.66992 115.041 3.56836C114.842 3.4668 114.596 3.41602 114.303 3.41602C114.029 3.41602 113.789 3.46289 113.582 3.55664C113.379 3.65039 113.219 3.77344 113.102 3.92578C112.988 4.07812 112.932 4.24219 112.932 4.41797H111.848C111.848 4.19141 111.906 3.9668 112.023 3.74414C112.141 3.52148 112.309 3.32031 112.527 3.14062C112.75 2.95703 113.016 2.8125 113.324 2.70703C113.637 2.59766 113.984 2.54297 114.367 2.54297C114.828 2.54297 115.234 2.62109 115.586 2.77734C115.941 2.93359 116.219 3.16992 116.418 3.48633C116.621 3.79883 116.723 4.19141 116.723 4.66406V7.61719C116.723 7.82812 116.74 8.05273 116.775 8.29102C116.814 8.5293 116.871 8.73438 116.945 8.90625V9H115.814C115.76 8.875 115.717 8.70898 115.686 8.50195C115.654 8.29102 115.639 8.0957 115.639 7.91602ZM115.826 5.15625L115.838 5.91797H114.742C114.434 5.91797 114.158 5.94336 113.916 5.99414C113.674 6.04102 113.471 6.11328 113.307 6.21094C113.143 6.30859 113.018 6.43164 112.932 6.58008C112.846 6.72461 112.803 6.89453 112.803 7.08984C112.803 7.28906 112.848 7.4707 112.938 7.63477C113.027 7.79883 113.162 7.92969 113.342 8.02734C113.525 8.12109 113.75 8.16797 114.016 8.16797C114.348 8.16797 114.641 8.09766 114.895 7.95703C115.148 7.81641 115.35 7.64453 115.498 7.44141C115.65 7.23828 115.732 7.04102 115.744 6.84961L116.207 7.37109C116.18 7.53516 116.105 7.7168 115.984 7.91602C115.863 8.11523 115.701 8.30664 115.498 8.49023C115.299 8.66992 115.061 8.82031 114.783 8.94141C114.51 9.05859 114.201 9.11719 113.857 9.11719C113.428 9.11719 113.051 9.0332 112.727 8.86523C112.406 8.69727 112.156 8.47266 111.977 8.19141C111.801 7.90625 111.713 7.58789 111.713 7.23633C111.713 6.89648 111.779 6.59766 111.912 6.33984C112.045 6.07812 112.236 5.86133 112.486 5.68945C112.736 5.51367 113.037 5.38086 113.389 5.29102C113.74 5.20117 114.133 5.15625 114.566 5.15625H115.826ZM118.422 0H119.512V7.76953L119.418 9H118.422V0ZM123.795 5.77734V5.90039C123.795 6.36133 123.74 6.78906 123.631 7.18359C123.521 7.57422 123.361 7.91406 123.15 8.20312C122.939 8.49219 122.682 8.7168 122.377 8.87695C122.072 9.03711 121.723 9.11719 121.328 9.11719C120.926 9.11719 120.572 9.04883 120.268 8.91211C119.967 8.77148 119.713 8.57031 119.506 8.30859C119.299 8.04688 119.133 7.73047 119.008 7.35938C118.887 6.98828 118.803 6.57031 118.756 6.10547V5.56641C118.803 5.09766 118.887 4.67773 119.008 4.30664C119.133 3.93555 119.299 3.61914 119.506 3.35742C119.713 3.0918 119.967 2.89062 120.268 2.75391C120.568 2.61328 120.918 2.54297 121.316 2.54297C121.715 2.54297 122.068 2.62109 122.377 2.77734C122.686 2.92969 122.943 3.14844 123.15 3.43359C123.361 3.71875 123.521 4.06055 123.631 4.45898C123.74 4.85352 123.795 5.29297 123.795 5.77734ZM122.705 5.90039V5.77734C122.705 5.46094 122.676 5.16406 122.617 4.88672C122.559 4.60547 122.465 4.35938 122.336 4.14844C122.207 3.93359 122.037 3.76562 121.826 3.64453C121.615 3.51953 121.355 3.45703 121.047 3.45703C120.773 3.45703 120.535 3.50391 120.332 3.59766C120.133 3.69141 119.963 3.81836 119.822 3.97852C119.682 4.13477 119.566 4.31445 119.477 4.51758C119.391 4.7168 119.326 4.92383 119.283 5.13867V6.55078C119.346 6.82422 119.447 7.08789 119.588 7.3418C119.732 7.5918 119.924 7.79688 120.162 7.95703C120.404 8.11719 120.703 8.19727 121.059 8.19727C121.352 8.19727 121.602 8.13867 121.809 8.02148C122.02 7.90039 122.189 7.73438 122.318 7.52344C122.451 7.3125 122.549 7.06836 122.611 6.79102C122.674 6.51367 122.705 6.2168 122.705 5.90039ZM126.877 8.34375L128.641 2.66016H129.801L127.258 9.97852C127.199 10.1348 127.121 10.3027 127.023 10.4824C126.93 10.666 126.809 10.8398 126.66 11.0039C126.512 11.168 126.332 11.3008 126.121 11.4023C125.914 11.5078 125.666 11.5605 125.377 11.5605C125.291 11.5605 125.182 11.5488 125.049 11.5254C124.916 11.502 124.822 11.4824 124.768 11.4668L124.762 10.5879C124.793 10.5918 124.842 10.5957 124.908 10.5996C124.979 10.6074 125.027 10.6113 125.055 10.6113C125.301 10.6113 125.51 10.5781 125.682 10.5117C125.854 10.4492 125.998 10.3418 126.115 10.1895C126.236 10.041 126.34 9.83594 126.426 9.57422L126.877 8.34375ZM125.582 2.66016L127.229 7.58203L127.51 8.72461L126.73 9.12305L124.398 2.66016H125.582ZM133.785 2.66016H134.875V9.75586C134.875 10.1426 134.812 10.4707 134.688 10.7402C134.566 11.0098 134.383 11.2129 134.137 11.3496C133.895 11.4902 133.588 11.5605 133.217 11.5605C133.119 11.5605 133.006 11.5508 132.877 11.5312C132.744 11.5117 132.633 11.4883 132.543 11.4609L132.549 10.5879C132.623 10.6035 132.707 10.6152 132.801 10.623C132.895 10.6348 132.977 10.6406 133.047 10.6406C133.207 10.6406 133.342 10.6113 133.451 10.5527C133.561 10.4941 133.643 10.4004 133.697 10.2715C133.756 10.1426 133.785 9.9707 133.785 9.75586V2.66016ZM133.674 0.978516C133.674 0.802734 133.729 0.654297 133.838 0.533203C133.947 0.412109 134.105 0.351562 134.312 0.351562C134.523 0.351562 134.684 0.412109 134.793 0.533203C134.902 0.654297 134.957 0.802734 134.957 0.978516C134.957 1.14648 134.902 1.29102 134.793 1.41211C134.684 1.5293 134.523 1.58789 134.312 1.58789C134.105 1.58789 133.947 1.5293 133.838 1.41211C133.729 1.29102 133.674 1.14648 133.674 0.978516ZM139.258 9.11719C138.816 9.11719 138.416 9.04297 138.057 8.89453C137.701 8.74219 137.395 8.5293 137.137 8.25586C136.883 7.98242 136.688 7.6582 136.551 7.2832C136.414 6.9082 136.346 6.49805 136.346 6.05273V5.80664C136.346 5.29102 136.422 4.83203 136.574 4.42969C136.727 4.02344 136.934 3.67969 137.195 3.39844C137.457 3.11719 137.754 2.9043 138.086 2.75977C138.418 2.61523 138.762 2.54297 139.117 2.54297C139.57 2.54297 139.961 2.62109 140.289 2.77734C140.621 2.93359 140.893 3.15234 141.104 3.43359C141.314 3.71094 141.471 4.03906 141.572 4.41797C141.674 4.79297 141.725 5.20312 141.725 5.64844V6.13477H136.99V5.25H140.641V5.16797C140.625 4.88672 140.566 4.61328 140.465 4.34766C140.367 4.08203 140.211 3.86328 139.996 3.69141C139.781 3.51953 139.488 3.43359 139.117 3.43359C138.871 3.43359 138.645 3.48633 138.438 3.5918C138.23 3.69336 138.053 3.8457 137.904 4.04883C137.756 4.25195 137.641 4.5 137.559 4.79297C137.477 5.08594 137.436 5.42383 137.436 5.80664V6.05273C137.436 6.35352 137.477 6.63672 137.559 6.90234C137.645 7.16406 137.768 7.39453 137.928 7.59375C138.092 7.79297 138.289 7.94922 138.52 8.0625C138.754 8.17578 139.02 8.23242 139.316 8.23242C139.699 8.23242 140.023 8.1543 140.289 7.99805C140.555 7.8418 140.787 7.63281 140.986 7.37109L141.643 7.89258C141.506 8.09961 141.332 8.29688 141.121 8.48438C140.91 8.67188 140.65 8.82422 140.342 8.94141C140.037 9.05859 139.676 9.11719 139.258 9.11719ZM147.051 3.87891V11.4375H145.961V2.66016H146.957L147.051 3.87891ZM151.322 5.77734V5.90039C151.322 6.36133 151.268 6.78906 151.158 7.18359C151.049 7.57422 150.889 7.91406 150.678 8.20312C150.471 8.49219 150.215 8.7168 149.91 8.87695C149.605 9.03711 149.256 9.11719 148.861 9.11719C148.459 9.11719 148.104 9.05078 147.795 8.91797C147.486 8.78516 147.225 8.5918 147.01 8.33789C146.795 8.08398 146.623 7.7793 146.494 7.42383C146.369 7.06836 146.283 6.66797 146.236 6.22266V5.56641C146.283 5.09766 146.371 4.67773 146.5 4.30664C146.629 3.93555 146.799 3.61914 147.01 3.35742C147.225 3.0918 147.484 2.89062 147.789 2.75391C148.094 2.61328 148.445 2.54297 148.844 2.54297C149.242 2.54297 149.596 2.62109 149.904 2.77734C150.213 2.92969 150.473 3.14844 150.684 3.43359C150.895 3.71875 151.053 4.06055 151.158 4.45898C151.268 4.85352 151.322 5.29297 151.322 5.77734ZM150.232 5.90039V5.77734C150.232 5.46094 150.199 5.16406 150.133 4.88672C150.066 4.60547 149.963 4.35938 149.822 4.14844C149.686 3.93359 149.51 3.76562 149.295 3.64453C149.08 3.51953 148.824 3.45703 148.527 3.45703C148.254 3.45703 148.016 3.50391 147.812 3.59766C147.613 3.69141 147.443 3.81836 147.303 3.97852C147.162 4.13477 147.047 4.31445 146.957 4.51758C146.871 4.7168 146.807 4.92383 146.764 5.13867V6.65625C146.842 6.92969 146.951 7.1875 147.092 7.42969C147.232 7.66797 147.42 7.86133 147.654 8.00977C147.889 8.1543 148.184 8.22656 148.539 8.22656C148.832 8.22656 149.084 8.16602 149.295 8.04492C149.51 7.91992 149.686 7.75 149.822 7.53516C149.963 7.32031 150.066 7.07422 150.133 6.79688C150.199 6.51562 150.232 6.2168 150.232 5.90039ZM152.418 5.90039V5.76562C152.418 5.30859 152.484 4.88477 152.617 4.49414C152.75 4.09961 152.941 3.75781 153.191 3.46875C153.441 3.17578 153.744 2.94922 154.1 2.78906C154.455 2.625 154.854 2.54297 155.295 2.54297C155.74 2.54297 156.141 2.625 156.496 2.78906C156.855 2.94922 157.16 3.17578 157.41 3.46875C157.664 3.75781 157.857 4.09961 157.99 4.49414C158.123 4.88477 158.189 5.30859 158.189 5.76562V5.90039C158.189 6.35742 158.123 6.78125 157.99 7.17188C157.857 7.5625 157.664 7.9043 157.41 8.19727C157.16 8.48633 156.857 8.71289 156.502 8.87695C156.15 9.03711 155.752 9.11719 155.307 9.11719C154.861 9.11719 154.461 9.03711 154.105 8.87695C153.75 8.71289 153.445 8.48633 153.191 8.19727C152.941 7.9043 152.75 7.5625 152.617 7.17188C152.484 6.78125 152.418 6.35742 152.418 5.90039ZM153.502 5.76562V5.90039C153.502 6.2168 153.539 6.51562 153.613 6.79688C153.688 7.07422 153.799 7.32031 153.947 7.53516C154.1 7.75 154.289 7.91992 154.516 8.04492C154.742 8.16602 155.006 8.22656 155.307 8.22656C155.604 8.22656 155.863 8.16602 156.086 8.04492C156.312 7.91992 156.5 7.75 156.648 7.53516C156.797 7.32031 156.908 7.07422 156.982 6.79688C157.061 6.51562 157.1 6.2168 157.1 5.90039V5.76562C157.1 5.45312 157.061 5.1582 156.982 4.88086C156.908 4.59961 156.795 4.35156 156.643 4.13672C156.494 3.91797 156.307 3.74609 156.08 3.62109C155.857 3.49609 155.596 3.43359 155.295 3.43359C154.998 3.43359 154.736 3.49609 154.51 3.62109C154.287 3.74609 154.1 3.91797 153.947 4.13672C153.799 4.35156 153.688 4.59961 153.613 4.88086C153.539 5.1582 153.502 5.45312 153.502 5.76562ZM163.545 7.76953V0H164.635V9H163.639L163.545 7.76953ZM159.279 5.90039V5.77734C159.279 5.29297 159.338 4.85352 159.455 4.45898C159.576 4.06055 159.746 3.71875 159.965 3.43359C160.188 3.14844 160.451 2.92969 160.756 2.77734C161.064 2.62109 161.408 2.54297 161.787 2.54297C162.186 2.54297 162.533 2.61328 162.83 2.75391C163.131 2.89062 163.385 3.0918 163.592 3.35742C163.803 3.61914 163.969 3.93555 164.09 4.30664C164.211 4.67773 164.295 5.09766 164.342 5.56641V6.10547C164.299 6.57031 164.215 6.98828 164.09 7.35938C163.969 7.73047 163.803 8.04688 163.592 8.30859C163.385 8.57031 163.131 8.77148 162.83 8.91211C162.529 9.04883 162.178 9.11719 161.775 9.11719C161.404 9.11719 161.064 9.03711 160.756 8.87695C160.451 8.7168 160.188 8.49219 159.965 8.20312C159.746 7.91406 159.576 7.57422 159.455 7.18359C159.338 6.78906 159.279 6.36133 159.279 5.90039ZM160.369 5.77734V5.90039C160.369 6.2168 160.4 6.51367 160.463 6.79102C160.529 7.06836 160.631 7.3125 160.768 7.52344C160.904 7.73438 161.078 7.90039 161.289 8.02148C161.5 8.13867 161.752 8.19727 162.045 8.19727C162.404 8.19727 162.699 8.12109 162.93 7.96875C163.164 7.81641 163.352 7.61523 163.492 7.36523C163.633 7.11523 163.742 6.84375 163.82 6.55078V5.13867C163.773 4.92383 163.705 4.7168 163.615 4.51758C163.529 4.31445 163.416 4.13477 163.275 3.97852C163.139 3.81836 162.969 3.69141 162.766 3.59766C162.566 3.50391 162.33 3.45703 162.057 3.45703C161.76 3.45703 161.504 3.51953 161.289 3.64453C161.078 3.76562 160.904 3.93359 160.768 4.14844C160.631 4.35938 160.529 4.60547 160.463 4.88672C160.4 5.16406 160.369 5.46094 160.369 5.77734ZM167.4 3.91992V9H166.311V2.66016H167.342L167.4 3.91992ZM167.178 5.58984L166.674 5.57227C166.678 5.13867 166.734 4.73828 166.844 4.37109C166.953 4 167.115 3.67773 167.33 3.4043C167.545 3.13086 167.812 2.91992 168.133 2.77148C168.453 2.61914 168.824 2.54297 169.246 2.54297C169.543 2.54297 169.816 2.58594 170.066 2.67188C170.316 2.75391 170.533 2.88477 170.717 3.06445C170.9 3.24414 171.043 3.47461 171.145 3.75586C171.246 4.03711 171.297 4.37695 171.297 4.77539V9H170.213V4.82812C170.213 4.49609 170.156 4.23047 170.043 4.03125C169.934 3.83203 169.777 3.6875 169.574 3.59766C169.371 3.50391 169.133 3.45703 168.859 3.45703C168.539 3.45703 168.271 3.51367 168.057 3.62695C167.842 3.74023 167.67 3.89648 167.541 4.0957C167.412 4.29492 167.318 4.52344 167.26 4.78125C167.205 5.03516 167.178 5.30469 167.178 5.58984ZM171.285 4.99219L170.559 5.21484C170.562 4.86719 170.619 4.5332 170.729 4.21289C170.842 3.89258 171.004 3.60742 171.215 3.35742C171.43 3.10742 171.693 2.91016 172.006 2.76562C172.318 2.61719 172.676 2.54297 173.078 2.54297C173.418 2.54297 173.719 2.58789 173.98 2.67773C174.246 2.76758 174.469 2.90625 174.648 3.09375C174.832 3.27734 174.971 3.51367 175.064 3.80273C175.158 4.0918 175.205 4.43555 175.205 4.83398V9H174.115V4.82227C174.115 4.4668 174.059 4.19141 173.945 3.99609C173.836 3.79688 173.68 3.6582 173.477 3.58008C173.277 3.49805 173.039 3.45703 172.762 3.45703C172.523 3.45703 172.312 3.49805 172.129 3.58008C171.945 3.66211 171.791 3.77539 171.666 3.91992C171.541 4.06055 171.445 4.22266 171.379 4.40625C171.316 4.58984 171.285 4.78516 171.285 4.99219ZM178.023 2.66016V9H176.934V2.66016H178.023ZM176.852 0.978516C176.852 0.802734 176.904 0.654297 177.01 0.533203C177.119 0.412109 177.279 0.351562 177.49 0.351562C177.697 0.351562 177.855 0.412109 177.965 0.533203C178.078 0.654297 178.135 0.802734 178.135 0.978516C178.135 1.14648 178.078 1.29102 177.965 1.41211C177.855 1.5293 177.697 1.58789 177.49 1.58789C177.279 1.58789 177.119 1.5293 177.01 1.41211C176.904 1.29102 176.852 1.14648 176.852 0.978516ZM182.395 9.11719C181.953 9.11719 181.553 9.04297 181.193 8.89453C180.838 8.74219 180.531 8.5293 180.273 8.25586C180.02 7.98242 179.824 7.6582 179.688 7.2832C179.551 6.9082 179.482 6.49805 179.482 6.05273V5.80664C179.482 5.29102 179.559 4.83203 179.711 4.42969C179.863 4.02344 180.07 3.67969 180.332 3.39844C180.594 3.11719 180.891 2.9043 181.223 2.75977C181.555 2.61523 181.898 2.54297 182.254 2.54297C182.707 2.54297 183.098 2.62109 183.426 2.77734C183.758 2.93359 184.029 3.15234 184.24 3.43359C184.451 3.71094 184.607 4.03906 184.709 4.41797C184.811 4.79297 184.861 5.20312 184.861 5.64844V6.13477H180.127V5.25H183.777V5.16797C183.762 4.88672 183.703 4.61328 183.602 4.34766C183.504 4.08203 183.348 3.86328 183.133 3.69141C182.918 3.51953 182.625 3.43359 182.254 3.43359C182.008 3.43359 181.781 3.48633 181.574 3.5918C181.367 3.69336 181.189 3.8457 181.041 4.04883C180.893 4.25195 180.777 4.5 180.695 4.79297C180.613 5.08594 180.572 5.42383 180.572 5.80664V6.05273C180.572 6.35352 180.613 6.63672 180.695 6.90234C180.781 7.16406 180.904 7.39453 181.064 7.59375C181.229 7.79297 181.426 7.94922 181.656 8.0625C181.891 8.17578 182.156 8.23242 182.453 8.23242C182.836 8.23242 183.16 8.1543 183.426 7.99805C183.691 7.8418 183.924 7.63281 184.123 7.37109L184.779 7.89258C184.643 8.09961 184.469 8.29688 184.258 8.48438C184.047 8.67188 183.787 8.82422 183.479 8.94141C183.174 9.05859 182.812 9.11719 182.395 9.11719ZM187.211 4.01367V9H186.127V2.66016H187.152L187.211 4.01367ZM186.953 5.58984L186.502 5.57227C186.506 5.13867 186.57 4.73828 186.695 4.37109C186.82 4 186.996 3.67773 187.223 3.4043C187.449 3.13086 187.719 2.91992 188.031 2.77148C188.348 2.61914 188.697 2.54297 189.08 2.54297C189.393 2.54297 189.674 2.58594 189.924 2.67188C190.174 2.75391 190.387 2.88672 190.562 3.07031C190.742 3.25391 190.879 3.49219 190.973 3.78516C191.066 4.07422 191.113 4.42773 191.113 4.8457V9H190.023V4.83398C190.023 4.50195 189.975 4.23633 189.877 4.03711C189.779 3.83398 189.637 3.6875 189.449 3.59766C189.262 3.50391 189.031 3.45703 188.758 3.45703C188.488 3.45703 188.242 3.51367 188.02 3.62695C187.801 3.74023 187.611 3.89648 187.451 4.0957C187.295 4.29492 187.172 4.52344 187.082 4.78125C186.996 5.03516 186.953 5.30469 186.953 5.58984ZM193.938 2.66016V9H192.848V2.66016H193.938ZM192.766 0.978516C192.766 0.802734 192.818 0.654297 192.924 0.533203C193.033 0.412109 193.193 0.351562 193.404 0.351562C193.611 0.351562 193.77 0.412109 193.879 0.533203C193.992 0.654297 194.049 0.802734 194.049 0.978516C194.049 1.14648 193.992 1.29102 193.879 1.41211C193.77 1.5293 193.611 1.58789 193.404 1.58789C193.193 1.58789 193.033 1.5293 192.924 1.41211C192.818 1.29102 192.766 1.14648 192.766 0.978516ZM198.215 8.22656C198.473 8.22656 198.711 8.17383 198.93 8.06836C199.148 7.96289 199.328 7.81836 199.469 7.63477C199.609 7.44727 199.689 7.23438 199.709 6.99609H200.74C200.721 7.37109 200.594 7.7207 200.359 8.04492C200.129 8.36523 199.826 8.625 199.451 8.82422C199.076 9.01953 198.664 9.11719 198.215 9.11719C197.738 9.11719 197.322 9.0332 196.967 8.86523C196.615 8.69727 196.322 8.4668 196.088 8.17383C195.857 7.88086 195.684 7.54492 195.566 7.16602C195.453 6.7832 195.396 6.37891 195.396 5.95312V5.70703C195.396 5.28125 195.453 4.87891 195.566 4.5C195.684 4.11719 195.857 3.7793 196.088 3.48633C196.322 3.19336 196.615 2.96289 196.967 2.79492C197.322 2.62695 197.738 2.54297 198.215 2.54297C198.711 2.54297 199.145 2.64453 199.516 2.84766C199.887 3.04688 200.178 3.32031 200.389 3.66797C200.604 4.01172 200.721 4.40234 200.74 4.83984H199.709C199.689 4.57812 199.615 4.3418 199.486 4.13086C199.361 3.91992 199.189 3.75195 198.971 3.62695C198.756 3.49805 198.504 3.43359 198.215 3.43359C197.883 3.43359 197.604 3.5 197.377 3.63281C197.154 3.76172 196.977 3.9375 196.844 4.16016C196.715 4.37891 196.621 4.62305 196.562 4.89258C196.508 5.1582 196.48 5.42969 196.48 5.70703V5.95312C196.48 6.23047 196.508 6.50391 196.562 6.77344C196.617 7.04297 196.709 7.28711 196.838 7.50586C196.971 7.72461 197.148 7.90039 197.371 8.0332C197.598 8.16211 197.879 8.22656 198.215 8.22656ZM197.377 1.72266L198.514 0H199.82L198.25 1.72266H197.377ZM202.943 7.71094V8.58398C202.943 8.93945 202.854 9.31445 202.674 9.70898C202.494 10.1074 202.242 10.4395 201.918 10.7051L201.303 10.2773C201.428 10.1055 201.533 9.92969 201.619 9.75C201.705 9.57422 201.77 9.39062 201.812 9.19922C201.859 9.01172 201.883 8.8125 201.883 8.60156V7.71094H202.943ZM208.48 0V9H207.391V0H208.48ZM214.1 7.53516V2.66016H215.189V9H214.152L214.1 7.53516ZM214.305 6.19922L214.756 6.1875C214.756 6.60938 214.711 7 214.621 7.35938C214.535 7.71484 214.395 8.02344 214.199 8.28516C214.004 8.54688 213.748 8.75195 213.432 8.90039C213.115 9.04492 212.73 9.11719 212.277 9.11719C211.969 9.11719 211.686 9.07227 211.428 8.98242C211.174 8.89258 210.955 8.75391 210.771 8.56641C210.588 8.37891 210.445 8.13477 210.344 7.83398C210.246 7.5332 210.197 7.17188 210.197 6.75V2.66016H211.281V6.76172C211.281 7.04688 211.312 7.2832 211.375 7.4707C211.441 7.6543 211.529 7.80078 211.639 7.91016C211.752 8.01562 211.877 8.08984 212.014 8.13281C212.154 8.17578 212.299 8.19727 212.447 8.19727C212.908 8.19727 213.273 8.10938 213.543 7.93359C213.812 7.75391 214.006 7.51367 214.123 7.21289C214.244 6.9082 214.305 6.57031 214.305 6.19922ZM216.836 0H217.926V7.76953L217.832 9H216.836V0ZM222.209 5.77734V5.90039C222.209 6.36133 222.154 6.78906 222.045 7.18359C221.936 7.57422 221.775 7.91406 221.564 8.20312C221.354 8.49219 221.096 8.7168 220.791 8.87695C220.486 9.03711 220.137 9.11719 219.742 9.11719C219.34 9.11719 218.986 9.04883 218.682 8.91211C218.381 8.77148 218.127 8.57031 217.92 8.30859C217.713 8.04688 217.547 7.73047 217.422 7.35938C217.301 6.98828 217.217 6.57031 217.17 6.10547V5.56641C217.217 5.09766 217.301 4.67773 217.422 4.30664C217.547 3.93555 217.713 3.61914 217.92 3.35742C218.127 3.0918 218.381 2.89062 218.682 2.75391C218.982 2.61328 219.332 2.54297 219.73 2.54297C220.129 2.54297 220.482 2.62109 220.791 2.77734C221.1 2.92969 221.357 3.14844 221.564 3.43359C221.775 3.71875 221.936 4.06055 222.045 4.45898C222.154 4.85352 222.209 5.29297 222.209 5.77734ZM221.119 5.90039V5.77734C221.119 5.46094 221.09 5.16406 221.031 4.88672C220.973 4.60547 220.879 4.35938 220.75 4.14844C220.621 3.93359 220.451 3.76562 220.24 3.64453C220.029 3.51953 219.77 3.45703 219.461 3.45703C219.188 3.45703 218.949 3.50391 218.746 3.59766C218.547 3.69141 218.377 3.81836 218.236 3.97852C218.096 4.13477 217.98 4.31445 217.891 4.51758C217.805 4.7168 217.74 4.92383 217.697 5.13867V6.55078C217.76 6.82422 217.861 7.08789 218.002 7.3418C218.146 7.5918 218.338 7.79688 218.576 7.95703C218.818 8.11719 219.117 8.19727 219.473 8.19727C219.766 8.19727 220.016 8.13867 220.223 8.02148C220.434 7.90039 220.604 7.73438 220.732 7.52344C220.865 7.3125 220.963 7.06836 221.025 6.79102C221.088 6.51367 221.119 6.2168 221.119 5.90039Z" fill="#666666"/>

</svg>
