<svg width="52" height="52" viewBox="0 0 52 52" fill="none" xmlns="http://www.w3.org/2000/svg">
<path opacity="0.1" d="M26.1166 3.40694C30.3407 0.313429 47.3435 19.2255 46.6056 20.5979C46.406 20.969 45.8805 21.817 45.4795 21.9465C44.7499 22.1819 29.3149 10.3092 29.3149 10.3092C29.3149 10.3092 51.9447 29.7126 51.5799 30.5351C51.2151 31.3576 49.7401 33.4863 48.3365 34.4193C46.801 35.4399 33.4677 27.7687 33.4677 27.7687C33.4677 27.7687 42.8497 38.7277 41.8732 40.4109C40.1817 43.3266 34.6405 47.6849 34.078 47.8187C32.9044 48.0979 23.0263 36.9621 22.5556 37.5258C22.0849 38.0895 27.4307 44.8469 27.4307 44.8469C27.4307 44.8469 26.4315 46.7892 25.8649 47.413C24.684 48.7132 -0.46664 28.9649 0.4989 26.7556C1.08951 25.4042 2.17198 24.1079 3.49761 22.5204C4.82324 20.9328 5.07305 20.7952 5.64081 20.5979C6.20858 20.4005 28.0054 34.3101 28.0054 34.3101C28.0054 34.3101 3.52931 11.4088 4.64922 9.18425C6.16497 6.17339 6.77643 5.429 9.47348 3.40694C11.2965 2.04021 39.1664 23.873 39.1664 23.873C39.1664 23.873 22.5731 8.80432 23.3504 6.71968C23.9392 5.14044 24.7568 4.40278 26.1166 3.40694Z" fill="#B2B2B2"/>
<path fill-rule="evenodd" clip-rule="evenodd" d="M40.25 23.2899L40.74 23.4898L39.99 24.3998L40.25 23.2899Z" fill="#B2B2B2"/>
<path fill-rule="evenodd" clip-rule="evenodd" d="M43.1599 17.1599L39.5099 22.2798L39.4899 22.3098C39.46 22.3499 39.4399 22.3998 39.4199 22.4498C39.4099 22.4598 39.4099 22.4698 39.4099 22.4799L38.9899 24.2899L38.4299 22.0898L43.1599 17.1599Z" fill="#E5E5E5"/>
<path fill-rule="evenodd" clip-rule="evenodd" d="M44.9199 13.8798L37.7499 21.3598L34.1699 19.8598L44.9199 13.8798Z" fill="#E5E5E5"/>
<path fill-rule="evenodd" clip-rule="evenodd" d="M46.6699 13.9799L44.78 24.0798L40.6699 22.3798L46.6699 13.9799Z" fill="#E5E5E5"/>
<path fill-rule="evenodd" clip-rule="evenodd" d="M38.7 27.7699C38.45 27.6499 38.15 27.7498 38.03 27.9998C37.89 28.2899 37.7399 28.5598 37.58 28.8098C37.4299 29.0399 37.5 29.3499 37.7399 29.4998C37.9699 29.6398 38.28 29.5698 38.4299 29.3399C38.5999 29.0598 38.77 28.7598 38.9299 28.4398C39.0499 28.1898 38.95 27.8898 38.7 27.7699ZM21.33 30.0098C20.7199 30.0199 20.07 30.0798 19.3699 30.1898C19.0999 30.2398 18.9099 30.4898 18.96 30.7598C18.9999 31.0399 19.26 31.2199 19.53 31.1798C20.1799 31.0798 20.7899 31.0199 21.3499 31.0098C21.6199 31.0098 21.84 30.7799 21.84 30.5098C21.84 30.2299 21.6099 30.0098 21.33 30.0098ZM37.15 30.2299C36.96 30.0299 36.64 30.0299 36.44 30.2199C35.9899 30.6499 35.4999 30.9898 34.9799 31.2699C34.7399 31.3898 34.64 31.6998 34.77 31.9398C34.9 32.1898 35.2 32.2799 35.45 32.1499C36.0399 31.8399 36.6099 31.4398 37.13 30.9398C37.33 30.7498 37.34 30.4298 37.15 30.2299ZM25.2399 31.0999C24.69 30.6798 24.0599 30.3898 23.3499 30.2199C23.08 30.1499 22.8099 30.3198 22.7399 30.5899C22.6799 30.8499 22.84 31.1198 23.1099 31.1898C23.71 31.3399 24.21 31.5698 24.64 31.8898C24.8599 32.0598 25.1699 32.0199 25.34 31.7998C25.4999 31.5798 25.46 31.2598 25.2399 31.0999ZM18.07 30.9498C18.01 30.6798 17.7299 30.5199 17.4699 30.5899C17.1599 30.6699 16.8499 30.7498 16.53 30.8399C16.1799 30.9498 15.8499 31.0798 15.5399 31.2299C15.2999 31.3598 15.2 31.6599 15.32 31.8999C15.45 32.1499 15.7499 32.2498 15.9899 32.1198C16.2499 31.9998 16.52 31.8898 16.8099 31.8098C17.1199 31.7199 17.4199 31.6298 17.71 31.5598C17.9799 31.4898 18.14 31.2199 18.07 30.9498ZM33.89 32.2699C33.82 31.9998 33.5499 31.8399 33.28 31.9099C32.69 32.0598 32.07 32.1499 31.44 32.2099C31.1599 32.2398 30.96 32.4799 30.9899 32.7498C31.01 33.0299 31.26 33.2299 31.53 33.2099C32.2 33.1398 32.8699 33.0399 33.52 32.8798C33.7899 32.8098 33.95 32.5399 33.89 32.2699ZM29.5399 32.2998H27.5999C27.32 32.2998 27.0999 32.5299 27.0999 32.7998C27.0999 33.0798 27.33 33.2998 27.5999 33.2998H29.5499C29.83 33.2998 30.0499 33.0698 30.0499 32.7899C30.0399 32.5199 29.8099 32.2998 29.5399 32.2998ZM14.58 32.4699C14.38 32.2799 14.0599 32.2799 13.8699 32.4799C13.39 32.9699 12.9799 33.5199 12.6099 34.0598C12.46 34.2899 12.52 34.5999 12.7399 34.7598C12.9699 34.9099 13.28 34.8499 13.44 34.6298C13.7999 34.0999 14.1699 33.6098 14.59 33.1798C14.78 32.9799 14.77 32.6699 14.58 32.4699ZM26.59 32.6998C26.4699 32.4799 26.21 32.3898 25.9799 32.4699C25.88 32.3898 25.76 32.3499 25.6199 32.3598C24.9299 32.4099 24.2499 32.4998 23.6099 32.6699C23.34 32.7398 23.19 33.0199 23.26 33.2799C23.33 33.5498 23.6099 33.7099 23.8699 33.6398C24.4299 33.4799 25.0399 33.3999 25.69 33.3499C25.7299 33.3499 25.76 33.3499 25.7899 33.3399C25.9999 33.7598 26.1699 34.2598 26.2999 34.8298C26.3599 35.0999 26.6199 35.2699 26.89 35.2199C27.1599 35.1599 27.33 34.8898 27.28 34.6198C27.1199 33.8999 26.89 33.2598 26.59 32.6998ZM22.4 33.6798C22.2299 33.4599 21.9099 33.4199 21.69 33.5899C21.4099 33.8098 21.15 34.0598 20.9199 34.3499C20.65 34.6898 20.45 35.0299 20.2999 35.3698C20.19 35.6198 20.3099 35.9199 20.5599 36.0299C20.8099 36.1398 21.1099 36.0199 21.2199 35.7699C21.33 35.5098 21.4799 35.2498 21.7 34.9799C21.88 34.7498 22.09 34.5498 22.3099 34.3798C22.53 34.2099 22.57 33.8999 22.4 33.6798ZM12.2399 35.5498C12.01 35.3999 11.7 35.4599 11.5499 35.6898C11.19 36.2398 10.83 36.7299 10.4299 37.1499C10.2399 37.3499 10.2499 37.6699 10.45 37.8598C10.65 38.0498 10.96 38.0399 11.15 37.8399C11.6099 37.3598 12.01 36.7998 12.39 36.2398C12.5399 36.0098 12.4799 35.6998 12.2399 35.5498ZM27.53 36.5799C27.51 36.3098 27.28 36.0899 26.9999 36.1098C26.7299 36.1198 26.51 36.3598 26.53 36.6398C26.5499 36.9298 26.5499 37.2398 26.5499 37.5598C26.5499 37.9199 26.52 38.2299 26.46 38.4998C26.39 38.7699 26.5599 39.0399 26.83 39.0999C27.0999 39.1599 27.3699 38.9998 27.4299 38.7299C27.51 38.3798 27.5499 37.9898 27.5499 37.5598C27.5499 37.2199 27.5499 36.8999 27.53 36.5799ZM22.15 38.9799C21.6599 38.5598 21.2999 38.0399 21.1199 37.4799C21.0399 37.2199 20.76 37.0698 20.4899 37.1599C20.2299 37.2398 20.08 37.5199 20.1699 37.7799C20.4099 38.5498 20.9 39.2199 21.4899 39.7398C21.7 39.9199 22.02 39.8999 22.2 39.6898C22.38 39.4799 22.3599 39.1599 22.15 38.9799ZM5.57997 38.0698C5.29994 37.9898 5.00996 37.8898 4.69996 37.7598C4.43995 37.6599 4.14997 37.7899 4.04994 38.0498C3.94996 38.3098 4.07997 38.5999 4.32997 38.6998C4.66993 38.8299 4.97993 38.9398 5.28993 39.0299C5.54994 39.1098 5.82997 38.9599 5.90992 38.6998C5.98994 38.4298 5.84992 38.1499 5.57997 38.0698ZM9.68995 38.4199C9.57997 38.1599 9.28993 38.0399 9.02998 38.1398C8.56996 38.3399 8.01997 38.4398 7.34992 38.4099C7.07997 38.3898 6.84992 38.6098 6.82997 38.8798C6.81996 39.1599 7.02998 39.3898 7.30995 39.4099C8.10993 39.4398 8.79994 39.3198 9.40992 39.0698C9.66993 38.9599 9.78993 38.6699 9.68995 38.4199ZM26.1799 40.0399C26.0599 39.7899 25.76 39.6898 25.52 39.8098C25.0599 40.0299 24.45 40.0598 23.7999 39.8798C23.53 39.8098 23.26 39.9599 23.1799 40.2299C23.1099 40.4898 23.27 40.7699 23.53 40.8399C24.34 41.0698 25.21 41.0698 25.95 40.7099C26.2 40.5899 26.2999 40.2899 26.1799 40.0399Z" fill="#B2B2B2"/>
<path fill-rule="evenodd" clip-rule="evenodd" d="M48.0399 11.6599V11.6498C48.0399 11.6298 48.03 11.6198 48.02 11.6098C48.01 11.5898 48 11.5798 47.9899 11.5598C47.9799 11.5298 47.95 11.4898 47.9099 11.4598C47.9 11.4498 47.89 11.4398 47.8699 11.4298C47.83 11.4099 47.7999 11.3898 47.76 11.3798C47.7299 11.3698 47.71 11.3598 47.6799 11.3499H47.6699C47.64 11.3398 47.6099 11.3398 47.58 11.3398C47.5499 11.3398 47.52 11.3398 47.4799 11.3499C47.45 11.3499 47.4199 11.3698 47.39 11.3798C47.3599 11.3898 47.34 11.3998 47.32 11.4099C47.32 11.4099 47.31 11.4099 47.31 11.4199L32.78 19.4898C32.6099 19.5898 32.51 19.7698 32.52 19.9598C32.53 20.1498 32.65 20.3198 32.83 20.3898L37.45 22.3198L38.52 26.5098C38.5399 26.6098 38.5999 26.7098 38.69 26.7899C38.82 26.8998 38.9899 26.9199 39.14 26.8798C39.1699 26.8698 39.19 26.8698 39.21 26.8499C39.28 26.8298 39.34 26.7798 39.39 26.7198L39.4299 26.6699L41.7 23.8898L44.96 25.2398C45.0999 25.2998 45.26 25.2899 45.39 25.2198C45.52 25.1498 45.6199 25.0198 45.64 24.8698L48.06 11.9898C48.0499 11.9998 48.0499 12.0098 48.0399 12.0198C48.0499 11.9998 48.06 11.9898 48.06 11.9698V11.9498H48.07C48.09 11.8798 48.09 11.8098 48.07 11.7398C48.07 11.7398 48.07 11.7299 48.07 11.7198C48.06 11.6998 48.0499 11.6798 48.0399 11.6599ZM34.1699 19.8598L44.9199 13.8798L37.75 21.3598L34.1699 19.8598ZM39.4899 22.3098C39.46 22.3499 39.44 22.3998 39.4199 22.4498C39.4099 22.4598 39.4099 22.4698 39.4099 22.4799L38.9899 24.2899L38.4299 22.0898L43.1599 17.1599L39.51 22.2798L39.4899 22.3098ZM39.9899 24.3998L40.25 23.2899L40.7399 23.4898L39.9899 24.3998ZM44.78 24.0798L40.6699 22.3798L46.6699 13.9799L44.78 24.0798Z" fill="#B2B2B2"/>
</svg>
