<?xml version="1.0" encoding="utf-8"?>
<!-- Generator: Adobe Illustrator 26.5.0, SVG Export Plug-In . SVG Version: 6.00 Build 0)  -->
<svg version="1.1" id="Warstwa_1" xmlns="http://www.w3.org/2000/svg" xmlns:xlink="http://www.w3.org/1999/xlink" x="0px" y="0px"
	 width="52px" height="52px" viewBox="0 0 52 52" style="enable-background:new 0 0 52 52;" xml:space="preserve">
<g>
	<path style="opacity:0.1;fill:#B2B2B2;enable-background:new    ;" d="M26.0914288,3.9627576
		c4.2199993-3.0899973,21.2299976,15.8199806,20.4899998,17.1899815c-0.2000008,0.3699989-0.7299995,1.2199993-1.1300011,1.3500004
		c-0.7299995,0.2399998-16.1599998-11.6400013-16.1599998-11.6400013s22.6300011,19.3999996,22.2600021,20.2300014
		c-0.3600006,0.8199997-1.8400002,2.9500008-3.2400017,3.8799973c-1.5400009,1.0200005-14.8699989-6.6499977-14.8699989-6.6499977
		s9.3799973,10.9599991,8.4099998,12.6399994c-1.6900024,2.920002-7.2299995,7.2700005-7.7999992,7.4099998
		c-1.170002,0.2799988-11.0500011-10.8600006-11.5200024-10.2900009c-0.4699993,0.5600014,4.8800011,7.3199997,4.8800011,7.3199997
		s-1,1.9400024-1.5699997,2.5699997C24.6514282,49.2627373-0.4985709,29.5127373,0.4714291,27.3127384
		c0.589998-1.3500004,1.6699979-2.6499996,2.9999979-4.2399998s1.5799999-1.7299995,2.1399999-1.9200001
		c0.5700002-0.2000008,22.3600006,13.710001,22.3600006,13.710001S3.4914269,11.9627371,4.6114268,9.7327576
		c1.52-3.0100002,2.1300001-3.7600002,4.8200002-5.7800002C11.2514267,2.5827575,39.1214294,24.422739,39.1214294,24.422739
		S22.5314274,9.3527575,23.3014278,7.2727571c0.5900002-1.5799999,1.4099998-2.3199997,2.7700005-3.3099995H26.0914288z"/>
	<path style="fill:#FFFFFF;" d="M9.2714767,17.4527378h34.4000511v21.5000019H9.2714767V17.4527378z"/>
	<path style="fill:#EDEDED;" d="M9.2714767,21.752739h34.4000511v21.5H9.2714767V21.752739z"/>
	<path style="fill-rule:evenodd;clip-rule:evenodd;fill:#FFFFFF;" d="M13.9297266,43.0324364
		c-0.4946995,0-0.8957996-0.4010963-0.8957996-0.8957977v-16.125c0-0.4948006,0.4011002-0.8957996,0.8957996-0.8957996h25.0834007
		c0.4947014,0,0.8958015,0.4009991,0.8958015,0.8957996v16.125c0,0.4947014-0.4011002,0.8957977-0.8958015,0.8957977"/>
	<path style="fill-rule:evenodd;clip-rule:evenodd;fill:#B2B2B2;" d="M5.3672972,43.0324364c0-0.2760963,0.2238598-0.5,0.5-0.5
		h41.2083282c0.2761002,0,0.5,0.2239037,0.5,0.5c0,0.2762032-0.2238998,0.5-0.5,0.5H5.8672972
		C5.591157,43.5324364,5.3672972,43.3086395,5.3672972,43.0324364z"/>
	<path style="fill-rule:evenodd;clip-rule:evenodd;fill:#B2B2B2;" d="M9.4506769,21.0324383c0.2761402,0,0.5,0.2238998,0.5,0.5
		v21.4999981c0,0.2762032-0.2238598,0.5-0.5,0.5c-0.2761497,0-0.5-0.2237968-0.5-0.5V21.5324383
		C8.9506769,21.2563381,9.1745272,21.0324383,9.4506769,21.0324383z"/>
	<path style="fill-rule:evenodd;clip-rule:evenodd;fill:#B2B2B2;" d="M43.4922295,21.0324383c0.2761993,0,0.5,0.2238998,0.5,0.5
		v21.4999981c0,0.2762032-0.2238007,0.5-0.5,0.5c-0.2761002,0-0.5-0.2237968-0.5-0.5V21.5324383
		C42.9922295,21.2563381,43.2161293,21.0324383,43.4922295,21.0324383z"/>
	<path style="fill-rule:evenodd;clip-rule:evenodd;fill:#FFFFFF;" d="M47.0756264,18.5368385
		c-0.0001984-0.3561001-0.2111969-0.6781998-0.5374985-0.8206005L26.8297272,9.146677
		c-0.2283993-0.0997-0.4881001-0.0997-0.7165985,0L6.4047971,17.716238
		c-0.3263102,0.1424007-0.5373101,0.4645004-0.5374999,0.8206005v2.0998001c0,0.4946995,0.4010797,0.8957996,0.8958397,0.8957996
		h39.4165916c0.4947968,0,0.8958969-0.4011002,0.8958969-0.8957996V18.5368385L47.0756264,18.5368385z"/>
	<path style="fill-rule:evenodd;clip-rule:evenodd;fill:#B2B2B2;" d="M27.0291271,8.6881676
		c-0.3557987-0.1550999-0.7600994-0.1549997-1.115799,0.0001993L27.0291271,8.6881676z M27.0291271,8.6881676l19.7084026,8.5694714
		c0.5084,0.221899,0.8377991,0.7241001,0.8380966,1.2789001v2.1000996c0,0.7708988-0.625,1.3957996-1.3958969,1.3957996H6.7631369
		c-0.7708998,0-1.3958397-0.6249008-1.3958397-1.3957996v-2.0998001c0.0002899-0.5548,0.3290596-1.0570011,0.8374996-1.2789001
		l19.7085304-8.5695715c0,0-0.0001011,0,0,0 M26.6297283,9.6049671c-0.1009007-0.0440998-0.2157001-0.0440998-0.3166008,0
		L6.6047969,18.1744385c-0.0001197,0.0000992,0.0001302,0,0,0c-0.14394,0.0629997-0.23738,0.2054005-0.2374997,0.3624992v2.0997009
		c0,0.2185993,0.1772199,0.3957996,0.3958397,0.3957996h39.4165916c0.2186966,0,0.3958969-0.1772003,0.3958969-0.3957996v-2.0995998
		c-0.0000992-0.1573009-0.0932999-0.2996006-0.2374992-0.3626003L26.6297283,9.6049671z"/>
	<path style="fill-rule:evenodd;clip-rule:evenodd;fill:#B2B2B2;" d="M15.971427,30.0527382c0-0.2761002,0.2239008-0.5,0.500001-0.5
		h20c0.2761002,0,0.5,0.2238998,0.5,0.5s-0.2238998,0.5-0.5,0.5h-20
		C16.1953278,30.5527382,15.971427,30.3288383,15.971427,30.0527382z"/>
	<path style="fill-rule:evenodd;clip-rule:evenodd;fill:#B2B2B2;" d="M15.971427,33.0527382c0-0.2761002,0.2239008-0.5,0.500001-0.5
		h20c0.2761002,0,0.5,0.2238998,0.5,0.5s-0.2238998,0.5-0.5,0.5h-20
		C16.1953278,33.5527382,15.971427,33.3288383,15.971427,33.0527382z"/>
	<path style="fill-rule:evenodd;clip-rule:evenodd;fill:#B2B2B2;" d="M15.971427,36.0527382c0-0.2761002,0.2239008-0.5,0.500001-0.5
		h20c0.2761002,0,0.5,0.2238998,0.5,0.5s-0.2238998,0.5-0.5,0.5h-20
		C16.1953278,36.5527382,15.971427,36.3288383,15.971427,36.0527382z"/>
	<path style="fill-rule:evenodd;clip-rule:evenodd;fill:#B2B2B2;" d="M15.971427,39.0527382c0-0.2761002,0.2239008-0.5,0.500001-0.5
		h20c0.2761002,0,0.5,0.2238998,0.5,0.5s-0.2238998,0.5-0.5,0.5h-20
		C16.1953278,39.5527382,15.971427,39.3288383,15.971427,39.0527382z"/>
</g>
</svg>
